<svg width="127" height="56" viewBox="0 0 127 56" fill="none" xmlns="http://www.w3.org/2000/svg">
<mask id="mask0_17682_8340" style="mask-type:luminance" maskUnits="userSpaceOnUse" x="0" y="0" width="127" height="56">
<path d="M127 0H0V56H127V0Z" fill="white"/>
</mask>
<g mask="url(#mask0_17682_8340)">
<path d="M0 54.9549L3.3646 45.7667H4.99512L8.35973 54.9549H6.86261L6.00961 52.5233H2.35539L1.49713 54.9549H0ZM5.59889 51.3559L4.21935 47.4343H4.14563L2.76609 51.3559H5.59889Z" fill="black"/>
<path d="M11.5234 54.9549V45.7667H14.6476C17.4014 45.7667 19.0495 47.4895 19.0495 50.347C19.0495 53.2184 17.4014 54.9549 14.551 54.9549H11.5234ZM14.4738 53.7426C16.6063 53.7426 17.6612 52.5216 17.6612 50.347C17.6612 48.1793 16.6063 46.9773 14.5598 46.9773H12.9346V53.7426H14.4738Z" fill="black"/>
<path d="M24.3284 45.7667L27.3051 52.9096H27.414L30.3907 45.7667H32.1037V54.9549H30.761V48.3052H30.675L27.9177 54.9411H26.8032L24.0459 48.3018H23.9599V54.9549H22.6172V45.7667H24.3284Z" fill="black"/>
<path d="M35.2656 54.9549L38.6302 45.7667H40.2608L43.6254 54.9549H42.1282L41.2752 52.5233H37.6228L36.7645 54.9549H35.2656ZM40.8645 51.3559L39.485 47.4343H39.4113L38.0317 51.3559H40.8645Z" fill="black"/>
<path d="M46.7891 45.7667H52.5881V46.9601H48.2002V49.759H52.1721V50.9472H48.2002V54.9532H46.7891V45.7667Z" fill="black"/>
<path d="M97.7218 48.6142C98.7976 50.3283 97.4268 53.0772 94.6624 54.7516C91.8963 56.4262 88.7828 56.3937 87.707 54.6792C86.6306 52.9651 88.0014 50.2162 90.7658 48.5417C93.5319 46.8672 96.646 46.9 97.7218 48.6142Z" fill="black"/>
<path d="M107.918 18.8873C105.178 18.8873 102.705 18.2407 100.939 17.2025C102.705 16.1643 105.178 15.5177 107.918 15.5177C110.657 15.5177 113.13 16.1643 114.896 17.2025C113.13 18.2407 110.657 18.8873 107.918 18.8873ZM117.251 7.1969C117.142 7.22445 117.037 7.25206 116.937 7.27967C110.077 9.30076 103.969 13.3241 98.8926 17.425V17.4422C103.642 23.559 107.247 33.2301 107.247 44.0238C107.247 48.1298 106.65 52.1755 105.713 55.9988C117.986 52.6739 127.001 41.6284 127.001 28.5118C126.999 20.0341 123.231 12.4204 117.251 7.1969Z" fill="black"/>
<path d="M91.1813 20.9437C90.3516 21.6352 90.1055 22.6803 90.634 23.2787C91.162 23.8771 92.2645 23.8012 93.0949 23.1097C93.9246 22.4182 94.1707 21.3731 93.6422 20.7747C93.1137 20.1763 92.0117 20.2521 91.1813 20.9437Z" fill="black"/>
<path d="M90.8411 16.4139C89.0386 18.3953 86.8232 18.8402 84.3891 18.8402C81.9004 18.8402 79.6343 17.9194 77.9372 16.4139H90.8411ZM98.3039 22.8584L97.6734 23.1412C97.6734 23.6361 97.6734 24.0776 97.6734 24.4087C97.6734 25.9021 97.8124 26.6506 95.941 27.3214C94.6391 27.7888 87.4183 30.4134 85.9353 30.9498C84.7769 31.3688 84.3834 31.3861 83.0343 30.1013C82.5143 29.6064 82.7131 28.6234 83.2552 28.2699C88.5505 24.8174 93.8845 10.2367 106.409 3.67493L106.737 4.23367C101.202 8.31902 96.982 13.9116 96.0184 15.9017C100.213 12.7873 107.404 8.43629 116.786 6.79627C111.718 2.55917 105.156 0 97.9827 0C81.9562 0 68.9629 12.7648 68.9629 28.513C68.9629 33.8556 70.4601 38.8532 73.0611 43.1266C84.0907 42.2211 94.6442 45.2943 96.8226 45.9789L96.8294 45.9806C96.9012 46.003 96.9644 46.0237 97.0191 46.041L98.3056 46.4496V32.0362C98.2879 32.0345 98.2896 32.0224 98.3056 32.0034V32.0362C101.077 32.3466 104.048 35.706 104.059 39.1602C104.064 41.1175 103.157 43.7267 102.655 45.0218L102.946 45.0511C103.599 43.7249 104.821 40.9071 104.808 38.4204C104.777 32.1932 98.9463 29.7788 98.3056 24.657V22.8584H98.3039Z" fill="black"/>
<path d="M5.07165 39.6207C4.43979 39.6207 3.87113 39.5758 3.36565 39.4878C2.85842 39.3982 2.4249 39.2447 2.06685 39.0223C1.70704 38.8015 1.43149 38.5066 1.23667 38.1376C1.04184 37.7685 0.945312 37.3029 0.945312 36.7424V33.7056H2.24412V36.1199C2.24412 36.6079 2.30028 36.9994 2.41612 37.2926C2.5302 37.5857 2.72853 37.8099 3.00936 37.9651C3.29193 38.1203 3.6728 38.2221 4.15195 38.2721C4.6311 38.3221 5.23487 38.3462 5.95975 38.3462H13.914C13.7666 38.2014 13.6332 38.0289 13.5156 37.8323C13.398 37.634 13.2997 37.4236 13.219 37.1995C13.1383 36.9752 13.0768 36.7424 13.033 36.5028C12.9891 36.2613 12.968 36.0199 12.968 35.775C12.968 35.2335 13.0593 34.7127 13.24 34.2126C13.4209 33.7108 13.6824 33.2675 14.0264 32.8812C14.3686 32.495 14.7863 32.188 15.2795 31.9604C15.7727 31.7327 16.3326 31.6189 16.9557 31.6189C17.4664 31.6189 17.9157 31.6793 18.3054 31.8017C18.695 31.9241 19.032 32.0897 19.3181 32.3018C19.6025 32.5122 19.8394 32.7606 20.0272 33.0434C20.215 33.3279 20.3642 33.628 20.4747 33.9436C20.5853 34.2609 20.6643 34.5885 20.7117 34.9283C20.7591 35.268 20.7819 35.5956 20.7819 35.913V39.6224H5.07165V39.6207ZM14.2545 35.6836C14.2545 36.132 14.3282 36.5234 14.4757 36.8562C14.6231 37.1891 14.8284 37.4667 15.09 37.6875C15.3515 37.9082 15.6586 38.0738 16.0114 38.1824C16.3642 38.2911 16.7486 38.3462 17.1646 38.3462H19.4813V35.9716C19.4813 35.6094 19.4445 35.2438 19.3708 34.8783C19.297 34.5126 19.1636 34.1816 18.9723 33.8884C18.7811 33.5952 18.523 33.3555 18.1966 33.171C17.8701 32.9865 17.4524 32.8933 16.9434 32.8933C16.5274 32.8933 16.1536 32.9623 15.8201 33.1003C15.4884 33.2382 15.2058 33.4314 14.9741 33.6797C14.7425 33.9263 14.5652 34.2229 14.4406 34.5661C14.3159 34.9093 14.2545 35.2818 14.2545 35.6836ZM15.8956 28.1337C15.8956 27.8905 15.9816 27.6836 16.1518 27.5146C16.3239 27.3456 16.5327 27.2628 16.7819 27.2628C16.903 27.2628 17.0206 27.2852 17.1347 27.3318C17.2488 27.3783 17.3471 27.4404 17.4313 27.5197C17.5155 27.5991 17.5822 27.6922 17.6332 27.7974C17.6841 27.9026 17.7086 28.0147 17.7086 28.1337C17.7086 28.2527 17.6841 28.3665 17.6332 28.4752C17.5822 28.5838 17.5155 28.6803 17.4313 28.7614C17.3471 28.8442 17.2488 28.908 17.1347 28.9546C17.0206 29.0011 16.903 29.0235 16.7819 29.0235C16.5327 29.0235 16.3239 28.9356 16.1518 28.7614C15.9816 28.5872 15.8956 28.3786 15.8956 28.1337Z" fill="black"/>
<path d="M27.4074 38.9482C27.4074 39.0931 27.3916 39.2086 27.3617 39.2949C27.3319 39.3811 27.2863 39.4484 27.2266 39.4984C27.1669 39.5484 27.0915 39.5812 27.0002 39.5967C26.9089 39.6139 26.8036 39.6208 26.6825 39.6208H26.2701C25.84 39.6208 25.4504 39.576 25.1011 39.488C24.7519 39.3984 24.4535 39.25 24.2042 39.0431C23.955 38.8362 23.762 38.5585 23.625 38.2119C23.4881 37.8653 23.418 37.4393 23.418 36.9306V25.1573H24.7167V36.4667C24.7167 36.803 24.7396 37.0909 24.7869 37.3324C24.8343 37.5738 24.9239 37.767 25.059 37.9153C25.1941 38.0636 25.3767 38.1723 25.6083 38.2412C25.84 38.3102 26.1437 38.3447 26.5193 38.3447H26.6807C26.9159 38.3447 27.095 38.3843 27.2196 38.4637C27.3442 38.543 27.4074 38.7051 27.4074 38.9482Z" fill="black"/>
<path d="M26.6819 39.621C26.4468 39.621 26.2677 39.5779 26.1431 39.4917C26.0185 39.4055 25.957 39.2416 25.957 38.9968C25.957 38.8519 25.9729 38.7363 26.0027 38.6502C26.0325 38.5639 26.0782 38.4984 26.1379 38.4518C26.1975 38.4053 26.273 38.3759 26.3642 38.3621C26.4555 38.3484 26.5608 38.3432 26.6819 38.3432H27.4682C27.6701 38.3432 27.8719 38.3087 28.0772 38.2397C28.2826 38.1707 28.4809 38.0517 28.6757 37.8827C28.8706 37.7137 29.0584 37.4861 29.2392 37.1947C29.4199 36.9049 29.592 36.5359 29.7534 36.0858C30.0483 35.2684 30.3765 34.6027 30.7345 34.0923C31.0943 33.5818 31.4647 33.1817 31.8473 32.8954C32.2299 32.6092 32.6143 32.4143 33.0004 32.3108C33.3865 32.2091 33.7534 32.1573 34.1026 32.1573C34.6064 32.1573 35.0768 32.2539 35.512 32.4488C35.949 32.6437 36.3247 32.9179 36.6406 33.2697C36.9565 33.6232 37.204 34.044 37.3865 34.5354C37.5673 35.027 37.6586 35.5667 37.6586 36.1531C37.6586 36.667 37.5866 37.1498 37.4427 37.5982C37.2988 38.0466 37.0811 38.4363 36.7933 38.7657C36.5037 39.0951 36.1439 39.3555 35.7103 39.5469C35.2768 39.7383 34.7749 39.8332 34.2045 39.8332C33.5533 39.8332 32.8933 39.7331 32.2264 39.5314C31.5577 39.3296 30.8521 38.9726 30.1062 38.4587C29.9254 38.7157 29.7341 38.9226 29.5323 39.0778C29.3304 39.233 29.1198 39.3503 28.8986 39.4296C28.6775 39.509 28.4511 39.5607 28.2194 39.5831C27.9877 39.6055 27.7508 39.6176 27.5104 39.6176H26.6819V39.621ZM36.358 36.0996C36.358 35.7564 36.3054 35.4236 36.2018 35.1011C36.0982 34.7786 35.9456 34.4941 35.7437 34.2509C35.5418 34.0078 35.2961 33.8111 35.003 33.6629C34.7117 33.5146 34.3764 33.4404 34.0009 33.4404C33.6849 33.4404 33.3795 33.5077 33.0847 33.6439C32.7898 33.7784 32.5037 34.0009 32.2282 34.3061C31.9526 34.6131 31.684 35.0131 31.4225 35.5081C31.161 36.003 30.9048 36.6066 30.6573 37.3188C31.2418 37.7137 31.8175 38.0224 32.3844 38.2431C32.9513 38.4639 33.5234 38.5743 34.1009 38.5743C34.4431 38.5743 34.7538 38.5294 35.0329 38.4415C35.3119 38.3518 35.5489 38.2087 35.7472 38.0104C35.9456 37.812 36.0965 37.5568 36.2 37.2429C36.3071 36.9291 36.358 36.548 36.358 36.0996Z" fill="black"/>
<path d="M46.8312 37.5342C46.8312 37.8308 46.7751 38.1084 46.6645 38.3654C46.554 38.6224 46.389 38.8431 46.1713 39.0276C45.9537 39.2121 45.6799 39.357 45.3499 39.4622C45.0217 39.5674 44.6408 39.6208 44.2126 39.6208H39.3789V38.3447H44.1511C44.439 38.3447 44.6724 38.3171 44.8515 38.2602C45.0287 38.205 45.1674 38.1343 45.2639 38.0516C45.3604 37.9688 45.4271 37.8791 45.4605 37.7791C45.4938 37.6808 45.5114 37.5876 45.5114 37.5014C45.5114 37.3307 45.4833 37.1582 45.4254 36.9875C45.3674 36.8168 45.2534 36.5857 45.0831 36.2943C44.9111 36.0045 44.6689 35.6269 44.353 35.1613C44.0371 34.6956 43.6176 34.0886 43.0945 33.335L42.389 32.3055L43.5667 31.5536L44.8058 33.473C44.9673 33.7299 45.1638 34.0317 45.3955 34.3783C45.6272 34.725 45.8483 35.0819 46.0608 35.451C46.2714 35.82 46.4539 36.1874 46.6048 36.5495C46.7558 36.9168 46.8312 37.2445 46.8312 37.5342Z" fill="black"/>
<path d="M50.6484 25.1573V39.6225H49.3496V25.1573H50.6484Z" fill="black"/>
<path d="M51.3955 23.8908H48.5996V23.2096H49.2859C49.2157 23.0976 49.163 22.9803 49.1262 22.8579C49.0893 22.7354 49.07 22.5992 49.07 22.4474C49.07 22.2284 49.1069 22.0353 49.1823 21.868C49.256 21.7025 49.3543 21.5627 49.4772 21.4506C49.5983 21.3386 49.7387 21.2541 49.8949 21.1972C50.0511 21.1402 50.2126 21.1127 50.3758 21.1127C50.5443 21.1127 50.6935 21.123 50.8199 21.1454C50.9463 21.1678 51.0428 21.2006 51.1077 21.2437V21.9318C50.9041 21.8439 50.6847 21.8007 50.4513 21.8007C50.3267 21.8007 50.2214 21.8197 50.1336 21.8594C50.0459 21.899 49.9739 21.949 49.9177 22.0094C49.8598 22.0698 49.8177 22.1404 49.7914 22.2215C49.765 22.3026 49.751 22.3871 49.751 22.475C49.751 22.6802 49.816 22.8544 49.944 22.9958C50.0739 23.1372 50.2723 23.2079 50.5408 23.2079H51.3991V23.8908H51.3955Z" fill="black"/>
</g>
</svg>
