<svg width="58" height="56" viewBox="0 0 58 56" fill="none" xmlns="http://www.w3.org/2000/svg">
<g clip-path="url(#clip0_15869_4962)">
<path d="M10.2708 0H47.7292C53.4083 0 58 4.54701 58 10.1709V45.8291C58 51.453 53.4083 56 47.7292 56H10.2708C4.59167 56 0 51.453 0 45.8291V10.1709C0 4.54701 4.59167 0 10.2708 0Z" fill="#00005B"/>
<path d="M23.2967 33.5041H14.3067L12.4701 39.152C12.4217 39.3673 12.2284 39.5109 12.0109 39.487H7.4676C7.20177 39.487 7.12927 39.3434 7.20177 39.0562L14.9834 16.9673C15.0559 16.728 15.1284 16.5126 15.2251 16.2255C15.3217 15.7229 15.3701 15.1964 15.3701 14.6699C15.3459 14.5502 15.4426 14.4306 15.5634 14.4067C15.5876 14.4067 15.6117 14.4067 15.6359 14.4067H21.8226C21.9917 14.4067 22.1126 14.4785 22.1367 14.5981L30.9576 39.128C31.0301 39.3913 30.9576 39.5109 30.7159 39.5109H25.6651C25.4959 39.5349 25.3267 39.4152 25.2784 39.2477L23.2967 33.5041ZM15.7084 28.7417H21.8467C21.7017 28.2391 21.5084 27.6409 21.2909 27.0186C21.0734 26.3725 20.8559 25.6785 20.6384 24.9605C20.3967 24.2186 20.1792 23.5007 19.9376 22.7588C19.6959 22.0169 19.4784 21.3229 19.2851 20.6289C19.0917 19.9588 18.9226 19.3366 18.7534 18.7622H18.7051C18.4876 19.7913 18.2217 20.8203 17.8834 21.8494C17.5209 22.9981 17.1584 24.1947 16.7717 25.3913C16.4576 26.6118 16.0709 27.7366 15.7084 28.7417ZM45.2884 31.3024H37.6276C37.7242 32.0443 37.9659 32.7862 38.3767 33.4323C38.8117 34.0785 39.4159 34.581 40.1409 34.8682C41.1076 35.275 42.1709 35.4904 43.2342 35.4665C44.0801 35.4426 44.9259 35.3708 45.7476 35.2032C46.4967 35.1075 47.2217 34.9161 47.8984 34.6528C48.0192 34.5571 48.0917 34.605 48.0917 34.8443V38.5058C48.0917 38.6015 48.0676 38.6973 48.0434 38.793C47.9951 38.8648 47.9467 38.9126 47.8742 38.9605C47.1009 39.2956 46.3034 39.5349 45.4576 39.6785C44.3217 39.8938 43.1859 39.9896 42.0259 39.9656C40.1892 39.9656 38.6426 39.6785 37.3859 39.128C36.2017 38.6255 35.1626 37.8357 34.3409 36.8545C33.5676 35.9212 33.0117 34.8682 32.6734 33.7195C32.3351 32.5947 32.1659 31.422 32.1659 30.2255C32.1659 28.9332 32.3592 27.6648 32.7701 26.4203C33.1567 25.2238 33.7609 24.1229 34.5826 23.1417C35.3801 22.1844 36.3709 21.4186 37.5067 20.8682C38.6426 20.3178 39.9959 20.1263 41.5426 20.1263C42.8234 20.1024 44.1042 20.3417 45.2884 20.8682C46.2792 21.299 47.1492 21.9451 47.8259 22.7827C48.4542 23.5964 48.9617 24.5058 49.2759 25.5109C49.5901 26.4682 49.7351 27.4494 49.7351 28.4306C49.7351 29.005 49.7109 29.5075 49.6867 29.9622C49.6384 30.4169 49.6142 30.752 49.5901 30.9673C49.5659 31.1349 49.4209 31.2785 49.2517 31.2785C49.1067 31.2785 48.8409 31.3024 48.4542 31.3263C48.0676 31.3742 47.6084 31.3981 47.0526 31.3981C46.4967 31.3981 45.9167 31.3024 45.2884 31.3024ZM37.6276 27.8084H42.7268C43.3551 27.8084 43.8142 27.8084 44.1042 27.7844C44.2976 27.7605 44.4909 27.7126 44.6601 27.593V27.3537C44.6601 27.0426 44.6117 26.7554 44.5151 26.4682C44.0801 25.128 42.7992 24.2186 41.3734 24.2665C40.0442 24.1947 38.7876 24.8887 38.1592 26.0853C37.8692 26.6357 37.7001 27.2101 37.6276 27.8084Z" fill="#9999FF"/>
</g>
<defs>
<clipPath id="clip0_15869_4962">
<rect width="58" height="56" fill="white"/>
</clipPath>
</defs>
</svg>
