<svg width="57" height="62" viewBox="0 0 57 62" fill="none" xmlns="http://www.w3.org/2000/svg">
<g clip-path="url(#clip0_15869_5150)">
<g filter="url(#filter0_d_15869_5150)">
<path d="M2.59588 52.0487C2.99143 50.3557 3.64127 48.7402 4.1921 47.0943C7.33029 37.7427 10.4883 28.3936 13.6662 19.0466C15.7277 12.941 17.7839 6.83364 19.8351 0.724622C20.0176 0.177672 20.2905 0.0161106 20.8668 0.0194765C26.3245 0.0430374 31.7735 0.0312576 37.226 0.0464039C37.5467 0.0464039 38.1043 -0.214452 38.0668 0.500791L37.8689 0.584937C37.0947 2.84679 36.3256 5.11032 35.5462 7.37049C34.7105 9.79222 33.8491 12.2039 33.0254 14.629C32.0021 17.6582 30.9583 20.6874 30.0066 23.737C29.6963 24.7332 29.0755 25.6588 29.1539 26.7663C28.7617 26.8134 28.8043 27.1718 28.7242 27.4074C26.3671 34.3612 24.0391 41.3083 21.6821 48.2505C21.0204 50.1943 19.7685 51.6448 17.7595 52.3635C16.9835 52.2222 16.2824 52.6732 15.5525 52.6816C11.4593 52.7271 7.37811 52.6949 3.29168 52.7119C2.77143 52.7152 2.53269 52.5655 2.59588 52.0487Z" fill="#4385F4"/>
<path d="M38.417 1.64722C41.9067 11.3394 45.3965 21.0327 48.8863 30.7272C51.4343 37.7992 53.9872 44.8707 56.545 51.9416C56.7804 52.587 56.6653 52.7167 55.9519 52.7117C51.6158 52.6834 47.2779 52.7117 42.9418 52.6784C42.0299 52.6888 41.1261 52.5178 40.2915 52.1773C39.457 51.8367 38.7112 51.3345 38.1043 50.7042C38.1043 40.3989 38.1043 30.0929 38.1043 19.7864C38.1043 14.0516 38.1092 8.31677 38.1188 2.58195C38.1278 2.27093 37.8797 1.8385 38.417 1.64722Z" fill="#109C58"/>
<path d="M29.6275 27.5515C29.5469 26.4559 30.1449 25.54 30.4487 24.5543C31.3653 21.5338 32.3656 18.5399 33.3561 15.5426C34.1494 13.1432 34.9788 10.7571 35.7836 8.36098C36.5343 6.12473 37.2751 3.88513 38.0209 1.64722C38.0324 1.95194 38.052 2.25665 38.052 2.56137C38.052 18.4422 38.052 34.323 38.052 50.2038C38.052 50.4952 38.1473 50.8231 37.8779 51.0646C37.344 50.5466 36.9485 49.8999 36.7281 49.1848C34.352 41.9748 31.9851 34.7636 29.6275 27.5515Z" fill="#0C6D3E"/>
</g>
</g>
<defs>
<filter id="filter0_d_15869_5150" x="-1.41406" y="0" width="62.0698" height="60.7119" filterUnits="userSpaceOnUse" color-interpolation-filters="sRGB">
<feFlood flood-opacity="0" result="BackgroundImageFix"/>
<feColorMatrix in="SourceAlpha" type="matrix" values="0 0 0 0 0 0 0 0 0 0 0 0 0 0 0 0 0 0 127 0" result="hardAlpha"/>
<feOffset dy="4"/>
<feGaussianBlur stdDeviation="2"/>
<feComposite in2="hardAlpha" operator="out"/>
<feColorMatrix type="matrix" values="0 0 0 0 0 0 0 0 0 0 0 0 0 0 0 0 0 0 0.25 0"/>
<feBlend mode="normal" in2="BackgroundImageFix" result="effect1_dropShadow_15869_5150"/>
<feBlend mode="normal" in="SourceGraphic" in2="effect1_dropShadow_15869_5150" result="shape"/>
</filter>
<clipPath id="clip0_15869_5150">
<rect width="57" height="62" fill="white"/>
</clipPath>
</defs>
</svg>
