<svg width="64" height="50" viewBox="0 0 64 50" fill="none" xmlns="http://www.w3.org/2000/svg">
<g clip-path="url(#clip0_15869_4115)">
<path d="M12.0691 41.9959C12.0691 39.8339 12.0691 37.6765 12.0691 35.5144C12.0691 34.7922 12.304 34.4959 13.009 34.5654C13.3336 34.6047 13.662 34.6047 13.9867 34.5654C15.2838 34.3709 15.8384 34.9033 15.5799 36.158C15.2791 37.5931 15.9653 37.9312 17.2577 37.7968C18.0044 37.7552 18.7529 37.7552 19.4996 37.7968C20.0401 37.7968 20.6652 37.658 20.7403 38.5005C20.7579 38.6167 20.8195 38.722 20.9129 38.7952C21.0063 38.8682 21.1243 38.9035 21.2433 38.8941C22.6531 38.7691 22.5264 39.6857 22.5169 40.5931C22.5169 43.1672 22.4605 45.7459 22.5169 48.3154C22.5451 49.3756 22.1738 49.658 21.1493 49.6256C18.428 49.5376 18.851 49.8756 18.8275 47.3525C18.8275 45.1904 18.7335 43.0283 18.851 40.8709C18.9403 39.1394 17.7794 39.5746 16.8113 39.482C15.7208 39.3709 15.4999 39.8015 15.5376 40.82C15.6268 43.2968 15.5376 45.783 15.5893 48.2644C15.5893 49.2552 15.3449 49.7599 14.2592 49.6117C13.8861 49.5677 13.5091 49.5677 13.1359 49.6117C12.2665 49.7043 12.008 49.3201 12.0268 48.4959C12.0972 46.3154 12.0691 44.158 12.0691 41.9959Z" fill="#16649D"/>
<path d="M10.6264 44.6901C10.6264 46.079 10.6264 47.4679 10.6264 48.8245C10.6264 49.4726 10.4149 49.7272 9.74286 49.7179C7.39292 49.7179 5.07116 49.7179 2.73061 49.7179C2.5919 49.726 2.45271 49.7151 2.31702 49.6855C1.09976 49.3105 -0.6674 45.4726 0.258476 44.8059C1.18435 44.1392 1.56034 42.3476 3.3181 42.8105C3.82826 42.8755 4.34482 42.8755 4.85497 42.8105C6.76782 42.8105 7.48691 41.7642 6.85242 39.9679C6.69262 39.505 6.38244 39.4726 5.98295 39.4679C5.09468 39.4679 4.20639 39.4679 3.3228 39.4679C2.52383 39.4679 1.78595 39.4263 1.86115 40.5605C1.90345 41.1948 1.39115 41.1114 0.968162 41.1208C0.545173 41.13 0.141003 40.9679 0.136303 40.4263C0.136303 40.0096 0.089293 39.5003 0.653279 39.4587C1.35356 39.4077 1.67315 39.1485 1.59326 38.4448C1.54156 37.8707 1.92223 37.7827 2.40162 37.7827C4.17817 37.7827 5.95474 37.7827 7.7313 37.7827C8.00388 37.7827 8.51147 37.8151 8.45506 38.0142C7.92398 39.9032 11.3173 38.8522 10.6546 40.9864C10.3162 42.1206 10.6264 43.4495 10.6264 44.6901ZM5.24974 44.4958C3.73639 44.1208 3.5155 44.8708 3.4685 46.1855C3.41681 47.6671 4.01368 47.8846 5.34846 47.9031C6.68322 47.9216 7.05451 47.4679 7.05451 46.1809C7.05451 44.8939 6.75371 44.1114 5.24974 44.4958Z" fill="#F89130"/>
<path d="M41.2695 44.519C40.7563 44.5538 40.2412 44.5538 39.728 44.519C38.3556 44.3292 37.848 44.7598 37.9044 46.2274C37.9655 47.4311 38.1911 48.0422 39.5447 47.8616C40.1965 47.8015 40.8527 47.8015 41.5045 47.8616C42.3552 47.9079 42.9755 47.8015 42.9145 46.7181C42.8628 45.7922 43.6336 46.1024 44.1365 46.0561C44.8556 45.9913 44.9777 46.4218 44.9777 47.0098C44.9777 47.5977 44.8602 48.0376 44.1459 47.982C43.4315 47.9265 42.8863 48.0885 42.9709 49.0098C43.0179 49.5653 42.5573 49.6533 42.1014 49.6533C40.5551 49.6533 38.8867 50.0098 37.5096 49.5376C36.4287 49.1672 35.6297 47.9357 34.3842 47.4172C34.1352 47.3107 34.3091 46.2089 34.3091 45.5653C34.3091 43.9126 34.3372 42.2552 34.3091 40.6024C34.3091 39.732 34.5393 39.2829 35.4981 39.3987C36.1655 39.482 36.7153 39.3987 36.6261 38.5005C36.5602 37.8569 37.0161 37.7782 37.5425 37.7829C38.7551 37.7829 39.9724 37.7829 41.1896 37.7829C42.0685 37.7829 43.1918 37.4542 43.0367 39.0098C43.0132 39.2783 43.2858 39.4079 43.5066 39.3708C44.865 39.1718 44.7662 40.0607 44.724 40.9172V41.0514C44.7333 44.519 44.7333 44.519 41.2695 44.519ZM41.1191 41.0514C41.4575 39.7782 40.9688 39.4218 39.6433 39.3894C38.1817 39.3569 37.8528 39.8061 37.8715 41.1718C37.8715 42.4357 38.1347 42.8848 39.5447 42.9079C41.1003 42.9311 41.4246 42.3385 41.1191 41.0514Z" fill="#16649D"/>
<path d="M59.665 37.7737C60.2383 37.7737 60.7036 37.7737 61.1736 37.7737C61.4885 37.7737 62.1135 37.7181 62.0665 37.908C61.8645 39.3663 63.5753 39.1441 63.9136 40.033C64.0452 40.3894 64.1251 41.0238 63.3872 41.0654C62.8609 41.0931 62.1934 41.2876 62.184 40.3802C62.184 39.9821 62.2499 39.4543 61.6107 39.496C60.7036 39.5468 59.6837 39.1441 58.9223 39.7506C58.8138 39.8392 58.7365 39.9596 58.7017 40.0942C58.6668 40.2288 58.6762 40.3709 58.7284 40.5C58.7806 40.629 58.8729 40.7385 58.9922 40.8126C59.1115 40.8867 59.2516 40.9218 59.3923 40.9126C60.2571 40.9126 60.7318 41.1488 60.6566 42.0793C60.6284 42.4265 60.8023 42.7737 61.1924 42.7552C62.0478 42.7181 62.3627 43.1117 62.3392 43.8988C62.3392 44.0052 62.4707 44.2043 62.5601 44.2136C64.5622 44.4126 63.6833 45.9312 63.8478 46.9543C63.9512 47.5839 63.782 48.0515 62.9643 47.9728C62.883 47.9526 62.798 47.9518 62.7163 47.9705C62.6347 47.9892 62.5588 48.0268 62.4949 48.0803C62.431 48.1337 62.3809 48.2014 62.3489 48.2778C62.3169 48.3541 62.3039 48.4368 62.3109 48.5191C62.4143 49.7552 61.5824 49.658 60.7647 49.6394C59.9469 49.621 59.2702 49.6394 58.5229 49.6394C57.7755 49.6394 56.8685 49.7876 56.9671 48.533C57.0048 48.07 56.563 47.9682 56.1683 47.982C55.5196 48.0052 55.2282 47.7414 55.2565 47.0793C55.2846 46.5238 55.4868 46.2181 56.1024 46.2506C56.6147 46.2784 57.1834 46.1812 57.1646 46.9728C57.1646 47.4357 57.2444 47.8525 57.8225 47.8107C58.6873 47.7552 59.6743 48.1812 60.3699 47.5469C60.4749 47.4528 60.5487 47.3298 60.5816 47.1938C60.6145 47.0577 60.6049 46.9151 60.554 46.7845C60.5033 46.654 60.4137 46.5415 60.2969 46.4619C60.1803 46.3824 60.0419 46.3393 59.8999 46.3386C59.6273 46.2968 59.115 46.3386 59.1009 46.283C58.8612 45.1394 58.0152 44.6349 57.1552 43.9681C56.7651 43.6626 56.6852 42.8941 55.8439 42.857C55.2282 42.8293 55.2376 42.2089 55.2987 41.7644C55.435 40.7968 54.6031 39.2599 56.6711 39.3339C56.7463 39.3339 56.8873 39.2413 56.8873 39.1904C56.9813 37.0144 58.6827 38.0144 59.665 37.7737Z" fill="#16649D"/>
<path d="M48.0049 44.4959C48.0049 43.2089 47.972 41.9172 48.0049 40.6348C48.0049 39.8385 47.784 39.3987 46.8957 39.4819C46.3176 39.5329 45.8899 39.4172 45.9088 38.6857C45.9276 37.9542 46.2847 37.7135 46.9756 37.7598C47.1546 37.7864 47.3372 37.7754 47.5115 37.7274C47.7324 36.4959 49.3115 36.3755 49.6169 35.3061C49.7815 34.7227 50.0165 34.5561 50.557 34.5606C51.7742 34.5606 52.9868 34.5606 54.2041 34.5606C54.7868 34.5606 55.0641 34.7551 55.0406 35.3569C55.0171 35.9588 54.7633 36.1856 54.1758 36.1672C53.5884 36.1487 52.9633 36.1672 52.3523 36.1672C51.7413 36.1672 51.5628 36.5051 51.5674 37.0468C51.5721 37.5885 51.8588 37.7459 52.3618 37.769C52.8646 37.7922 53.6119 37.5098 53.6542 38.5237C53.6965 39.5375 53.0432 39.4819 52.3758 39.4495C51.5299 39.4495 51.558 40.019 51.558 40.5885C51.558 43.1163 51.4688 45.6487 51.5909 48.1672C51.6662 49.7551 50.7074 49.5561 49.711 49.5561C48.7147 49.5561 47.831 49.5885 47.9814 48.1672C48.0942 46.9727 48.0049 45.7274 48.0049 44.4959Z" fill="#16649D"/>
<path d="M24.0684 43.5096C24.0684 41.9032 24.1012 40.2688 24.0684 38.6856C24.0684 37.8754 24.3127 37.468 25.1822 37.5282C25.6521 37.5606 26.1221 37.5282 26.5922 37.5282C27.2548 37.5282 27.8141 37.6762 27.7342 38.5281C27.6825 39.0791 27.8893 39.3707 28.5191 39.38C29.1489 39.3893 29.2287 39.042 29.2851 38.5235C29.4684 36.8106 30.8455 37.7087 31.7009 37.5467C32.5563 37.3846 32.9087 37.843 32.8617 38.667C32.8617 39.1299 32.8617 39.593 32.8617 40.0559C32.8946 40.7596 32.5469 41.0559 31.8513 41.0467C30.9113 41.0467 29.9714 41.0975 29.0313 41.0467C27.9598 40.968 27.659 41.4217 27.6919 42.4356C27.753 44.3614 27.6543 46.2967 27.7295 48.2225C27.7765 49.3106 27.4006 49.7643 26.3195 49.6114C25.9934 49.5698 25.6633 49.5698 25.3373 49.6114C24.3362 49.7364 24.0401 49.3013 24.0777 48.3522C24.1154 46.7272 24.0684 45.1161 24.0684 43.5096Z" fill="#16649D"/>
<path d="M46.1014 26.2229C46.059 28.4821 46.4538 28.2461 43.9912 28.2414C41.6035 28.2414 41.9983 28.5331 41.9701 26.01C41.9701 24.0887 41.9702 24.0794 44.3859 24.0932C46.3975 24.1256 46.0684 23.9174 46.1014 26.2229Z" fill="#16649D"/>
<path d="M30.8548 26.2413C30.8548 28.2459 30.8548 28.2459 29.0312 28.2459C26.9586 28.2459 26.9585 28.2459 26.9585 26.2829C26.9585 24.093 26.9585 24.0885 28.8384 24.0932C31.0803 24.1255 30.8359 23.8755 30.8548 26.2413Z" fill="#16649D"/>
<path d="M33.7549 13.3383C33.2144 13.1902 32.2275 13.7179 31.9502 13.0096C31.5836 12.0837 31.7434 10.9448 31.9079 9.90774C31.9596 9.58829 32.3168 9.58368 32.594 9.57442C32.9654 9.57442 33.3367 9.57442 33.708 9.57442C36.3164 9.60682 36.0579 9.20405 36.1472 11.8892C36.18 13.0003 35.8981 13.5374 34.6996 13.3521C34.3854 13.3263 34.0698 13.3216 33.7549 13.3383Z" fill="#16649D"/>
<path d="M23.8656 19.4172C26.366 19.4589 26.0323 19.1533 26.0558 21.3525C26.0558 23.2043 26.0558 23.2043 24.016 23.2043C21.9763 23.2043 22.3711 23.4543 22.1643 21.0283C22.0092 19.2506 22.9538 19.2969 23.8656 19.4172Z" fill="#16649D"/>
<path d="M30.8546 6.8478C30.8546 8.63948 30.8546 8.63947 28.7585 8.63484C26.9537 8.63484 26.9537 8.63487 26.9585 6.5469C26.9585 4.80615 26.9585 4.80615 29.0076 4.80615C30.8546 4.80615 30.8546 4.80614 30.8546 6.8478Z" fill="#16649D"/>
<path d="M43.8973 23.1998C43.3567 23.0377 42.3416 23.5887 42.1067 22.8063C41.8294 21.8804 41.9938 20.8109 42.0314 19.8017C42.0314 19.473 42.4168 19.4545 42.6989 19.4498C43.2591 19.4869 43.8212 19.4869 44.3814 19.4498C45.8242 19.2183 46.219 19.7832 46.1345 21.172C45.9841 23.4683 46.407 23.1674 43.8973 23.1998Z" fill="#16649D"/>
<path d="M28.7821 13.3385C26.9585 13.3385 26.9585 13.3384 26.9585 11.4171C26.9585 9.49586 26.9585 9.5653 29.1675 9.5653C29.9382 9.5653 30.9769 9.10236 30.8924 10.7088C30.7514 13.3338 30.85 13.3385 28.7821 13.3385Z" fill="#16649D"/>
<path d="M38.835 13.3386C36.9551 13.3386 36.9551 13.3386 36.9551 11.4867C36.9551 9.5701 36.9551 9.55621 39.0888 9.57473C41.0628 9.57473 40.8325 9.26917 40.8325 11.6535C40.8654 13.6117 41.0628 13.3062 38.835 13.3386Z" fill="#16649D"/>
<path d="M43.8974 18.4586C43.3522 18.315 42.3323 18.8382 42.0879 18.116C41.8086 17.0925 41.8086 16.0145 42.0879 14.991C42.1584 14.6808 42.5109 14.69 42.7976 14.6947C43.2676 14.6947 43.7376 14.6947 44.2076 14.6947C46.0876 14.6947 46.0875 14.6947 46.0875 16.4957C46.1017 18.4586 46.1017 18.4586 43.8974 18.4586Z" fill="#16649D"/>
<path d="M33.9005 28.1995C31.5224 28.1718 31.8325 28.4542 31.8184 26.0098C31.8184 24.1348 31.8184 24.1348 34.1026 24.1348C36.0719 24.1348 36.0719 24.1348 36.0719 26.3477C36.0719 28.1995 36.0719 28.1995 33.9005 28.1995Z" fill="#16649D"/>
<path d="M28.9419 3.70876C26.9585 3.70876 26.9585 3.70875 26.9585 1.92634C26.9585 -0.00421975 26.9585 -0.00420739 28.9654 0.00042225C30.8454 0.00042225 30.8454 0.000401943 30.8454 1.88929C30.8548 3.70874 30.8548 3.70876 28.9419 3.70876Z" fill="#16649D"/>
<path d="M20.2988 14.7502C20.844 14.9354 21.8076 14.2873 22.1365 14.977C22.5596 15.8705 22.301 16.9586 22.2399 17.9631C22.2323 18.0316 22.2111 18.0979 22.1774 18.1582C22.1438 18.2186 22.0983 18.2718 22.0437 18.3148C21.9892 18.3578 21.9265 18.3898 21.8593 18.4089C21.7922 18.428 21.7218 18.4339 21.6524 18.4262C20.6231 18.4262 19.5986 18.4262 18.574 18.4262C18.5033 18.4325 18.432 18.4229 18.3655 18.3981C18.299 18.3735 18.2391 18.3342 18.1904 18.2835C18.1415 18.2327 18.105 18.1716 18.0835 18.105C18.062 18.0382 18.0562 17.9676 18.0664 17.8983C18.0664 17.5789 18.0664 17.2594 18.0664 16.9354C18.0476 14.7548 18.0476 14.7549 20.2988 14.7502Z" fill="#16649D"/>
<path d="M34.1445 29.0839C34.6756 29.2181 35.719 28.7136 35.9304 29.4033C36.2218 30.3663 36.0338 31.482 35.9822 32.5283C35.9822 32.82 35.6061 32.8894 35.3148 32.8987C35.0234 32.9079 34.7602 32.8987 34.4782 32.8987C31.5924 32.8987 31.3528 32.6117 31.804 29.7505C31.8932 29.2042 32.1424 29.0607 32.6265 29.07L34.1445 29.0839Z" fill="#16649D"/>
<path d="M33.7735 18.4589C33.2235 18.32 32.1755 18.8246 31.9641 18.1487C31.6633 17.195 31.8418 16.0792 31.8842 15.0376C31.8842 14.7227 32.2742 14.7227 32.5657 14.732C33.0733 14.732 33.5855 14.732 34.0978 14.732C36.0718 14.732 36.0764 14.732 36.0718 16.6394C36.0623 18.7181 36.2597 18.4357 33.7735 18.4589Z" fill="#16649D"/>
<path d="M34.0977 19.4401C34.6523 19.5744 35.6393 19.0743 35.9306 19.7503C36.316 20.6438 36.1327 21.7272 35.9917 22.7225C35.9353 23.1114 35.5218 23.1392 35.2162 23.1438C34.7463 23.1438 34.2763 23.1438 33.8062 23.1438C31.7994 23.1438 31.7854 23.1439 31.8041 21.2411C31.8324 19.1531 31.5739 19.4956 34.0977 19.4401Z" fill="#16649D"/>
<path d="M38.9576 19.4448C41.1102 19.4773 40.8094 19.1763 40.8375 21.3754C40.8375 23.1532 40.8375 23.1532 38.9106 23.1486C36.9836 23.144 37.0071 23.1486 37.0306 21.181C37.0025 19.4448 37.0025 19.4448 38.9576 19.4448Z" fill="#16649D"/>
<path d="M40.8333 26.1762C40.7957 28.4076 41.1481 28.1807 38.8829 28.1947C37.0029 28.1947 37.0029 28.1947 37.0029 26.2225C37.0029 24.2502 37.0029 24.1715 38.9815 24.1807C41.0824 24.1947 40.8051 24.0049 40.8333 26.1762Z" fill="#16649D"/>
<path d="M38.9521 32.9219C37.0017 32.9219 36.9875 32.9219 37.0017 30.9821C37.0017 28.8108 36.7761 29.0932 38.9709 29.0979C41.1658 29.1025 40.8179 28.8201 40.8227 31.0701C40.8273 33.084 41.1 32.8895 38.9521 32.9219Z" fill="#16649D"/>
<path d="M30.808 16.4217C30.7845 18.6902 31.0054 18.4449 28.8153 18.4588C27.0057 18.4588 27.0059 18.4588 27.0059 16.5467C27.0059 14.7273 27.0059 14.8106 29.6424 14.6949C31.4002 14.6531 30.559 15.8939 30.808 16.4217Z" fill="#16649D"/>
<path d="M38.9383 14.7504C40.8183 14.7504 40.7477 14.7504 40.8605 16.6764C40.9451 18.0652 40.5927 18.5977 39.0746 18.4958C37.0066 18.3522 36.9926 18.4588 37.002 16.5051C37.0161 14.4032 36.9362 14.7319 38.9383 14.7504Z" fill="#16649D"/>
<path d="M30.8034 21.3475C30.8034 23.1532 30.8034 23.1532 28.8624 23.1485C26.9824 23.1485 26.9824 23.1485 26.9824 21.2087C26.9824 19.4401 26.9824 19.4401 29.1114 19.4448C30.8081 19.4448 30.8081 19.4448 30.8034 21.3475Z" fill="#16649D"/>
</g>
<defs>
<clipPath id="clip0_15869_4115">
<rect width="64" height="50" fill="white"/>
</clipPath>
</defs>
</svg>
