<svg width="71" height="38" viewBox="0 0 71 38" fill="none" xmlns="http://www.w3.org/2000/svg">
<path d="M19.5073 13.8014C19.5073 14.5834 19.5937 15.2173 19.745 15.6822C19.9179 16.1471 20.134 16.6543 20.4366 17.2037C20.5446 17.3728 20.5878 17.5419 20.5878 17.6898C20.5878 17.9011 20.4581 18.1124 20.1772 18.3238L18.8157 19.2113C18.6213 19.3381 18.4268 19.4015 18.2539 19.4015C18.0377 19.4015 17.8216 19.2958 17.6056 19.1056C17.3029 18.7887 17.0436 18.4506 16.8276 18.1124C16.6115 17.7532 16.3953 17.3517 16.1577 16.8656C14.472 18.8098 12.3541 19.7819 9.80412 19.7819C7.98883 19.7819 6.54092 19.2747 5.482 18.2603C4.42307 17.246 3.88281 15.8935 3.88281 14.2029C3.88281 12.4067 4.53114 10.9485 5.84938 9.84965C7.16762 8.75078 8.91808 8.20133 11.144 8.20133C11.8787 8.20133 12.6351 8.26473 13.4346 8.37039C14.2343 8.47605 15.0555 8.64511 15.9199 8.8353V7.29263C15.9199 5.68658 15.5742 4.56655 14.9042 3.91145C14.2126 3.25635 13.0457 2.93935 11.3817 2.93935C10.6253 2.93935 9.84734 3.02389 9.04775 3.21408C8.24816 3.40427 7.47018 3.63673 6.7138 3.93258C6.36803 4.08051 6.10871 4.16504 5.95743 4.20731C5.80615 4.24957 5.6981 4.2707 5.61166 4.2707C5.30912 4.2707 5.15784 4.05938 5.15784 3.6156V2.58011C5.15784 2.242 5.20107 1.9884 5.30912 1.84048C5.41717 1.69255 5.61166 1.54462 5.91421 1.3967C6.67059 1.01631 7.57823 0.699323 8.63714 0.445734C9.69606 0.171013 10.8198 0.0442179 12.0084 0.0442179C14.58 0.0442179 16.4602 0.614793 17.6703 1.75594C18.8589 2.89709 19.4641 4.62995 19.4641 6.95452V13.8014H19.5073ZM10.7334 17.0136C11.4465 17.0136 12.1813 16.8868 12.9593 16.6331C13.7373 16.3796 14.4288 15.9147 15.0123 15.2807C15.358 14.8792 15.6174 14.4354 15.7471 13.9282C15.8767 13.421 15.9631 12.8082 15.9631 12.0897V11.2021C15.3365 11.0542 14.6666 10.9274 13.975 10.8429C13.2834 10.7584 12.6135 10.7161 11.9436 10.7161C10.4957 10.7161 9.43673 10.9908 8.72359 11.5614C8.01044 12.132 7.66467 12.935 7.66467 13.9916C7.66467 14.9849 7.924 15.7244 8.46426 16.2316C8.98291 16.7599 9.73929 17.0136 10.7334 17.0136ZM28.0866 19.2958C27.6977 19.2958 27.4384 19.2324 27.2654 19.0845C27.0926 18.9578 26.9414 18.6618 26.8116 18.2603L21.7332 1.925C21.6035 1.50236 21.5386 1.22763 21.5386 1.07971C21.5386 0.741588 21.7116 0.551396 22.0573 0.551396H24.1751C24.5857 0.551396 24.8667 0.614793 25.018 0.76272C25.1908 0.889514 25.3205 1.18537 25.4501 1.58689L29.0808 15.5766L32.4521 1.58689C32.5601 1.16424 32.6897 0.889514 32.8627 0.76272C33.0355 0.635926 33.338 0.551396 33.727 0.551396H35.4558C35.8664 0.551396 36.1474 0.614793 36.3204 0.76272C36.4932 0.889514 36.6444 1.18537 36.7309 1.58689L40.1454 15.7456L43.884 1.58689C44.0136 1.16424 44.165 0.889514 44.3163 0.76272C44.4891 0.635926 44.7701 0.551396 45.159 0.551396H47.1688C47.5147 0.551396 47.7091 0.720455 47.7091 1.07971C47.7091 1.18537 47.6875 1.29103 47.6659 1.41782C47.6443 1.54462 47.6011 1.71368 47.5147 1.94614L42.3065 18.2815C42.1768 18.7041 42.0255 18.9789 41.8526 19.1056C41.6798 19.2324 41.3988 19.317 41.0314 19.317H39.1729C38.7623 19.317 38.4814 19.2536 38.3085 19.1056C38.1355 18.9578 37.9843 18.683 37.8979 18.2603L34.5482 4.62995L31.2203 18.2392C31.1122 18.6618 30.9825 18.9366 30.8097 19.0845C30.6367 19.2324 30.3342 19.2958 29.9452 19.2958H28.0866ZM55.8563 19.8664C54.7326 19.8664 53.6087 19.7396 52.5282 19.4861C51.4477 19.2324 50.605 18.9578 50.0431 18.6407C49.6972 18.4506 49.4596 18.2392 49.3732 18.0491C49.2866 17.8589 49.2434 17.6475 49.2434 17.4574V16.3796C49.2434 15.9358 49.4164 15.7244 49.7404 15.7244C49.8702 15.7244 49.9998 15.7456 50.1295 15.7879C50.2591 15.8301 50.4537 15.9147 50.6697 15.9992C51.4045 16.3162 52.2041 16.5698 53.0469 16.7388C53.9114 16.9079 54.7541 16.9925 55.6186 16.9925C56.98 16.9925 58.039 16.7599 58.7737 16.295C59.5085 15.8301 59.8975 15.1538 59.8975 14.2874C59.8975 13.6957 59.7029 13.2097 59.314 12.8082C58.925 12.4067 58.1903 12.0475 57.1313 11.7093L53.9978 10.7584C52.4203 10.2723 51.2532 9.5538 50.5401 8.60285C49.827 7.67303 49.4596 6.63753 49.4596 5.53865C49.4596 4.65109 49.654 3.86919 50.0431 3.19295C50.432 2.51671 50.9507 1.925 51.599 1.46009C52.2473 0.974044 52.9821 0.614793 53.8465 0.361204C54.7109 0.107615 55.6186 0.00195312 56.5694 0.00195312C57.0449 0.00195312 57.5419 0.0230855 58.0174 0.0864828C58.5144 0.14988 58.9683 0.23441 59.4221 0.31894C59.8542 0.424601 60.2648 0.530264 60.6539 0.657058C61.0428 0.783853 61.3453 0.910647 61.5615 1.03744C61.864 1.20651 62.0801 1.37556 62.2098 1.56575C62.3395 1.73481 62.4043 1.96727 62.4043 2.26312V3.25635C62.4043 3.70013 62.2314 3.93258 61.9073 3.93258C61.7344 3.93258 61.4534 3.84805 61.086 3.67899C59.8542 3.12956 58.4712 2.85483 56.9368 2.85483C55.705 2.85483 54.7326 3.04502 54.0627 3.44654C53.3927 3.84805 53.0469 4.4609 53.0469 5.32732C53.0469 5.91903 53.263 6.42621 53.6953 6.82773C54.1274 7.22923 54.9271 7.63075 56.0724 7.99001L59.1411 8.94097C60.6971 9.42701 61.8208 10.1032 62.4907 10.9697C63.1606 11.8361 63.4848 12.8293 63.4848 13.9282C63.4848 14.8369 63.2904 15.661 62.923 16.3796C62.5339 17.098 62.0153 17.732 61.3453 18.2392C60.6754 18.7675 59.8759 19.1479 58.9466 19.4227C57.9742 19.7185 56.9584 19.8664 55.8563 19.8664Z" fill="white"/>
<path d="M59.9408 30.1367C52.8309 35.2719 42.501 37.9979 33.6191 37.9979C21.1714 37.9979 9.9555 33.4968 1.48415 26.0159C0.814216 25.4242 1.41931 24.6212 2.2189 25.0861C11.3818 30.2846 22.6841 33.4334 34.3755 33.4334C42.2634 33.4334 50.9292 31.8273 58.9035 28.5307C60.0921 28.0024 61.1077 29.2914 59.9408 30.1367Z" fill="#FF9900"/>
<path d="M67.715 26.84C66.8073 25.699 61.7072 26.2906 59.3949 26.5654C58.7035 26.6499 58.5954 26.0582 59.222 25.6144C63.2849 22.8249 69.9625 23.628 70.7405 24.5578C71.5185 25.5087 70.5244 32.0387 66.7209 35.1662C66.1374 35.6522 65.5755 35.3987 65.8349 34.7647C66.6993 32.6726 68.6226 27.9601 67.715 26.84Z" fill="#FF9900"/>
</svg>
