<svg width="53" height="63" viewBox="0 0 53 63" fill="none" xmlns="http://www.w3.org/2000/svg">
<g clip-path="url(#clip0_15869_4404)">
<path d="M26.5001 49.0039C39.6924 49.0039 50.3868 38.603 50.3868 25.7728C50.3868 12.9425 39.6924 2.5415 26.5001 2.5415C13.3078 2.5415 2.61328 12.9425 2.61328 25.7728C2.61328 38.603 13.3078 49.0039 26.5001 49.0039Z" fill="#94C856"/>
<path d="M26.5002 51.1161C12.1312 51.1161 0.441895 39.7475 0.441895 25.7729C0.441895 11.7982 12.1312 0.429688 26.5002 0.429688C40.8692 0.429688 52.5586 11.7982 52.5586 25.7729C52.5586 39.7475 40.8692 51.1161 26.5002 51.1161ZM26.5002 4.65355C14.5265 4.65355 4.78495 14.1277 4.78495 25.7729C4.78495 37.418 14.5265 46.8922 26.5002 46.8922C38.474 46.8922 48.2155 37.418 48.2155 25.7729C48.2155 14.1277 38.474 4.65355 26.5002 4.65355Z" fill="#6E6E6E"/>
<path d="M45.733 58.8125L38.9579 47.8304C41.9937 44.785 43.872 40.6455 43.872 36.0817C43.872 34.916 42.8992 33.9697 41.7004 33.9697C40.5018 33.9697 39.529 34.916 39.529 36.0817C39.529 39.0954 38.4367 41.8663 36.6235 44.0437L33.0143 38.1937L28.6714 40.3056L32.8755 47.1208C30.9883 48.1556 28.8168 48.7533 26.4998 48.7533C24.2435 48.7533 22.0764 48.1661 20.1351 47.1018L24.3282 40.3056L19.9853 38.1937L7.26659 58.8125C7.06246 59.1398 6.95605 59.5158 6.95605 59.898V61.8283C6.95605 62.6139 7.80513 63.1229 8.52823 62.7723L10.7345 61.6995C11.1037 61.52 11.412 61.2412 11.6248 60.897L17.9071 50.7132C20.5216 52.1704 23.4488 52.9772 26.4998 52.9772C29.6333 52.9772 32.567 52.1557 35.1077 50.7385L41.3748 60.899C41.5876 61.2432 41.896 61.522 42.2651 61.7015L44.4714 62.7745C45.1944 63.1229 46.0436 62.6139 46.0436 61.8283V59.898C46.0436 59.5158 45.9371 59.1398 45.733 58.8125Z" fill="#F2F2F2"/>
<path d="M33.0146 25.5223H30.8431V21.2985C30.8431 20.1327 29.8703 19.1865 28.6717 19.1865H24.3285C23.1299 19.1865 22.157 20.1327 22.157 21.2985V25.5223H19.9856C18.7868 25.5223 17.814 26.4684 17.814 27.6343V36.082C17.814 36.7873 18.1766 37.4463 18.7803 37.8391L25.2949 42.063C25.6597 42.2995 26.081 42.4177 26.5001 42.4177C26.9191 42.4177 27.3404 42.2995 27.7053 42.063L34.2198 37.8391C34.8235 37.4463 35.1862 36.7873 35.1862 36.082V27.6343C35.1862 26.4684 34.2133 25.5223 33.0146 25.5223ZM26.5001 36.082C24.1006 36.082 22.157 34.1917 22.157 31.8581C22.157 29.5245 24.1006 27.6343 26.5001 27.6343C28.8996 27.6343 30.8431 29.5245 30.8431 31.8581C30.8431 34.1917 28.8996 36.082 26.5001 36.082Z" fill="#6E6E6E"/>
</g>
<defs>
<clipPath id="clip0_15869_4404">
<rect width="53" height="63" fill="white"/>
</clipPath>
</defs>
</svg>
