<svg width="55" height="66" viewBox="0 0 55 66" fill="none" xmlns="http://www.w3.org/2000/svg">
<g clip-path="url(#clip0_15869_4268)">
<path d="M4.0097 21.3475C1.79533 21.3464 0.000546356 23.174 0 25.4215L0.00273183 42.4787C0.0032782 44.734 1.79914 46.5544 4.01407 46.5537C6.2301 46.5537 8.02543 44.7335 8.02323 42.4793V25.4193C8.02214 23.1723 6.22518 21.3464 4.0097 21.3475ZM36.3497 6.02968L39.1485 0.838054C39.2977 0.566681 39.1999 0.221498 38.9295 0.0677742C38.6564 -0.0792893 38.3193 0.020603 38.1744 0.293642L35.3471 5.53965C32.9683 4.46415 30.3058 3.86146 27.4888 3.86424C24.6794 3.86146 22.0181 4.46248 19.6491 5.53188L16.8185 0.299192C16.6714 0.0233778 16.3328 -0.0765145 16.0657 0.0738788C15.7935 0.223162 15.6935 0.568901 15.8449 0.839719L18.645 6.02802C13.1431 8.90991 9.42573 14.3984 9.42901 20.7L45.5529 20.6956C45.5546 14.3962 41.8437 8.91878 36.3497 6.02968ZM19.2726 14.0527C18.4417 14.051 17.7631 13.364 17.7631 12.5149C17.7631 11.6697 18.4395 10.9749 19.2744 10.9755C20.1119 10.9749 20.7894 11.6697 20.7905 12.5149C20.7909 13.3629 20.1119 14.0521 19.2726 14.0527ZM35.7219 14.0494C34.887 14.0505 34.2073 13.3629 34.2073 12.5116C34.2106 11.668 34.8859 10.9732 35.7223 10.9699C36.5533 10.9727 37.2347 11.668 37.2342 12.5121C37.2353 13.3618 36.5561 14.0499 35.7219 14.0494ZM9.57652 22.1174L9.58254 48.5527C9.58089 50.9573 11.4959 52.8985 13.8616 52.8985L16.7753 52.8996L16.7786 61.9254C16.778 64.1731 18.5766 66 20.7861 66C23.0021 66 24.7975 64.1715 24.7979 61.9228L24.7959 52.8992L30.2096 52.8974L30.2118 61.9228C30.2118 64.1687 32.0109 65.9994 34.221 65.995C36.437 65.9967 38.2335 64.168 38.2329 61.9195L38.2302 52.8963L41.1543 52.8941C43.5144 52.8952 45.4344 50.9518 45.4355 48.5466L45.4306 22.1113L9.57652 22.1174ZM54.9973 25.4155C54.9967 23.1651 53.202 21.3416 50.9864 21.3427C48.7721 21.3403 46.9779 23.1668 46.9779 25.4171L46.9812 42.4754C46.9805 44.7274 48.7748 46.5476 50.9908 46.5482C53.2057 46.5476 54.9995 44.7274 55 42.4732L54.9973 25.4155Z" fill="#A4C439"/>
</g>
<defs>
<clipPath id="clip0_15869_4268">
<rect width="55" height="66" fill="white"/>
</clipPath>
</defs>
</svg>
