<svg width="34" height="68" viewBox="0 0 34 68" fill="none" xmlns="http://www.w3.org/2000/svg">
<g clip-path="url(#clip0_15869_4589)">
<path d="M28.8096 0.689034C26.951 2.09549 25.3011 3.75833 23.9092 5.6279L25.8309 9.25518C27.0775 7.44541 28.4485 5.7245 29.9338 4.10492C30.0395 3.98722 30.0972 3.93196 30.0972 3.93196L29.9338 4.10492C28.5228 5.74628 27.2381 7.49204 26.0904 9.32725C28.5959 9.14898 31.0903 8.84029 33.5636 8.40242C33.8438 7.40314 33.9245 6.35842 33.8008 5.32799C33.6772 4.29754 33.3517 3.30156 32.8429 2.39698C32.8429 2.39698 30.9884 -0.591327 28.8096 0.689034Z" fill="url(#paint0_linear_15869_4589)"/>
<path d="M22.3524 31.1606L21.5957 31.2928L21.9824 31.2328C22.1001 31.2111 22.2275 31.1871 22.3524 31.1606Z" fill="#BE202E"/>
<path opacity="0.35" d="M22.3524 31.1606L21.5957 31.2928L21.9824 31.2328C22.1001 31.2111 22.2275 31.1871 22.3524 31.1606Z" fill="#BE202E"/>
<path d="M22.9961 27.9944L23.1161 27.9776C23.2795 27.9536 23.4405 27.9248 23.5966 27.8911L23.0008 27.9921L22.9961 27.9944Z" fill="#BE202E"/>
<path opacity="0.35" d="M22.9961 27.9944L23.1161 27.9776C23.2795 27.9536 23.4405 27.9248 23.5966 27.8911L23.0008 27.9921L22.9961 27.9944Z" fill="#BE202E"/>
<path d="M20.1636 18.626C20.7481 17.5339 21.3398 16.4673 21.9388 15.4263C22.5601 14.3469 23.1879 13.302 23.8221 12.2915L23.9325 12.1113C24.5604 11.1184 25.1929 10.1648 25.8303 9.25033L23.9086 5.62305L23.4713 6.16354C22.9165 6.85537 22.3424 7.60485 21.7514 8.38555C21.086 9.27435 20.4014 10.2208 19.7072 11.2177C19.0658 12.1377 18.4148 13.101 17.7638 14.1003C17.209 14.9482 16.654 15.8226 16.1014 16.7187L16.0391 16.8196L18.5397 21.7488C19.0747 20.6984 19.6159 19.6574 20.1636 18.626Z" fill="url(#paint1_linear_15869_4589)"/>
<path d="M8.77071 46.4719C8.43921 47.3815 8.10691 48.3095 7.77381 49.256L7.7594 49.2968L7.61767 49.698C7.39426 50.3369 7.19729 50.8991 6.75049 52.2179C7.58455 52.7579 8.24121 53.5316 8.6386 54.4422C8.58445 53.3823 8.11497 52.3864 7.33181 51.6702C8.9073 51.9252 10.5226 51.7419 12.0009 51.1402C13.4791 50.5386 14.7634 49.5418 15.713 48.2591C15.8608 48.0171 15.9933 47.766 16.1093 47.5073C15.7127 47.9977 15.1905 48.3713 14.5982 48.5883C14.006 48.8053 13.3659 48.8576 12.7463 48.7395C14.7867 47.9864 16.5168 46.5726 17.6612 44.7231C17.9278 44.2954 18.1848 43.8295 18.4491 43.313C17.5221 44.3312 16.346 45.0904 15.0364 45.5159C13.7269 45.9412 12.3291 46.0182 10.9807 45.7393L8.95808 45.9603C8.88842 46.1307 8.83317 46.3013 8.77071 46.4719Z" fill="url(#paint2_linear_15869_4589)"/>
<path d="M9.71448 41.9418C10.1517 40.811 10.6017 39.6692 11.0645 38.5162C11.5065 37.4112 11.9605 36.3006 12.4265 35.1845C12.8926 34.0682 13.3682 32.9471 13.8534 31.8214C14.3467 30.6827 14.8503 29.5465 15.3643 28.4127C15.8785 27.2789 16.395 26.1666 16.9138 25.0761C17.1028 24.6789 17.2933 24.2826 17.4855 23.887C17.8171 23.2048 18.1509 22.5282 18.4872 21.8572C18.504 21.8211 18.5232 21.7851 18.5424 21.749L16.0395 16.8174L15.9169 17.0168C15.3355 17.9777 14.7542 18.9385 14.1849 19.9378C13.6156 20.9371 13.0439 21.9653 12.5034 23.003C12.0374 23.879 11.5826 24.7598 11.139 25.6454L10.8747 26.1859C10.3294 27.3077 9.83699 28.3911 9.39258 29.4336C8.88813 30.6138 8.44294 31.7397 8.05698 32.8111C7.79995 33.5149 7.57654 34.1948 7.35554 34.8457C7.18019 35.403 7.01443 35.9603 6.85589 36.5272C6.48115 37.8372 6.16087 39.1433 5.89502 40.4452L8.40769 45.4056C8.7408 44.5185 9.08191 43.6184 9.43102 42.7056L9.71448 41.9418Z" fill="url(#paint3_linear_15869_4589)"/>
<path d="M5.84935 40.6179C5.53366 42.1835 5.31544 43.7671 5.19595 45.3597C5.19595 45.415 5.19595 45.4702 5.18394 45.5255C4.39032 44.5245 3.41171 43.6852 2.30133 43.0536C3.77693 44.9341 4.74618 47.1612 5.11667 49.5228C4.02666 49.6191 2.93022 49.4321 1.9338 48.9798C2.68567 49.7486 3.61927 50.3154 4.64826 50.6278C3.2415 50.8964 1.93584 51.5471 0.874443 52.5085C2.25509 51.812 3.8068 51.5268 5.34489 51.6871C3.62733 56.5538 1.90498 61.9276 0.182617 67.6303C0.421591 67.5623 0.639959 67.436 0.818141 67.2629C0.996321 67.0898 1.12875 66.8752 1.20354 66.6382C1.51102 65.6052 3.54806 58.8287 6.74295 49.9214L7.0192 49.1576L7.09607 48.9437C7.43398 48.0102 7.78389 47.0573 8.14582 46.0852L8.38604 45.4198V45.4077L5.88537 40.4473C5.87337 40.5026 5.85895 40.5602 5.84935 40.6179Z" fill="url(#paint4_linear_15869_4589)"/>
<path d="M18.9286 22.1765L18.7123 22.621C18.4962 23.0677 18.2769 23.5242 18.0542 23.9901C17.814 24.4947 17.5738 25.011 17.3336 25.5395C17.2087 25.8062 17.0934 26.0729 16.9612 26.3443C16.5865 27.1578 16.207 27.9979 15.8226 28.8641C15.3422 29.9307 14.8618 31.0389 14.3813 32.1887C13.9153 33.2857 13.4429 34.4212 12.964 35.5951C12.5092 36.7161 12.0488 37.866 11.5828 39.0446C11.168 40.1032 10.7492 41.1897 10.3264 42.3043C10.3048 42.3596 10.2856 42.4124 10.2664 42.4677C9.84679 43.5775 9.42321 44.7161 8.99562 45.8836L8.9668 45.9629L10.9894 45.7419L10.8693 45.7203C13.8312 45.1176 16.5287 43.5991 18.5803 41.3795C19.6021 40.2674 20.4891 39.0387 21.2227 37.7186C21.8603 36.5801 22.4266 35.4032 22.9186 34.1946C23.3871 33.0608 23.8363 31.8357 24.2687 30.5048C23.6707 30.8098 23.0339 31.0313 22.3758 31.1631C22.2532 31.1894 22.1356 31.2135 22.001 31.2351C21.8665 31.2567 21.744 31.2784 21.6142 31.2951C23.72 30.4297 25.4089 28.783 26.3273 26.6998C25.5041 27.2611 24.5836 27.6644 23.6128 27.8889C23.4543 27.925 23.2957 27.9513 23.1324 27.9754L23.0123 27.9922C23.7288 27.7029 24.406 27.3245 25.0278 26.8655C25.1502 26.7743 25.268 26.6782 25.3833 26.5773C25.5586 26.426 25.7243 26.2674 25.8829 26.0968C25.9838 25.9911 26.0822 25.8807 26.1783 25.7654C26.4086 25.4903 26.6197 25.1997 26.8101 24.8957C26.8701 24.7996 26.9303 24.7036 26.988 24.6027C27.0623 24.4586 27.1344 24.3168 27.2041 24.1751C27.5188 23.5409 27.771 22.974 27.9704 22.4792C28.0712 22.239 28.1577 21.9988 28.2322 21.7874C28.2634 21.7033 28.2922 21.6192 28.3187 21.5472C28.3979 21.307 28.4628 21.0979 28.5132 20.9106C28.5749 20.6932 28.6245 20.4728 28.6622 20.25C28.579 20.3156 28.4915 20.3759 28.4004 20.4302C27.5256 20.8935 26.5838 21.2177 25.609 21.3911H25.5659L25.28 21.4366L25.3304 21.415L18.9767 22.1117L18.9286 22.1765Z" fill="url(#paint5_linear_15869_4589)"/>
<path d="M26.0829 9.32971C25.5184 10.1969 24.9011 11.1818 24.2381 12.2988L24.1324 12.4766C23.5591 13.4374 22.9512 14.5 22.3091 15.6642C21.755 16.6668 21.1793 17.7453 20.582 18.9C20.0599 19.9073 19.5218 20.9771 18.9678 22.1093L25.3215 21.4126C26.7241 20.8591 27.934 19.9071 28.8022 18.6741C29.016 18.3666 29.2299 18.0448 29.4436 17.7133C30.097 16.6947 30.7359 15.573 31.3077 14.4583C31.8306 13.4467 32.302 12.4092 32.7202 11.3499C32.937 10.8 33.1239 10.2386 33.2799 9.66841C33.3952 9.22641 33.4865 8.80843 33.5561 8.40967C31.0827 8.84571 28.5883 9.1528 26.0829 9.32971Z" fill="url(#paint6_linear_15869_4589)"/>
<path d="M21.9775 31.2329C21.8503 31.2545 21.7205 31.2761 21.5908 31.2929C21.7205 31.2761 21.8599 31.2545 21.9775 31.2329Z" fill="#BE202E"/>
<path opacity="0.35" d="M21.9775 31.2329C21.8503 31.2545 21.7205 31.2761 21.5908 31.2929C21.7205 31.2761 21.8599 31.2545 21.9775 31.2329Z" fill="#BE202E"/>
<path d="M21.9775 31.2329C21.8503 31.2545 21.7205 31.2761 21.5908 31.2929C21.7205 31.2761 21.8599 31.2545 21.9775 31.2329Z" fill="url(#paint7_linear_15869_4589)"/>
</g>
<defs>
<linearGradient id="paint0_linear_15869_4589" x1="20.708" y1="1.2969" x2="34.7904" y2="-2.61211" gradientUnits="userSpaceOnUse">
<stop stop-color="#F69923"/>
<stop offset="0.312" stop-color="#F79A23"/>
<stop offset="0.838" stop-color="#E97826"/>
</linearGradient>
<linearGradient id="paint1_linear_15869_4589" x1="-10.1466" y1="64.48" x2="18.5233" y2="3.07368" gradientUnits="userSpaceOnUse">
<stop offset="0.323" stop-color="#9E2064"/>
<stop offset="0.63" stop-color="#C92037"/>
<stop offset="0.751" stop-color="#CD2335"/>
<stop offset="1" stop-color="#E97826"/>
</linearGradient>
<linearGradient id="paint2_linear_15869_4589" x1="-0.523742" y1="59.9437" x2="16.5602" y2="23.3525" gradientUnits="userSpaceOnUse">
<stop stop-color="#282662"/>
<stop offset="0.095" stop-color="#662E8D"/>
<stop offset="0.788" stop-color="#9F2064"/>
<stop offset="0.949" stop-color="#CD2032"/>
</linearGradient>
<linearGradient id="paint3_linear_15869_4589" x1="-9.11024" y1="60.7624" x2="19.5596" y2="-0.643906" gradientUnits="userSpaceOnUse">
<stop offset="0.323" stop-color="#9E2064"/>
<stop offset="0.63" stop-color="#C92037"/>
<stop offset="0.751" stop-color="#CD2335"/>
<stop offset="1" stop-color="#E97826"/>
</linearGradient>
<linearGradient id="paint4_linear_15869_4589" x1="-6.18657" y1="56.6744" x2="8.88045" y2="24.4033" gradientUnits="userSpaceOnUse">
<stop stop-color="#282662"/>
<stop offset="0.095" stop-color="#662E8D"/>
<stop offset="0.788" stop-color="#9F2064"/>
<stop offset="0.949" stop-color="#CD2032"/>
</linearGradient>
<linearGradient id="paint5_linear_15869_4589" x1="-2.75149" y1="63.7314" x2="25.9183" y2="2.32508" gradientUnits="userSpaceOnUse">
<stop offset="0.323" stop-color="#9E2064"/>
<stop offset="0.63" stop-color="#C92037"/>
<stop offset="0.751" stop-color="#CD2335"/>
<stop offset="1" stop-color="#E97826"/>
</linearGradient>
<linearGradient id="paint6_linear_15869_4589" x1="-4.84563" y1="67.3948" x2="23.8252" y2="5.9864" gradientUnits="userSpaceOnUse">
<stop offset="0.323" stop-color="#9E2064"/>
<stop offset="0.63" stop-color="#C92037"/>
<stop offset="0.751" stop-color="#CD2335"/>
<stop offset="1" stop-color="#E97826"/>
</linearGradient>
<linearGradient id="paint7_linear_15869_4589" x1="-0.86168" y1="64.6146" x2="27.8099" y2="3.20722" gradientUnits="userSpaceOnUse">
<stop offset="0.323" stop-color="#9E2064"/>
<stop offset="0.63" stop-color="#C92037"/>
<stop offset="0.751" stop-color="#CD2335"/>
<stop offset="1" stop-color="#E97826"/>
</linearGradient>
<clipPath id="clip0_15869_4589">
<rect width="34" height="68" fill="white"/>
</clipPath>
</defs>
</svg>
