<svg width="75" height="73" viewBox="0 0 75 73" fill="none" xmlns="http://www.w3.org/2000/svg">
<path d="M63.3114 65.2342H53.3973L54.093 56.8024H49.2229L48.5271 65.2342H28.0031L27.3071 56.8024H22.4373L23.1333 65.2342H13.2185L7.65283 28.6969L21.5675 6.21289H54.9627L68.8773 28.6969L63.3114 65.2342ZM52.1797 17.4549H43.2345L43.831 21.6709H32.6992L33.2956 17.4549H24.3504L18.7845 28.6972L21.5675 51.1812H54.9627L57.7456 28.6972L52.1797 17.4549ZM47.3096 43.7194C46.5411 43.7194 45.9181 41.379 45.9181 38.4919C45.9181 35.6047 46.5411 33.2642 47.3096 33.2642C48.078 33.2642 48.7009 35.6047 48.7009 38.4919C48.7009 41.379 48.078 43.7194 47.3096 43.7194ZM29.7425 44.155C28.974 44.155 28.3508 41.8147 28.3508 38.9275C28.3508 36.0404 28.974 33.7 29.7425 33.7C30.5108 33.7 31.1338 36.0404 31.1338 38.9275C31.1338 41.8147 30.5108 44.155 29.7425 44.155Z" fill="white"/>
</svg>
