<svg width="50" height="52" viewBox="0 0 50 52" fill="none" xmlns="http://www.w3.org/2000/svg">
<g clip-path="url(#clip0_15869_5262)">
<path d="M24.9402 27.373C24.75 27.6445 24.5897 27.8677 24.4353 28.0936C21.9738 31.7304 19.513 35.3668 17.0531 39.0028C14.7647 42.385 12.4739 45.7652 10.1807 49.1435C10.1426 49.1964 10.0939 49.2408 10.0376 49.2738C9.98131 49.3067 9.91878 49.3274 9.85403 49.3343C6.61642 49.3064 3.37959 49.2711 0.143575 49.2287C0.107681 49.2287 0.0705911 49.2178 0 49.207C0.0261369 49.1392 0.0565072 49.0729 0.0909308 49.0089C2.34905 45.4946 4.60716 41.981 6.86528 38.4683C8.86816 35.3553 10.8722 32.2428 12.8775 29.1313C15.0997 25.6738 17.3208 22.2141 19.5406 18.7517C19.8684 18.2413 20.2094 17.7405 20.5205 17.2204C20.6002 17.0812 20.6242 16.9167 20.5875 16.7604C19.9892 14.8459 19.3791 12.9362 18.77 11.0265C18.5092 10.2086 18.2364 9.39549 17.9923 8.57277C17.9134 8.30853 17.783 8.22806 17.5138 8.22925C15.4798 8.23767 13.4578 8.23526 11.4298 8.23526C11.0445 8.23526 11.0433 8.23526 11.0433 7.85332C11.0433 5.35031 11.0433 2.8473 11.0361 0.344294C11.0361 0.0656478 11.1271 0.00319263 11.3879 0.00319263C15.471 0.010399 19.5548 0.010399 23.6397 0.00319263C23.7345 -0.00898434 23.8305 0.0139215 23.9098 0.0676312C23.9891 0.121341 24.0461 0.202181 24.0703 0.295051C26.2239 5.73265 28.3777 11.1683 30.5313 16.6019C33.0438 22.9386 35.5564 29.2763 38.0689 35.6146C38.8491 37.582 39.6352 39.548 40.4067 41.5203C40.4989 41.7604 40.5947 41.8061 40.8363 41.7316C42.9767 41.0674 45.122 40.4213 47.2612 39.7559C47.5305 39.6717 47.6286 39.7283 47.7123 39.996C48.4422 42.2985 49.1864 44.5961 49.9258 46.8963C49.9509 46.9755 49.9702 47.0559 50 47.1665C49.8469 47.2229 49.7033 47.2866 49.5561 47.3274C44.6905 48.8751 39.8277 50.4238 34.9677 51.9731C34.7356 52.0463 34.6663 51.9671 34.5884 51.7714C33.1041 47.9952 31.6161 44.2206 30.1244 40.4476C28.6656 36.7533 27.2059 33.0588 25.7455 29.3644C25.5264 28.8094 25.3111 28.2521 25.0922 27.6973C25.0575 27.6024 25.0095 27.5195 24.9402 27.373Z" fill="#FA7E14"/>
</g>
<defs>
<clipPath id="clip0_15869_5262">
<rect width="50" height="52" fill="white"/>
</clipPath>
</defs>
</svg>
