<svg width="65" height="65" viewBox="0 0 65 65" fill="none" xmlns="http://www.w3.org/2000/svg">
<g clip-path="url(#clip0_15869_5285)">
<path d="M25.105 58.6825L18.3936 56.809L12.0457 49.5997L19.9858 49.3814L25.105 58.6825ZM9.58504 53.9281L5.80818 52.8746L2.23877 48.8198L6.576 48.1094L9.58504 53.9281Z" fill="#995B80"/>
<path d="M0 48.31L3.86039 49.0918L4.42076 48.1101V14.7985L3.86039 14.1509L0 16.3404V48.31Z" fill="#7B3F65"/>
<path d="M18.7719 17.6323L3.86133 14.1509V49.0918L6.0952 48.8849L9.58488 53.9283L12.2763 48.3129L18.7719 47.7115V17.6323Z" fill="#C17B9D"/>
<path d="M8.62207 50.1096L15.2397 51.4372L15.6753 50.4143V9.47177L15.2397 8.54492L8.62207 11.8851V50.1096Z" fill="#7B3F65"/>
<path d="M52.9989 20.6181L15.2397 8.54492V51.4382L19.6123 50.8778L25.1051 58.6825L29.4534 49.6164L52.9989 46.5986V20.6181Z" fill="#C17B9D"/>
<path d="M46.1684 64.8681L36.6302 62.2064L27.6143 51.9643L39.3024 51.8459L46.1684 64.8681Z" fill="#995B80"/>
<path d="M22.7476 52.8451L32.4799 54.7208L33.2357 54.072V1.04481L32.4799 0.00366211L22.7476 4.84854V52.8451Z" fill="#7B3F65"/>
<path d="M65 16.197L32.481 0.00366211V54.7209L38.2185 53.5757L46.1686 64.868L52.999 50.6281L52.9945 50.6275L65 48.2319V16.197Z" fill="#C17B9D"/>
</g>
<defs>
<clipPath id="clip0_15869_5285">
<rect width="65" height="65" fill="white"/>
</clipPath>
</defs>
</svg>
