<svg width="51" height="62" viewBox="0 0 51 62" fill="none" xmlns="http://www.w3.org/2000/svg">
<g clip-path="url(#clip0_15869_5212)">
<path d="M50.9937 27.4084L38.6148 27.9234L30.5903 27.4094L43.8631 26.1321L50.9937 27.4084Z" fill="#634B1E"/>
<path d="M43.8344 26.6901L50.9936 27.4085V12.9273L43.8344 9.33228L43.2847 9.92827V26.0739L43.8344 26.6901Z" fill="#D9A740"/>
<path d="M30.5903 12.9187L43.8344 9.31934V26.69L30.5903 27.4094V12.9187Z" fill="#886A2A"/>
<path d="M0.00585938 27.4085L12.3848 27.9235L20.4092 27.4095L7.17426 25.9861L0.00585938 27.4085Z" fill="#634B1E"/>
<path d="M7.16509 26.6899L0.00585938 27.3869V12.862L7.16509 9.27295L7.49473 9.89115V26.1474L7.16509 26.6899Z" fill="#886A2A"/>
<path d="M20.4091 12.9187L7.16504 9.31934V26.69L20.4091 27.4094V12.9187Z" fill="#D9A740"/>
<path d="M50.9937 34.8973L38.6148 34.3821L30.5903 34.8962L43.8054 36.2377L50.9937 34.8973Z" fill="#FAD791"/>
<path d="M43.8346 35.6156L50.9938 34.8972V49.3783L43.8346 52.9732L43.4585 52.151V36.3545L43.8346 35.6156Z" fill="#D9A740"/>
<path d="M30.5903 49.3868L43.8344 52.9862V35.6156L30.5903 34.8962V49.3868Z" fill="#886A2A"/>
<path d="M0.00585938 34.8973L12.3848 34.3821L20.4092 34.8963L7.07846 36.3539L0.00585938 34.8973Z" fill="#FAD791"/>
<path d="M7.16509 35.6156L0.00585938 34.8972V49.3783L7.16509 52.9732L7.59909 52.3253V36.3539L7.16509 35.6156Z" fill="#886A2A"/>
<path d="M20.4091 49.3868L7.16504 52.9862V35.6156L20.4091 34.8962V49.3868Z" fill="#D9A740"/>
<path d="M19.0371 21.3257L25.6029 20.1694L38.7113 22.0332L39.8404 22.6854L33.4737 23.3851L19.0371 21.3257Z" fill="#634B1E"/>
<path d="M31.9624 21.3257L25.3966 20.1694L11.7238 22.2998L11.1592 22.6854L17.5259 23.3851L31.9624 21.3257Z" fill="#634B1E"/>
<path d="M19.0371 40.9799L25.6029 42.1361L38.6783 40.3L39.8404 39.6201L33.4737 38.9204L19.0371 40.9799Z" fill="#FAD791"/>
<path d="M31.9624 40.9799L25.3966 42.1361L11.6243 40.1666L11.1592 39.6201L17.5259 38.9204L31.9624 40.9799Z" fill="#FAD791"/>
<path d="M39.8404 22.6855V15.5281L33.1257 13.3231V3.95511L25.4996 0.126709L25.1815 0.63551L25.1235 61.153L25.4996 61.9313L33.1257 58.1029V48.9823L39.8404 46.7773V39.6198L33.1257 40.8069V21.4984L39.8404 22.6855Z" fill="#D9A740"/>
<path d="M17.8739 3.95511V13.3231L11.1592 15.5281V22.6855L17.8739 21.4984V40.8069L11.1592 39.6198V46.7773L17.8739 48.9823V58.1029L25.4999 61.9313V0.126709L17.8739 3.95511Z" fill="#886A2A"/>
</g>
<defs>
<clipPath id="clip0_15869_5212">
<rect width="51" height="62" fill="white"/>
</clipPath>
</defs>
</svg>
