<svg width="60" height="73" viewBox="0 0 60 73" fill="none" xmlns="http://www.w3.org/2000/svg">
<g clip-path="url(#clip0_15869_5079)">
<path d="M38.9084 30.2109L52.7834 28.7144L59.9728 30.2239L59.9988 30.2401L46.7436 31.0397L38.896 30.2239L38.9084 30.2109Z" fill="#5E1F18"/>
<path d="M38.896 30.2241L52.7714 29.1279L52.8669 28.9873L52.8673 11.675L52.772 11.4771L38.896 15.1264V30.2241Z" fill="#8C3123"/>
<path d="M59.9989 30.2404L52.7715 29.1279L52.772 11.4771L59.9986 15.1337L59.9989 30.2404Z" fill="#E05243"/>
<path d="M38.896 42.6895L39.0988 42.8332L52.7737 43.7716L59.7513 42.8332L59.9985 42.696L46.7436 41.8723L38.896 42.6895Z" fill="#F2B0A9"/>
<path d="M38.896 42.6895L52.7737 43.7335L52.8167 43.7919L52.8062 61.3171L52.772 61.4086L38.896 57.7882V42.6895Z" fill="#8C3123"/>
<path d="M59.9992 42.696L52.7744 43.7336L52.7725 61.4087L59.9992 57.7802V42.696Z" fill="#E05243"/>
<path d="M20.888 30.1974L7.17051 29.009L0.0471858 30.205L0.00195312 30.2408L13.257 31.0405L20.9615 30.2403L20.888 30.1974Z" fill="#5E1F18"/>
<path d="M0.00195312 30.2404L7.16348 29.1801L7.37417 29.029V11.6797L7.16348 11.4771L0.00195312 15.1344V30.2404Z" fill="#8C3123"/>
<path d="M20.9616 30.24L7.16357 29.18V11.4771L20.9623 15.1264L20.9616 30.24Z" fill="#E05243"/>
<path d="M20.9615 42.696L20.6449 42.9294L7.16347 43.9516L0.230206 42.9294L0.00146484 42.696L13.257 41.8723L20.9615 42.696Z" fill="#F2B0A9"/>
<path d="M0.00146484 42.696L7.16323 43.7247L7.34533 43.9503L7.36478 61.0941L7.16347 61.4087L0.00193358 57.7802L0.00146484 42.696Z" fill="#8C3123"/>
<path d="M20.9614 42.696L7.16309 43.7247L7.16332 61.4087L20.9614 57.7883V42.696Z" fill="#E05243"/>
<path d="M44.3209 44.9519L30.0004 43.5237L15.5371 44.9521L15.7411 45.1264L29.9299 47.4056L44.1167 45.1264L44.3209 44.9519Z" fill="#F2B0A9"/>
<path d="M15.5371 44.9521L29.9299 47.0847L30.0758 47.2822L30.0943 72.6329L29.9299 72.9139L15.5371 65.6362V44.9521Z" fill="#8C3123"/>
<path d="M44.3212 44.9519L29.9302 47.0847V72.9139L44.3214 65.6363L44.3212 44.9519Z" fill="#E05243"/>
<path d="M30.0004 29.3738L15.5371 27.9617L15.5745 27.9401L29.9291 25.688L44.2775 27.9453L44.321 27.9617L30.0004 29.3738Z" fill="#5E1F18"/>
<path d="M15.5371 27.9616L29.9299 25.8406L29.9987 25.777L29.9668 0.0391071L29.9299 0L15.5371 7.27843V27.9616Z" fill="#8C3123"/>
<path d="M44.3214 27.9616L29.9302 25.8406V0L44.3214 7.27843V27.9616Z" fill="#E05243"/>
</g>
<defs>
<clipPath id="clip0_15869_5079">
<rect width="60" height="73" fill="white"/>
</clipPath>
</defs>
</svg>
