<svg width="57" height="70" viewBox="0 0 57 70" fill="none" xmlns="http://www.w3.org/2000/svg">
<g clip-path="url(#clip0_15869_4994)">
<path d="M28.2939 51.8719L52.0277 57.7491V12.145L28.2939 18.026V51.8719Z" fill="#8C3123"/>
<path d="M52.0293 12.145L56.5902 14.4783V55.4294L52.0293 57.7617V12.145Z" fill="#E05243"/>
<path d="M38.6462 20.2767L28.2939 17.6556V0L38.6462 5.29667V20.2767Z" fill="#E05243"/>
<path d="M28.2939 70.0001L38.6451 64.7053V49.7253L28.2939 52.3454V70.0001Z" fill="#E05243"/>
<path d="M38.6462 42.5L28.2939 43.8485V26.1919L38.6462 27.521V42.5Z" fill="#E05243"/>
<path d="M28.2939 51.8719L4.55908 57.7491V12.145L28.2939 18.026V51.8719Z" fill="#E05243"/>
<path d="M4.55905 12.145L0 14.4783V55.4294L4.55905 57.7617V12.145Z" fill="#8C3123"/>
<path d="M17.9443 20.2767L28.2936 17.6556V0L17.9443 5.29667V20.2767Z" fill="#8C3123"/>
<path d="M28.2946 70.0001L17.9443 64.7053V49.7253L28.2946 52.3454V70.0001Z" fill="#8C3123"/>
<path d="M17.9443 42.5L28.2936 43.8485V26.1919L17.9443 27.521V42.5Z" fill="#8C3123"/>
<path d="M38.6458 20.2769L28.2936 22.2077L17.9443 20.2769L28.2936 17.6558L38.6458 20.2769Z" fill="#5E1F18"/>
<path d="M38.6458 49.7242L28.2936 47.7808L17.9443 49.7242L28.2936 52.3619L38.6458 49.7242Z" fill="#F2B0A9"/>
</g>
<defs>
<clipPath id="clip0_15869_4994">
<rect width="57" height="70" fill="white"/>
</clipPath>
</defs>
</svg>
