<svg width="46" height="57" viewBox="0 0 46 57" fill="none" xmlns="http://www.w3.org/2000/svg">
<g clip-path="url(#clip0_15869_4551)">
<path d="M0 0V30.8203L22.9923 43.8972V35.008L7.61069 26.2596V12.5187L22.9923 21.267V13.0771L0 0Z" fill="#002A41"/>
<path d="M45.9844 0V30.8203L22.9923 43.8972V35.008L38.3737 26.2596V12.5187L22.9922 21.267V13.0771L45.9844 0Z" fill="#0071B5"/>
<path d="M0 56.9882V26.1679L22.9923 13.0908V21.98L7.61069 30.7283V43.7702L22.9923 35.022V43.9112L0 56.9882Z" fill="#0071B5"/>
<path d="M45.9844 56.9882V26.1679L22.9923 13.0908V21.98L38.3737 30.7283V43.7702L22.9922 35.022V43.9112L45.9844 56.9882Z" fill="#002A41"/>
</g>
<defs>
<clipPath id="clip0_15869_4551">
<rect width="46" height="57" fill="white"/>
</clipPath>
</defs>
</svg>
