<svg width="24" height="23" viewBox="0 0 24 23" fill="none" xmlns="http://www.w3.org/2000/svg">
<g clip-path="url(#clip0_18581_3066)">
<path d="M9.64237 9.16434C9.64237 8.26221 8.91702 8.0481 8.11163 8.0481H6.01562V10.332H8.27567C9.07513 10.332 9.64237 9.9951 9.64237 9.16434Z" fill="white"/>
<path d="M16.6467 10.3472C15.6783 10.3472 15.032 10.9286 14.9688 11.8612H18.2615C18.1715 10.9181 17.6636 10.3472 16.6467 10.3472Z" fill="white"/>
<path d="M8.44472 11.9583H6.00977V14.6551H8.39729C9.30842 14.6551 10.0496 14.3439 10.0496 13.36C10.0486 12.356 9.42898 11.963 8.44472 11.9583Z" fill="white"/>
<path d="M19.693 0.339966H4.37569C2.05339 0.339966 0.175781 2.14803 0.175781 4.38432V18.5634C0.175781 20.7996 2.05339 22.6077 4.37569 22.6077H19.693C22.0153 22.6077 23.8929 20.7996 23.8929 18.5634V4.38432C23.8929 2.14803 22.0153 0.339966 19.693 0.339966ZM14.5592 6.89087H18.6781V7.8539H14.5592V6.89087ZM8.70406 16.3271H3.77584V6.53877H8.5667C10.3089 6.53877 11.8169 7.01267 11.8169 8.95967C11.8169 9.94364 11.3406 10.428 10.4295 10.8458C11.6786 11.1874 12.2824 12.2484 12.2824 13.477C12.2834 15.4659 10.552 16.3166 8.70406 16.3271ZM20.277 13.0897H14.9723C14.9723 14.2211 15.5919 14.8892 16.7778 14.8892C17.3914 14.8892 18.181 14.5732 18.3767 13.9661H20.1604C19.61 15.5924 18.4716 16.3518 16.7145 16.3518C14.3962 16.3518 12.9504 14.8378 12.9504 12.63C12.9504 10.4994 14.4703 8.87879 16.7145 8.87879C19.0171 8.87879 20.2928 10.6269 20.2928 12.7224C20.2928 12.8451 20.282 12.9726 20.277 13.0897Z" fill="white"/>
</g>
<defs>
<clipPath id="clip0_18581_3066">
<rect width="23.7171" height="22.8387" fill="white" transform="translate(0.175781 0.0545654)"/>
</clipPath>
</defs>
</svg>
