<svg width="163" height="110" viewBox="0 0 163 110" fill="none" xmlns="http://www.w3.org/2000/svg">
<mask id="path-1-inside-1_15362_6784" fill="white">
<path d="M0 15.5C0 7.21573 6.71573 0.5 15 0.5H148C156.284 0.5 163 7.21573 163 15.5V94.5C163 102.784 156.284 109.5 148 109.5H15C6.71573 109.5 0 102.784 0 94.5V15.5Z"/>
</mask>
<path d="M0 15.5C0 7.21573 6.71573 0.5 15 0.5H148C156.284 0.5 163 7.21573 163 15.5V94.5C163 102.784 156.284 109.5 148 109.5H15C6.71573 109.5 0 102.784 0 94.5V15.5Z" fill="black"/>
<path d="M0 0.5H163H0ZM164 94.5C164 103.337 156.837 110.5 148 110.5H16C7.16344 110.5 0 103.337 0 94.5C0 102.232 6.71573 108.5 15 108.5H148C155.732 108.5 162 102.232 162 94.5H164ZM0 109.5V0.5V109.5ZM148 0.5C156.837 0.5 164 7.66344 164 16.5V94.5C164 103.337 156.837 110.5 148 110.5V108.5C155.732 108.5 162 102.232 162 94.5V15.5C162 7.21573 155.732 0.5 148 0.5Z" fill="url(#paint0_linear_15362_6784)" mask="url(#path-1-inside-1_15362_6784)"/>
<defs>
<linearGradient id="paint0_linear_15362_6784" x1="163" y1="128.023" x2="148.608" y2="74.2851" gradientUnits="userSpaceOnUse">
<stop stop-color="white"/>
<stop offset="1" stop-color="#999999" stop-opacity="0"/>
</linearGradient>
</defs>
</svg>
