<svg width="93" height="45" viewBox="0 0 93 45" fill="none" xmlns="http://www.w3.org/2000/svg">
<path fill-rule="evenodd" clip-rule="evenodd" d="M68.3209 21.6622L68.2374 23.5793L68.3209 26.1672V30.2888C67.4862 30.5763 67.0686 30.6723 66.4008 30.6723C64.2302 30.6723 62.978 29.0427 62.978 26.1672C62.978 24.1543 63.6458 22.7167 64.8147 21.9499C65.5659 21.3746 66.6513 21.0871 67.653 21.0871H68.3209V21.6622ZM9.88288 30.7681C7.2949 30.7681 5.95917 29.1387 5.95917 26.0715C5.95917 23.0042 7.37838 21.1831 9.88288 21.1831C10.3879 21.1831 10.6065 21.2379 11.0441 21.3475C11.1851 21.3828 11.349 21.4239 11.5525 21.4706V30.5763C10.7177 30.7681 10.4673 30.7681 9.88288 30.7681ZM32.5903 31.4391C31.2546 31.4391 30.6702 30.9598 30.6702 29.8095C30.6702 28.2759 31.5884 27.7008 34.9277 27.3175V31.1516C34.093 31.3431 33.3416 31.4391 32.5903 31.4391ZM80.1754 26.0715C80.1754 22.9083 81.3443 21.0871 83.2644 21.0871C85.1845 21.0871 86.2697 23.0042 86.2697 26.0715C86.2697 29.2345 85.1845 31.0556 83.2644 31.0556C81.2608 31.0556 80.1754 29.2345 80.1754 26.0715ZM91.7796 0C91.8968 0 92.0133 0.00405889 92.1288 0.0120605V0H91.7796ZM9.46546 16.5822C4.28951 16.5822 0.950195 20.4163 0.950195 26.1672C0.950195 32.2059 4.12256 35.2731 10.2168 35.2731C12.2203 35.2731 14.1404 35.0814 16.6451 34.5063V8.62657H11.636V16.8697C10.8012 16.678 10.3003 16.5822 9.46546 16.5822ZM23.0732 38.8196C23.9081 36.9025 24.0749 34.6979 24.0749 30.193V17.2531H19.066V28.2759C19.066 33.1643 18.9825 35.0814 18.3146 36.7108C17.6468 38.3404 16.7286 39.3947 14.558 40.5448L19.1495 43.037C21.3201 41.7909 22.2383 40.6408 23.0732 38.8196ZM19.066 14.3776H24.0749V8.62657H19.066V14.3776ZM32.1727 35.4649C34.2598 35.4649 37.4321 35.1772 39.1019 34.7938H39.0184V23.196C39.0184 20.7996 39.0184 19.7453 38.601 18.8827C37.8497 17.349 36.3469 16.5822 33.8425 16.5822C31.5884 16.5822 29.8353 17.1573 27.3309 18.3074V22.7167C29.0004 21.5664 31.3381 20.9913 33.1746 20.9913C34.4268 20.9913 34.8442 21.3746 34.8442 22.4292V23.6751C29.0004 24.2503 26.2455 26.0715 26.2455 30.0972C26.2455 33.8353 27.9987 35.4649 32.1727 35.4649ZM51.6243 35.4649H56.6334V23.9626C56.6334 21.0871 56.1323 19.841 55.0471 18.5951C53.9619 17.349 51.9583 16.678 49.4539 16.678C47.0327 16.678 44.9457 17.0614 41.6063 17.9241V35.4649H46.6154V21.5664C47.4503 21.2789 48.3685 21.1831 49.0363 21.1831C50.7894 21.1831 51.6243 21.9499 51.6243 24.1543V35.4649ZM73.3299 29.7137L72.7456 24.3461L73.0794 21.3746C73.5446 21.4281 73.6923 21.4443 73.6921 21.4461C73.6917 21.4508 72.7002 21.359 73.6638 21.5664L75.5839 17.4448C73.2464 16.9656 71.2428 16.678 69.1557 16.678C61.9763 16.678 57.8856 20.3203 57.8856 26.7423C57.8856 31.9184 60.6405 35.1772 64.9816 35.1772C66.2338 35.1772 67.4027 34.9856 68.2374 34.4103V34.5063C68.2374 38.0528 66.8183 39.5864 63.5623 39.5864C61.7257 39.5864 59.8892 39.1072 58.2194 38.0528V43.3245C59.8892 44.1873 61.7257 44.4748 63.6458 44.4748C67.4862 44.4748 70.241 43.1329 71.7437 40.3532C72.8291 38.5319 73.3299 36.2315 73.3299 31.3431V29.7137ZM75.1665 26.2632C75.1665 32.0142 78.2553 35.5607 83.1809 35.5607C88.19 35.5607 91.3623 31.8224 91.2787 25.9755C91.2787 20.1286 88.2733 16.5822 83.3479 16.5822C78.3388 16.5822 75.1665 20.3203 75.1665 26.2632Z" fill="#13674A"/>
</svg>
