<svg width="59" height="59" viewBox="0 0 59 59" fill="none" xmlns="http://www.w3.org/2000/svg">
<g clip-path="url(#clip0_15481_9903)">
<g filter="url(#filter0_bii_15481_9903)">
<rect x="0.532227" y="0.00585938" width="58.307" height="58.307" rx="13.2516" fill="white" fill-opacity="0.01"/>
</g>
<g filter="url(#filter1_f_15481_9903)">
<path d="M34.7333 30.4844L35.3223 26.6474H31.6404V24.1574C31.6404 23.1079 32.1545 22.0842 33.8037 22.0842H35.4774V18.8177C35.4774 18.8177 33.9587 18.5586 32.5063 18.5586C29.4744 18.5586 27.4926 20.3966 27.4926 23.7234V26.648H24.1221V30.485H27.4926V39.7611H31.6404V30.485L34.7333 30.4844Z" fill="url(#paint0_linear_15481_9903)"/>
</g>
<path d="M33.9342 30.2683L34.4496 26.6711H31.2279V24.3368C31.2279 23.3528 31.6778 22.3931 33.1208 22.3931H34.5853V19.3308C34.5853 19.3308 33.2565 19.0879 31.9857 19.0879C29.3327 19.0879 27.5986 20.811 27.5986 23.9299V26.6717H24.6494V30.2689H27.5986V38.9653H31.2279V30.2689L33.9342 30.2683Z" fill="url(#paint1_linear_15481_9903)"/>
</g>
<defs>
<filter id="filter0_bii_15481_9903" x="-7.41872" y="-7.94509" width="74.209" height="74.2089" filterUnits="userSpaceOnUse" color-interpolation-filters="sRGB">
<feFlood flood-opacity="0" result="BackgroundImageFix"/>
<feGaussianBlur in="BackgroundImageFix" stdDeviation="3.97547"/>
<feComposite in2="SourceAlpha" operator="in" result="effect1_backgroundBlur_15481_9903"/>
<feBlend mode="normal" in="SourceGraphic" in2="effect1_backgroundBlur_15481_9903" result="shape"/>
<feColorMatrix in="SourceAlpha" type="matrix" values="0 0 0 0 0 0 0 0 0 0 0 0 0 0 0 0 0 0 127 0" result="hardAlpha"/>
<feOffset dx="2.65032" dy="2.65032"/>
<feGaussianBlur stdDeviation="0.662579"/>
<feComposite in2="hardAlpha" operator="arithmetic" k2="-1" k3="1"/>
<feColorMatrix type="matrix" values="0 0 0 0 1 0 0 0 0 1 0 0 0 0 1 0 0 0 0.1 0"/>
<feBlend mode="normal" in2="shape" result="effect2_innerShadow_15481_9903"/>
<feColorMatrix in="SourceAlpha" type="matrix" values="0 0 0 0 0 0 0 0 0 0 0 0 0 0 0 0 0 0 127 0" result="hardAlpha"/>
<feOffset dy="-1.32516"/>
<feGaussianBlur stdDeviation="3.3129"/>
<feComposite in2="hardAlpha" operator="arithmetic" k2="-1" k3="1"/>
<feColorMatrix type="matrix" values="0 0 0 0 0 0 0 0 0 0.456561 0 0 0 0 0.991981 0 0 0 0.35 0"/>
<feBlend mode="normal" in2="effect2_innerShadow_15481_9903" result="effect3_innerShadow_15481_9903"/>
</filter>
<filter id="filter1_f_15481_9903" x="10.8705" y="5.30701" width="37.8586" height="47.7057" filterUnits="userSpaceOnUse" color-interpolation-filters="sRGB">
<feFlood flood-opacity="0" result="BackgroundImageFix"/>
<feBlend mode="normal" in="SourceGraphic" in2="BackgroundImageFix" result="shape"/>
<feGaussianBlur stdDeviation="6.62579" result="effect1_foregroundBlur_15481_9903"/>
</filter>
<linearGradient id="paint0_linear_15481_9903" x1="29.7997" y1="18.5586" x2="29.7997" y2="39.7611" gradientUnits="userSpaceOnUse">
<stop stop-color="#1B77F2"/>
<stop offset="1" stop-color="#62E3FF"/>
</linearGradient>
<linearGradient id="paint1_linear_15481_9903" x1="29.6173" y1="19.0879" x2="29.6173" y2="38.9653" gradientUnits="userSpaceOnUse">
<stop stop-color="#1B77F2"/>
<stop offset="1" stop-color="#62E3FF"/>
</linearGradient>
<clipPath id="clip0_15481_9903">
<rect width="58.307" height="58.307" fill="white" transform="translate(0.532227 0.00585938)"/>
</clipPath>
</defs>
</svg>
