<svg width="25" height="25" viewBox="0 0 25 25" fill="none" xmlns="http://www.w3.org/2000/svg">
<g clip-path="url(#clip0_18581_1321)">
<path d="M24.7713 12.7697C24.7713 18.9073 20.2683 23.9955 14.3899 24.9189V16.3483H17.2482L17.7923 12.8025H14.3899V10.5018C14.3899 9.53128 14.8655 8.5864 16.3883 8.5864H17.9348V5.5673C17.9348 5.5673 16.5308 5.32749 15.1893 5.32749C12.3875 5.32749 10.5571 7.02561 10.5571 10.099V12.8015H7.44274V16.3473H10.5571V24.9178C4.67984 23.9935 0.175781 18.9063 0.175781 12.7697C0.175781 5.97825 5.68211 0.471924 12.4735 0.471924C19.265 0.471924 24.7713 5.97722 24.7713 12.7697Z" fill="white"/>
</g>
<defs>
<clipPath id="clip0_18581_1321">
<rect width="24.5955" height="24.5955" fill="white" transform="translate(0.175781 0.396973)"/>
</clipPath>
</defs>
</svg>
