<svg width="41" height="56" viewBox="0 0 41 56" fill="none" xmlns="http://www.w3.org/2000/svg">
<g clip-path="url(#clip0_15869_4849)">
<path d="M10.2519 56.0001C15.9088 56.0001 20.4998 51.8187 20.4998 46.6667V37.3335H10.2519C4.59499 37.3335 0.00390625 41.5149 0.00390625 46.6667C0.00390625 51.8187 4.59499 56.0001 10.2519 56.0001Z" fill="#0ACF83"/>
<path d="M0.00390625 27.9999C0.00390625 22.8479 4.59499 18.6665 10.2519 18.6665H20.4998V37.3331H10.2519C4.59499 37.3331 0.00390625 33.1519 0.00390625 27.9999Z" fill="#A259FF"/>
<path d="M0.00390625 9.33332C0.00390625 4.18134 4.59499 0 10.2519 0H20.4998V18.6666H10.2519C4.59499 18.6666 0.00390625 14.4854 0.00390625 9.33332Z" fill="#F24E1E"/>
<path d="M20.5 0H30.748C36.4049 0 40.9959 4.18134 40.9959 9.33332C40.9959 14.4854 36.4049 18.6666 30.748 18.6666H20.5V0Z" fill="#FF7262"/>
<path d="M40.9959 27.9999C40.9959 33.1519 36.4049 37.3331 30.748 37.3331C25.0912 37.3331 20.5 33.1519 20.5 27.9999C20.5 22.8479 25.0912 18.6665 30.748 18.6665C36.4049 18.6665 40.9959 22.8479 40.9959 27.9999Z" fill="#1ABCFE"/>
</g>
<defs>
<clipPath id="clip0_15869_4849">
<rect width="41" height="56" fill="white"/>
</clipPath>
</defs>
</svg>
