<svg width="55" height="64" viewBox="0 0 55 64" fill="none" xmlns="http://www.w3.org/2000/svg">
<g clip-path="url(#clip0_15869_3916)">
<path d="M39.8022 7.60417V55.4019C39.8022 60.7501 43.493 63.7302 47.4009 63.7302C51.0193 63.7302 54.9996 61.1954 54.9996 55.4019V7.96627C54.9996 3.0634 51.3812 0 47.4009 0C43.4206 0 39.8022 3.37842 39.8022 7.60417Z" fill="#F9AB00"/>
<path d="M19.9014 31.8653V55.4021C19.9014 60.7503 23.5923 63.7304 27.5001 63.7304C31.1186 63.7304 35.0988 61.1958 35.0988 55.4021V32.2274C35.0988 27.3245 31.4804 24.2612 27.5001 24.2612C23.5199 24.2612 19.9014 27.6397 19.9014 31.8653Z" fill="#E37400"/>
<path d="M7.59869 63.7303C11.7953 63.7303 15.1974 60.3257 15.1974 56.1261C15.1974 51.9265 11.7953 48.522 7.59869 48.522C3.40204 48.522 0 51.9265 0 56.1261C0 60.3257 3.40204 63.7303 7.59869 63.7303Z" fill="#E37400"/>
</g>
<defs>
<clipPath id="clip0_15869_3916">
<rect width="55" height="64" fill="white"/>
</clipPath>
</defs>
</svg>
