<svg width="56" height="55" viewBox="0 0 56 55" fill="none" xmlns="http://www.w3.org/2000/svg">
<path d="M19.2102 6.50774C19.7443 5.07256 20.4785 3.75129 21.5688 2.6806C25.9299 -1.67048 33.1392 -0.577016 36.0984 4.89031C38.3234 9.03637 40.682 13.0914 42.9738 17.1917L54.4551 37.6487C57.637 43.3666 54.1881 50.5881 47.869 51.5676C43.9973 52.16 40.3705 50.3375 38.368 46.7837L28.2662 28.8326C28.1995 28.696 28.1105 28.5821 28.0215 28.4681C27.6655 28.172 27.5097 27.7392 27.2873 27.3519L19.8556 14.162C18.9878 12.6129 18.5873 10.9272 18.6317 9.15027C18.6986 8.23906 18.8097 7.32784 19.2102 6.50774Z" fill="#3C8BD9"/>
<path d="M19.2104 6.50781C19.0101 7.32791 18.8322 8.14801 18.7877 9.01366C18.7209 10.9272 19.1881 12.7041 20.1227 14.3671L27.4431 27.3292C27.6657 27.7165 27.8437 28.1037 28.0661 28.4682L24.0388 35.553L18.4094 45.4853C18.3204 45.4853 18.2982 45.4397 18.2759 45.3715C18.2537 45.1892 18.3204 45.0297 18.3649 44.8475C19.2772 41.4303 18.5206 38.4006 16.2289 35.8036C14.8271 34.2317 13.047 33.3433 11 33.0471C8.32993 32.6598 5.97136 33.3661 3.85757 35.0746C3.4793 35.3707 3.23455 35.8036 2.78954 36.0313C2.70054 36.0313 2.65604 35.9858 2.63379 35.9175L5.81561 30.2451L19.0547 6.7584C19.0991 6.66727 19.166 6.59892 19.2104 6.50781Z" fill="#FABC04"/>
<path d="M2.72274 35.9857L3.99101 34.8238C9.39789 30.4499 17.5194 33.6164 18.6987 40.5418C18.9879 42.2048 18.8321 43.7994 18.3426 45.3941C18.3203 45.5307 18.2981 45.6446 18.2536 45.7813C18.0533 46.1458 17.8753 46.5331 17.6528 46.8976C15.6726 50.2463 12.7577 51.9093 8.93063 51.6587C4.54728 51.3398 1.09845 47.9682 0.497689 43.5033C0.208432 41.3391 0.631192 39.3117 1.72147 37.4436C1.94397 37.0336 2.21098 36.6691 2.45574 36.2591C2.56698 36.1679 2.52249 35.9857 2.72274 35.9857Z" fill="#34A852"/>
<path d="M2.72282 35.9857C2.63382 36.0768 2.63382 36.2363 2.47807 36.259C2.45582 36.0995 2.54481 36.0084 2.63382 35.8945L2.72282 35.9857Z" fill="#FABC04"/>
<path d="M18.2537 45.7813C18.1647 45.6219 18.2537 45.5079 18.3426 45.394L18.4316 45.4852L18.2537 45.7813Z" fill="#E1C025"/>
</svg>
