<svg width="157" height="45" viewBox="0 0 157 45" fill="none" xmlns="http://www.w3.org/2000/svg">
<path d="M37.9298 35.3578H15.8428C14.9508 35.3578 14.226 34.6422 14.226 33.7614C14.226 33.6973 14.2446 33.6422 14.2539 33.5872C14.2539 33.578 14.2446 33.578 14.2446 33.578C14.2446 33.5137 14.2632 33.4404 14.2818 33.3761V33.3578C14.319 33.2202 14.3747 33.1009 14.3747 33.1009L16.1866 29.9908H16.1774L24.7073 15.4037L24.9768 14.9266L25.172 14.5871L25.46 14.0734L23.5087 10.7339L12.284 29.9266C12.2747 29.9266 12.2654 29.9174 12.2561 29.9174C11.6707 30.9725 11.0389 32.211 10.8809 32.9817C10.8809 32.9909 10.8716 33 10.8716 33.0091H10.8809C10.8438 33.2568 10.8159 33.5137 10.8159 33.7614C10.8159 36.4954 13.0646 38.7248 15.8335 38.7248H35.9599L37.1307 40.7339H11.6707C7.1177 40.7339 3.4195 37.0734 3.4195 32.5872C3.4195 31.0734 3.83758 29.6055 4.65533 28.2844L18.4446 4.68808L18.7141 4.20183H18.7048L19.1972 3.33945L19.1879 3.30275L17.2552 0L1.71909 26.5596C0.594751 28.3669 0 30.4495 0 32.5872C0 38.9358 5.2314 44.1009 11.6614 44.1009H43.0404L37.9298 35.3578Z" fill="#2BB585"/>
<path d="M11.7076 29.6514C11.3266 29.3578 11.085 28.9082 11.085 28.4036C11.085 28.11 11.1593 27.8349 11.3266 27.5596L21.5757 10.0367V10.0275L21.8451 9.55047L21.8358 9.54129L22.0774 9.11923L22.319 8.68808L21.6965 7.63301L20.3677 5.35779L8.3811 25.8532C7.90714 26.6239 7.65625 27.5045 7.65625 28.4036C7.65625 30.2018 8.63198 31.7707 10.0815 32.6422C10.1279 32.4587 10.2023 32.266 10.3045 32.0642C10.4904 31.7156 11.1222 30.6422 11.7076 29.6514Z" fill="#2BB585"/>
<path d="M28.2109 29.9908C28.0901 29.3302 27.8392 28.5413 27.3561 27.6147C26.845 26.6513 26.2317 25.9908 25.665 25.5413L26.9658 23.3211L30.8685 29.9908H28.2109ZM25.0888 28.789C25.3304 29.2568 25.4884 29.6514 25.5813 29.9908H23.0539L24.3454 27.7798C24.6056 28.0275 24.8565 28.3486 25.0888 28.789ZM36.7688 33.3578L26.9565 16.5963L19.1234 29.9908H17.1349L15.165 33.3578H36.7688Z" fill="#2BB585"/>
<path d="M42.6982 13.1977H45.6995V18.2159H51.5349V13.1977H54.5362V26.6563H51.5349V20.8398H45.6995V26.6563H42.6982V13.1977Z" fill="#030303"/>
<path d="M62.3695 17.115L60.7155 21.2985H64.042L62.3695 17.115ZM61.208 13.1976H63.6889L69.6172 26.6563H66.2257L65.0548 23.8031H59.7677L58.6341 26.6563H55.3262L61.208 13.1976Z" fill="#030303"/>
<path d="M70.5283 13.1977H73.5296V18.7848L78.8261 13.1977H82.7472L76.6889 19.4545L83.2676 26.6563H79.0769L73.5296 20.271V26.6563H70.5283V13.1977Z" fill="#030303"/>
<path d="M90.7098 17.115L89.0559 21.2985H92.3824L90.7098 17.115ZM89.5484 13.1976H92.0293L97.9576 26.6563H94.566L93.3953 23.8031H88.0988L86.9652 26.6563H83.6572L89.5484 13.1976Z" fill="#030303"/>
<path d="M129.337 17.7754C128.863 17.3993 128.305 17.1332 127.673 16.9864C127.042 16.8397 126.392 16.7662 125.723 16.7662H114.126L116.421 13.124H112.676L112.082 14.069L111.032 15.7204C110.967 15.8029 110.92 15.8855 110.874 15.9773L110.846 16.0231H110.855C110.679 16.3534 110.586 16.7204 110.586 17.1148C110.586 18.4451 111.673 19.5186 113.02 19.5186C113.057 19.5186 113.085 19.5186 113.122 19.5186H113.243C113.643 19.5186 125.899 19.5369 126.252 19.5828C126.614 19.6195 126.921 19.7296 127.19 19.9038C127.46 20.0782 127.673 20.3351 127.831 20.6653C127.99 21.0048 128.064 21.4635 128.064 22.0599V23.7295H105.81V13.1149H102.957V24.1882C102.957 25.5186 104.044 26.592 105.392 26.592H130.916V21.8305C130.916 20.8305 130.768 19.9956 130.48 19.3351C130.191 18.6745 129.81 18.1608 129.337 17.7754Z" fill="#030303"/>
<path d="M153.004 23.7204L148.962 17.2984C149.008 17.2892 149.046 17.28 149.083 17.2708H151.461C152.307 17.4452 153.013 17.8855 153.571 18.5827C154.119 19.2709 154.221 19.8488 154.156 21.592C154.156 22.9222 153.459 23.5644 153.004 23.7204ZM146.082 23.7204V21.9956C146.082 20.7388 146.323 19.7112 146.797 18.9039L149.826 23.7204H146.082ZM157 21.0139C157 18.4635 156.767 18.2066 155.828 16.9222C154.89 15.6378 153.432 14.8672 151.461 14.6011H149.083C148.544 14.6837 148.033 14.8397 147.54 15.0506L146.323 13.1149H143.155L145.366 16.6194C145.236 16.7662 145.106 16.9222 144.985 17.0874C144.483 17.7479 144.093 18.5277 143.805 19.4085C143.629 19.9406 143.378 21.0415 143.378 22.6011V23.7204H137.059V20.1149H137.068V13.1149H134.225V23.9223C134.216 24.014 134.216 24.0965 134.216 24.1882V26.592H151.09C153.041 26.592 154.872 25.5552 155.81 24.2709C156.433 23.4177 156.916 22.2067 156.99 21.0323L157 21.0139Z" fill="#030303"/>
<path d="M103.531 35.6839C103.448 35.6839 103.411 35.6472 103.411 35.5738V34.8674C103.411 34.794 103.448 34.7482 103.531 34.7482H104.154C104.238 34.7482 104.275 34.7849 104.275 34.8674V35.5738C104.275 35.6472 104.238 35.6839 104.154 35.6839H103.531ZM102.007 35.6839C101.924 35.6839 101.887 35.6472 101.887 35.5738V34.8674C101.887 34.794 101.924 34.7482 102.007 34.7482H102.63C102.714 34.7482 102.751 34.7849 102.751 34.8674V35.5738C102.751 35.6472 102.714 35.6839 102.63 35.6839H102.007ZM103.002 40.8307C103.513 40.8307 103.866 40.7206 104.052 40.4913C104.238 40.271 104.33 39.9592 104.33 39.5646V37.7573H103.048C102.621 37.7573 102.286 37.8766 102.035 38.1151C101.784 38.3536 101.664 38.7941 101.664 39.4087C101.664 39.9042 101.775 40.271 102.007 40.4913C102.23 40.7206 102.565 40.8307 103.002 40.8307ZM104.33 36.5922C104.33 36.5096 104.368 36.473 104.451 36.473H104.869C104.953 36.473 104.99 36.5096 104.99 36.5922V40.7574C104.99 40.9959 105.037 41.1516 105.13 41.2434C105.223 41.3352 105.362 41.3811 105.557 41.3811H106.551C106.719 41.3811 106.254 41.3999 106.338 41.4548C106.412 41.5007 106.458 41.5827 106.458 41.7204C106.458 41.877 106.421 41.968 106.338 41.9958C106.263 42.0237 106.709 42.0327 106.542 42.0327H105.511C105.371 42.0327 105.223 42.0237 105.083 41.9958C104.944 41.968 104.814 41.9229 104.702 41.8491C104.591 41.7753 104.498 41.6745 104.433 41.5466C104.358 41.4089 104.321 41.2343 104.321 41.0325C104.182 41.1704 104.005 41.2802 103.782 41.363C103.569 41.445 103.29 41.4909 102.937 41.4909C102.342 41.4909 101.868 41.3261 101.515 40.9867C101.162 40.6381 100.985 40.1243 100.985 39.4179C100.985 38.9959 101.041 38.6381 101.143 38.3445C101.255 38.0509 101.394 37.8124 101.599 37.6289C101.794 37.4454 102.017 37.3078 102.286 37.2253C102.556 37.1426 102.853 37.1059 103.16 37.1059H104.33V36.5922Z" fill="#030303"/>
<path d="M106.795 39.4911C106.795 39.2985 106.823 39.0599 106.879 38.7847C106.935 38.5095 107.046 38.2434 107.213 37.9957C107.381 37.748 107.631 37.537 107.947 37.3626C108.263 37.1884 108.691 37.0966 109.211 37.0966C109.666 37.0966 110.047 37.1792 110.363 37.3443C110.679 37.5094 110.939 37.7296 111.144 38.0049C111.181 38.0782 111.172 38.1333 111.107 38.17L110.744 38.4269C110.679 38.4727 110.633 38.4727 110.577 38.4086C110.224 37.9681 109.759 37.7572 109.193 37.7572C108.895 37.7572 108.635 37.8031 108.421 37.8948C108.208 37.9865 108.031 38.1058 107.901 38.2618C107.762 38.4177 107.669 38.6012 107.604 38.8031C107.539 39.0049 107.501 39.225 107.501 39.4636C107.501 39.803 107.557 40.0966 107.669 40.326C107.78 40.5645 107.91 40.7571 108.068 40.9131C108.217 41.0691 108.366 41.1793 108.514 41.2522C108.663 41.326 108.784 41.3719 108.849 41.3899H111.413C111.497 41.3899 111.534 41.4268 111.534 41.5096V41.9317C111.534 42.0137 111.497 42.0506 111.413 42.0506H106.554C106.396 42.0506 106.284 42.0325 106.201 41.9957C106.117 41.9588 105.689 41.8768 105.689 41.7481C105.689 41.5924 105.727 41.5006 105.801 41.4547C105.875 41.4178 106.386 41.3998 106.554 41.3998H107.548C107.334 41.1973 107.158 40.9406 107.009 40.6288C106.86 40.2984 106.795 39.9223 106.795 39.4911Z" fill="#030303"/>
<path d="M114.423 37.7572C113.986 37.7572 113.642 37.9224 113.373 38.2526C113.103 38.5737 112.973 39.0691 112.973 39.7205C112.973 40.0324 113.001 40.2984 113.066 40.5095C113.122 40.7205 113.215 40.8948 113.345 41.0232C113.466 41.1514 113.624 41.2432 113.819 41.2981C114.005 41.3629 114.228 41.3899 114.479 41.3899H115.826V39.6471C115.826 39.0508 115.714 38.5737 115.501 38.2526C115.296 37.9132 114.934 37.7572 114.423 37.7572ZM113.243 44.3441C113.159 44.3441 113.122 44.308 113.122 44.2252V43.8031C113.122 43.7293 113.159 43.6834 113.243 43.6834H114.692C115.082 43.6834 115.371 43.6105 115.556 43.4728C115.742 43.3351 115.835 43.0506 115.835 42.6285V42.0416H114.488C114.153 42.0416 113.856 42.0047 113.586 41.9219C113.317 41.8399 113.085 41.7113 112.89 41.5367C112.694 41.3629 112.546 41.1153 112.444 40.8122C112.341 40.5095 112.295 40.1334 112.295 39.6929C112.295 39.271 112.351 38.8948 112.462 38.5737C112.574 38.2526 112.722 37.9774 112.917 37.7664C113.113 37.5554 113.336 37.3902 113.596 37.2709C113.856 37.1517 114.135 37.0967 114.432 37.0967C115.129 37.0967 115.659 37.3077 115.993 37.7205C116.328 38.1333 116.495 38.7664 116.495 39.6288V41.3899H116.867C117.034 41.3899 117.145 41.4088 117.229 41.4449C117.313 41.4818 117.35 41.5645 117.35 41.6744C117.35 41.8309 117.313 41.9318 117.238 41.9777C117.164 42.0236 117.034 42.0416 116.867 42.0416H116.495V42.6195C116.495 43.2252 116.365 43.6744 116.114 43.9408C115.854 44.2162 115.454 44.3441 114.897 44.3441H113.243Z" fill="#030303"/>
<path d="M120.341 37.7572C119.849 37.7572 119.486 37.9223 119.263 38.2526C119.04 38.592 118.929 39.0507 118.929 39.6379C118.929 40.2526 119.04 40.7205 119.263 41.014C119.486 41.317 119.849 41.4637 120.341 41.4637C120.843 41.4637 121.205 41.317 121.428 41.014C121.651 40.7113 121.763 40.2526 121.763 39.6379C121.763 39.0599 121.651 38.6012 121.428 38.2618C121.196 37.9223 120.833 37.7572 120.341 37.7572ZM122.413 40.3627C122.413 40.5645 122.432 40.7389 122.469 40.8673C122.506 41.0049 122.562 41.1055 122.636 41.1883C122.71 41.2621 122.794 41.317 122.896 41.344C122.999 41.3719 123.11 41.3899 123.231 41.3899H123.482C123.64 41.3899 123.76 41.4088 123.835 41.4637C123.918 41.5096 123.212 41.5924 123.212 41.7293C123.212 41.858 123.918 41.9498 123.844 41.9867C123.77 42.0326 123.649 42.0416 123.482 42.0416H123.277C122.999 42.0416 122.748 42.0047 122.506 41.9219C122.274 41.8399 122.088 41.6834 121.958 41.4637C121.772 41.7022 121.549 41.8768 121.27 41.9777C120.991 42.0785 120.685 42.1334 120.332 42.1334C119.988 42.1334 119.672 42.0875 119.375 41.9777C119.087 41.8768 118.854 41.7022 118.678 41.4727C118.538 41.7391 118.362 41.8949 118.176 41.9588C117.981 42.0236 117.776 42.0506 117.553 42.0506H116.857C116.699 42.0506 117.052 42.0326 116.968 41.9957C116.894 41.9588 116.847 41.867 116.847 41.7391C116.847 41.5826 116.884 41.4817 116.959 41.4449C117.033 41.4088 116.68 41.3998 116.847 41.3998H117.507C117.591 41.3998 117.674 41.3809 117.767 41.3539C117.86 41.326 117.934 41.2621 118.009 41.1883C118.083 41.1055 118.139 40.9958 118.185 40.8581C118.232 40.7297 118.26 40.5553 118.26 40.3535C118.25 40.2618 118.25 40.1608 118.241 40.0507C118.241 39.9498 118.241 39.8397 118.241 39.7297C118.241 37.9865 118.938 37.1058 120.341 37.1058C121.038 37.1058 121.558 37.3168 121.911 37.7296C122.264 38.1425 122.45 38.7756 122.45 39.6104C122.45 39.7113 122.45 39.8397 122.441 40.0049C122.441 40.1517 122.432 40.271 122.413 40.3627Z" fill="#030303"/>
<path d="M125.416 43.9407C125.332 43.9407 125.295 43.9038 125.295 43.821V43.1153C125.295 43.0415 125.332 42.9956 125.416 42.9956H126.038C126.113 42.9956 126.159 43.0325 126.159 43.1153V43.821C126.159 43.8948 126.122 43.9407 126.038 43.9407H125.416ZM128.092 40.6011C128.092 40.8672 128.185 41.0598 128.371 41.1972C128.556 41.3259 128.798 41.3898 129.105 41.3898H129.291C129.449 41.3898 129.161 41.4087 129.235 41.4546C129.318 41.5005 129.356 41.5825 129.356 41.7202C129.356 41.8669 129.318 41.9497 129.244 41.9956C129.17 42.0415 129.458 42.0505 129.291 42.0505C128.956 42.0505 128.668 42.0136 128.427 41.9316C128.185 41.8489 127.999 41.6652 127.897 41.3997C127.776 41.6382 127.618 41.803 127.395 41.9038C127.181 42.0046 126.893 42.0595 126.531 42.0595H123.474C123.158 42.0595 123 41.9587 123 41.757C123 41.5923 123.037 41.4906 123.111 41.4546C123.186 41.4177 123.307 41.4087 123.474 41.4087H126.317C126.55 41.4087 126.745 41.3808 126.884 41.3439C127.024 41.3079 127.126 41.2341 127.21 41.1333C127.293 41.0415 127.33 40.9038 127.348 40.7571C127.367 40.6011 127.376 40.4084 127.376 40.1699C127.376 39.8029 127.348 39.4727 127.293 39.1791C127.228 38.8855 127.135 38.6378 126.986 38.436C126.847 38.2341 126.652 38.0782 126.428 37.9681C126.197 37.858 125.909 37.803 125.574 37.803C125.295 37.803 125.026 37.8488 124.784 37.9498C124.524 38.0507 124.301 38.2158 124.087 38.4635C124.041 38.5369 123.985 38.5369 123.92 38.491L123.595 38.2066C123.52 38.1699 123.511 38.1057 123.557 38.0415C123.762 37.7846 124.031 37.5644 124.347 37.3901C124.663 37.2158 125.072 37.124 125.574 37.124C126.094 37.124 126.512 37.2158 126.838 37.3809C127.172 37.5461 127.423 37.7754 127.6 38.0507C127.786 38.3259 127.906 38.647 127.981 38.9956C128.055 39.3442 128.083 39.7112 128.083 40.0782V40.6011H128.092Z" fill="#030303"/>
<path d="M132.376 37.7572C131.874 37.7572 131.512 37.9224 131.298 38.2526C131.075 38.592 130.963 39.0507 130.963 39.6379C130.963 40.2526 131.065 40.7113 131.298 41.014C131.512 41.317 131.874 41.4637 132.376 41.4637C132.878 41.4637 133.23 41.317 133.463 41.014C133.686 40.7113 133.797 40.2526 133.797 39.6379C133.797 39.0599 133.686 38.6012 133.463 38.2618C133.23 37.9224 132.878 37.7572 132.376 37.7572ZM132.366 42.1244C132.013 42.1244 131.698 42.0785 131.41 41.9678C131.122 41.867 130.889 41.6932 130.722 41.4637C130.573 41.7293 130.406 41.8859 130.22 41.9498C130.034 42.0137 129.821 42.0416 129.597 42.0416H129.3C129.142 42.0416 129.021 42.0236 128.937 41.9867C128.864 41.9498 128.826 41.867 128.826 41.7293C128.826 41.5736 128.864 41.4727 128.937 41.4358C129.012 41.3998 129.133 41.3899 129.3 41.3899H129.542C129.635 41.3899 129.719 41.3719 129.811 41.344C129.895 41.317 129.978 41.2522 130.052 41.1793C130.127 41.0965 130.183 40.9866 130.229 40.849C130.276 40.7205 130.304 40.5462 130.304 40.3444C130.304 40.2526 130.294 40.1517 130.294 40.0416C130.285 39.9407 130.285 39.8306 130.285 39.7113C130.285 37.9682 130.982 37.0967 132.376 37.0967C133.063 37.0967 133.584 37.3077 133.937 37.7205C134.29 38.1333 134.467 38.7664 134.467 39.6012C134.467 40.4636 134.29 41.1055 133.937 41.5186C133.574 41.9129 133.054 42.1244 132.366 42.1244Z" fill="#030303"/>
<path d="M71.7647 42.1056C71.4302 42.2433 71.0957 42.308 70.7612 42.308C70.3244 42.308 69.9434 42.2252 69.5997 42.0695C69.2652 41.9129 68.9678 41.7023 68.7355 41.4359C68.5032 41.1703 68.3267 40.8673 68.1966 40.5186C68.0665 40.17 68.0107 39.8122 68.0107 39.4453C68.0107 39.0233 68.0665 38.6288 68.1873 38.2618C68.3081 37.8765 68.4753 37.5554 68.7076 37.271C68.9307 36.9957 69.2187 36.7664 69.5625 36.6013C69.9063 36.4361 70.3059 36.3536 70.7612 36.3536C71.0678 36.3536 71.3652 36.3902 71.6439 36.4637C71.9133 36.537 72.1735 36.6471 72.3873 36.8031C72.6103 36.9591 72.7961 37.1517 72.9355 37.3902C73.0842 37.6288 73.1771 37.9132 73.2328 38.2434H72.4709C72.4337 38.0233 72.3594 37.8398 72.2572 37.6838C72.155 37.5279 72.0249 37.3994 71.8855 37.2985C71.7275 37.1976 71.5603 37.1242 71.3745 37.0692C71.1793 37.0141 70.9749 36.9865 70.7612 36.9865C70.4081 36.9865 70.1107 37.06 69.8598 37.1976C69.609 37.3352 69.4046 37.5187 69.2466 37.7388C69.0886 37.9682 68.9678 38.2251 68.8935 38.5187C68.8192 38.8031 68.782 39.1058 68.782 39.4086C68.782 39.7113 68.8192 39.9958 68.9121 40.271C69.005 40.537 69.1258 40.7847 69.2931 40.9958C69.4603 41.2064 69.6647 41.3719 69.9156 41.5006C70.1572 41.6285 70.4452 41.6834 70.7705 41.6834C71.0678 41.6834 71.3373 41.6383 71.5695 41.5367C71.8018 41.4449 71.997 41.308 72.155 41.1424C72.3129 40.9774 72.4337 40.7755 72.5174 40.5554C72.601 40.326 72.6289 40.0875 72.6289 39.8214H70.7612V39.1884H73.2886V42.1883H72.8054L72.601 41.4818C72.378 41.7662 72.0992 41.9867 71.7647 42.1056Z" fill="#030303"/>
<path d="M77.9059 39.0691C78.0639 39.0508 78.2033 38.9958 78.3241 38.9132C78.4449 38.8398 78.5471 38.7297 78.6214 38.6012C78.6958 38.4728 78.7236 38.2985 78.7236 38.0875C78.7236 37.8031 78.64 37.5646 78.482 37.3902C78.3241 37.2068 78.0639 37.115 77.7015 37.115H75.7966V39.0966H77.3949C77.5714 39.1058 77.7386 39.0966 77.9059 39.0691ZM77.7386 36.482C78.2962 36.482 78.7143 36.6196 79.0303 36.8856C79.3369 37.1517 79.4948 37.5187 79.4948 37.9774C79.4948 38.326 79.4112 38.6288 79.2533 38.8857C79.0953 39.1517 78.8351 39.326 78.4913 39.4178V39.4361C78.6586 39.4636 78.7887 39.5187 78.9002 39.5921C79.0024 39.6655 79.086 39.7572 79.1511 39.8581C79.2068 39.959 79.2626 40.0783 79.2904 40.2067C79.3183 40.3352 79.3462 40.4636 79.3555 40.6013C79.3647 40.7389 79.3833 40.8765 79.3833 41.0232C79.3833 41.1703 79.4019 41.308 79.4205 41.4449C79.4391 41.5826 79.4762 41.7203 79.5134 41.84C79.5506 41.9588 79.6156 42.0695 79.69 42.1703H78.8351C78.7794 42.1154 78.7422 42.0326 78.7236 41.9318C78.7051 41.831 78.6958 41.7113 78.6865 41.5924C78.6865 41.4637 78.6772 41.326 78.6679 41.1883C78.6679 41.0416 78.6493 40.904 78.6214 40.7664C78.6028 40.6288 78.575 40.5004 78.5471 40.3719C78.5099 40.2435 78.4634 40.1334 78.3891 40.0508C78.3241 39.959 78.2311 39.8765 78.1196 39.8214C78.0081 39.7664 77.8594 39.7389 77.6643 39.7389H75.7966V42.1703H75.0254V36.4728H77.7386V36.482Z" fill="#030303"/>
<path d="M81.7152 40.1791C81.7896 40.4636 81.9104 40.7113 82.0683 40.9315C82.2263 41.1514 82.44 41.335 82.6909 41.4727C82.9418 41.6104 83.2392 41.6743 83.5922 41.6743C83.9453 41.6743 84.2427 41.6014 84.4936 41.4727C84.7445 41.335 84.9582 41.1514 85.1162 40.9315C85.2741 40.7113 85.3948 40.4636 85.4692 40.1791C85.5435 39.904 85.5807 39.6195 85.5807 39.3259C85.5807 39.0416 85.5435 38.7572 85.4692 38.4727C85.3948 38.1976 85.2741 37.9407 85.1162 37.7204C84.9582 37.5003 84.7445 37.3168 84.4936 37.1792C84.2427 37.0507 83.936 36.9773 83.5922 36.9773C83.2392 36.9773 82.9418 37.0507 82.6909 37.1792C82.4307 37.3168 82.2263 37.5003 82.0683 37.7204C81.9011 37.9407 81.7896 38.1976 81.7152 38.4727C81.6409 38.7572 81.6038 39.0416 81.6038 39.3259C81.6038 39.6195 81.6409 39.904 81.7152 40.1791ZM81.0091 38.2067C81.1299 37.8489 81.2972 37.537 81.5294 37.2525C81.7617 36.9774 82.0497 36.7571 82.3936 36.592C82.7374 36.4269 83.137 36.3443 83.6015 36.3443C84.0568 36.3443 84.4657 36.4269 84.8095 36.592C85.1533 36.7571 85.4413 36.9774 85.6736 37.2525C85.9059 37.5278 86.0732 37.8489 86.194 38.2067C86.3055 38.5645 86.3705 38.9406 86.3705 39.3259C86.3705 39.7204 86.3148 40.0874 86.194 40.4452C86.0732 40.803 85.9059 41.1243 85.6736 41.3997C85.4413 41.6743 85.1533 41.8948 84.8095 42.0596C84.4657 42.2161 84.0568 42.2981 83.6015 42.2981C83.1463 42.2981 82.7467 42.2161 82.3936 42.0596C82.0497 41.8948 81.7617 41.6743 81.5294 41.3997C81.2972 41.1243 81.1299 40.803 81.0091 40.4452C80.8976 40.0874 80.8418 39.7204 80.8418 39.3259C80.8418 38.9406 80.8976 38.5736 81.0091 38.2067Z" fill="#030303"/>
<path d="M91.9185 41.7572C91.5283 42.1244 90.9707 42.308 90.2367 42.308C89.4933 42.308 88.9172 42.1334 88.4991 41.785C88.081 41.4358 87.8672 40.8856 87.8672 40.1242V36.482H88.6384V40.1242C88.6384 40.6288 88.7685 41.014 89.0473 41.2801C89.3261 41.5465 89.7256 41.6744 90.2367 41.6744C90.7291 41.6744 91.1008 41.5465 91.3517 41.2801C91.6119 41.014 91.742 40.6288 91.742 40.1242V36.482H92.5132V40.1242C92.5132 40.8489 92.318 41.3998 91.9185 41.7572Z" fill="#030303"/>
<path d="M96.6105 39.2159C97.0472 39.2159 97.3724 39.1334 97.5676 38.9498C97.772 38.7664 97.8742 38.5003 97.8742 38.1701C97.8742 37.8306 97.772 37.5738 97.5676 37.3902C97.3724 37.216 97.0472 37.1242 96.6105 37.1242H95.1052V39.2159H96.6105ZM96.8706 36.482C97.4468 36.482 97.8928 36.6287 98.1902 36.9224C98.4875 37.216 98.6361 37.6379 98.6361 38.1609C98.6361 38.693 98.4875 39.115 98.1902 39.3994C97.8928 39.7022 97.4468 39.849 96.8706 39.8398H95.1052V42.1703H94.334V36.4728H96.8706V36.482Z" fill="#030303"/>
</svg>
