<svg width="62" height="60" viewBox="0 0 62 60" fill="none" xmlns="http://www.w3.org/2000/svg">
<g clip-path="url(#clip0_15869_4874)">
<path d="M50.5652 0.798828H11.4345C5.61616 0.798828 0.899414 5.53248 0.899414 11.3718V48.6287C0.899414 54.468 5.61616 59.2015 11.4345 59.2015H50.5652C56.3836 59.2015 61.1003 54.468 61.1003 48.6287V11.3718C61.1003 5.53248 56.3836 0.798828 50.5652 0.798828Z" fill="#330000"/>
<path d="M31.1981 37.0488H22.2208L19.9029 43.765C19.8763 43.9865 19.7367 44.0973 19.4841 44.0973H15.27C14.9891 44.0973 14.8912 43.9589 14.9766 43.682L23.1087 19.4423C23.3383 18.7042 23.4518 17.9348 23.4448 17.1615C23.4403 17.1274 23.4436 17.0926 23.4547 17.0601C23.4656 17.0274 23.484 16.9979 23.5082 16.9734C23.5325 16.9491 23.5621 16.9308 23.5945 16.9196C23.627 16.9086 23.6616 16.9052 23.6957 16.9099H29.5953C29.7659 16.9099 29.8637 16.9803 29.8914 17.1162L38.9916 43.7248C39.077 43.9765 39.0067 44.0973 38.781 44.0973H34.0628C33.9755 44.1025 33.8886 44.0813 33.8135 44.0364C33.7384 43.9915 33.6784 43.9251 33.6414 43.8455L31.1981 37.0488ZM23.224 32.5174H30.2174C30.0494 32.1474 26.9039 21.9622 26.6781 21.1038H26.6379L23.224 32.5174ZM44.0209 21.9445C43.6255 21.9615 43.2306 21.8988 42.8596 21.76C42.4887 21.6212 42.1492 21.4092 41.8612 21.1364C41.5795 20.849 41.3604 20.5058 41.2179 20.1288C41.0754 19.7518 41.0126 19.3491 41.0335 18.9463C41.0148 18.5385 41.0808 18.1313 41.2272 17.7504C41.3735 17.3694 41.5972 17.0232 41.8838 16.7336C42.1741 16.4563 42.5168 16.24 42.8914 16.0973C43.2662 15.9546 43.6656 15.8885 44.0661 15.9029C44.4674 15.8819 44.8686 15.9449 45.2443 16.088C45.62 16.231 45.962 16.4509 46.2484 16.7336C46.5226 17.0301 46.7351 17.3785 46.8734 17.7585C47.0117 18.1384 47.0729 18.5423 47.0536 18.9463C47.0744 19.3491 47.0117 19.7518 46.8692 20.1288C46.7267 20.5058 46.5076 20.849 46.2258 21.1364C45.9304 21.4116 45.5832 21.6249 45.2046 21.7636C44.826 21.9024 44.4236 21.9639 44.0209 21.9445ZM41.5352 43.7198V24.2958C41.5284 24.2499 41.5324 24.2031 41.5469 24.1591C41.5614 24.115 41.586 24.075 41.6187 24.0422C41.6513 24.0094 41.6912 23.9848 41.735 23.9702C41.779 23.9556 41.8256 23.9516 41.8713 23.9584H46.2157C46.2614 23.9522 46.3079 23.9566 46.3515 23.9713C46.3951 23.9861 46.4347 24.0108 46.4672 24.0434C46.4997 24.0761 46.5243 24.1159 46.539 24.1596C46.5538 24.2034 46.5582 24.25 46.5519 24.2958V43.76C46.5586 43.8059 46.5546 43.8527 46.5401 43.8967C46.5256 43.9408 46.5011 43.9808 46.4684 44.0135C46.4357 44.0463 46.3959 44.071 46.352 44.0855C46.3082 44.1001 46.2615 44.1041 46.2157 44.0973H41.9114C41.8604 44.1044 41.8083 44.0995 41.7595 44.0831C41.7106 44.0667 41.6662 44.039 41.6297 44.0024C41.5933 43.9659 41.5658 43.9213 41.5494 43.8722C41.533 43.8232 41.5281 43.771 41.5352 43.7198Z" fill="#FF9A00"/>
</g>
<defs>
<clipPath id="clip0_15869_4874">
<rect width="62" height="60" fill="white"/>
</clipPath>
</defs>
</svg>
