<svg width="59" height="59" viewBox="0 0 59 59" fill="none" xmlns="http://www.w3.org/2000/svg">
<g clip-path="url(#clip0_15481_9929)">
<g filter="url(#filter0_bii_15481_9929)">
<rect x="0.0322266" y="0.471802" width="58.307" height="58.307" rx="13.2516" fill="white" fill-opacity="0.01"/>
</g>
<g filter="url(#filter1_f_15481_9929)">
<path d="M47.7376 58.7794H10.3682C12.6643 56.8359 19.633 52.9487 29.139 52.9487C38.645 52.9487 45.4989 56.8359 47.7376 58.7794Z" fill="url(#paint0_linear_15481_9929)"/>
</g>
<g filter="url(#filter2_f_15481_9929)">
<path fill-rule="evenodd" clip-rule="evenodd" d="M24.6738 18.5622C25.8749 18.5069 26.2579 18.4946 29.3176 18.4946C32.3772 18.4946 32.7602 18.5079 33.9603 18.5622C35.1604 18.6165 35.9796 18.808 36.6964 19.0855C37.447 19.3691 38.1279 19.8125 38.6911 20.3859C39.2646 20.9481 39.7069 21.628 39.9895 22.3796C40.2681 23.0964 40.4585 23.9156 40.5138 25.1137C40.5691 26.3169 40.5814 26.6998 40.5814 29.7585C40.5814 32.8181 40.5681 33.2011 40.5138 34.4022C40.4595 35.6003 40.2681 36.4195 39.9895 37.1363C39.7069 37.888 39.2638 38.569 38.6911 39.132C38.1279 39.7055 37.447 40.1478 36.6964 40.4305C35.9796 40.709 35.1604 40.8994 33.9624 40.9547C32.7602 41.01 32.3772 41.0223 29.3176 41.0223C26.2579 41.0223 25.8749 41.009 24.6738 40.9547C23.4757 40.9005 22.6565 40.709 21.9397 40.4305C21.188 40.1478 20.507 39.7047 19.944 39.132C19.3709 38.5695 18.9275 37.8888 18.6446 37.1373C18.3671 36.4205 18.1766 35.6013 18.1213 34.4033C18.066 33.2001 18.0537 32.8171 18.0537 29.7585C18.0537 26.6988 18.067 26.3158 18.1213 25.1157C18.1756 23.9156 18.3671 23.0964 18.6446 22.3796C18.9279 21.6281 19.3717 20.9474 19.945 20.3849C20.5072 19.812 21.1876 19.3685 21.9387 19.0855C22.6555 18.808 23.4747 18.6175 24.6728 18.5622H24.6738ZM33.8692 20.5897C32.6813 20.5354 32.325 20.5242 29.3176 20.5242C26.3101 20.5242 25.9538 20.5354 24.7659 20.5897C23.6672 20.6399 23.0712 20.8232 22.6739 20.9778C22.1486 21.1826 21.7728 21.4253 21.3786 21.8195C21.0049 22.1831 20.7173 22.6257 20.5369 23.1149C20.3823 23.5122 20.199 24.1081 20.1488 25.2069C20.0945 26.3947 20.0833 26.751 20.0833 29.7585C20.0833 32.7659 20.0945 33.1223 20.1488 34.3101C20.199 35.4088 20.3823 36.0048 20.5369 36.4021C20.7171 36.8905 21.0048 37.3339 21.3786 37.6974C21.7421 38.0712 22.1855 38.3589 22.6739 38.5392C23.0712 38.6938 23.6672 38.8771 24.7659 38.9272C25.9538 38.9815 26.3091 38.9928 29.3176 38.9928C32.326 38.9928 32.6813 38.9815 33.8692 38.9272C34.9679 38.8771 35.5639 38.6938 35.9612 38.5392C36.4865 38.3344 36.8623 38.0917 37.2565 37.6974C37.6303 37.3339 37.918 36.8905 38.0982 36.4021C38.2529 36.0048 38.4361 35.4088 38.4863 34.3101C38.5406 33.1223 38.5519 32.7659 38.5519 29.7585C38.5519 26.751 38.5406 26.3947 38.4863 25.2069C38.4361 24.1081 38.2529 23.5122 38.0982 23.1149C37.8934 22.5895 37.6508 22.2137 37.2565 21.8195C36.8929 21.4458 36.4503 21.1582 35.9612 20.9778C35.5639 20.8232 34.9679 20.6399 33.8692 20.5897V20.5897ZM27.8789 33.2308C28.6823 33.5653 29.577 33.6104 30.4101 33.3585C31.2431 33.1066 31.9629 32.5733 32.4465 31.8497C32.93 31.1261 33.1473 30.257 33.0613 29.391C32.9753 28.5249 32.5912 27.7156 31.9748 27.1012C31.5818 26.7085 31.1067 26.4078 30.5835 26.2208C30.0604 26.0337 29.5023 25.965 28.9494 26.0195C28.3965 26.074 27.8626 26.2505 27.3861 26.5361C26.9096 26.8218 26.5024 27.2095 26.1937 27.6714C25.885 28.1334 25.6826 28.658 25.601 29.2075C25.5194 29.7571 25.5607 30.3179 25.7219 30.8495C25.883 31.3812 26.1601 31.8706 26.5331 32.2823C26.906 32.6941 27.3657 33.018 27.8789 33.2308ZM25.2237 25.6646C25.7613 25.127 26.3995 24.7005 27.102 24.4095C27.8044 24.1186 28.5572 23.9688 29.3176 23.9688C30.0779 23.9688 30.8307 24.1186 31.5332 24.4095C32.2356 24.7005 32.8738 25.127 33.4114 25.6646C33.9491 26.2022 34.3755 26.8404 34.6665 27.5429C34.9574 28.2453 35.1072 28.9982 35.1072 29.7585C35.1072 30.5188 34.9574 31.2716 34.6665 31.9741C34.3755 32.6765 33.9491 33.3147 33.4114 33.8524C32.3257 34.9381 30.8531 35.5481 29.3176 35.5481C27.782 35.5481 26.3094 34.9381 25.2237 33.8524C24.1379 32.7666 23.5279 31.294 23.5279 29.7585C23.5279 28.223 24.1379 26.7503 25.2237 25.6646V25.6646ZM36.3912 24.8311C36.5245 24.7054 36.6311 24.5542 36.7049 24.3866C36.7787 24.219 36.8181 24.0383 36.8207 23.8551C36.8234 23.672 36.7893 23.4902 36.7204 23.3205C36.6516 23.1508 36.5494 22.9966 36.4199 22.8671C36.2904 22.7376 36.1362 22.6354 35.9665 22.5665C35.7968 22.4977 35.615 22.4636 35.4318 22.4662C35.2487 22.4689 35.068 22.5083 34.9004 22.5821C34.7327 22.6558 34.5816 22.7625 34.4559 22.8957C34.2115 23.1548 34.0777 23.499 34.0829 23.8551C34.0881 24.2113 34.2319 24.5514 34.4837 24.8032C34.7356 25.0551 35.0757 25.1989 35.4318 25.2041C35.788 25.2093 36.1322 25.0755 36.3912 24.8311V24.8311Z" fill="url(#paint1_linear_15481_9929)"/>
</g>
<path fill-rule="evenodd" clip-rule="evenodd" d="M24.6738 18.5622C25.8749 18.5069 26.2579 18.4946 29.3176 18.4946C32.3772 18.4946 32.7602 18.5079 33.9603 18.5622C35.1604 18.6165 35.9796 18.808 36.6964 19.0855C37.447 19.3691 38.1279 19.8125 38.6911 20.3859C39.2646 20.9481 39.7069 21.628 39.9895 22.3796C40.2681 23.0964 40.4585 23.9156 40.5138 25.1137C40.5691 26.3169 40.5814 26.6998 40.5814 29.7585C40.5814 32.8181 40.5681 33.2011 40.5138 34.4022C40.4595 35.6003 40.2681 36.4195 39.9895 37.1363C39.7069 37.888 39.2638 38.569 38.6911 39.132C38.1279 39.7055 37.447 40.1478 36.6964 40.4305C35.9796 40.709 35.1604 40.8994 33.9624 40.9547C32.7602 41.01 32.3772 41.0223 29.3176 41.0223C26.2579 41.0223 25.8749 41.009 24.6738 40.9547C23.4757 40.9005 22.6565 40.709 21.9397 40.4305C21.1881 40.1478 20.507 39.7047 19.944 39.132C19.3709 38.5695 18.9275 37.8888 18.6446 37.1373C18.3671 36.4205 18.1766 35.6013 18.1213 34.4033C18.066 33.2001 18.0537 32.8171 18.0537 29.7585C18.0537 26.6988 18.067 26.3158 18.1213 25.1157C18.1756 23.9156 18.3671 23.0964 18.6446 22.3796C18.9279 21.6281 19.3717 20.9474 19.945 20.3849C20.5072 19.812 21.1876 19.3685 21.9387 19.0855C22.6555 18.808 23.4747 18.6175 24.6728 18.5622H24.6738ZM33.8692 20.5897C32.6813 20.5354 32.325 20.5242 29.3176 20.5242C26.3101 20.5242 25.9538 20.5354 24.7659 20.5897C23.6672 20.6399 23.0712 20.8232 22.6739 20.9778C22.1486 21.1826 21.7728 21.4253 21.3786 21.8195C21.0049 22.1831 20.7173 22.6257 20.5369 23.1149C20.3823 23.5122 20.199 24.1081 20.1488 25.2069C20.0945 26.3947 20.0833 26.751 20.0833 29.7585C20.0833 32.7659 20.0945 33.1223 20.1488 34.3101C20.199 35.4088 20.3823 36.0048 20.5369 36.4021C20.7171 36.8905 21.0048 37.3339 21.3786 37.6974C21.7421 38.0712 22.1855 38.3589 22.6739 38.5392C23.0712 38.6938 23.6672 38.8771 24.7659 38.9272C25.9538 38.9815 26.3091 38.9928 29.3176 38.9928C32.326 38.9928 32.6813 38.9815 33.8692 38.9272C34.9679 38.8771 35.5639 38.6938 35.9612 38.5392C36.4865 38.3344 36.8623 38.0917 37.2565 37.6974C37.6303 37.3339 37.918 36.8905 38.0982 36.4021C38.2529 36.0048 38.4361 35.4088 38.4863 34.3101C38.5406 33.1223 38.5519 32.7659 38.5519 29.7585C38.5519 26.751 38.5406 26.3947 38.4863 25.2069C38.4361 24.1081 38.2529 23.5122 38.0982 23.1149C37.8934 22.5895 37.6508 22.2137 37.2565 21.8195C36.8929 21.4458 36.4503 21.1582 35.9612 20.9778C35.5639 20.8232 34.9679 20.6399 33.8692 20.5897ZM27.8789 33.2308C28.6823 33.5653 29.577 33.6104 30.4101 33.3585C31.2431 33.1066 31.9629 32.5733 32.4465 31.8497C32.93 31.1261 33.1473 30.257 33.0613 29.391C32.9753 28.5249 32.5912 27.7156 31.9748 27.1012C31.5818 26.7085 31.1067 26.4078 30.5835 26.2208C30.0604 26.0337 29.5023 25.965 28.9494 26.0195C28.3965 26.074 27.8626 26.2505 27.3861 26.5361C26.9096 26.8218 26.5024 27.2095 26.1937 27.6714C25.885 28.1334 25.6826 28.658 25.601 29.2075C25.5194 29.7571 25.5607 30.3179 25.7219 30.8495C25.883 31.3812 26.1601 31.8706 26.5331 32.2823C26.906 32.6941 27.3657 33.018 27.8789 33.2308ZM25.2237 25.6646C25.7613 25.127 26.3995 24.7005 27.102 24.4095C27.8044 24.1186 28.5572 23.9688 29.3176 23.9688C30.0779 23.9688 30.8307 24.1186 31.5332 24.4095C32.2356 24.7005 32.8738 25.127 33.4114 25.6646C33.9491 26.2022 34.3755 26.8404 34.6665 27.5429C34.9574 28.2453 35.1072 28.9982 35.1072 29.7585C35.1072 30.5188 34.9574 31.2716 34.6665 31.9741C34.3755 32.6765 33.9491 33.3147 33.4114 33.8524C32.3257 34.9381 30.8531 35.5481 29.3176 35.5481C27.782 35.5481 26.3094 34.9381 25.2237 33.8524C24.1379 32.7666 23.5279 31.294 23.5279 29.7585C23.5279 28.223 24.1379 26.7503 25.2237 25.6646ZM36.3912 24.8311C36.5245 24.7054 36.6311 24.5542 36.7049 24.3866C36.7787 24.219 36.8181 24.0383 36.8207 23.8551C36.8234 23.672 36.7893 23.4902 36.7204 23.3205C36.6516 23.1508 36.5494 22.9966 36.4199 22.8671C36.2904 22.7376 36.1362 22.6354 35.9665 22.5665C35.7968 22.4977 35.615 22.4636 35.4318 22.4662C35.2487 22.4689 35.068 22.5083 34.9004 22.5821C34.7327 22.6558 34.5816 22.7625 34.4559 22.8957C34.2115 23.1548 34.0777 23.499 34.0829 23.8551C34.0881 24.2113 34.2319 24.5514 34.4837 24.8032C34.7356 25.0551 35.0757 25.1989 35.4318 25.2041C35.788 25.2093 36.1322 25.0755 36.3912 24.8311Z" fill="url(#paint2_linear_15481_9929)"/>
</g>
<defs>
<filter id="filter0_bii_15481_9929" x="-7.91872" y="-7.47915" width="74.209" height="74.2089" filterUnits="userSpaceOnUse" color-interpolation-filters="sRGB">
<feFlood flood-opacity="0" result="BackgroundImageFix"/>
<feGaussianBlur in="BackgroundImageFix" stdDeviation="3.97547"/>
<feComposite in2="SourceAlpha" operator="in" result="effect1_backgroundBlur_15481_9929"/>
<feBlend mode="normal" in="SourceGraphic" in2="effect1_backgroundBlur_15481_9929" result="shape"/>
<feColorMatrix in="SourceAlpha" type="matrix" values="0 0 0 0 0 0 0 0 0 0 0 0 0 0 0 0 0 0 127 0" result="hardAlpha"/>
<feOffset dx="2.65032" dy="2.65032"/>
<feGaussianBlur stdDeviation="0.662579"/>
<feComposite in2="hardAlpha" operator="arithmetic" k2="-1" k3="1"/>
<feColorMatrix type="matrix" values="0 0 0 0 1 0 0 0 0 1 0 0 0 0 1 0 0 0 0.1 0"/>
<feBlend mode="normal" in2="shape" result="effect2_innerShadow_15481_9929"/>
<feColorMatrix in="SourceAlpha" type="matrix" values="0 0 0 0 0 0 0 0 0 0 0 0 0 0 0 0 0 0 127 0" result="hardAlpha"/>
<feOffset dy="-1.32516"/>
<feGaussianBlur stdDeviation="3.3129"/>
<feComposite in2="hardAlpha" operator="arithmetic" k2="-1" k3="1"/>
<feColorMatrix type="matrix" values="0 0 0 0 0.681333 0 0 0 0 0.00416666 0 0 0 0 1 0 0 0 0.35 0"/>
<feBlend mode="normal" in2="effect2_innerShadow_15481_9929" result="effect3_innerShadow_15481_9929"/>
</filter>
<filter id="filter1_f_15481_9929" x="-2.88342" y="39.6971" width="63.8728" height="32.3339" filterUnits="userSpaceOnUse" color-interpolation-filters="sRGB">
<feFlood flood-opacity="0" result="BackgroundImageFix"/>
<feBlend mode="normal" in="SourceGraphic" in2="BackgroundImageFix" result="shape"/>
<feGaussianBlur stdDeviation="6.62579" result="effect1_foregroundBlur_15481_9929"/>
</filter>
<filter id="filter2_f_15481_9929" x="4.80213" y="5.24305" width="49.031" height="49.0309" filterUnits="userSpaceOnUse" color-interpolation-filters="sRGB">
<feFlood flood-opacity="0" result="BackgroundImageFix"/>
<feBlend mode="normal" in="SourceGraphic" in2="BackgroundImageFix" result="shape"/>
<feGaussianBlur stdDeviation="6.62579" result="effect1_foregroundBlur_15481_9929"/>
</filter>
<linearGradient id="paint0_linear_15481_9929" x1="13.2835" y1="55.8641" x2="15.7432" y2="48.1739" gradientUnits="userSpaceOnUse">
<stop stop-color="#FFA800"/>
<stop offset="1" stop-color="#AE01FF"/>
</linearGradient>
<linearGradient id="paint1_linear_15481_9929" x1="29.3176" y1="18.4946" x2="29.3176" y2="41.0223" gradientUnits="userSpaceOnUse">
<stop stop-color="#FFA800"/>
<stop offset="1" stop-color="#AE01FF"/>
</linearGradient>
<linearGradient id="paint2_linear_15481_9929" x1="29.3176" y1="18.4946" x2="29.3176" y2="41.0223" gradientUnits="userSpaceOnUse">
<stop stop-color="#FFA800"/>
<stop offset="1" stop-color="#AE01FF"/>
</linearGradient>
<clipPath id="clip0_15481_9929">
<rect width="58.307" height="58.307" fill="white" transform="translate(0.0322266 0.47168)"/>
</clipPath>
</defs>
</svg>
