<svg width="23" height="24" viewBox="0 0 23 24" fill="none" xmlns="http://www.w3.org/2000/svg">
<g clip-path="url(#clip0_18581_482)">
<path d="M11.474 2.84816C14.523 2.84816 14.8846 2.85958 16.0884 2.91477C17.3331 2.97187 18.6149 3.25545 19.5218 4.16234C20.4373 5.07779 20.7123 6.34724 20.7694 7.59575C20.8246 8.79954 20.836 9.16116 20.836 12.2101C20.836 15.2591 20.8246 15.6207 20.7694 16.8245C20.7132 18.0625 20.423 19.3567 19.5218 20.2579C18.6064 21.1734 17.3379 21.4484 16.0884 21.5055C14.8846 21.5607 14.523 21.5721 11.474 21.5721C8.42507 21.5721 8.06346 21.5607 6.85967 21.5055C5.63114 21.4493 4.31982 21.1524 3.42625 20.2579C2.51556 19.3472 2.23578 18.0654 2.17869 16.8245C2.12349 15.6207 2.11207 15.2591 2.11207 12.2101C2.11207 9.16116 2.12349 8.79954 2.17869 7.59575C2.23483 6.36246 2.52793 5.06066 3.42625 4.16234C4.3398 3.24879 5.61401 2.97187 6.85967 2.91477C8.06346 2.85958 8.42507 2.84816 11.474 2.84816ZM11.474 0.790771C8.37273 0.790771 7.98353 0.804094 6.76546 0.859288C5.00022 0.940175 3.24735 1.43121 1.97124 2.70732C0.690365 3.98819 0.204091 5.73725 0.123204 7.50154C0.0680101 8.71961 0.0546875 9.10882 0.0546875 12.2101C0.0546875 15.3114 0.0680101 15.7006 0.123204 16.9187C0.204091 18.682 0.697026 20.4397 1.97124 21.7129C3.25115 22.9928 5.00307 23.4801 6.76546 23.561C7.98353 23.6162 8.37273 23.6295 11.474 23.6295C14.5753 23.6295 14.9646 23.6162 16.1826 23.561C17.9469 23.4801 19.7017 22.9881 20.9768 21.7129C22.2587 20.4311 22.744 18.683 22.8249 16.9187C22.8801 15.7006 22.8934 15.3114 22.8934 12.2101C22.8934 9.10882 22.8801 8.71961 22.8249 7.50154C22.744 5.7363 22.252 3.98248 20.9768 2.70732C19.6988 1.4293 17.9422 0.939223 16.1826 0.859288C14.9646 0.804094 14.5753 0.790771 11.474 0.790771Z" fill="white"/>
<path d="M11.4732 6.34619C8.23488 6.34619 5.60938 8.97169 5.60938 12.21C5.60938 15.4484 8.23488 18.0739 11.4732 18.0739C14.7116 18.0739 17.3371 15.4484 17.3371 12.21C17.3371 8.97169 14.7116 6.34619 11.4732 6.34619ZM11.4732 16.0165C9.3711 16.0165 7.66676 14.3121 7.66676 12.21C7.66676 10.1079 9.3711 8.40358 11.4732 8.40358C13.5753 8.40358 15.2797 10.1079 15.2797 12.21C15.2797 14.3121 13.5753 16.0165 11.4732 16.0165Z" fill="white"/>
<path d="M17.5695 7.4843C18.3263 7.4843 18.9399 6.87078 18.9399 6.11397C18.9399 5.35717 18.3263 4.74365 17.5695 4.74365C16.8127 4.74365 16.1992 5.35717 16.1992 6.11397C16.1992 6.87078 16.8127 7.4843 17.5695 7.4843Z" fill="white"/>
</g>
<defs>
<clipPath id="clip0_18581_482">
<rect width="22.8387" height="22.8387" fill="white" transform="translate(0.0546875 0.790771)"/>
</clipPath>
</defs>
</svg>
