<svg width="55" height="55" viewBox="0 0 55 55" fill="none" xmlns="http://www.w3.org/2000/svg">
<g clip-path="url(#clip0_15869_4783)">
<path fill-rule="evenodd" clip-rule="evenodd" d="M11.4142 35.0337C11.217 35.8737 11.1177 36.7808 11.1177 37.5207C11.1177 40.4361 12.699 42.3719 16.0587 42.3719C18.8453 42.3719 21.1045 40.7168 22.7309 38.0449L21.7378 42.0311H27.2714L30.4339 29.3467C31.2245 26.1353 32.7559 24.4681 35.0784 24.4681C36.9067 24.4681 38.0428 25.605 38.0428 27.4819C38.0428 28.0259 37.9934 28.6181 37.7957 29.2608L36.165 35.0908C35.918 35.9309 35.8197 36.7713 35.8197 37.5612C35.8197 40.3292 37.4498 42.3534 40.8589 42.3534C43.7739 42.3534 46.0965 40.477 47.3812 35.9803L45.2075 35.1412C44.1203 38.1536 43.1815 38.6981 42.4403 38.6981C41.699 38.6981 41.3037 38.2044 41.3037 37.2165C41.3037 36.7717 41.403 36.2786 41.5508 35.6843L43.1324 30.0042C43.5273 28.6705 43.6761 27.488 43.6761 26.4013C43.6761 22.1522 41.1064 19.9345 37.9939 19.9345C35.0789 19.9345 32.1139 22.5638 30.632 25.3309L31.7186 20.3637H23.2698L22.0838 24.7389H26.0369L23.6032 34.4842C21.6914 38.7333 18.18 38.8021 17.7396 38.7036C17.016 38.5403 16.5533 38.2658 16.5533 37.3257C16.5533 36.783 16.6522 36.004 16.8992 35.0642L20.6053 20.3637H11.217L10.0311 24.7389H13.9343L11.4142 35.0337ZM18.3811 17.3044C20.2095 17.3044 21.7409 15.8713 21.7409 13.9932C21.7409 12.1163 20.2095 10.6837 18.3811 10.6837C16.5529 10.6837 15.0215 12.1163 15.0215 13.9932C15.0215 15.8713 16.5529 17.3044 18.3811 17.3044ZM50.0143 0H4.98567C2.23222 0 0 2.23222 0 4.98567V50.0139C0 52.7677 2.23222 55 4.98567 55H50.0139C52.7673 55 54.9996 52.7677 54.9996 50.0143V4.98567C55 2.23222 52.7677 0 50.0143 0Z" fill="#FF2A63"/>
</g>
<defs>
<clipPath id="clip0_15869_4783">
<rect width="55" height="55" fill="white"/>
</clipPath>
</defs>
</svg>
