<svg width="44" height="52" viewBox="0 0 44 52" fill="none" xmlns="http://www.w3.org/2000/svg">
<g clip-path="url(#clip0_15806_5676)">
<path d="M4.12725 45.7077L0.543335 0.404297L43.3446 0.495336L39.5549 45.7077L22.1055 50.9338L4.12725 45.7077Z" fill="#E9CA32"/>
<path d="M22.1039 46.5587V4.71899L39.7297 4.77969L36.5866 42.2133L22.1039 46.5587Z" fill="#FFDE25"/>
<path d="M20.2183 9.68652H15.5584V37.534L11.9342 36.8199V33.0712L7.61951 32.3572V40.7472L20.2183 44.1388V9.68652ZM23.7138 9.68652H36.614L35.751 15.024H28.6383V23.7827H35.751L34.8881 41.4612L23.7138 44.1388V38.605L31.2638 35.9274L31.6998 28.6085L23.7138 29.8045V9.68652Z" fill="white"/>
</g>
<defs>
<clipPath id="clip0_15806_5676">
<rect width="42.8013" height="51.3615" fill="white" transform="translate(0.543335 0.404297)"/>
</clipPath>
</defs>
</svg>
