<svg width="55" height="75" viewBox="0 0 55 75" fill="none" xmlns="http://www.w3.org/2000/svg">
<g clip-path="url(#clip0_15869_3986)">
<path d="M39.7791 45.3104C41.1984 44.34 43.1671 43.5003 43.1671 43.5003C43.1671 43.5003 37.5639 44.5141 31.9895 44.9775C25.1701 45.5422 17.8438 45.6578 14.1661 45.1656C5.46414 44.0072 18.944 40.8066 18.944 40.8066C18.944 40.8066 13.7171 40.4594 7.27396 43.5579C-0.327294 47.2363 26.0966 48.9159 39.7791 45.3104Z" fill="#5382A1"/>
<path d="M27.4147 40.6622C24.6636 34.4791 15.3827 29.0485 27.4147 19.5491C42.4294 7.70397 34.7265 0 34.7265 0C37.8395 12.2364 23.7804 15.9436 18.6981 23.5459C15.2376 28.7445 20.3923 34.3197 27.4147 40.6622Z" fill="#F8981D"/>
<path d="M44.0085 15.1465C44.023 15.1465 18.6415 21.4891 30.7604 35.4486C34.3366 39.5612 29.8191 43.2684 29.8191 43.2684C29.8191 43.2684 38.8977 38.5768 34.7276 32.7118C30.8327 27.2379 27.85 24.5157 44.0085 15.1465Z" fill="#F8981D"/>
<path d="M43.1241 54.3177C43.0517 54.4915 42.8345 54.6798 42.8345 54.6942C61.4107 49.8141 54.5767 37.4762 45.701 40.6044C44.9191 40.8795 44.5141 41.5167 44.5141 41.5167C44.5141 41.5167 45.0061 41.3138 46.1068 41.0822C50.595 40.141 57.0382 47.0918 43.1241 54.3177Z" fill="#5382A1"/>
<path d="M49.9588 63.3393C49.9588 63.3393 52.0581 65.0627 47.6566 66.4093C39.2734 68.9435 12.7915 69.7107 5.43616 66.5109C2.78653 65.3667 7.75267 63.7591 9.31656 63.4263C10.938 63.0786 11.8792 63.1364 11.8792 63.1364C8.93993 61.0656 -7.13171 67.2057 3.71304 68.9581C33.2791 73.7654 57.6328 66.8002 49.9588 63.3393Z" fill="#5382A1"/>
<path d="M17.5833 57.3442C6.18845 60.5302 24.519 67.1046 39.0264 60.892C36.6523 59.9656 34.9436 58.8939 34.9436 58.8939C28.4715 60.1249 25.4746 60.2115 19.596 59.5456C14.7455 58.9952 17.5833 57.3442 17.5833 57.3442Z" fill="#5382A1"/>
<path d="M43.6173 71.4199C32.2225 73.5629 18.1636 73.3171 9.83789 71.9409C9.83789 71.9268 11.5465 73.3458 20.3207 73.9106C33.6702 74.7652 54.1724 73.4326 54.6503 67.1191C54.6503 67.1191 53.7237 69.5085 43.6173 71.4199Z" fill="#5382A1"/>
<path d="M37.307 51.1175C28.7352 52.7685 23.769 52.7249 17.4998 52.0733C12.6492 51.5664 15.8201 49.2207 15.8201 49.2207C3.25259 53.3911 22.799 58.1122 40.3617 52.9713C38.4942 52.3195 37.307 51.1175 37.307 51.1175Z" fill="#5382A1"/>
</g>
<defs>
<clipPath id="clip0_15869_3986">
<rect width="55" height="75" fill="white"/>
</clipPath>
</defs>
</svg>
