<svg width="46" height="53" viewBox="0 0 46 53" fill="none" xmlns="http://www.w3.org/2000/svg">
<g clip-path="url(#clip0_15869_4192)">
<path fill-rule="evenodd" clip-rule="evenodd" d="M21.9346 0.0443777C21.4661 0.118726 20.908 0.28266 20.5175 0.460493C19.911 0.736786 2.17726 11.2786 1.80367 11.5849C1.31305 11.9871 0.5407 13.0092 0.597713 13.1809C0.607216 13.2097 2.59119 14.3456 5.00629 15.7054L9.39768 18.1778L9.59439 17.872C9.97515 17.28 10.0537 17.2288 15.6994 13.8817C22.3785 9.9221 21.8097 10.2155 22.8095 10.2155C23.7838 10.2155 23.108 9.88041 29.9256 13.7417L35.4692 16.8813L35.9285 17.3382L36.3875 17.7951L40.6991 15.2084C43.0704 13.7856 45.0174 12.6015 45.0258 12.5769C45.0746 12.435 44.1356 11.4668 43.5712 11.0772C43.0525 10.719 25.155 0.577372 24.7286 0.399875C23.9367 0.0705002 22.7345 -0.0823821 21.9346 0.0443777Z" fill="#3CDB84"/>
<path fill-rule="evenodd" clip-rule="evenodd" d="M40.773 15.1719C38.4423 16.5718 36.5005 17.7376 36.4582 17.7624C36.3938 17.8 36.4096 17.8648 36.5529 18.1481C36.9278 18.8901 36.9026 18.3977 36.9228 25.3942C36.946 33.4069 36.9673 33.2213 35.9063 34.2594C35.6487 34.5116 28.6494 38.7273 24.8655 40.9094C24.3278 41.2195 23.8566 41.3933 23.3827 41.4562L23.1294 41.4899V46.573V51.6564H23.3356C23.8797 51.6564 24.8827 51.3956 25.45 51.1067C25.9231 50.866 43.4525 40.463 43.7846 40.2261C44.7986 39.5023 45.5452 38.3409 45.8706 36.9803C45.986 36.4977 46.055 16.2031 45.9453 15.0467C45.857 14.1195 45.3006 12.6195 45.0469 12.6255C45.0269 12.626 43.1037 13.7719 40.773 15.1719Z" fill="#4484F3"/>
<path fill-rule="evenodd" clip-rule="evenodd" d="M0.407165 13.5491C-0.0232728 14.6384 -0.011103 14.2356 0.00640124 26.7862L0.0219048 37.9228L0.147935 38.2975C0.400496 39.0487 0.793426 39.6392 1.31122 40.0455C1.6683 40.326 20.4676 51.0083 21.0112 51.2397C21.5137 51.4536 22.0892 51.5926 22.6484 51.6352L23.1242 51.6712L23.1279 43.9881L23.1315 36.3048L22.8136 36.2759C22.3664 36.2353 22.3298 36.2161 18.1057 33.8231C14.1384 31.5755 14.0261 31.5034 13.8215 31.0695L13.6954 30.8018L13.6949 26.0885C13.6943 22.299 13.7084 21.3204 13.7664 21.0959L13.8386 20.8167L12.7136 20.1257C12.095 19.7456 9.20212 18.0929 6.28509 16.4533C3.36805 14.8135 0.881781 13.4141 0.76025 13.3436L0.539029 13.2153L0.407165 13.5491Z" fill="#0A2C3A"/>
<path fill-rule="evenodd" clip-rule="evenodd" d="M22.4364 15.4266C21.9171 15.5436 14.7729 19.7395 14.3073 20.2007C13.6721 20.8302 13.6896 20.656 13.7068 26.1764L13.7212 30.8555L13.8798 31.143C14.097 31.5371 13.907 31.4181 18.2512 33.8824C22.606 36.3529 22.4002 36.2507 23.0227 36.2507C23.666 36.2507 23.5559 36.307 27.6808 33.8652C32.0524 31.2773 32.0616 31.2701 32.2434 30.2994C32.3312 29.8305 32.3144 21.501 32.225 21.1645C31.9727 20.2156 31.9601 20.2063 27.6334 17.7496C23.1968 15.2304 23.2338 15.247 22.4364 15.4266Z" fill="#D3F3FB"/>
<path fill-rule="evenodd" clip-rule="evenodd" d="M21.9276 10.3165C21.3773 10.4776 10.479 16.9016 10.0412 17.3229C9.79865 17.5565 9.42772 18.0662 9.42822 18.1654C9.42822 18.1952 9.97403 18.5262 10.6409 18.9008C11.3077 19.2754 12.2956 19.8563 12.8361 20.1918L13.819 20.8017L14.0164 20.495C14.1249 20.3262 14.3062 20.1188 14.4194 20.0341C14.5324 19.9493 14.637 19.8669 14.6516 19.8507C14.7512 19.741 21.9851 15.5096 22.1955 15.4378C22.6241 15.2916 23.2509 15.311 23.6232 15.4821C23.7917 15.5595 23.9386 15.6229 23.9495 15.6229C24.001 15.6229 31.2772 19.7717 31.4312 19.8889C31.5278 19.9623 31.6987 20.1389 31.8107 20.2815L32.0147 20.5405L32.9944 19.8849C33.5334 19.5244 34.5075 18.9088 35.1591 18.517L36.3438 17.8046L36.2378 17.6549C35.8626 17.1255 35.6212 16.9762 29.9166 13.7416C26.8712 12.0147 24.2821 10.5529 24.1632 10.493C23.5982 10.2086 22.5725 10.1278 21.9276 10.3165Z" fill="#34BB6C"/>
<path fill-rule="evenodd" clip-rule="evenodd" d="M35.0962 18.5578C34.1461 19.1306 32.1984 20.3862 32.0327 20.5323C32.019 20.5445 32.0598 20.6555 32.1233 20.7792C32.3412 21.2014 32.3583 21.6263 32.3386 26.0904C32.3184 30.7058 32.3332 30.4918 32.0008 31.0161C31.6961 31.4964 31.4616 31.6529 27.7402 33.8585C23.8295 36.1763 23.7735 36.2072 23.3827 36.2649L23.1294 36.3021V38.896V41.49L23.3827 41.4563C23.8566 41.3934 24.3278 41.2195 24.8655 40.9094C28.6494 38.7273 35.6487 34.5116 35.9063 34.2594C36.9673 33.2213 36.946 33.4069 36.9228 25.3943C36.9026 18.4024 36.9272 18.8891 36.5554 18.1533C36.3475 17.7416 36.5358 17.6893 35.0962 18.5578Z" fill="#3B73B4"/>
<path fill-rule="evenodd" clip-rule="evenodd" d="M31.4453 19.9234C31.4453 19.9325 31.5234 20.011 31.6186 20.0974L31.7919 20.2548L31.6354 20.0807C31.4893 19.9185 31.4453 19.882 31.4453 19.9234ZM32.3236 25.823C32.3236 28.1494 32.3301 29.0932 32.3381 27.9205C32.3462 26.7478 32.3462 24.8444 32.3381 23.6906C32.3301 22.5372 32.3236 23.4966 32.3236 25.823Z" fill="#86A4AE"/>
<path fill-rule="evenodd" clip-rule="evenodd" d="M23.0874 51.4425C23.0874 51.5453 23.0984 51.5876 23.1116 51.536C23.125 51.4845 23.125 51.4002 23.1116 51.3487C23.0984 51.2971 23.0874 51.3393 23.0874 51.4425Z" fill="#546C7C"/>
</g>
<defs>
<clipPath id="clip0_15869_4192">
<rect width="46" height="53" fill="white"/>
</clipPath>
</defs>
</svg>
