<svg width="61" height="61" viewBox="0 0 61 61" fill="none" xmlns="http://www.w3.org/2000/svg">
<path d="M13.2285 9.73198C9.72477 14.7669 10.1608 21.3181 12.8377 26.669L13.0335 27.0493L13.1589 27.2904L13.237 27.4291L13.3767 27.6788C13.4596 27.8252 13.5449 27.9705 13.6321 28.1168L13.778 28.357C13.8746 28.5123 13.9733 28.6667 14.0744 28.8207L14.2006 29.0156C14.3402 29.2239 14.4827 29.4311 14.6301 29.6357L14.6424 29.6514L14.7149 29.749C14.8421 29.9244 14.9732 30.0979 15.1061 30.2699L15.2533 30.4573C15.3721 30.6064 15.4926 30.7541 15.6151 30.9023L15.7533 31.0673C15.9177 31.2607 16.0859 31.4542 16.257 31.6428L16.267 31.6534L16.2866 31.6748C16.4538 31.8573 16.6249 32.0361 16.7988 32.2148L16.9628 32.3801C17.0972 32.5154 17.2339 32.6484 17.3717 32.781L17.5389 32.9401C17.7234 33.1136 17.9093 33.2842 18.0993 33.4501L18.108 33.4577L18.2056 33.5406C18.3729 33.6859 18.5431 33.829 18.7146 33.9705L18.9253 34.1387C19.0654 34.2507 19.207 34.3617 19.3494 34.4704L19.5768 34.6424C19.734 34.7582 19.8927 34.8721 20.0528 34.984L20.2258 35.107L20.2739 35.1414C20.4255 35.2462 20.5814 35.3468 20.7362 35.4473L20.9364 35.5807C21.1747 35.7308 21.4162 35.88 21.6602 36.024L21.8605 36.1369C22.0401 36.2403 22.2208 36.3423 22.4038 36.4414L22.7044 36.5967L23.0933 36.7988L23.1829 36.8422L23.3421 36.9189C23.5456 37.0161 23.7509 37.112 23.9583 37.2044L24.0883 37.2626C24.3257 37.3664 24.5653 37.466 24.807 37.5617L24.9824 37.6305C25.2058 37.7172 25.4328 37.8015 25.6605 37.8815L25.7459 37.9111C25.9956 37.9988 26.2481 38.0793 26.5022 38.159L26.6846 38.2132C26.943 38.2914 27.1989 38.3839 27.4653 38.4335C44.4085 41.5229 49.33 28.2522 49.33 28.2522C45.1962 33.6373 37.8595 35.0575 30.908 33.4762C30.6445 33.4167 30.3889 33.3342 30.1322 33.2589L29.9386 33.1998C29.688 33.1231 29.4387 33.0426 29.1914 32.9568L29.089 32.9201C28.8673 32.842 28.6485 32.76 28.4303 32.6756L28.2454 32.6031C28.0067 32.5088 27.7689 32.4102 27.5344 32.3077L27.3923 32.2443C27.1908 32.1533 26.9911 32.0613 26.7924 31.9655L26.6189 31.8821C26.4631 31.8063 26.3091 31.7258 26.1547 31.6462L25.8454 31.4837C25.6572 31.3837 25.4727 31.2787 25.2893 31.1721L25.1016 31.0677C24.857 30.9233 24.6159 30.7746 24.3772 30.6235L24.1817 30.4935C24.0087 30.3819 23.8363 30.268 23.6666 30.1508L23.5003 30.0341C23.3364 29.9187 23.1739 29.8009 23.0132 29.6823L22.7974 29.5188C22.6497 29.4059 22.5029 29.292 22.3579 29.1752L22.1621 29.018C21.9772 28.8664 21.7947 28.7129 21.6146 28.5562L21.5545 28.5062C21.3596 28.335 21.168 28.1592 20.9788 27.9828L20.8168 27.8266C20.6767 27.6936 20.5384 27.5592 20.4031 27.421L20.2411 27.259C20.0686 27.0826 19.8994 26.904 19.7336 26.7225L19.7082 26.6952C19.5328 26.5037 19.3614 26.3078 19.1935 26.1095L19.0587 25.9494C18.9334 25.7988 18.8095 25.6453 18.6885 25.4915L18.5526 25.3223C18.4064 25.1331 18.2643 24.9444 18.1247 24.7527C14.2654 19.4881 12.8787 12.2273 15.9634 6.26451L13.2285 9.73198ZM24.1036 5.48962C21.5702 9.13534 21.7074 14.0167 23.6842 17.8722C24.0154 18.5184 24.3882 19.146 24.8046 19.7427C25.184 20.2874 25.6053 20.9345 26.109 21.3715C26.2915 21.5727 26.4826 21.769 26.6776 21.9615L26.8272 22.1098C27.0163 22.2932 27.2089 22.4739 27.4077 22.6493L27.4314 22.6697L27.4372 22.6754C27.6574 22.8685 27.8847 23.0538 28.1153 23.2368L28.2693 23.3569C28.5009 23.5342 28.7368 23.7086 28.9789 23.875L28.9994 23.8907L29.3233 24.1037L29.4769 24.2052C29.6499 24.3162 29.8248 24.424 30.003 24.5274L30.0773 24.5712C30.2307 24.6593 30.3861 24.7461 30.542 24.8309L30.7074 24.9167L31.0324 25.0853L31.0815 25.1078C31.3049 25.2174 31.5299 25.3237 31.7601 25.4237L31.9097 25.4858C32.0937 25.5634 32.279 25.6396 32.4659 25.7111L32.7041 25.7988C32.8738 25.8617 33.0434 25.9194 33.215 25.9766L33.4457 26.0505C33.6892 26.1257 33.9303 26.2216 34.1838 26.264C47.2655 28.4309 50.2855 18.3587 50.2855 18.3587C47.5633 22.2799 42.2911 24.1504 36.6653 22.6902C36.4156 22.6245 36.1688 22.5529 35.9242 22.4762L35.7018 22.4042C35.5277 22.3485 35.3547 22.2884 35.1837 22.2261L34.9497 22.1388C34.762 22.0664 34.5761 21.9916 34.3916 21.9133L34.2416 21.85C34.0104 21.7495 33.7831 21.6432 33.559 21.5326L33.2169 21.3587L33.0197 21.2571C32.8738 21.1781 32.7289 21.0961 32.5864 21.0122L32.483 20.9536C32.3057 20.8502 32.1314 20.7439 31.9588 20.6333L31.8006 20.528L31.4613 20.3031C31.2202 20.1368 30.9851 19.9628 30.754 19.7861L30.5948 19.6603C28.1325 17.7163 26.1805 15.059 25.2526 12.0462C24.28 8.92135 24.4897 5.41385 26.1748 2.56687L24.1036 5.48962ZM33.2502 2.32001C31.7567 4.51792 31.6099 7.24815 32.6465 9.67576C33.7392 12.2525 35.9786 14.2736 38.5925 15.2325L38.9175 15.3445L39.0606 15.3903C39.2144 15.4388 39.3675 15.4951 39.5266 15.5246C46.7498 16.9204 48.709 11.8184 49.2303 11.0668C47.5142 13.5378 44.6301 14.1311 41.0912 13.2719C40.8119 13.2042 40.5045 13.1032 40.2353 13.0074C39.8898 12.884 39.5495 12.7439 39.2182 12.5852C38.5902 12.283 37.9912 11.917 37.4354 11.4976C34.2687 9.09482 32.3019 4.51173 34.3683 0.778809" fill="#0868AC"/>
<path d="M31.6243 45.8904H29.6103C29.4988 45.8904 29.3877 45.98 29.3639 46.0891L28.6491 49.3966L27.9342 52.7038C27.9109 52.813 27.7998 52.9026 27.6883 52.9026H26.2629C24.8527 52.9026 25.0158 51.9271 25.3045 50.5908L25.3131 50.5503L25.3445 50.3815L25.3504 50.3501L25.4146 50.007L25.4837 49.6396L25.5571 49.2655L25.8821 47.6776L26.2076 46.0897C26.23 45.98 26.1566 45.89 26.0451 45.89H23.9783C23.8667 45.89 23.7562 45.9796 23.7333 46.0891L23.2887 48.1974L22.8445 50.3063L22.8435 50.3091L22.8026 50.5054C22.2907 52.8421 22.4261 55.0709 25.2083 55.141L25.2894 55.1424H29.656C29.7676 55.1424 29.8786 55.0527 29.9019 54.9436L30.8436 50.5169L31.7853 46.0897C31.8086 45.98 31.7362 45.891 31.6243 45.8904ZM10.0569 45.8671H7.84567C7.73368 45.8671 7.62217 45.9567 7.59738 46.0653L7.3877 46.9909L7.17801 47.9163C7.1537 48.0254 7.22471 48.1146 7.3367 48.1146H9.56511C9.6771 48.1146 9.78814 48.025 9.81197 47.9159L10.0145 46.9909L10.217 46.0658C10.2404 45.9567 10.1689 45.8671 10.0569 45.8671ZM9.41547 48.7474H7.18659C7.07507 48.7474 6.96307 48.837 6.93829 48.9457L6.6252 50.3324L6.31257 51.7188L6.22536 52.1162L5.92465 53.5317L5.62442 54.9476C5.60106 55.0567 5.55293 55.2329 5.51718 55.3388C5.51718 55.3388 5.10067 56.5779 4.4006 56.5635L4.31292 56.5616L3.7072 56.5506C3.59568 56.5493 3.48322 56.6364 3.45701 56.7446L3.22587 57.7163L2.99522 58.6875C2.96901 58.7963 3.03954 58.8858 3.15057 58.8877C3.54756 58.8925 4.43682 58.9025 4.97486 58.9025C6.72337 58.9025 7.64551 57.9336 8.23598 55.1457L8.92747 51.9461L9.57607 48.9452C9.59942 48.837 9.52698 48.7474 9.41547 48.7474ZM50.4557 47.9974L50.3632 47.6156L50.2721 47.2248L50.2259 47.0275C50.0448 46.3236 49.5134 45.9181 48.3591 45.9181L46.5625 45.9162L44.9079 45.9137H43.0461C42.9345 45.9137 42.8239 46.0033 42.8006 46.1125L42.7181 46.5014L42.6209 46.9608L42.5937 47.0899L41.7554 51.0169L40.9596 54.7445C40.9357 54.854 40.9281 54.9885 40.9416 55.0429C40.9548 55.0976 41.1698 55.1424 41.2812 55.1424H42.9607C43.0728 55.1424 43.2143 55.1224 43.2753 55.0976C43.3363 55.0728 43.4263 54.8531 43.4487 54.7439L43.747 53.2671L44.0458 51.7898L44.0463 51.7873L44.0863 51.5905L44.4485 49.894L44.7683 48.3957C44.7921 48.2866 44.9022 48.1974 45.0138 48.197L50.2983 48.1946C50.4104 48.1955 50.4809 48.1065 50.4557 47.9974ZM57.2585 44.5471L56.8516 44.5484H55.1602C55.0483 44.5484 54.9049 44.6242 54.8424 44.7166L51.1018 50.1962C51.0389 50.2886 50.967 50.2752 50.9422 50.1666L50.6667 48.9595C50.6419 48.8504 50.5299 48.7612 50.418 48.7612H48.0138C47.9016 48.7612 47.8355 48.8489 47.866 48.9561L48.9435 52.731C48.974 52.8387 48.9763 53.0151 48.9487 53.1237L48.4793 54.9504C48.4512 55.059 48.5198 55.1472 48.6318 55.1472H51.0084C51.1199 55.1472 51.2343 55.0586 51.2619 54.9504L51.7318 53.1237C51.7594 53.0145 51.8371 52.8535 51.9049 52.7639L57.9772 44.7047C58.0449 44.6151 58.0081 44.5422 57.8967 44.5431L57.2585 44.5471ZM38.1551 49.274V49.2721C38.1412 49.3932 38.0293 49.4822 37.9173 49.4822H34.8687C34.7629 49.4822 34.7095 49.4108 34.7252 49.3221L34.7281 49.315L34.7262 49.3159L34.7275 49.306L34.7414 49.254C35.0325 48.4801 35.6255 47.972 36.7401 47.972C37.9954 47.9716 38.2403 48.5844 38.1551 49.274ZM37.2605 45.7551C33.3475 45.7551 32.4201 48.1303 31.8997 50.5279C31.3797 52.9717 31.4241 55.2558 35.4739 55.2558H35.9648L36.0868 55.2554H36.1154L36.6015 55.2539H36.61C37.6794 55.2496 38.7522 55.2416 39.1864 55.2382C39.2974 55.2363 39.406 55.1472 39.4289 55.0381L39.5928 54.237L39.6248 54.0811L39.8201 53.1251C39.8426 53.016 39.7697 52.9259 39.6577 52.9259H36.0172C34.5689 52.9259 34.1391 52.5413 34.2977 51.41H40.1171H40.1204C40.2128 51.4086 40.2986 51.3446 40.3325 51.2599L40.3463 51.2093C41.2104 47.95 40.962 45.7555 37.2605 45.7551ZM18.7652 49.2617L18.7099 49.4566L18.2704 51.0144L17.8311 52.5714C17.801 52.6796 17.6843 52.7673 17.5723 52.7673H15.2467C13.4825 52.7673 13.0526 51.3871 13.4825 49.3522C13.9118 47.2705 14.754 45.9766 16.4906 45.8457C18.8638 45.6665 19.3385 47.3353 18.7652 49.2617ZM20.3607 52.6476C20.3607 52.6476 21.4572 49.9846 21.7061 48.4471C22.0458 46.3888 21.015 43.4028 17.0338 43.4028C13.0755 43.4028 11.356 46.253 10.7003 49.3522C10.0445 52.4737 10.9038 55.2105 14.8396 55.1882L17.945 55.1768L20.8468 55.1662C20.9584 55.1653 21.0726 55.0766 21.1012 54.969L21.6069 53.0408C21.635 52.9321 21.5669 52.8435 21.4549 52.8425L20.9701 52.8397L20.4855 52.8368C20.3906 52.8363 20.3364 52.7743 20.3478 52.6929L20.3607 52.6476ZM39.9569 50.8648C39.9569 50.9386 39.8974 50.9987 39.8235 50.9987C39.7502 50.9987 39.6901 50.9386 39.6901 50.8648C39.6901 50.7914 39.7496 50.7318 39.8235 50.7318C39.8974 50.7318 39.9569 50.7914 39.9569 50.8648Z" fill="white"/>
</svg>
