<svg width="65" height="61" viewBox="0 0 65 61" fill="none" xmlns="http://www.w3.org/2000/svg">
<g clip-path="url(#clip0_15869_3898)">
<path d="M64.0348 13.8003C64.0248 13.7726 64.013 13.7455 63.9992 13.7193C63.9811 13.668 63.9585 13.6182 63.9319 13.5703C63.9114 13.5406 63.8884 13.5123 63.8633 13.4858C63.8354 13.4466 63.805 13.4092 63.7719 13.3738C63.7428 13.3476 63.7059 13.3261 63.6742 13.3023C63.638 13.2731 63.5999 13.2459 63.56 13.2213L51.3395 6.61848C51.185 6.53482 51.0099 6.49078 50.8316 6.49078C50.6534 6.49078 50.4783 6.53482 50.3238 6.61848L38.1008 13.2248C38.0615 13.2498 38.0243 13.2772 37.9891 13.3071C37.9545 13.3289 37.9214 13.3527 37.8901 13.3786C37.8568 13.4134 37.8262 13.4503 37.7986 13.4893C37.777 13.518 37.7491 13.5429 37.7301 13.5739C37.7044 13.6221 37.6823 13.6718 37.6641 13.7228C37.6539 13.7503 37.6374 13.7752 37.6286 13.8039C37.6052 13.8846 37.5933 13.9679 37.593 14.0517V26.59L27.4088 32.0931V7.5585C27.409 7.47436 27.3971 7.39059 27.3732 7.30949C27.3656 7.2809 27.3479 7.25588 27.3377 7.22848C27.3199 7.17764 27.2979 7.12824 27.2716 7.08074C27.2539 7.04976 27.2247 7.02474 27.2031 6.99496C27.1752 6.95586 27.1447 6.91846 27.1117 6.88297C27.0801 6.85755 27.0471 6.83368 27.0127 6.81148C26.9771 6.78252 26.9399 6.75547 26.901 6.73047L14.6767 0.127695C14.5222 0.0440403 14.3471 0 14.1689 0C13.9906 0 13.8155 0.0440403 13.661 0.127695L1.43927 6.73047C1.39958 6.75482 1.36221 6.78232 1.32754 6.81268C1.29253 6.83448 1.25903 6.85836 1.22725 6.88415C1.19441 6.91901 1.16429 6.95604 1.13711 6.99496C1.11426 7.02474 1.08633 7.04976 1.06729 7.08074C1.04127 7.12817 1.01961 7.17759 1.00254 7.22848C0.988678 7.25441 0.976386 7.28107 0.965727 7.3083C0.942372 7.38989 0.930422 7.474 0.93018 7.5585V46.8392C0.929694 47.007 0.976391 47.1718 1.06556 47.3172C1.15472 47.4625 1.28319 47.5834 1.43799 47.6672L25.8764 60.8728C25.9309 60.8985 25.9873 60.9199 26.0453 60.937C26.0719 60.9466 26.0973 60.9609 26.1253 60.968C26.2957 61.0109 26.4753 61.0109 26.6459 60.968C26.6712 60.9621 26.6928 60.949 26.7156 60.9418C26.7769 60.9238 26.8364 60.9006 26.8934 60.8728L51.3395 47.6672C51.4942 47.5834 51.6227 47.4625 51.7119 47.3172C51.8011 47.1718 51.8478 47.007 51.8473 46.8392V34.2985L63.5574 27.9708C63.7132 27.8865 63.8423 27.7648 63.9315 27.6183C64.0207 27.4718 64.0669 27.3057 64.0652 27.1369V14.0493C64.066 13.9655 64.0558 13.8818 64.0348 13.8003ZM14.1676 2.05896L24.3479 7.55731L14.1664 13.0592L3.98722 7.5585L14.1676 2.05896ZM25.3712 9.2074V33.1928L19.4641 36.3845L15.187 38.6959V14.7141L21.0941 11.5223L25.3712 9.2074ZM25.3712 58.3863L2.96651 46.2864V9.21217L7.24356 11.5211L13.1494 14.7141V40.3507C13.152 40.3868 13.1571 40.4226 13.1646 40.458C13.1677 40.5053 13.1745 40.5523 13.185 40.5986C13.1979 40.6355 13.2141 40.6714 13.2332 40.7058C13.2473 40.7468 13.2652 40.7867 13.2866 40.8249C13.31 40.8573 13.3354 40.8883 13.3627 40.9179C13.3882 40.953 13.4161 40.9865 13.4465 41.0179C13.4757 41.0442 13.5125 41.0632 13.5443 41.087C13.5789 41.1153 13.6154 41.1416 13.6534 41.1656L25.3572 47.3824L25.3712 58.3863ZM26.3869 45.7371L16.2229 40.3376L26.8985 34.5701L38.6111 28.2425L48.7838 33.7384L41.319 37.7368L26.3869 45.7371ZM49.8122 46.2816L27.4062 58.3922V47.3944L44.0016 38.5064L49.8122 35.3909V46.2816ZM49.8122 32.0883L45.5351 29.7854L39.628 26.5936V15.7018L43.9051 18.0131L49.8122 21.2072V32.0883ZM50.8279 19.5453L40.6462 14.0445L50.8279 8.54497L61.0069 14.0433L50.8279 19.5453ZM51.8434 32.0883V21.2072L57.7633 18.0131L62.0391 15.7018V26.59L51.8434 32.0883Z" fill="#FF2D20"/>
</g>
<defs>
<clipPath id="clip0_15869_3898">
<rect width="65" height="61" fill="white"/>
</clipPath>
</defs>
</svg>
