<svg width="60" height="59" viewBox="0 0 60 59" fill="none" xmlns="http://www.w3.org/2000/svg">
<g clip-path="url(#clip0_15481_9910)">
<g filter="url(#filter0_bii_15481_9910)">
<rect x="0.836914" y="0.47168" width="58.307" height="58.307" rx="13.2516" fill="white" fill-opacity="0.01"/>
</g>
<g filter="url(#filter1_f_15481_9910)">
<path d="M48.5423 58.7797H11.1729C13.469 56.8361 20.4377 52.949 29.9437 52.949C39.4496 52.949 46.3036 56.8361 48.5423 58.7797Z" fill="url(#paint0_linear_15481_9910)"/>
</g>
<g filter="url(#filter2_f_15481_9910)">
<path fill-rule="evenodd" clip-rule="evenodd" d="M25.1809 22.5822C25.1809 23.8157 24.1809 24.8157 22.9474 24.8157C21.7139 24.8157 20.7139 23.8157 20.7139 22.5822C20.7139 21.3486 21.7139 20.3486 22.9474 20.3486C24.1809 20.3486 25.1809 21.3486 25.1809 22.5822ZM27.2902 38.8999V26.5083H30.9835V28.2029H31.0356C31.549 27.2301 32.8046 26.2021 34.6778 26.2021C38.5794 26.2021 39.298 28.7674 39.298 32.1054V38.901H35.4485V32.8741C35.4485 31.4378 35.424 29.5891 33.4467 29.5891C31.4419 29.5891 31.1377 31.1551 31.1377 32.772V38.8999H27.2902ZM24.874 26.5083H21.0204V38.8999H24.874V26.5083Z" fill="url(#paint1_linear_15481_9910)"/>
</g>
<path fill-rule="evenodd" clip-rule="evenodd" d="M25.1809 22.5822C25.1809 23.8157 24.1809 24.8157 22.9474 24.8157C21.7139 24.8157 20.7139 23.8157 20.7139 22.5822C20.7139 21.3486 21.7139 20.3486 22.9474 20.3486C24.1809 20.3486 25.1809 21.3486 25.1809 22.5822ZM27.2902 38.8999V26.5083H30.9835V28.2029H31.0356C31.549 27.2301 32.8046 26.2021 34.6778 26.2021C38.5794 26.2021 39.298 28.7674 39.298 32.1054V38.901H35.4485V32.8741C35.4485 31.4378 35.424 29.5891 33.4467 29.5891C31.4419 29.5891 31.1377 31.1551 31.1377 32.772V38.8999H27.2902ZM24.874 26.5083H21.0204V38.8999H24.874V26.5083Z" fill="url(#paint2_linear_15481_9910)"/>
</g>
<defs>
<filter id="filter0_bii_15481_9910" x="-7.11404" y="-7.47927" width="74.209" height="74.2089" filterUnits="userSpaceOnUse" color-interpolation-filters="sRGB">
<feFlood flood-opacity="0" result="BackgroundImageFix"/>
<feGaussianBlur in="BackgroundImageFix" stdDeviation="3.97547"/>
<feComposite in2="SourceAlpha" operator="in" result="effect1_backgroundBlur_15481_9910"/>
<feBlend mode="normal" in="SourceGraphic" in2="effect1_backgroundBlur_15481_9910" result="shape"/>
<feColorMatrix in="SourceAlpha" type="matrix" values="0 0 0 0 0 0 0 0 0 0 0 0 0 0 0 0 0 0 127 0" result="hardAlpha"/>
<feOffset dx="2.65032" dy="2.65032"/>
<feGaussianBlur stdDeviation="0.662579"/>
<feComposite in2="hardAlpha" operator="arithmetic" k2="-1" k3="1"/>
<feColorMatrix type="matrix" values="0 0 0 0 1 0 0 0 0 1 0 0 0 0 1 0 0 0 0.1 0"/>
<feBlend mode="normal" in2="shape" result="effect2_innerShadow_15481_9910"/>
<feColorMatrix in="SourceAlpha" type="matrix" values="0 0 0 0 0 0 0 0 0 0 0 0 0 0 0 0 0 0 127 0" result="hardAlpha"/>
<feOffset dy="-1.32516"/>
<feGaussianBlur stdDeviation="3.3129"/>
<feComposite in2="hardAlpha" operator="arithmetic" k2="-1" k3="1"/>
<feColorMatrix type="matrix" values="0 0 0 0 0 0 0 0 0 0.980392 0 0 0 0 0.980392 0 0 0 0.35 0"/>
<feBlend mode="normal" in2="effect2_innerShadow_15481_9910" result="effect3_innerShadow_15481_9910"/>
</filter>
<filter id="filter1_f_15481_9910" x="-2.07873" y="39.6974" width="63.8728" height="32.3339" filterUnits="userSpaceOnUse" color-interpolation-filters="sRGB">
<feFlood flood-opacity="0" result="BackgroundImageFix"/>
<feBlend mode="normal" in="SourceGraphic" in2="BackgroundImageFix" result="shape"/>
<feGaussianBlur stdDeviation="6.62579" result="effect1_foregroundBlur_15481_9910"/>
</filter>
<filter id="filter2_f_15481_9910" x="7.46229" y="7.09705" width="45.0871" height="45.0555" filterUnits="userSpaceOnUse" color-interpolation-filters="sRGB">
<feFlood flood-opacity="0" result="BackgroundImageFix"/>
<feBlend mode="normal" in="SourceGraphic" in2="BackgroundImageFix" result="shape"/>
<feGaussianBlur stdDeviation="6.62579" result="effect1_foregroundBlur_15481_9910"/>
</filter>
<linearGradient id="paint0_linear_15481_9910" x1="14.0882" y1="55.8643" x2="16.5478" y2="48.1742" gradientUnits="userSpaceOnUse">
<stop stop-color="#1DA1F2"/>
<stop offset="1" stop-color="#00FAFA"/>
</linearGradient>
<linearGradient id="paint1_linear_15481_9910" x1="37.9382" y1="19.1733" x2="19.2539" y2="33.3666" gradientUnits="userSpaceOnUse">
<stop stop-color="#0A66C2"/>
<stop offset="1" stop-color="#0AC2C2"/>
</linearGradient>
<linearGradient id="paint2_linear_15481_9910" x1="37.9382" y1="19.1733" x2="19.2539" y2="33.3666" gradientUnits="userSpaceOnUse">
<stop stop-color="#0A66C2"/>
<stop offset="1" stop-color="#0AC2C2"/>
</linearGradient>
<clipPath id="clip0_15481_9910">
<rect width="58.307" height="58.307" fill="white" transform="translate(0.836914 0.47168)"/>
</clipPath>
</defs>
</svg>
