<svg width="23" height="23" viewBox="0 0 23 23" fill="none" xmlns="http://www.w3.org/2000/svg">
<g clip-path="url(#clip0_18581_1603)">
<path d="M18.7224 19.1139H15.4759V14.0258C15.4759 12.8124 15.4544 11.2511 13.7874 11.2511C12.0967 11.2511 11.8376 12.5726 11.8376 13.9383V19.1139H8.5923V8.65037H11.7092V10.0799H11.7523C12.3882 8.99288 13.5693 8.34351 14.8271 8.38997C18.1178 8.38997 18.7234 10.5564 18.7234 13.3732L18.7224 19.1139ZM4.92916 7.21979C3.88841 7.21979 3.04523 6.37593 3.04523 5.33433C3.04523 4.29274 3.88841 3.44887 4.92916 3.44887C5.96991 3.44887 6.81309 4.29274 6.81309 5.33433C6.81309 6.37593 5.96991 7.21979 4.92916 7.21979ZM6.55183 19.1139H3.30218V8.65037H6.55183V19.1139ZM20.3407 0.432136H1.67088C0.788827 0.422412 0.0654837 1.13013 0.0546875 2.0129V20.7746C0.0654837 21.6584 0.788827 22.3661 1.67088 22.3564H20.3407C21.2249 22.3672 21.9515 21.6595 21.9634 20.7746V2.01182C21.9504 1.12689 21.2238 0.41917 20.3407 0.431056" fill="white"/>
</g>
<defs>
<clipPath id="clip0_18581_1603">
<rect width="21.9603" height="21.9603" fill="white" transform="translate(0.0546875 0.374634)"/>
</clipPath>
</defs>
</svg>
