<svg width="130" height="44" viewBox="0 0 130 44" fill="none" xmlns="http://www.w3.org/2000/svg">
<path d="M90.7324 43.5342L90.7974 39.4556H92.8777C93.6362 39.4556 94.0479 39.9304 94.0479 40.513C94.0479 41.0094 93.7229 41.3546 93.3545 41.441C93.7879 41.5057 94.1346 41.9373 94.1346 42.4336C94.1346 43.081 93.7229 43.5342 92.8777 43.5342H90.7324ZM93.3328 40.6209C93.3328 40.3404 93.1378 40.103 92.7694 40.103H91.5342V41.1604H92.7694C93.0944 41.1604 93.3328 40.923 93.3328 40.6209ZM93.3978 42.3473C93.3978 42.0668 93.2028 41.7862 92.7911 41.7862H91.5342V42.93H92.7911C93.1594 42.9084 93.3978 42.6926 93.3978 42.3473ZM95.9115 43.5342V41.851L94.3296 39.4556H95.1531L96.2583 41.2036L97.3634 39.4556H98.1869L96.605 41.851V43.5342H95.9115ZM102.478 43.5342L101.567 42.0236H100.831V43.5342H100.116V39.4556H101.892C102.716 39.4556 103.236 39.9735 103.236 40.7288C103.236 41.4625 102.759 41.8294 102.261 41.9157L103.258 43.5126H102.478V43.5342ZM102.564 40.7504C102.564 40.3619 102.283 40.103 101.871 40.103H100.874V41.3762H101.871C102.283 41.3762 102.564 41.1173 102.564 40.7504ZM104.103 43.5342V39.4556H106.92V40.103H104.818V41.1604H106.855V41.8078H104.818V42.9516H106.898V43.599L104.103 43.5342ZM107.787 39.4556H110.604V40.103H108.523V41.1604H110.56V41.8078H108.523V43.5774H107.787V39.4556ZM111.341 39.4556H112.077V43.5342H111.341V39.4556ZM116.086 43.5342L113.941 40.6209V43.5342H113.248V39.4556H113.984L116.065 42.2826V39.4556H116.801V43.5342H116.086ZM117.95 39.4556H118.643V43.5342H117.95V39.4556ZM120.659 43.5342V40.103H119.424V39.4556H122.609V40.103H121.374V43.5342H120.659ZM123.367 39.4556H124.104V43.5342H123.367V39.4556ZM126.38 43.5342L124.776 39.4556H125.599L126.835 42.7573L128.07 39.4556H128.893L127.29 43.5342H126.38Z" fill="#858589"/>
<path d="M68.4556 35.377L71.8578 25.1264L75.2817 35.377H68.4556Z" fill="#858589"/>
<path d="M118.015 35.377L121.439 25.1264L124.841 35.377H118.015Z" fill="#858589"/>
<path d="M87.7203 35.377L89.7789 26.7665L91.9026 35.377H87.7203Z" fill="#858589"/>
<path d="M128.872 35.377V0.999878L0 35.377H51.5963V32.55L57.4689 24.7164H51.5963V21.6304H62.1713V24.4358L56.2771 32.291H62.323V35.377H64.4033L69.6041 21.6304H74.1115L79.3123 35.377H83.9497L79.9841 21.6304H83.9714L86.0733 30.802L88.4354 21.6304H91.1658L93.5278 30.802L95.6082 21.6304H99.6171L95.6732 35.377H105.88V29.8524L100.636 21.6304H104.645L107.657 26.7018L110.625 21.6304H114.656L109.455 29.8524V35.377H113.984L119.185 21.6304H123.693L128.872 35.377Z" fill="#858589"/>
<path d="M129.63 39.8009C129.695 39.8009 129.782 39.7361 129.782 39.6498C129.782 39.5635 129.717 39.4987 129.63 39.4987H129.457V39.9951H129.522V39.8009H129.63L129.782 39.9951H129.847L129.63 39.8009ZM129.717 39.6714C129.717 39.7361 129.652 39.7793 129.608 39.7793H129.457V39.5851H129.608C129.652 39.5419 129.717 39.6066 129.717 39.6714Z" fill="#858589"/>
<path d="M129.565 40.1893C129.327 40.1893 129.132 39.9951 129.132 39.7577C129.132 39.5203 129.327 39.3261 129.565 39.3261C129.803 39.3261 129.999 39.5203 129.999 39.7577C130.02 39.9951 129.803 40.1893 129.565 40.1893ZM129.565 39.3693C129.37 39.3693 129.175 39.5419 129.175 39.7577C129.175 39.9519 129.348 40.1461 129.565 40.1461C129.76 40.1461 129.955 39.9735 129.955 39.7577C129.955 39.5419 129.782 39.3693 129.565 39.3693Z" fill="#858589"/>
</svg>
