<svg width="130" height="45" viewBox="0 0 130 45" fill="none" xmlns="http://www.w3.org/2000/svg">
<path d="M11.5199 44.6238C10.202 44.1957 8.96511 42.9523 8.09324 41.2197C7.89047 40.812 7.72826 40.4655 7.72826 40.4248C7.72826 40.3228 8.33655 39.9763 8.3771 40.0782C8.39738 40.119 8.55959 40.4044 8.76235 40.7305C10.2628 43.1358 12.2904 43.4007 13.2637 41.3216C13.5272 40.7305 13.6692 40.2005 13.8111 38.9979C14.0341 37.2857 14.3788 35.2066 14.541 34.6154C14.9668 32.9847 15.8996 31.6802 18.211 29.4788C20.2386 27.5627 21.2119 26.0747 21.3133 24.709C21.3336 24.444 21.3336 24.2198 21.3133 24.2198C21.293 24.2198 21.07 24.4033 20.8267 24.6071C20.5833 24.8109 20.0156 25.2798 19.5695 25.6059C18.4138 26.462 17.9272 26.9104 17.5825 27.3793C17.4203 27.6035 17.2581 27.7869 17.2378 27.7869C17.2175 27.7869 17.0553 27.3996 16.9134 26.9512C16.6903 26.2786 16.6295 26.0136 16.6295 25.6467C16.6295 25.0963 16.7309 24.8925 17.2783 24.1994C17.988 23.3026 18.3732 22.3038 18.3732 21.2642C18.3732 20.1431 17.8866 19.1851 16.4673 17.4525C15.8184 16.6779 13.9733 14.7007 13.8922 14.7007C13.8719 14.7007 13.8517 15.1491 13.8517 15.6791C13.8922 17.9009 13.4664 19.6131 12.2498 22.0592C11.4794 23.6287 11.3171 23.9956 11.013 24.9332C10.6886 25.932 10.5872 26.462 10.5466 27.4404L10.5061 28.3169L10.2222 28.6023C10.06 28.7653 9.91809 28.8673 9.89781 28.8469C9.79643 28.745 9.71533 27.42 9.75588 26.5843C9.81671 25.0352 10.1817 23.6287 11.0738 21.5292C12.777 17.534 13.2231 16.0664 13.1217 14.6395C13.0812 14.0484 13.0406 13.865 12.4526 12.2954C11.966 10.9501 12.0876 9.64556 12.8581 8.42254C13.0609 8.11679 13.0812 8.03526 13.0203 7.89257C12.9798 7.79065 12.8379 7.44413 12.6756 7.118C12.2296 6.09882 12.1079 5.56885 12.1079 4.42737C12.1079 3.36742 12.189 2.91898 12.4932 2.24632C12.7567 1.6552 13.507 0.962158 13.8922 0.962158C14.1558 0.962158 14.1153 1.08446 13.7503 1.34944C12.9798 1.94057 12.6959 2.95975 12.9595 4.24391C13.2434 5.58923 13.7908 6.52687 15.5954 8.80983C19.9345 14.1707 22.0838 17.3098 23.7667 20.6731C24.8413 22.8133 25.2671 23.9344 25.7132 25.7078C26.1796 27.5423 26.3215 29.0711 26.1796 30.6203C25.8957 34.0039 24.5372 36.3684 22.2257 37.5303C20.6442 38.3456 18.5557 38.4679 16.67 37.8972C16.0009 37.6934 16.0212 37.7341 16.1631 36.7965C16.3253 35.8588 16.4267 35.4919 16.5687 35.5123C16.6092 35.5123 16.9336 35.5735 17.2783 35.6346C18.799 35.92 20.4414 35.5735 21.6783 34.7174C22.0838 34.4524 22.8137 33.7389 23.1787 33.2701C23.787 32.4752 24.2736 31.4356 24.5575 30.2941C24.7602 29.4584 24.8413 27.7462 24.7197 26.8493C24.6183 26.1766 24.2736 25.0148 23.8883 24.0567C22.5501 20.7138 20.1575 17.1059 15.0277 10.6444C14.8046 10.359 14.3788 9.78824 14.0747 9.40095C13.7908 9.01367 13.5272 8.68753 13.507 8.68753C13.4259 8.68753 13.1217 9.19712 13.0001 9.54364C12.919 9.78824 12.8987 10.0328 12.919 10.3998C12.9798 11.3985 13.3853 12.0101 15.4738 14.1911C16.7309 15.516 17.4608 16.3925 18.0894 17.3505C19.2654 19.1443 19.6912 20.9584 19.2857 22.4464C19.2451 22.5891 19.2248 22.7318 19.2451 22.7318C19.3262 22.8133 20.6036 21.6719 20.9889 21.1419C21.1105 20.9584 21.2525 20.8565 21.2727 20.8769C21.3538 20.9584 21.7594 22.6299 21.9216 23.5064C22.1446 24.709 22.2054 25.5855 22.1649 26.4009C22.1243 27.2773 22.0027 27.7054 21.5566 28.5819C21.1105 29.4584 20.5022 30.2126 18.7585 32.0267C17.035 33.8409 16.4267 34.5747 16.2037 35.1658C15.9807 35.7569 15.7171 37.2041 15.5751 38.6718C15.3521 40.8324 15.1493 42.3408 14.9871 42.8708C14.7438 43.6861 14.3383 44.2365 13.73 44.5218C13.3448 44.7053 13.2231 44.7461 12.6554 44.7664C12.1282 44.7868 11.9457 44.7664 11.5199 44.6238ZM18.1299 41.872C17.623 41.6274 17.2783 41.077 16.8931 39.9967C16.7511 39.6298 16.7309 39.4667 16.7917 39.4056C16.9134 39.2833 17.035 39.4463 17.1972 39.8744C17.4 40.4044 17.6027 40.7713 17.8055 40.8732C17.9474 40.9547 18.0083 40.9547 18.1705 40.8732C18.3327 40.7917 18.3732 40.7305 18.3935 40.5267C18.4341 40.0578 18.6774 40.3024 18.9004 40.9955C19.0424 41.4847 19.0424 41.5662 18.8193 41.7905C18.5354 42.0554 18.4746 42.0554 18.1299 41.872ZM12.8784 40.0986L11.4185 38.896L10.0195 40.6082L11.4794 41.8108L12.8784 40.0986ZM8.78262 12.0101C8.78262 12.7235 9.37063 13.335 10.1006 13.335C10.425 13.335 10.7291 13.2127 10.9522 13.0088L11.1347 12.8865L11.1144 13.3554C11.0738 13.9669 10.8508 14.4153 10.3033 15.0268C9.69505 15.6791 9.10704 16.1072 7.18081 17.269C4.54491 18.8589 3.67304 19.4908 2.72006 20.4081C1.50349 21.5903 0.651891 23.0172 0.286921 24.5256C-0.219983 26.5639 -0.0577736 28.5411 0.793824 30.8037C1.03714 31.456 1.03714 31.4967 1.07769 32.5975C1.17907 35.5327 1.90901 37.5303 3.40945 39.0387C4.17994 39.8132 4.86933 40.1801 5.80203 40.2821C6.02507 40.3024 6.36976 40.3228 6.55225 40.3024C8.74207 40.119 9.69505 38.2845 10.1817 33.4128C10.2425 32.7809 10.3236 32.1694 10.3642 32.0471C10.4047 31.9044 10.8508 31.456 11.7024 30.6814C13.0406 29.4584 13.3042 29.1119 13.3042 28.5819C13.3042 28.2558 13.0406 26.3805 12.9798 26.3193C12.9595 26.2989 12.7973 26.462 12.6351 26.6862C12.3715 27.0531 11.4996 27.9092 10.3844 28.8876C9.6545 29.5399 9.51256 29.8864 9.24897 31.6598C8.8029 34.7785 8.25544 36.4296 7.32274 37.3672C6.47114 38.2233 5.07209 38.4475 3.97718 37.8972C2.86199 37.3264 2.03067 35.6142 1.92929 33.6778L1.88874 32.9236L2.39564 33.3924C3.06475 34.0243 3.61221 34.3097 4.20022 34.3097C4.74767 34.3097 4.93016 34.2485 5.21402 34.0039C5.63982 33.637 5.84258 33.0255 5.84258 32.1286C5.84258 30.3349 4.88961 28.1946 3.83525 27.6442C3.40945 27.42 2.86199 27.4404 2.45647 27.7054C2.07122 27.95 1.68597 28.48 1.48321 29.0711C1.40211 29.3157 1.30073 29.5195 1.26018 29.5399C1.13852 29.6011 1.01686 28.7857 1.01686 27.8481C1.01686 27.155 1.05741 26.7474 1.1588 26.2582C1.54404 24.3829 2.27398 23.0579 3.73386 21.6107C4.70712 20.6323 5.72093 19.8577 7.99185 18.3493C9.75588 17.1875 10.5061 16.5556 10.9116 15.9033C11.0941 15.6179 11.1347 15.5772 11.1549 15.6995C11.2158 16.1479 10.6886 17.5136 9.47201 20.0412C8.47848 22.1203 8.15406 22.8541 7.66744 24.2402C7.03888 25.9932 6.63335 27.5627 6.41032 29.2546C6.26838 30.3349 6.20755 32.5771 6.30893 33.9835C6.39004 35.2473 6.67391 37.2245 6.77529 37.3468C6.81584 37.3876 6.91722 37.3468 7.05915 37.1838L7.28219 36.9595L7.16053 36.2257C6.71446 33.5351 6.89694 30.6814 7.64716 27.7462C8.19462 25.667 8.84345 24.016 10.3844 20.7954C11.7429 17.9621 11.9863 17.004 11.9254 14.7211C11.8646 12.8254 11.6213 11.7247 11.1144 11.1539C10.8305 10.8482 10.5466 10.6851 10.1614 10.6851C9.28953 10.6647 8.78262 11.2762 8.78262 12.0101ZM13.2028 37.1022L11.7429 35.8996L10.3439 37.6118L11.8038 38.8144L13.2028 37.1022ZM13.3042 35.7569C12.4729 34.9416 11.6416 33.7797 11.0333 32.5363L10.79 32.0267L11.0738 31.721C11.236 31.5579 11.3982 31.4152 11.4388 31.4152C11.4794 31.4152 11.6213 31.5783 11.7632 31.8025C12.0876 32.2713 13.1825 33.4128 13.7908 33.9224C14.1964 34.2485 14.2369 34.3097 14.1964 34.4727C14.1761 34.5747 14.0747 34.9823 13.9936 35.39C13.9125 35.7977 13.8314 36.1646 13.8111 36.185C13.7908 36.2053 13.5475 36.0015 13.3042 35.7569ZM22.1852 32.2509L20.482 31.4152L19.529 33.3924L21.2322 34.2078L22.1852 32.2509ZM3.85552 29.8457C3.97718 29.8457 4.09884 29.8864 4.22049 29.9476C4.46381 30.0699 4.8085 30.5999 4.8085 30.8241C4.8085 30.926 4.7274 31.1502 4.60574 31.3337C4.46381 31.5987 4.34215 31.721 4.05828 31.8433C3.59193 32.0675 3.04448 32.0879 2.5984 31.8637C2.0915 31.619 2.07122 31.5783 2.29426 31.1095C2.67951 30.3349 3.30807 29.8457 3.85552 29.8457ZM16.6295 28.6634L14.9263 27.8481L13.9733 29.8253L15.6765 30.6406L16.6295 28.6634ZM4.40298 25.4224C4.15966 25.1778 4.09883 24.8517 4.17994 24.281C4.22049 23.9548 4.3016 23.6695 4.48408 23.3637C4.90988 22.528 6.28866 21.3253 6.28866 21.7738C6.28866 21.7942 6.00479 22.0999 5.68037 22.4668C4.76795 23.4249 4.46381 24.1179 4.78822 24.5256C5.01126 24.8109 5.43706 24.7294 5.43706 24.4033C5.43706 24.2198 5.6601 23.9344 5.76148 24.016C5.86286 24.0771 5.86286 24.3013 5.7412 24.6886C5.45734 25.504 4.82878 25.8709 4.40298 25.4224ZM13.507 24.5052C13.3448 23.8937 13.3853 23.8121 15.0074 22.0592C15.6765 21.3457 16.3051 20.6323 16.4065 20.4896C16.6092 20.2246 16.6092 20.2246 16.7106 20.6935C16.7511 20.8973 16.7511 21.0196 16.67 21.203C16.6092 21.3253 16.0212 22.0388 15.3521 22.7726C14.683 23.5064 14.0341 24.2402 13.9125 24.4236C13.7908 24.6071 13.6692 24.7498 13.6286 24.7498C13.5881 24.7498 13.5475 24.6479 13.507 24.5052ZM9.71533 14.2726C9.71533 15.0064 9.12732 15.5976 8.39738 15.5976C7.66744 15.5976 7.07943 15.0064 7.07943 14.2726C7.07943 13.5388 7.66744 12.9477 8.39738 12.9477C9.12732 12.9477 9.71533 13.5388 9.71533 14.2726Z" fill="#858589"/>
<path fill-rule="evenodd" clip-rule="evenodd" d="M56.5736 23.7917V36.511C56.5736 36.511 56.7764 38.4679 55.4382 39.9355C53.5728 41.9738 50.2677 40.2616 50.2677 40.2616L50.9774 37.6729C50.9774 37.6729 51.3829 37.9583 51.9709 37.9583C52.7414 37.9583 53.5119 37.1022 53.5119 36.1237L53.4714 23.7917H56.5736ZM84.3317 23.8325H92.2191V26.4415H87.3731V28.8468H91.4689V31.354H87.3528V33.6981H92.6246V36.246H84.3722V23.8325H84.3317ZM95.3213 23.8325H103.209V26.4415H98.3627V28.8468H102.459V31.354H98.3425V33.6981H103.614V36.246H95.3619V23.8325H95.3213ZM81.3713 26.9511L76.9106 33.535H81.493V36.2257H72.754V33.0866L77.3161 26.4008H72.9365V23.8325H81.3713V26.9511ZM33.621 23.8121H37.1085L41.3462 36.1849H37.9804L37.3518 33.9631H33.2358L32.4856 36.1849H29.3022L33.621 23.8121ZM112.151 23.8325C114.056 23.8325 115.151 25.5243 115.151 27.2365C115.151 28.9487 114.3 29.4787 114.3 29.4787C114.3 29.4787 113.712 29.9475 113.245 30.2737C113.692 30.2737 114.097 31.2725 114.097 31.2725L116.003 36.1849H112.82C112.82 36.1849 111.339 32.3324 110.975 31.884C110.65 31.4967 110.143 31.5782 109.413 31.5782V36.1849H106.331V23.8325H112.151ZM62.8795 23.8121H66.367L70.6047 36.1849H67.2186L66.59 33.9631H62.474L61.744 36.1849H58.5607L62.8795 23.8121ZM121.275 23.8121H124.762L129 36.1849H125.614L124.985 33.9631H120.869L120.139 36.1849H116.956L121.275 23.8121ZM43.5158 23.8325H46.5369V33.5554H50.4705V36.1645H43.4955L43.5158 23.8325ZM36.48 31.089L35.3242 27.42L34.1482 31.089H36.48ZM65.7182 31.089L64.5624 27.42L63.3864 31.089H65.7182ZM124.113 31.089L122.958 27.42L121.782 31.089H124.113ZM110.873 26.4619H109.393V28.908H110.914C111.481 28.908 112.009 28.3372 112.009 27.7053C112.009 27.0531 111.441 26.4619 110.873 26.4619Z" fill="#858589"/>
</svg>
