<svg width="130" height="44" viewBox="0 0 130 44" fill="none" xmlns="http://www.w3.org/2000/svg">
<path d="M116.776 23.5053C116.798 23.5053 116.841 23.5274 116.905 23.5274C116.97 23.5274 116.97 23.5718 116.97 23.5718L116.991 23.6606C116.991 23.6606 117.077 23.6828 117.099 23.7272C117.142 23.7716 117.077 23.7716 117.056 23.7716C117.034 23.7938 116.97 23.7716 116.97 23.7716L117.013 23.8604L116.927 23.9048L116.798 23.8604L116.841 23.927L116.798 23.9713C116.798 23.9713 116.604 23.9048 116.604 23.8826C116.604 23.8604 116.561 23.8382 116.561 23.8382L116.411 23.8604L116.432 23.7938L116.583 23.7494C116.583 23.7494 116.69 23.705 116.712 23.705C116.733 23.705 116.604 23.6606 116.604 23.6384C116.604 23.6162 116.561 23.594 116.561 23.594C116.561 23.594 116.54 23.594 116.518 23.594C116.475 23.6162 116.432 23.6384 116.389 23.6606L116.432 23.6828L116.346 23.7716C116.346 23.7716 116.325 23.7938 116.282 23.816C116.217 23.8382 116.174 23.816 116.131 23.8382C116.131 23.8382 116.131 23.8382 116.11 23.8382C116.088 23.8604 116.067 23.8604 116.024 23.8826L116.067 23.8604H116.131L116.174 23.9048L116.217 23.927C116.217 23.927 116.196 23.9492 116.153 23.9492C116.11 23.9492 116.067 23.9492 116.045 23.9492L115.959 23.9713L115.981 23.927C115.981 23.927 115.959 23.927 115.938 23.927C115.766 24.0379 115.594 24.1711 115.422 24.3043C115.422 24.3265 115.422 24.3487 115.422 24.3487H115.508L115.637 24.3931L115.68 24.4152H115.787L115.766 24.4596L115.744 24.5262V24.5928L115.787 24.615L115.873 24.5484V24.4596C115.873 24.4596 115.959 24.4374 116.002 24.4152C116.045 24.3931 116.11 24.3265 116.11 24.3265C116.11 24.3043 116.088 24.2599 116.088 24.2599C116.088 24.2599 116.153 24.2155 116.174 24.1933C116.196 24.1711 116.196 24.1045 116.196 24.1045C116.196 24.1045 116.174 24.0601 116.239 24.0379C116.303 24.0379 116.368 24.0379 116.389 24.0379C116.411 24.0379 116.432 24.0157 116.475 24.0379C116.497 24.0379 116.518 24.0601 116.518 24.0823H116.583L116.54 24.1489L116.475 24.1933L116.54 24.2155L116.583 24.2377L116.69 24.1711L116.733 24.1267V24.1489C116.97 23.8826 117.228 23.6384 117.529 23.4387L117.464 23.3277H117.249C117.163 23.3499 116.97 23.4165 116.776 23.5053ZM115.4 25.0811L115.443 25.1033L115.594 25.0811L115.723 25.0367L115.766 24.9701L115.658 24.9923L115.615 25.0367H115.594L115.443 25.0589L115.4 25.0811ZM115.443 24.7482L115.379 24.726C115.379 24.726 115.314 24.726 115.314 24.7482C115.293 24.7704 115.271 24.7704 115.25 24.7926C115.228 24.7926 115.142 24.837 115.142 24.837L115.164 24.8591L115.25 24.837L115.357 24.8148L115.4 24.8591L115.486 24.837L115.551 24.8148L115.529 24.7704L115.443 24.7482ZM115.443 24.8813H115.379L115.271 24.9479L115.207 25.0811H115.271L115.314 24.9923L115.4 24.9035H115.465L115.379 24.9701H115.443L115.486 24.9479V24.9923L115.551 24.9701L115.594 24.8813L115.551 24.8591L115.443 24.8813ZM116.497 24.5928C116.454 24.5928 116.454 24.5928 116.432 24.615C116.411 24.6372 116.389 24.6594 116.389 24.6594L116.325 24.7038H116.346L116.475 24.6816C116.475 24.6594 116.475 24.615 116.497 24.5928ZM116.045 29.7421C116.045 29.6977 116.024 29.6311 116.002 29.6089C115.981 29.5867 115.981 29.5645 115.959 29.5423L115.938 29.4979C115.938 29.4979 115.938 29.5201 115.916 29.4979C115.895 29.4757 115.852 29.4313 115.852 29.4313V29.3869L115.83 29.276V29.054L115.766 28.9208V28.7877L115.809 28.6989L115.787 28.6767V28.6101C115.787 28.6101 115.787 28.5657 115.787 28.5435C115.787 28.5435 115.787 28.5213 115.787 28.4991C115.4 28.4548 115.013 28.4104 114.605 28.3438C114.949 28.8543 115.422 29.3426 116.045 29.7421ZM114.218 26.8123C114.218 27.3006 114.347 27.7445 114.562 28.1662C114.949 28.2328 115.357 28.2772 115.787 28.3438V28.255C115.787 28.255 115.766 28.2328 115.744 28.2106C115.723 28.1884 115.744 28.2106 115.723 28.1884C115.701 28.1662 115.615 28.1218 115.615 28.1218C115.615 28.1218 115.529 28.0774 115.508 28.0552C115.486 28.033 115.443 28.033 115.422 28.0109C115.4 27.9887 115.4 27.9665 115.4 27.9665C115.4 27.9665 115.293 27.7889 115.271 27.7667C115.25 27.7445 115.228 27.7223 115.228 27.7001C115.228 27.6779 115.164 27.6335 115.164 27.6113L115.099 27.5669C115.099 27.5669 115.078 27.5226 115.078 27.5004C115.078 27.4782 115.099 27.456 115.121 27.4338C115.121 27.4116 115.121 27.3894 115.121 27.3894C115.121 27.3672 115.121 27.3672 115.121 27.345C115.121 27.3228 115.121 27.3228 115.121 27.3006C115.121 27.2784 115.228 27.1896 115.228 27.1896C115.228 27.1674 115.271 27.1452 115.293 27.123C115.314 27.1009 115.336 27.0565 115.336 27.0565C115.336 27.0343 115.357 26.9677 115.336 26.9455C115.314 26.9233 115.271 26.8345 115.271 26.8345L115.228 26.7901H115.185L115.164 26.8123V26.8345L115.142 26.8567H115.099L115.013 26.8123L114.97 26.7679L114.863 26.7457L114.841 26.6791L114.755 26.5904H114.669L114.605 26.5682H114.562L114.519 26.5238L114.433 26.4572H114.368C114.368 26.4572 114.325 26.4794 114.304 26.4794H114.261C114.218 26.5682 114.218 26.6791 114.218 26.8123ZM116.045 25.0811C116.11 25.0811 116.174 25.0811 116.26 25.0811C116.282 25.0145 116.325 24.9479 116.346 24.8813L116.131 24.9923C116.131 24.9701 116.045 25.0811 116.045 25.0811ZM120.238 23.8604C120.281 23.8604 120.281 23.8604 120.281 23.8604V23.816H120.346V23.7938L120.41 23.7716C120.389 23.7494 120.389 23.7272 120.367 23.705L120.303 23.7494C120.303 23.7494 120.217 23.7272 120.195 23.7272L120.131 23.7494L120.152 23.7938C120.174 23.816 120.217 23.8604 120.238 23.8604ZM120.733 25.0811C120.668 25.0589 120.604 25.0589 120.539 25.0589L120.625 25.0811H120.733ZM120.238 25.0589C120.238 25.0589 120.26 25.0589 120.281 25.0589C120.238 25.0589 120.195 25.0589 120.152 25.0589V25.0811H120.238M120.561 25.7691C120.518 25.747 120.518 25.7913 120.518 25.7913L120.625 25.9689L120.647 26.0355L120.711 26.1243C120.711 26.1243 120.733 26.1687 120.733 26.1909C120.733 26.213 120.776 26.2796 120.776 26.2796C120.776 26.2796 120.776 26.324 120.797 26.3462C120.819 26.3684 120.905 26.5016 120.926 26.5238C120.948 26.546 120.969 26.546 121.034 26.5682C121.098 26.6126 121.098 26.6348 121.098 26.6348V26.657L121.163 26.7013C121.163 26.6569 121.163 26.6348 121.163 26.5904H121.141C121.098 26.5904 121.098 26.5682 121.098 26.546C121.098 26.5238 121.055 26.4794 121.055 26.435C121.055 26.3906 121.012 26.324 121.012 26.324C121.012 26.324 120.969 26.3018 120.969 26.2574C120.969 26.2352 120.926 26.213 120.905 26.1909C120.883 26.1687 120.862 26.1687 120.862 26.1243C120.862 26.0799 120.84 26.0577 120.819 26.0133C120.797 25.9689 120.754 25.9689 120.754 25.9689C120.754 25.9689 120.754 25.9467 120.733 25.9245C120.69 25.8579 120.668 25.8135 120.625 25.747C120.582 25.7691 120.561 25.7691 120.561 25.7691ZM121.313 25.1477L121.335 25.1255L121.313 25.1033C121.227 25.1033 121.163 25.1033 121.077 25.0811L121.098 25.1255L121.141 25.1477L121.098 25.1699V25.2587L121.12 25.3252C121.12 25.3252 121.141 25.3252 121.163 25.3252L121.184 25.3474C121.184 25.3474 121.227 25.3696 121.249 25.3696C121.27 25.3696 121.27 25.3696 121.27 25.3696C121.292 25.3696 121.356 25.3474 121.356 25.3474L121.335 25.3031V25.2365L121.313 25.2143V25.1699H121.292V25.1255C121.249 25.1255 121.313 25.1477 121.313 25.1477ZM124.366 25.5472C124.388 25.5472 124.409 25.5694 124.409 25.5694C124.409 25.5694 124.431 25.6138 124.452 25.6138C124.474 25.6138 124.495 25.6582 124.495 25.6582L124.517 25.6804H124.452H124.474L124.495 25.7248V25.747H124.517C124.517 25.747 124.517 25.7691 124.495 25.8135C124.474 25.8579 124.495 25.9245 124.452 25.9911C124.517 26.2352 124.56 26.4794 124.56 26.7457L124.581 26.7235V26.7013L124.603 26.6791V26.7235L124.581 26.7679L124.538 26.7901V26.8345C124.538 26.8789 124.538 26.9233 124.538 26.9677H124.56L124.603 26.9899H124.56V27.0121H124.538C124.538 27.0343 124.538 27.0565 124.538 27.0787V27.1009L124.581 27.123V27.1452H124.538L124.517 27.1896V27.234L124.495 27.2562C124.474 27.3672 124.452 27.4782 124.431 27.5669C124.452 27.5669 124.474 27.5669 124.495 27.5669C124.538 27.5669 124.56 27.5669 124.581 27.5669C124.603 27.5669 124.667 27.5669 124.689 27.5669C124.71 27.5669 124.71 27.5891 124.71 27.5891L124.624 27.6113L124.431 27.6335H124.409C124.366 27.8111 124.302 27.9665 124.216 28.144C124.388 28.1218 124.538 28.0774 124.689 28.0552L124.732 28.033C124.732 28.033 124.753 27.9887 124.796 27.9665C124.839 27.9443 124.861 27.9221 124.882 27.8999C124.904 27.8777 124.947 27.8777 124.968 27.8777C124.99 27.8777 124.99 27.9221 124.99 27.9221L125.054 27.8999C125.054 27.8999 125.033 27.8999 125.054 27.8777C125.076 27.8555 125.119 27.7889 125.119 27.7889H125.205V27.7445L125.398 27.7889L125.355 27.8555L125.312 27.8999L125.355 27.9443C125.441 27.9221 125.506 27.8999 125.592 27.8777V27.8111L125.656 27.7001L125.678 27.7223L125.721 27.8333C125.828 27.7889 125.936 27.7667 126.022 27.7445C126.151 27.456 126.216 27.1452 126.216 26.8567C126.216 26.5238 126.151 26.1909 126.001 25.9023C125.678 25.7913 125.355 25.7026 125.033 25.636V25.6582H125.011L124.99 25.6138C124.968 25.6138 124.968 25.6138 124.968 25.6138H124.904L124.861 25.636L124.818 25.6138L124.839 25.5916C124.796 25.5916 124.753 25.5694 124.689 25.5694C124.689 25.5694 124.689 25.5916 124.667 25.5916C124.667 25.6138 124.581 25.6138 124.581 25.6138L124.56 25.5916C124.56 25.5916 124.56 25.5694 124.56 25.5472C124.474 25.525 124.388 25.525 124.323 25.5028L124.28 25.5472C124.323 25.525 124.345 25.525 124.366 25.5472ZM124.732 27.7223L124.689 27.7001L124.732 27.6779L124.775 27.7223H124.732ZM126.065 27.4338H126.151L126.237 27.3894L126.216 27.4338L126.173 27.456L126.065 27.4338ZM125.291 27.2118L125.398 27.2562V27.2784L125.463 27.345L125.592 27.2562L125.613 27.2784L125.742 27.3006L125.893 27.3672L125.957 27.4116V27.4338L126.065 27.456V27.5004L126.022 27.5226H126.044L126.087 27.5891L126.13 27.6113L126.151 27.6557L126.108 27.6335L126.022 27.6113L125.979 27.5226L125.914 27.5004L125.85 27.5448L125.871 27.5669L125.828 27.5891L125.742 27.5669H125.678L125.613 27.5448L125.678 27.5226L125.656 27.4782L125.613 27.4116L125.549 27.3894L125.441 27.345L125.398 27.3672V27.3228L125.441 27.2784H125.398L125.355 27.234H125.312V27.1896L125.291 27.2118ZM124.775 27.2784L124.818 27.234H124.839L124.796 27.3006L124.818 27.3672L124.861 27.3894V27.4338L124.796 27.3894L124.775 27.3228L124.732 27.345V27.4782H124.689V27.4116L124.646 27.345L124.667 27.2562L124.71 27.1674L124.796 27.1452L124.861 27.123H124.882L124.818 27.1674H124.732L124.71 27.234L124.775 27.2784ZM124.689 26.5682H124.732V26.5904L124.71 26.6126L124.689 26.5904V26.5682ZM124.818 26.7013L124.775 26.7235V26.6348L124.839 26.657L124.818 26.7013ZM124.839 26.7013V26.7679H124.818V26.7235L124.839 26.7013ZM124.904 27.7001L124.882 27.6779L124.99 27.6113L125.011 27.6335L124.904 27.7001ZM124.99 26.7901L125.011 26.8123V26.8567L124.99 26.8789L124.968 26.8567L124.947 26.8789L124.968 26.9011L124.947 26.9233H124.925L124.882 26.8789V26.8345H124.861H124.818L124.796 26.8789H124.775L124.796 26.8345H124.818V26.8123H124.861V26.8345L124.904 26.8123V26.7901L124.925 26.7679L124.904 26.7457L124.99 26.7901ZM124.925 26.7013L124.882 26.6791L124.904 26.657L124.882 26.6348L124.904 26.6126L124.925 26.6348V26.657L124.904 26.6791C124.925 26.6791 124.925 26.7013 124.925 26.7013ZM124.882 25.6138L124.925 25.636L124.947 25.6804V25.747H124.904V25.6804L124.861 25.6582L124.839 25.636L124.882 25.6138ZM124.775 26.5238L124.818 26.546L124.861 26.5904L124.839 26.6126H124.818L124.796 26.5682H124.753L124.775 26.5238ZM124.689 26.3018L124.732 26.3462L124.753 26.3906L124.732 26.435L124.71 26.4572V26.5016L124.732 26.5238V26.5682L124.71 26.5904L124.689 26.546H124.646L124.624 26.4794H124.646V26.3684L124.689 26.3018ZM124.603 26.0133H124.646V26.0355L124.624 26.1243L124.603 26.1465L124.56 26.1021V26.0577L124.603 26.0133ZM120.582 24.9035L120.518 24.8591C120.518 24.8591 120.604 24.7704 120.582 24.7704C120.561 24.7704 120.389 24.7926 120.389 24.7926L120.41 24.8591L120.346 24.8813L120.324 24.8591V24.837H120.217L120.195 24.8813L120.131 24.9479V24.9923C120.303 24.9923 120.496 24.9923 120.668 25.0145C120.647 24.9479 120.582 24.9035 120.582 24.9035ZM125.592 27.9887C125.592 27.9887 125.57 27.9887 125.549 27.9887C125.57 28.0109 125.592 27.9887 125.592 27.9887ZM116.411 23.3277C116.432 23.3277 116.454 23.3277 116.454 23.3277C116.454 23.3277 116.475 23.3277 116.475 23.3055C116.475 23.3277 116.432 23.3277 116.411 23.3277ZM116.604 23.3277L116.841 23.3055V23.3499C116.991 23.2833 117.142 23.2389 117.292 23.1945L117.421 23.1501C117.292 23.1723 117.163 23.1945 117.034 23.2167L116.927 23.3055L116.841 23.2611C116.798 23.2611 116.733 23.2833 116.69 23.2833L116.604 23.3277ZM113.551 24.5706C113.551 24.5484 113.529 24.4374 113.529 24.4374L113.465 24.3931L113.379 24.3487C113.357 24.3487 113.293 24.3487 113.293 24.3487H113.25C112.282 24.9035 111.616 25.6138 111.444 26.3906C111.659 26.1687 112.046 25.9689 112.562 25.7913C112.777 25.3252 113.121 24.9257 113.551 24.5706ZM112.54 27.8111C112.024 27.6335 111.659 27.4338 111.444 27.2118C111.766 28.7433 113.938 30.0306 116.862 30.4967C114.734 30.0528 113.099 29.0318 112.54 27.8111ZM113.508 24.7482L113.551 24.7704C113.551 24.7704 113.594 24.7704 113.594 24.7482C113.572 24.7482 113.551 24.726 113.551 24.726L113.572 24.7038C113.551 24.7038 113.529 24.726 113.508 24.7482ZM116.454 30.1194C116.454 30.1194 116.518 30.1638 116.518 30.186C116.518 30.2082 116.604 30.2526 116.604 30.2526C116.604 30.2526 116.518 30.2526 116.475 30.2304C116.432 30.2082 116.26 30.0972 116.239 30.0972C116.217 30.075 116.11 29.964 116.067 29.9196C116.045 29.8974 116.045 29.8974 116.045 29.8752C115.357 29.4535 114.82 28.8987 114.476 28.2772C113.766 28.1662 113.142 28.0109 112.648 27.8555C113.314 29.165 115.185 30.186 117.572 30.5411C117.206 30.4301 116.819 30.2747 116.454 30.1194ZM125.871 28.033C125.871 28.0552 125.893 28.0774 125.914 28.0774C125.957 28.0109 126.001 27.9221 126.044 27.8333C125.979 27.8555 125.914 27.8777 125.85 27.8999V27.9221C125.871 27.9665 125.85 27.9887 125.871 28.033ZM113.529 24.8148L113.486 24.7704C113.142 25.0589 112.884 25.3696 112.691 25.7248C112.884 25.6582 113.078 25.6138 113.293 25.5472C113.271 25.5472 113.271 25.525 113.271 25.525L113.25 25.3918V25.3252C113.25 25.3252 113.271 25.1921 113.336 25.1477C113.379 25.1033 113.486 24.9923 113.529 24.9479C113.572 24.9035 113.572 24.8591 113.572 24.8591H113.594L113.529 24.8148ZM113.572 25.7026C113.551 25.6804 113.529 25.6804 113.529 25.6804L113.486 25.7248C113.486 25.747 113.529 25.8135 113.529 25.8135V25.8579L113.572 25.9467V26.0133L113.594 26.0355C113.594 26.0577 113.615 26.0577 113.615 26.0799L113.637 26.1021H113.594L113.508 26.0133L113.529 25.9689C113.529 25.9689 113.508 25.9467 113.508 25.9245C113.508 25.9245 113.486 25.9023 113.465 25.8801C113.443 25.8579 113.4 25.8579 113.4 25.8579L113.443 25.8357V25.8135L113.422 25.7913V25.747L113.379 25.6582V25.636C113.099 25.7026 112.841 25.7691 112.605 25.8579C112.454 26.1687 112.39 26.4794 112.39 26.8123C112.39 27.123 112.454 27.4338 112.583 27.7223C113.078 27.8999 113.701 28.033 114.411 28.1662C114.196 27.7445 114.11 27.3006 114.089 26.8345C114.089 26.7013 114.089 26.5682 114.11 26.4128C114.067 26.3906 114.067 26.3906 114.046 26.3906C114.024 26.3906 113.981 26.3684 113.981 26.3684L113.959 26.3462C113.938 26.3462 113.917 26.3462 113.895 26.324L113.83 26.3018L113.787 26.2574V26.2352L113.83 26.1909L113.809 26.1243C113.809 26.1243 113.723 26.0577 113.723 26.0355C113.701 26.0133 113.701 26.0133 113.68 25.9911C113.68 25.9911 113.637 25.9689 113.637 25.9467C113.637 25.9245 113.637 25.9467 113.637 25.9245C113.637 25.9023 113.594 25.8579 113.594 25.8579C113.594 25.8579 113.551 25.7913 113.529 25.7691C113.572 25.747 113.594 25.7248 113.572 25.7026ZM114.261 23.8826L114.433 23.8382C114.433 23.8382 114.626 23.7938 114.648 23.7938L114.669 23.816L114.777 23.7938L114.82 23.7716H114.884C114.949 23.7272 115.035 23.705 115.099 23.6828C115.078 23.6828 115.056 23.705 115.013 23.7272C114.927 23.7494 115.035 23.6828 114.927 23.6828C114.906 23.6828 114.97 23.6384 115.035 23.6162C115.099 23.594 115.078 23.594 115.207 23.5718C115.336 23.5496 115.336 23.594 115.336 23.594H115.357C115.787 23.4165 116.239 23.2833 116.712 23.1723H116.733C116.733 23.1723 116.755 23.1723 116.776 23.1501C115.83 23.3055 114.97 23.5496 114.239 23.8604H114.261C114.218 23.8826 114.261 23.8826 114.261 23.8826ZM119.12 23.0613C119.12 23.0613 118.969 23.1723 118.948 23.1723C118.926 23.1945 118.905 23.3055 118.905 23.3277C118.905 23.3499 118.883 23.4165 118.883 23.4165C118.883 23.4165 118.733 23.4831 118.668 23.5053C118.604 23.5274 118.539 23.594 118.453 23.6384C118.432 23.6606 118.41 23.6606 118.367 23.6606C118.152 23.9935 117.959 24.4374 117.83 24.9701C118.066 24.9701 118.303 24.9479 118.518 24.9479L118.496 24.8813H118.539L118.561 24.837H118.797C118.84 24.837 118.84 24.8148 118.84 24.8148V24.726L118.819 24.6594L118.776 24.615L118.69 24.5706V24.5484H118.733L118.754 24.5706L118.819 24.5484L118.797 24.504H118.862L118.905 24.4818L118.969 24.4374C118.969 24.4374 119.012 24.4152 119.034 24.3709C119.055 24.3265 119.141 24.3265 119.141 24.3265L119.206 24.3043L119.163 24.2155L119.141 24.1933L119.227 24.1489L119.249 24.2155L119.227 24.2821H119.27V24.0601L119.184 24.0823C119.184 24.0823 119.12 24.0823 119.098 24.0823C119.077 24.0823 119.055 24.0379 119.055 24.0379C119.055 24.0379 119.055 23.9713 119.055 23.9492C119.034 23.9048 119.077 23.9048 119.098 23.8826C119.141 23.8604 119.141 23.8604 119.184 23.8382C119.227 23.816 119.27 23.7716 119.27 23.7494L119.292 23.7272V22.9726C119.249 22.9726 119.227 22.9726 119.184 22.9948L119.12 23.0613ZM118.647 24.2821L118.625 24.3043L118.647 24.3709V24.3931H118.604L118.561 24.4152H118.518L118.475 24.3931V24.3709L118.518 24.3487V24.3265H118.496L118.518 24.2821H118.561V24.2377L118.604 24.2155L118.647 24.2377H118.668V24.2599C118.647 24.2377 118.647 24.2599 118.647 24.2821ZM118.948 24.4152L118.905 24.4374L118.948 24.4596V24.4818L118.84 24.504H118.668L118.733 24.4374H118.776L118.797 24.4152H118.711V24.3931L118.754 24.3709V24.3487L118.733 24.3265L118.754 24.3043L118.797 24.3265L118.819 24.2821L118.797 24.2599V24.2377C118.797 24.2377 118.776 24.2599 118.754 24.2377C118.733 24.2377 118.733 24.2155 118.733 24.2155L118.754 24.1933C118.754 24.1933 118.754 24.1711 118.733 24.1711H118.69L118.711 24.1267L118.69 24.1045V24.0601L118.711 24.0379L118.733 24.0601L118.754 24.0157H118.819V24.0379L118.733 24.0823H118.797L118.84 24.1045L118.819 24.1489L118.776 24.1711V24.1933H118.819C118.819 24.1933 118.84 24.1933 118.84 24.2155C118.84 24.2377 118.84 24.2377 118.862 24.2599C118.883 24.2599 118.883 24.2821 118.883 24.3043L118.926 24.3487V24.3931L118.948 24.4152L118.969 24.3931L118.991 24.4152H118.948ZM125.334 24.504H125.377L125.463 24.5484V24.5928L125.506 24.615V24.6372L125.484 24.6594L125.506 24.6816L125.484 24.7038L125.527 24.7482L125.506 24.7704C125.807 25.0589 126.065 25.3696 126.216 25.7026C126.732 25.8801 127.119 26.0799 127.334 26.3018C127.162 25.5472 126.538 24.8813 125.613 24.3265C125.592 24.3487 125.57 24.3709 125.57 24.3709V24.3931L125.527 24.3709C125.506 24.3487 125.441 24.3709 125.441 24.3709V24.3931L125.398 24.3709L125.377 24.3931H125.334L125.355 24.4374C125.312 24.4818 125.334 24.504 125.334 24.504ZM119.206 24.9257L119.12 24.9035L119.034 24.9257V24.9479C119.12 24.9479 119.206 24.9479 119.313 24.9479V24.8813L119.27 24.8591L119.206 24.9257ZM117.228 28.5879C117.206 28.5879 117.163 28.6101 117.163 28.6101C117.142 28.6323 117.034 28.6767 117.034 28.6989C117.013 28.7211 117.056 28.7877 117.034 28.8099C117.034 28.8321 117.013 28.8543 116.991 28.8765L116.948 28.8987C116.948 28.8987 116.97 28.8987 116.927 28.9208C116.905 28.943 116.884 28.943 116.884 28.9652C116.884 28.9874 116.841 29.054 116.841 29.054C116.841 29.054 116.841 29.0762 116.819 29.0984C116.798 29.1206 116.798 29.1428 116.776 29.165C116.755 29.165 116.733 29.1872 116.712 29.165H116.69C117.056 29.6977 117.529 30.1194 118.088 30.3857C118.174 30.3413 118.26 30.3413 118.346 30.3413C118.389 30.3413 118.432 30.3191 118.475 30.3191C118.131 29.9418 117.851 29.3426 117.679 28.6101C117.55 28.5879 117.378 28.5879 117.228 28.5879ZM118.905 25.0811L118.926 25.1477L118.819 25.2587H118.733L118.69 25.3031L118.647 25.2587L118.604 25.2143H118.561L118.518 25.1921V25.1477L118.496 25.1033L118.518 25.0145C118.281 25.0145 118.045 25.0367 117.808 25.0367C117.679 25.6138 117.615 26.1909 117.615 26.7679C117.615 27.0565 117.636 27.3228 117.658 27.5891C117.679 27.6113 117.701 27.6557 117.701 27.6779C117.701 27.7001 117.701 27.7445 117.679 27.7667C117.701 28.0109 117.744 28.2328 117.808 28.4548C118.303 28.4769 118.819 28.4991 119.335 28.4991V27.0565C119.313 27.0565 119.292 26.9677 119.249 26.9455C119.206 26.9233 119.077 27.0121 119.077 27.0121C119.077 27.0121 119.012 27.0565 118.948 27.0565C118.905 27.0565 118.883 27.0565 118.883 27.0565H118.776C118.776 27.0565 118.711 27.1009 118.69 27.1009C118.668 27.1009 118.625 27.0787 118.604 27.0343C118.604 27.0121 118.475 26.9233 118.475 26.9233C118.475 26.9233 118.41 26.8567 118.41 26.8345C118.41 26.8123 118.346 26.7457 118.324 26.7235C118.324 26.7013 118.26 26.6791 118.238 26.657C118.217 26.6126 118.217 26.6126 118.217 26.5682C118.217 26.5238 118.174 26.4794 118.174 26.4794L118.217 26.4128C118.217 26.4128 118.238 26.3018 118.217 26.2574C118.217 26.213 118.195 26.213 118.195 26.1909C118.195 26.1687 118.152 26.1465 118.152 26.0577C118.152 25.9911 118.195 25.9467 118.195 25.9467C118.195 25.9467 118.238 25.8579 118.26 25.8357C118.281 25.8135 118.324 25.7026 118.346 25.7026C118.367 25.7026 118.453 25.6804 118.475 25.5916C118.475 25.5694 118.475 25.5472 118.496 25.5472V25.4584C118.518 25.4362 118.496 25.4362 118.518 25.414C118.539 25.3918 118.561 25.3696 118.582 25.3696C118.604 25.3696 118.647 25.3031 118.647 25.3031V25.2587H118.69L118.733 25.2809H118.819L118.883 25.2587L118.926 25.2365C118.926 25.2365 118.969 25.2143 118.991 25.1921C119.012 25.1921 119.077 25.2365 119.163 25.1921C119.249 25.1699 119.227 25.1921 119.227 25.1921L119.292 25.2143V24.9923C119.163 24.9923 119.034 24.9923 118.926 24.9923L118.905 25.0811ZM116.669 29.3204C116.669 29.3426 116.647 29.3647 116.626 29.3869C116.583 29.3869 116.54 29.4091 116.518 29.4091C116.497 29.4091 116.454 29.4091 116.454 29.4091C116.454 29.4091 116.454 29.4535 116.454 29.4757C116.454 29.4979 116.475 29.4979 116.475 29.5201C116.454 29.5423 116.432 29.5423 116.432 29.5423L116.368 29.5201C116.368 29.5201 116.346 29.5201 116.346 29.5423C116.346 29.5645 116.368 29.5867 116.368 29.5867L116.411 29.6089L116.368 29.6533L116.389 29.6977V29.7421L116.346 29.7643C116.346 29.7865 116.346 29.8308 116.368 29.8308C116.389 29.8308 116.432 29.853 116.432 29.853L116.454 29.8974V29.9418C116.454 29.9418 116.432 29.964 116.432 29.9862C116.432 29.9862 116.432 30.0084 116.432 30.0306C116.905 30.2747 117.421 30.4523 117.937 30.5633C117.959 30.5411 118.002 30.5411 118.023 30.5189C117.486 30.186 117.034 29.8087 116.669 29.3204ZM118.625 30.2969H118.905L119.12 30.4079L119.313 30.4301V28.6323C118.797 28.6323 118.303 28.6101 117.808 28.5879C117.98 29.3426 118.281 29.9418 118.625 30.2969ZM112.476 27.6557C112.368 27.3894 112.304 27.1009 112.304 26.8123C112.304 26.5016 112.368 26.1909 112.497 25.9023C111.938 26.1021 111.551 26.324 111.401 26.5682C111.401 26.657 111.379 26.7235 111.379 26.8123C111.379 26.8789 111.379 26.9455 111.379 26.9899C111.551 27.234 111.917 27.456 112.476 27.6557ZM119.7 28.4104C119.679 28.3882 119.7 28.3438 119.7 28.3216C119.7 28.2994 119.7 28.1884 119.7 28.1662C119.7 28.1218 119.743 28.0774 119.743 28.033C119.743 27.9887 119.743 27.9665 119.722 27.9221C119.7 27.8777 119.722 27.8777 119.7 27.8111C119.679 27.7667 119.485 27.456 119.485 27.456L119.442 27.4116C119.442 27.4116 119.485 27.3672 119.485 27.345C119.507 27.3228 119.464 27.3006 119.464 27.2784C119.464 27.2562 119.485 27.234 119.485 27.2118C119.507 27.1674 119.464 27.1452 119.421 27.123C119.399 27.123 119.399 27.123 119.378 27.123V28.5657C119.507 28.5657 119.614 28.5657 119.743 28.5657C119.765 28.4769 119.722 28.4104 119.7 28.4104ZM119.55 25.5028L119.614 25.525L119.636 25.5916L119.7 25.6138L119.786 25.6582L119.829 25.6138V25.5694L119.851 25.5472L119.937 25.525L120.023 25.5694L120.088 25.5916C120.088 25.5916 120.131 25.5916 120.152 25.5916C120.174 25.5916 120.238 25.6138 120.238 25.6138C120.26 25.6138 120.281 25.6138 120.281 25.6138L120.324 25.5916L120.389 25.6138H120.453L120.496 25.5916L120.518 25.5472L120.539 25.4806L120.561 25.4362V25.3918L120.539 25.3696V25.3031L120.518 25.3252L120.475 25.3031L120.432 25.3474C120.432 25.3474 120.389 25.3474 120.367 25.3474C120.346 25.3474 120.346 25.3252 120.346 25.3031C120.346 25.2809 120.281 25.2809 120.281 25.2809L120.26 25.3031H120.217L120.195 25.2809H120.131L120.045 25.2143V25.1477C120.045 25.1477 120.023 25.1255 120.023 25.1033C120.023 25.0811 120.002 25.0589 120.002 25.0589H119.959L119.937 25.0811H119.851V25.1255L119.915 25.1921L119.894 25.2365V25.3031H119.872L119.829 25.2809L119.786 25.2365V25.2143L119.743 25.1699L119.7 25.0811V25.0589H119.593C119.614 25.0589 119.657 25.1033 119.657 25.1033V25.1255L119.614 25.0811C119.593 25.0811 119.593 25.1033 119.593 25.1033V25.1255C119.593 25.1255 119.614 25.1255 119.614 25.1477V25.1699H119.593V25.1921L119.571 25.2143H119.55V25.1921L119.571 25.1699L119.55 25.1033L119.464 25.0367H119.356V25.4362C119.378 25.4584 119.421 25.5028 119.442 25.5028C119.507 25.5028 119.55 25.5028 119.55 25.5028ZM120.453 25.3696V25.3918L120.432 25.414H120.41L120.389 25.3918L120.453 25.3696ZM119.98 25.3474L120.066 25.3696L120.088 25.3918H120.109V25.414H120.045L119.98 25.3474ZM119.614 30.4301C119.679 30.3857 119.98 30.2747 119.98 30.2747C119.98 30.2747 120.023 30.2747 120.088 30.2969C120.432 29.9418 120.733 29.3426 120.905 28.5879C120.862 28.5879 120.819 28.5879 120.776 28.5879C120.776 28.6101 120.776 28.6101 120.776 28.6323C120.754 28.6545 120.733 28.6545 120.711 28.6545C120.69 28.6545 120.668 28.7211 120.668 28.7211C120.668 28.7211 120.69 28.7877 120.668 28.8099C120.668 28.8321 120.647 28.8543 120.625 28.8987C120.582 28.9208 120.496 29.0318 120.453 29.0984C120.41 29.1428 120.346 29.1872 120.26 29.1872C120.174 29.1872 120.088 29.2538 120.088 29.2538L120.023 29.1428C120.023 29.1428 120.023 29.0762 120.023 29.054C120.023 29.0318 119.958 28.943 119.937 28.8987C119.915 28.8543 119.851 28.7655 119.851 28.7433C119.829 28.6989 119.829 28.6545 119.829 28.6101C119.829 28.6101 119.829 28.5879 119.808 28.5657C119.679 28.5657 119.55 28.5657 119.399 28.5657V30.3857C119.464 30.4745 119.571 30.4745 119.614 30.4301ZM119.786 30.1416L119.829 30.2082L119.679 30.2747L119.636 30.1638C119.636 30.186 119.786 30.1416 119.786 30.1416ZM119.55 24.8591C119.55 24.8591 119.485 24.7926 119.485 24.7704C119.485 24.7482 119.442 24.7704 119.442 24.7926V24.837C119.442 24.8592 119.485 24.8813 119.507 24.8813C119.528 24.9035 119.528 24.9035 119.528 24.9035L119.55 24.9257H119.679L119.55 24.8591ZM117.486 28.033L117.464 28.0774C117.464 28.0774 117.464 28.1884 117.464 28.2106C117.464 28.2328 117.421 28.4326 117.4 28.4769C117.486 28.4769 117.593 28.4769 117.679 28.4991C117.636 28.3216 117.593 28.1218 117.572 27.9443C117.55 27.9665 117.529 27.9887 117.529 27.9887C117.529 27.9887 117.507 28.033 117.486 28.033ZM121.055 23.3499L121.098 23.3721H121.077C121.227 23.4831 121.378 23.594 121.528 23.7272V23.705C121.528 23.705 121.55 23.5718 121.528 23.5274C121.528 23.4831 121.593 23.5053 121.657 23.4831C121.7 23.4831 121.786 23.4387 121.872 23.4387C121.399 23.2389 120.883 23.1057 120.389 23.017C120.604 23.1057 120.819 23.1945 121.034 23.3277L121.055 23.3499ZM119.7 23.5274H119.98C119.98 23.5274 120.002 23.5718 120.023 23.5718C120.066 23.5718 120.346 23.6828 120.346 23.6828L120.389 23.705C120.109 23.2611 119.786 22.9948 119.421 22.9726V23.594C119.442 23.5718 119.442 23.5718 119.485 23.5718C119.55 23.5718 119.7 23.5274 119.7 23.5274ZM119.55 24.3043H119.636L119.7 24.2821V24.1933L119.743 24.1489H119.765V24.0823H119.959C119.98 24.0823 120.066 24.0379 120.088 24.0157C120.131 24.0157 120.066 23.9492 120.066 23.9492L119.959 23.9935L119.765 24.0379L119.679 23.9935V23.9492C119.679 23.9492 119.636 23.8826 119.679 23.8826C119.722 23.8604 119.765 23.7938 119.765 23.7938L119.679 23.7494L119.614 23.7716L119.636 23.816L119.593 23.8604L119.507 23.927V24.0157L119.593 24.0823L119.528 24.1711L119.442 24.2599H119.378V24.3487L119.421 24.3709L119.55 24.3043ZM120.518 23.7494L120.625 23.7272C120.625 23.7272 120.819 23.7272 120.926 23.705C121.034 23.6828 120.991 23.6384 120.991 23.6384L121.206 23.6606V23.6162C121.12 23.5496 121.034 23.4831 120.948 23.4387L120.84 23.5496L120.883 23.6162L120.819 23.6384L120.69 23.5274L120.819 23.3943H120.862C120.561 23.2167 120.217 23.1057 119.872 23.0392C120.109 23.1723 120.324 23.4165 120.518 23.7494ZM117.55 23.8604V23.7272C117.55 23.705 117.593 23.6384 117.593 23.6384C117.593 23.6384 117.615 23.5718 117.636 23.5718C117.658 23.5718 117.636 23.5496 117.615 23.5274C117.357 23.705 117.12 23.9492 116.905 24.1933C116.905 24.2155 116.905 24.2377 116.884 24.2599C116.862 24.2821 116.948 24.3043 116.948 24.3043C116.97 24.3043 116.97 24.3265 116.991 24.3487L116.905 24.3709H116.991L117.034 24.3931L117.056 24.4152L117.034 24.4596L117.013 24.4818L116.905 24.5262C116.905 24.5262 116.819 24.5706 116.798 24.5706C116.776 24.5706 116.755 24.5928 116.733 24.5928H116.583C116.54 24.6594 116.497 24.7482 116.454 24.8148H116.561L116.647 24.7704L116.669 24.7926L116.583 24.8591L116.475 24.8813L116.411 24.9257C116.389 24.9701 116.368 25.0367 116.325 25.0811C116.776 25.0367 117.228 25.0145 117.679 24.9923C117.808 24.4818 117.98 24.0379 118.195 23.705C118.152 23.705 118.109 23.705 118.109 23.705L117.873 23.8382L117.744 23.9935L117.679 23.9713L117.572 23.9492L117.55 23.8604ZM117.056 24.6816C117.056 24.6816 117.056 24.726 117.034 24.726C117.013 24.726 116.927 24.726 116.927 24.726L116.905 24.7038H116.798V24.6594L116.884 24.5928L116.948 24.504L117.013 24.4596L117.034 24.5262L116.991 24.5484H117.056C117.056 24.5484 117.099 24.5484 117.099 24.5706C117.056 24.615 117.056 24.6816 117.056 24.6816ZM126.001 28.1662C126.022 28.2106 126.065 28.2772 126.087 28.3216C126.108 28.3438 126.13 28.3216 126.108 28.3882C126.087 28.4548 126.108 28.4769 126.044 28.5213C125.979 28.5879 125.828 28.7655 125.785 28.8321C125.742 28.8987 125.721 28.9208 125.699 28.9208C125.656 28.9208 125.592 28.943 125.549 28.9652C125.506 28.9652 125.484 28.9652 125.441 28.9874C125.42 28.9874 125.398 29.0096 125.355 28.9874C125.312 28.9874 125.312 28.9652 125.291 28.9652C124.495 29.6533 123.291 30.2082 121.894 30.5189C123.055 30.3191 124.13 30.0084 125.033 29.5645C126.323 28.9208 127.119 28.0996 127.291 27.234C127.076 27.456 126.71 27.6557 126.194 27.8333C126.151 27.9221 126.065 28.0552 126.001 28.1662ZM125.549 29.1428C125.506 29.165 125.463 29.2094 125.441 29.2316L125.398 29.2538L125.441 29.0984H125.484L125.57 29.0762C125.549 29.0984 125.549 29.1206 125.549 29.1428ZM126.237 25.9023C126.366 26.1909 126.431 26.5016 126.431 26.8123C126.431 27.1009 126.366 27.3894 126.259 27.6557C126.818 27.456 127.183 27.234 127.334 26.9899C127.334 26.9233 127.355 26.8567 127.355 26.8123C127.355 26.7235 127.355 26.6348 127.334 26.5682C127.183 26.324 126.796 26.1021 126.237 25.9023ZM122.367 28.5213C121.937 28.5657 121.485 28.5879 121.034 28.6101C120.862 29.3426 120.561 29.964 120.217 30.3413C120.346 30.3635 120.496 30.3857 120.561 30.4079C121.335 30.0528 121.98 29.3647 122.367 28.5213ZM116.325 25.1699C116.11 25.6582 116.002 26.213 116.002 26.7457H116.024C116.045 26.7457 116.11 26.7235 116.11 26.7235C116.11 26.7235 116.131 26.7457 116.174 26.7457C116.196 26.7457 116.217 26.7679 116.239 26.7679V26.7901H116.282C116.282 26.7901 116.282 26.8123 116.325 26.8345C116.346 26.8345 116.389 26.8789 116.389 26.8789V26.9011C116.389 26.9011 116.389 26.8789 116.432 26.9233C116.454 26.9455 116.454 26.9677 116.497 26.9677C116.518 26.9677 116.561 26.9455 116.604 26.9677C116.647 26.9899 116.733 27.0121 116.733 27.0343C116.755 27.0565 116.776 27.0787 116.776 27.1009C116.776 27.123 116.798 27.1452 116.798 27.1452L116.841 27.2118C116.841 27.2118 116.841 27.234 116.841 27.2562C116.841 27.2784 116.862 27.3006 116.862 27.3006C116.884 27.3006 116.927 27.3228 116.927 27.3228L116.948 27.3672C116.948 27.3672 117.034 27.3672 117.056 27.3672C117.077 27.3894 117.163 27.4116 117.163 27.4338C117.163 27.4338 117.185 27.456 117.206 27.456C117.228 27.456 117.292 27.5004 117.314 27.5004C117.335 27.5004 117.357 27.4782 117.378 27.5004C117.4 27.5226 117.421 27.5226 117.443 27.5448C117.464 27.5669 117.486 27.5891 117.529 27.6113C117.507 27.3672 117.486 27.1009 117.486 26.8567C117.486 26.2352 117.55 25.636 117.679 25.1255C117.206 25.1033 116.755 25.1255 116.325 25.1699ZM124.108 28.2994C123.571 28.3882 123.012 28.4548 122.474 28.4991C122.109 29.3647 121.485 30.0528 120.733 30.4301C120.797 30.4301 120.862 30.4523 120.926 30.4745C122.367 30.1194 123.528 29.3204 124.108 28.2994ZM125.291 28.7877C125.291 28.7877 125.248 28.8099 125.226 28.8099C125.205 28.8099 125.162 28.8321 125.162 28.8099C125.162 28.8099 125.162 28.7433 125.119 28.7211C125.076 28.6989 124.968 28.6989 124.968 28.6989C124.947 28.6989 124.882 28.7211 124.818 28.7211C124.775 28.7211 124.775 28.7211 124.71 28.7655C124.646 28.8099 124.667 28.8099 124.624 28.8321C124.581 28.8321 124.56 28.8099 124.517 28.8321C124.474 28.8543 124.452 28.8543 124.409 28.8765C124.366 28.8987 124.302 28.9208 124.28 28.8987C124.259 28.8765 124.237 28.8543 124.237 28.8543C124.237 28.8543 124.345 28.7877 124.323 28.7433C124.323 28.6989 124.323 28.5435 124.323 28.5213C124.323 28.4769 124.302 28.4991 124.323 28.4548C124.323 28.4104 124.366 28.2994 124.388 28.2772C124.409 28.255 124.431 28.255 124.452 28.2328C124.388 28.255 124.323 28.255 124.237 28.2772C123.678 29.3204 122.56 30.1416 121.163 30.5189C122.904 30.2526 124.366 29.6533 125.291 28.8321V28.7877ZM122.84 26.9677L122.818 26.9233C122.797 27.4338 122.711 27.9221 122.539 28.3882C123.098 28.3438 123.635 28.255 124.194 28.1662C124.28 27.9887 124.345 27.8111 124.409 27.6335L124.323 27.6113H124.194L124.108 27.5891V27.5669L124.065 27.5448V27.5226H124.13C124.151 27.5226 124.173 27.5448 124.173 27.5448C124.173 27.5448 124.216 27.5669 124.237 27.5669C124.259 27.5669 124.259 27.5669 124.28 27.5669L124.302 27.5448L124.388 27.5669L124.431 27.5891C124.452 27.5226 124.474 27.456 124.474 27.3894H124.409L124.366 27.4116L124.345 27.3894H124.28L124.259 27.3006L124.216 27.2562V27.1896L124.237 27.1452L124.302 27.1674L124.345 27.1009L124.409 27.0787L124.452 27.0121L124.495 26.9899V26.9677C124.495 26.9233 124.495 26.8789 124.495 26.8123C124.495 26.5682 124.452 26.324 124.409 26.0799C124.388 26.1021 124.345 26.1243 124.323 26.1243C124.28 26.1243 124.173 26.1687 124.173 26.1687L124.13 26.1909V26.2352H124.108L124.087 26.1687C124.087 26.1687 124.044 26.1465 123.979 26.1909C123.936 26.213 123.915 26.3018 123.915 26.3018L123.958 26.3462C123.958 26.3462 123.979 26.3684 124.001 26.3906C124.022 26.4128 124.087 26.4572 124.087 26.4572C124.087 26.4572 124.13 26.5238 124.13 26.546C124.13 26.5682 124.13 26.657 124.13 26.657L124.065 26.7013L123.979 26.7901H123.958V26.7457L123.979 26.7235H123.915C123.915 26.7235 123.872 26.7013 123.872 26.6791C123.872 26.657 123.807 26.6126 123.807 26.6126H123.764V26.5682H123.721V26.6348L123.7 26.7235V26.7679H123.721L123.743 26.7901L123.786 26.8567L123.807 26.8789C123.807 26.8789 123.829 26.8789 123.85 26.9011C123.872 26.9233 123.893 26.9677 123.915 26.9677C123.936 26.9677 123.936 27.0787 123.936 27.0787C123.936 27.1009 123.979 27.123 123.979 27.123H123.958L123.829 27.0565C123.829 27.0565 123.764 26.9455 123.764 26.9011C123.764 26.8789 123.678 26.7901 123.657 26.7679C123.635 26.7679 123.657 26.6569 123.657 26.6126C123.657 26.5682 123.592 26.4794 123.592 26.4572C123.592 26.435 123.528 26.3462 123.528 26.3462C123.528 26.3462 123.528 26.3684 123.528 26.3906C123.528 26.4128 123.485 26.435 123.485 26.435L123.442 26.4128C123.442 26.4128 123.442 26.324 123.442 26.3018C123.42 26.3018 123.399 26.213 123.356 26.213C123.313 26.1909 123.291 26.1243 123.291 26.1243C123.291 26.1021 123.227 26.0799 123.227 26.0799L123.205 26.1021L123.141 26.1243H123.098L123.033 26.1465V26.1909C123.033 26.1909 123.033 26.213 123.012 26.213C122.99 26.2352 122.926 26.3018 122.926 26.3018C122.904 26.324 122.861 26.3462 122.861 26.3906C122.861 26.4128 122.797 26.435 122.797 26.435C122.797 26.5238 122.818 26.6348 122.818 26.7457C122.818 26.7457 122.883 26.8345 122.904 26.8345C122.904 26.8567 122.904 26.8567 122.904 26.8789V26.9011L122.84 26.9677ZM124.151 26.3462L124.108 26.324C124.087 26.324 124.108 26.2796 124.108 26.2796L124.13 26.2352H124.194L124.173 26.3018L124.151 26.3462ZM123.549 26.9677L123.592 26.9899H123.657L123.678 27.0343L123.764 27.0787L123.893 27.1674L123.979 27.2118L123.958 27.2562H123.979L124.022 27.3006L124.087 27.3228V27.4782H124.044C124.044 27.4782 123.958 27.3894 123.936 27.3894C123.915 27.3672 123.893 27.345 123.872 27.3228C123.872 27.3006 123.829 27.2784 123.829 27.2784L123.786 27.234L123.764 27.1452C123.743 27.123 123.743 27.123 123.721 27.1009L123.678 27.0565C123.678 27.0565 123.592 26.9677 123.592 26.9455C123.528 26.9677 123.549 26.9677 123.549 26.9677ZM125.269 25.4362L125.291 25.5028C125.57 25.5694 125.807 25.636 126.022 25.7026C125.764 25.2143 125.334 24.7704 124.753 24.3931H124.689C124.689 24.3931 124.667 24.3931 124.646 24.3931C124.603 24.3931 124.56 24.3709 124.495 24.3709C124.452 24.3709 124.452 24.3709 124.452 24.3709L124.409 24.504L124.366 24.5706H124.388L124.452 24.5928L124.474 24.6372H124.517V24.615C124.517 24.615 124.603 24.6594 124.624 24.6594C124.646 24.6594 124.689 24.6816 124.689 24.6816C124.689 24.6816 124.71 24.7038 124.71 24.726L124.753 24.7926C124.775 24.8148 124.818 24.9035 124.818 24.9035V24.9257C124.818 24.9257 124.818 24.9701 124.839 24.9701C124.839 24.9701 124.818 25.0145 124.818 25.0367C124.818 25.0589 124.796 25.1033 124.796 25.1033L124.753 25.1477H124.71L124.689 25.1255L124.667 25.1477C124.667 25.1699 124.624 25.1921 124.624 25.1921L124.667 25.2365L124.624 25.2809H124.603L124.624 25.3252C124.624 25.3252 124.689 25.3474 124.71 25.3696C124.861 25.3918 124.99 25.414 125.119 25.4584L125.162 25.4362L125.183 25.3474L125.14 25.3031V25.2587H125.183L125.205 25.2809L125.269 25.3252L125.248 25.3918L125.269 25.4362ZM125.011 24.9701L124.968 24.9035L124.775 24.7038L124.753 24.6594L124.882 24.7482L124.99 24.837V24.9035L125.054 24.9923L125.033 25.0145L125.011 24.9701ZM125.248 25.1699L125.226 25.2365L125.162 25.2143H125.14V25.2365H125.119L125.054 25.1921C125.054 25.1921 125.054 25.1477 125.076 25.1477C125.097 25.1477 125.076 25.1255 125.076 25.1255L125.033 25.0589V25.0367L125.14 25.1033L125.248 25.1255L125.269 25.1699H125.248ZM121.184 24.7926L121.163 24.7704H121.055L121.012 24.7926L120.969 24.837C120.969 24.8813 120.991 24.9035 120.991 24.9479C121.034 24.9479 121.077 24.9479 121.12 24.9479L121.077 24.9035V24.8813L121.098 24.9035L121.12 24.8813L121.098 24.8591L121.12 24.837H121.206V24.8148L121.163 24.7926C121.184 24.8591 121.184 24.7926 121.184 24.7926ZM124.517 25.3474C124.517 25.3252 124.495 25.3031 124.495 25.3031C124.495 25.3031 124.431 25.3031 124.409 25.3031C124.388 25.3031 124.366 25.3252 124.366 25.3252C124.431 25.3252 124.474 25.3252 124.517 25.3474ZM114.992 23.8604H115.121L115.207 23.8382H115.25L115.228 23.8604C115.228 23.8604 115.228 23.8826 115.25 23.8826C115.271 23.8826 115.293 23.8382 115.293 23.8382V23.816L115.422 23.7938H115.551V23.7716C115.551 23.7494 115.465 23.7716 115.465 23.7716C115.465 23.7716 115.228 23.816 115.207 23.7938C115.185 23.7938 115.164 23.7716 115.164 23.7494C115.185 23.7272 115.25 23.7272 115.25 23.705C115.25 23.705 115.25 23.705 115.228 23.705C115.164 23.7272 115.099 23.7494 115.035 23.7938H115.078V23.816L114.992 23.8604ZM122.388 23.4831C122.474 23.5053 122.582 23.5274 122.496 23.5496C122.431 23.5718 122.582 23.6162 122.582 23.6162L122.818 23.6606C122.818 23.6606 123.012 23.6384 123.076 23.6384C123.141 23.6384 123.291 23.7272 123.291 23.7272L123.528 23.7716H123.657V23.7494C122.926 23.4165 122.066 23.1945 121.12 23.0392C121.485 23.1501 121.829 23.2611 122.152 23.4165C122.238 23.4831 122.324 23.4831 122.388 23.4831ZM114.712 25.747C114.691 25.747 114.626 25.747 114.626 25.747C114.626 25.747 114.54 25.7691 114.497 25.7691C114.454 25.7691 114.433 25.7913 114.39 25.8357C114.347 25.9467 114.325 26.0577 114.282 26.1909C114.304 26.2796 114.39 26.324 114.454 26.324C114.562 26.3018 114.626 26.2796 114.626 26.2574C114.626 26.2352 114.691 26.1909 114.691 26.1909L114.798 26.1687H114.841C114.841 26.1687 114.863 26.1909 114.841 26.213C114.82 26.2574 114.755 26.3018 114.755 26.3018C114.755 26.3018 114.712 26.3462 114.712 26.3684C114.712 26.3906 114.669 26.4128 114.648 26.435C114.626 26.4572 114.734 26.4572 114.734 26.4572L114.884 26.435L114.97 26.4572C114.97 26.4794 114.927 26.6126 114.927 26.657C114.927 26.7013 114.992 26.7457 115.035 26.7679C115.035 26.7679 115.056 26.7901 115.099 26.7679C115.142 26.7457 115.207 26.7457 115.207 26.7457L115.271 26.7679L115.314 26.8345L115.336 26.7901L115.379 26.7679L115.4 26.7457C115.4 26.7457 115.379 26.7235 115.422 26.7013C115.465 26.6791 115.422 26.6791 115.465 26.6791C115.508 26.6791 115.508 26.6791 115.551 26.657C115.594 26.6348 115.615 26.6348 115.615 26.6348L115.637 26.657L115.615 26.7013V26.7235C115.615 26.7457 115.594 26.7679 115.615 26.7679H115.658L115.637 26.7235V26.7013L115.744 26.657L115.809 26.6791V26.7013C115.809 26.7013 115.809 26.7013 115.873 26.7013C115.873 26.5682 115.873 26.435 115.895 26.3018V26.2796C115.938 25.8801 116.024 25.5028 116.174 25.1699C116.024 25.1921 115.873 25.1921 115.744 25.2143C115.744 25.2143 115.744 25.2365 115.723 25.2365C115.701 25.2587 115.68 25.2809 115.637 25.3031V25.3474L115.486 25.4584C115.443 25.4806 115.4 25.4806 115.379 25.5028C115.357 25.5028 115.293 25.5694 115.293 25.5916C115.271 25.6138 115.271 25.7248 115.271 25.7248C115.271 25.747 115.293 25.7913 115.293 25.8135C115.293 25.8357 115.314 25.8357 115.293 25.8579C115.271 25.8801 115.25 25.9023 115.228 25.9023H115.207C115.207 25.9023 115.185 25.8357 115.185 25.8135C115.185 25.7913 115.164 25.7691 115.164 25.7691V25.7248L115.142 25.7026C115.142 25.7026 115.099 25.6804 115.078 25.6804C115.056 25.7026 115.035 25.7026 115.035 25.7026C115.035 25.7026 114.992 25.6582 114.949 25.6582C114.906 25.6582 114.798 25.6138 114.798 25.6582C114.798 25.7026 114.863 25.7026 114.798 25.7026C114.734 25.747 114.734 25.747 114.712 25.747ZM115.422 26.3462H115.357L115.336 26.324V26.3018L115.422 26.3462ZM115.615 26.2574V26.2352L115.68 26.2574L115.744 26.2352C115.744 26.2352 115.787 26.2574 115.787 26.2796L115.852 26.3018V26.324H115.787L115.744 26.3462H115.723L115.68 26.3906L115.658 26.3684H115.529V26.3018H115.594L115.615 26.2574ZM115.121 26.0577H115.25L115.293 26.0799L115.422 26.1243L115.465 26.1465L115.529 26.1687V26.1909L115.508 26.213H115.336L115.379 26.1909H115.357L115.314 26.1687L115.293 26.1243H115.25L115.185 26.1021L115.142 26.0799L115.121 26.0577L115.078 26.0799L115.013 26.1021H114.992L115.121 26.0577ZM124.925 24.3709C125.011 24.4374 125.097 24.4818 125.162 24.5484L125.14 24.5262V24.4818C125.14 24.4818 125.183 24.4818 125.183 24.4596C125.183 24.4374 125.183 24.4152 125.183 24.3931C125.183 24.3709 125.183 24.3487 125.183 24.3487L125.205 24.3265V24.3043L125.162 24.2821V24.2599H125.119L125.14 24.2821H125.119L125.097 24.3265L125.054 24.3043C125.054 24.2821 125.033 24.2821 124.968 24.2821C124.882 24.3043 124.925 24.3709 124.925 24.3709ZM122.238 26.0799C122.238 26.0799 122.195 26.1021 122.195 26.0799C122.195 26.0577 122.13 26.0355 122.13 26.0355L122.066 25.9467H122.023L121.872 25.9689C121.808 25.9467 121.765 25.9467 121.7 25.9245C121.636 25.9245 121.657 25.9023 121.636 25.8801C121.636 25.8579 121.614 25.8357 121.593 25.8357C121.55 25.8357 121.528 25.8579 121.528 25.8579C121.507 25.8579 121.442 25.8135 121.421 25.8135C121.399 25.8135 121.356 25.7913 121.335 25.7691C121.313 25.747 121.27 25.6582 121.249 25.6582C121.227 25.6582 121.184 25.6582 121.163 25.6582C121.141 25.6804 121.163 25.7026 121.184 25.7248C121.206 25.747 121.227 25.7913 121.249 25.8135C121.27 25.8357 121.27 25.8579 121.27 25.8801C121.27 25.9023 121.292 25.9245 121.292 25.9245H121.313V25.8801L121.335 25.8579L121.356 25.8801L121.378 25.9467L121.399 25.9689C121.421 25.9689 121.421 25.9689 121.442 25.9689C121.464 25.9689 121.485 25.9689 121.485 25.9467C121.507 25.9245 121.571 25.8579 121.571 25.8579C121.571 25.8579 121.571 25.8801 121.571 25.9245C121.571 25.9689 121.636 25.9911 121.657 25.9911C121.679 25.9911 121.679 25.9911 121.7 26.0133C121.722 26.0133 121.722 26.0355 121.743 26.0577C121.743 26.0799 121.765 26.0799 121.765 26.0799C121.765 26.0799 121.765 26.1243 121.722 26.1687C121.679 26.213 121.7 26.2574 121.7 26.2574C121.7 26.2574 121.679 26.2574 121.657 26.2796C121.657 26.3018 121.657 26.3018 121.636 26.3018C121.614 26.3018 121.593 26.324 121.571 26.3462C121.55 26.3684 121.528 26.3684 121.485 26.3684C121.442 26.3906 121.464 26.435 121.464 26.435C121.399 26.4572 121.313 26.5016 121.227 26.5238C121.227 26.5682 121.227 26.6126 121.227 26.657C121.249 26.657 121.249 26.657 121.27 26.657C121.292 26.657 121.292 26.657 121.313 26.657C121.335 26.657 121.335 26.657 121.356 26.657L121.421 26.6126H121.442C121.442 26.6126 121.464 26.7013 121.421 26.7457C121.399 26.7901 121.399 26.9011 121.356 26.9677C121.313 27.0121 121.27 27.0787 121.249 27.123L121.227 27.1452C121.206 27.5891 121.163 28.033 121.055 28.4548C121.507 28.4326 121.958 28.4104 122.41 28.366C122.603 27.8777 122.711 27.3672 122.711 26.8123H122.689C122.689 26.8123 122.646 26.7679 122.625 26.7235C122.603 26.6791 122.582 26.657 122.539 26.5682C122.496 26.4794 122.453 26.435 122.453 26.3906L122.388 26.213C122.388 26.213 122.388 26.1909 122.388 26.1687C122.388 26.1465 122.388 26.1465 122.388 26.1465L122.367 26.1243L122.345 26.1687C122.345 26.1687 122.302 26.1909 122.281 26.1909C122.259 26.1909 122.195 26.1021 122.195 26.1021C122.195 26.1021 122.216 26.1021 122.238 26.0799ZM124.28 25.2365L124.259 25.3031C124.28 25.3031 124.302 25.3031 124.323 25.3252V25.2587L124.28 25.2365ZM124.194 23.8382C124.345 23.8604 124.28 23.8382 124.452 23.9048C124.517 23.927 124.667 23.9492 124.818 23.9713C123.979 23.594 122.99 23.3055 121.894 23.1279C122.646 23.2833 123.334 23.5274 123.936 23.816C124.001 23.816 124.108 23.8382 124.194 23.8382ZM120.948 28.4991C121.034 28.1218 121.098 27.7223 121.12 27.2784C121.098 27.3006 121.077 27.3228 121.055 27.345C120.991 27.4338 120.926 27.6335 120.926 27.6335L120.969 27.6779C120.969 27.6779 120.991 27.7223 120.991 27.7445C120.991 27.7667 120.991 27.8333 120.991 27.8333C120.991 27.8333 121.034 27.8555 121.034 27.8999C121.034 27.9221 121.034 27.9221 121.034 27.9887C121.034 28.0552 121.034 28.0552 121.034 28.1218C121.034 28.1884 120.926 28.255 120.883 28.2772C120.84 28.2994 120.84 28.3216 120.819 28.3438C120.797 28.366 120.776 28.4104 120.776 28.4104C120.776 28.4104 120.797 28.4326 120.797 28.4991C120.84 28.4991 120.883 28.4991 120.948 28.4991ZM116.346 23.3943C116.389 23.3721 116.303 23.3721 116.303 23.3721L116.174 23.4165H116.153C115.916 23.4831 115.701 23.5496 115.486 23.6384C115.508 23.6384 115.508 23.6384 115.508 23.6384C115.508 23.6384 115.551 23.6162 115.594 23.594C115.615 23.594 115.68 23.594 115.68 23.594L115.615 23.6606L115.658 23.6828L115.615 23.816H115.658C115.658 23.816 115.744 23.7938 115.744 23.816C115.744 23.8382 115.744 23.7716 115.744 23.7716L115.852 23.7494H115.895L115.959 23.705L115.938 23.6828L115.895 23.6606L115.981 23.6162L116.11 23.4831L116.196 23.4609V23.4831L116.088 23.5496L116.024 23.6162L116.067 23.6606C116.067 23.6606 116.088 23.6384 116.11 23.6384H116.131C116.174 23.6162 116.217 23.594 116.26 23.5718C116.131 23.5718 116.239 23.5274 116.239 23.5274L116.325 23.4609L116.432 23.3943L116.604 23.3721L116.69 23.3277L116.389 23.3499C116.411 23.4387 116.325 23.4165 116.346 23.3943ZM115.873 23.6162L115.809 23.5496L115.938 23.5053L115.981 23.5274L115.873 23.6162ZM115.4 20.2426C115.379 20.2426 115.379 20.2648 115.379 20.287C115.379 20.3092 115.422 20.3092 115.443 20.3092C115.465 20.287 115.508 20.2426 115.529 20.2204C115.508 20.2204 115.422 20.2426 115.4 20.2426Z" fill="#858589"/>
<path d="M128.968 12.785C128.946 12.785 128.925 12.7628 128.882 12.785C128.796 12.8294 128.495 13.0736 128.387 13.1401C128.387 13.118 128.387 13.118 128.409 13.0958L128.43 13.0514C128.495 12.896 128.71 12.4743 128.71 12.208C128.71 12.1414 128.71 12.097 128.688 12.0526C128.688 12.0526 128.688 12.0082 128.645 12.0082C128.602 11.986 128.559 12.0082 128.495 12.0748C128.387 12.1858 127.699 12.8516 127.678 12.8516L127.656 12.8738C127.656 12.8738 127.656 12.8516 127.656 12.8294L127.699 12.6741C127.721 12.5631 127.764 12.4299 127.764 12.3411C127.764 12.2967 127.764 12.2523 127.742 12.2302C127.742 12.208 127.721 12.1858 127.699 12.1858C127.656 12.1858 127.613 12.208 127.592 12.2523C127.527 12.3633 126.624 13.3399 126.452 13.4731C126.431 13.4953 126.431 13.4953 126.431 13.4953C126.431 13.4509 126.474 13.3843 126.517 13.2733C126.538 13.2067 126.732 12.7628 126.732 12.5631C126.732 12.5409 126.732 12.5187 126.71 12.4965C126.71 12.4743 126.667 12.4521 126.646 12.4521C126.517 12.4521 126.259 12.7406 125.635 13.4731C125.635 13.4731 125.14 14.0501 125.119 14.0723C125.119 14.0501 125.119 14.028 125.119 14.0058C125.119 13.8948 125.097 13.6728 125.033 13.5619C124.99 13.5175 124.968 13.4953 124.925 13.4953C124.861 13.4953 124.818 13.5619 124.732 13.7394C124.646 13.9392 123.958 14.6716 123.184 15.2931L123.162 15.3153C122.453 15.8923 121.98 16.2697 121.442 17.1131C121.012 17.7567 120.281 18.0897 119.743 18.356C119.593 18.4226 119.442 18.4892 119.313 18.5557C119.27 18.5557 118.754 18.4892 118.174 18.5114C118.131 18.2672 117.98 17.5792 117.206 17.0909C116.432 16.5804 115.293 15.8258 114.497 15.1155C114.003 14.6716 113.68 14.2499 113.486 13.9836C113.357 13.8282 113.314 13.7616 113.293 13.7616C113.25 13.7394 113.207 13.7616 113.185 13.7838C113.164 13.806 113.164 13.8282 113.164 13.8948C113.164 13.9614 113.185 14.0723 113.25 14.2499L113.207 14.2277C113.099 14.1611 112.82 14.028 112.497 13.5619C112.175 13.0958 111.938 12.4299 111.938 12.4299C111.938 12.4077 111.917 12.3855 111.895 12.3855C111.852 12.3855 111.831 12.4299 111.831 12.4743C111.809 12.5631 111.788 12.6741 111.788 12.8516C111.788 13.007 111.809 13.2289 111.874 13.5175C111.831 13.4953 111.401 13.0736 110.971 12.3411C110.949 12.3189 110.906 12.2523 110.842 12.2745C110.82 12.2745 110.799 12.2967 110.799 12.3189C110.799 12.3411 110.777 12.3633 110.777 12.4077C110.777 12.5853 110.906 12.9404 111.121 13.4065C110.842 13.1401 110.605 12.8516 110.369 12.5409C110.347 12.5187 110.283 12.4077 110.218 12.4077C110.197 12.4077 110.175 12.4077 110.154 12.4299C110.132 12.4521 110.132 12.4743 110.132 12.5187C110.132 12.6741 110.218 12.9848 110.412 13.4065C110.261 13.2955 110.132 13.1845 109.982 13.0736C109.982 13.0736 109.917 13.0292 109.874 13.0514C109.853 13.0736 109.831 13.118 109.831 13.1845C109.831 13.3177 109.939 13.5619 109.982 13.6506C109.96 13.6506 109.939 13.6284 109.939 13.6284C109.896 13.6062 109.81 13.5619 109.767 13.5619C109.745 13.5619 109.724 13.5619 109.702 13.5841C109.702 13.6062 109.702 13.6062 109.702 13.6284C109.702 13.7172 109.767 13.8504 109.81 13.9392C109.874 14.0501 110.175 14.3387 110.283 14.4497C110.175 14.4053 109.96 14.3609 109.939 14.3387C109.939 14.3387 109.853 14.3165 109.81 14.3609C109.788 14.3831 109.788 14.3831 109.788 14.4053C109.788 14.4053 109.788 14.4275 109.788 14.4497C109.831 14.5606 110.197 14.8492 110.885 15.2487C110.756 15.2265 110.691 15.2487 110.67 15.2709L110.648 15.2931C110.648 15.3153 110.648 15.3153 110.648 15.3153C110.691 15.4262 111.1 15.6482 111.444 15.7592C111.444 15.7592 111.422 15.7592 111.401 15.7592C111.315 15.7592 111.272 15.7592 111.25 15.7814V15.8258C111.272 15.8923 111.293 15.9811 112.067 16.2919C111.96 16.2919 111.895 16.2919 111.874 16.3362V16.3806C111.917 16.4694 112.282 16.7136 112.992 16.9355C112.927 16.9577 112.884 16.9577 112.863 16.9799V17.0021C112.906 17.1575 113.615 17.4238 114.261 17.6236C114.196 17.6236 114.153 17.6458 114.132 17.6679C114.11 17.6679 114.11 17.6901 114.11 17.7123C114.11 17.7789 114.304 18.0009 115.787 18.4004C115.809 18.4004 115.809 18.4004 115.83 18.4004H115.809C115.787 18.4226 115.744 18.4226 115.744 18.467C115.744 18.5114 115.787 18.5557 115.895 18.6223C116.11 18.7555 116.475 18.8887 116.583 18.9331C116.131 19.1772 115.68 19.4436 115.25 19.7321L115.228 19.7543V19.7765C115.228 19.8209 115.207 19.9984 115.035 20.0872C114.927 20.1538 114.777 20.2648 114.734 20.4867C114.734 20.5089 114.734 20.5311 114.734 20.5533C114.734 20.7309 114.841 20.9528 115.056 21.1748C115.099 21.2192 115.142 21.2192 115.142 21.197C115.164 21.1748 115.164 21.1304 115.164 21.1082C115.164 21.1082 115.121 20.9972 115.164 20.9306C115.185 20.8862 115.207 20.864 115.25 20.864C115.379 20.8196 115.508 20.864 115.572 20.8862L115.637 20.9084C115.723 20.9306 115.895 20.9306 116.024 20.8418C116.131 20.7753 116.475 20.7975 116.669 20.8196H116.798C116.755 20.8862 116.69 20.9528 116.647 20.9972L116.54 21.086C116.432 21.1748 116.368 21.2192 116.282 21.3301C116.26 21.3301 115.68 21.4411 115.68 21.4411C115.68 21.4411 115.658 21.4411 115.658 21.4633C115.658 21.4633 115.508 21.7518 115.293 21.9516C115.078 22.1514 114.841 22.2401 114.841 22.2401C114.841 22.2401 114.755 22.3733 114.734 22.6618C114.734 22.684 114.734 22.7062 114.734 22.7506C114.734 22.7728 114.734 22.7728 114.734 22.795V22.8172C114.734 22.8172 114.777 22.8838 114.82 22.906C114.841 22.906 114.906 22.9726 114.992 23.017C114.992 23.017 115.056 23.0392 115.121 23.0613H115.142C114.519 23.2389 113.938 23.4609 113.4 23.7272C111.745 24.5484 110.82 25.6582 110.82 26.8789C110.82 28.0996 111.723 29.2094 113.4 30.0306C114.97 30.8074 117.056 31.2291 119.27 31.2291C121.485 31.2291 123.571 30.8074 125.14 30.0306C126.796 29.2094 127.721 28.0996 127.721 26.8789C127.721 25.6582 126.818 24.5484 125.14 23.7272C124.151 23.2389 122.969 22.8838 121.679 22.7062C121.679 22.7062 121.679 22.7062 121.7 22.7062C121.765 22.684 121.786 22.6396 121.808 22.5731C121.894 22.6174 122.109 22.7284 122.281 22.684C122.517 22.6174 122.582 22.4177 122.582 22.3733C122.582 22.3511 122.603 22.3511 122.625 22.3511L122.668 22.3733C122.732 22.3955 122.861 22.4399 122.99 22.3955C123.076 22.3511 123.141 22.2623 123.162 22.2179C123.184 22.1735 123.205 22.1514 123.227 22.1514C123.248 22.1292 123.27 22.1292 123.313 22.1292C123.377 22.107 123.485 22.107 123.528 22.0404C123.528 22.0404 123.571 21.9516 123.571 21.885C123.571 21.8628 123.571 21.7962 123.614 21.774C123.614 21.774 123.958 21.6409 124.022 21.3967C124.022 21.3967 124.044 21.3301 124.022 21.2635C124.001 21.197 123.936 21.1748 123.85 21.1526L121.163 20.4201C121.163 20.4201 121.077 20.3757 120.991 20.2648C121.227 20.2648 122.109 20.2648 122.668 20.0872C122.689 20.0872 122.732 20.0428 122.732 20.0206C122.732 19.9984 122.711 19.9762 122.689 19.954C122.646 19.9318 122.625 19.9096 122.603 19.9096H122.625C122.732 19.8875 123.485 19.7099 123.657 19.6211C123.743 19.5767 123.764 19.5323 123.764 19.5101C123.764 19.4657 123.7 19.4436 123.657 19.4436C123.635 19.4436 123.571 19.4436 123.528 19.4214C123.549 19.4214 123.592 19.3992 123.592 19.3992C123.807 19.3548 124.388 19.2216 124.732 19.0662C124.753 19.044 124.818 19.0218 124.818 18.9775C124.818 18.9553 124.818 18.9331 124.775 18.9109C124.71 18.8665 124.409 18.8665 124.366 18.8665C124.366 18.8665 124.388 18.8665 124.388 18.8443C124.409 18.8443 124.495 18.7999 124.581 18.7777C124.968 18.6445 125.678 18.4004 125.871 18.134C125.893 18.1118 125.893 18.0897 125.893 18.0675C125.893 18.0453 125.871 18.0231 125.828 18.0009C125.742 18.0009 125.656 18.0009 125.57 18.0009L125.592 17.9787L125.656 17.9565C125.893 17.8455 126.603 17.4682 126.968 17.1353C126.99 17.1131 127.033 17.0465 127.033 17.0021L127.011 16.9577C127.011 16.9577 126.968 16.9133 126.861 16.9133H126.839C126.839 16.9133 126.861 16.8911 126.882 16.8911L126.925 16.8689C127.398 16.6248 127.721 16.3806 127.893 16.1809C127.893 16.1809 127.914 16.1365 127.914 16.1143C127.914 16.0921 127.914 16.0921 127.914 16.0921C127.914 16.0699 127.893 16.0477 127.85 16.0477C127.764 16.0477 127.549 16.0699 127.506 16.0921C127.506 16.0921 127.506 16.0699 127.549 16.0477L127.613 16.0033C127.785 15.8923 128.151 15.626 128.344 15.2931C128.344 15.2709 128.344 15.2043 128.301 15.1821C128.28 15.1821 128.258 15.1599 128.237 15.1821L128.043 15.2265C128.043 15.2265 128.043 15.2265 128.065 15.2043C128.065 15.2043 128.688 14.5384 128.817 14.1611C128.86 14.0501 128.882 13.9836 128.882 13.9392C128.882 13.917 128.882 13.8948 128.86 13.8948C128.839 13.8726 128.774 13.8948 128.731 13.9392L128.71 13.9614L128.28 14.2277C128.28 14.2277 128.301 14.2055 128.323 14.1833L128.409 14.0723C128.581 13.8504 128.925 13.4509 128.968 13.118V13.0958C129.011 12.8516 129.011 12.8072 128.968 12.785ZM125.613 14.3387C126.13 13.9614 126.775 13.4509 127.334 12.8516C127.334 12.8738 127.334 12.896 127.291 12.9404C127.183 13.118 126.517 13.7838 125.57 14.4497C125.613 14.4275 125.613 14.3831 125.613 14.3387ZM128.065 12.8072H128.086L128.108 12.8294C128.108 12.8516 128.086 12.9404 127.979 13.0736C127.85 13.2289 126.667 14.3831 125.269 15.1821C125.334 15.0933 125.377 15.0045 125.42 14.9158C126.13 14.4719 127.033 13.806 128.065 12.8072ZM125.42 14.494C125.42 14.5162 125.377 14.5828 125.205 14.7382C125.011 14.8714 124.818 14.9823 124.603 15.0933C124.624 15.0489 124.646 15.0267 124.667 14.9823C124.689 14.9601 124.99 14.7826 125.42 14.494ZM124.237 17.3128C123.85 17.446 123.463 17.5792 123.076 17.6679H123.055V17.6458L123.227 17.3572C123.227 17.3572 123.227 17.335 123.248 17.335C123.678 17.224 124.087 17.1131 124.495 16.9577C124.495 16.9577 124.495 16.9577 124.495 16.9799V17.0021C124.495 17.0243 124.495 17.0243 124.495 17.0465C124.431 17.1575 124.345 17.2462 124.237 17.3128ZM124.237 17.6236C124.237 17.6458 124.216 17.6458 124.216 17.6679C124.173 17.7345 124.065 17.8233 123.85 17.9121C123.463 18.0453 123.055 18.1784 122.646 18.2672C122.625 18.2672 122.625 18.2672 122.625 18.245V18.2228L122.797 18.0009C122.797 18.0009 122.797 18.0009 122.818 18.0009C122.99 17.9565 123.506 17.8455 124.216 17.6014C124.237 17.5792 124.237 17.6014 124.237 17.6236ZM124.431 16.6692C124.108 16.8023 123.764 16.8911 123.463 16.9799C123.442 16.9799 123.442 16.9799 123.442 16.9799V16.9577L123.571 16.6692L123.592 16.647C123.786 16.6026 124.151 16.4916 124.646 16.314C124.667 16.314 124.667 16.3362 124.667 16.3362C124.667 16.3584 124.667 16.3806 124.667 16.4028C124.624 16.4694 124.56 16.5804 124.431 16.6692ZM124.603 16.0033C124.323 16.1143 124.044 16.2031 123.764 16.2919H123.743V16.2697L123.829 16.0699C123.829 16.0699 123.829 16.0477 123.85 16.0477C124.13 15.9811 124.409 15.8701 124.689 15.7592C124.689 15.7592 124.71 15.7592 124.71 15.7814V15.8258C124.689 15.8701 124.667 15.9589 124.603 16.0033ZM124.173 15.7148C124.151 15.7148 124.151 15.7148 124.13 15.7148C124.13 15.7148 124.13 15.6926 124.13 15.6704L124.237 15.5372C124.538 15.404 124.839 15.2709 125.119 15.0933C125.033 15.2265 124.904 15.3597 124.775 15.4484C124.581 15.5372 124.388 15.626 124.173 15.7148ZM113.508 14.3165C113.529 14.3387 113.594 14.4497 113.594 14.4497C113.809 14.8048 114.325 15.4706 115.164 16.0255C116.002 16.5804 116.153 16.6026 116.991 17.2684C117.83 17.9343 117.765 18.356 117.765 18.4226C117.765 18.4892 117.701 18.4892 117.701 18.4892C117.529 18.5336 117.142 18.6667 117.077 18.7111C117.013 18.7555 117.034 18.6667 117.034 18.6667C117.142 18.5114 117.163 18.3116 117.163 18.3116C117.185 17.4904 115.873 17.0465 114.734 16.0699C113.572 15.0933 113.529 14.6494 113.486 14.494C113.443 14.3165 113.486 14.2943 113.508 14.3165ZM113.658 16.0477C113.938 16.0921 114.196 16.1365 114.476 16.1809H114.497L114.734 16.3362V16.3584C114.734 16.3584 114.734 16.3806 114.712 16.3584L114.583 16.3362C114.433 16.314 114.282 16.2919 114.11 16.2697C113.852 16.2031 113.658 16.1143 113.637 16.0699C113.658 16.0699 113.658 16.0699 113.658 16.0477ZM113.314 15.7148C113.293 15.6926 113.293 15.6704 113.293 15.6704L113.551 15.737L114.024 15.8258L114.261 15.9811C114.261 15.9811 114.282 16.0033 114.261 16.0033L114.239 16.0255C114.11 16.0033 113.96 15.9811 113.83 15.9367C113.551 15.8258 113.336 15.7592 113.314 15.7148ZM114.196 16.5582C114.39 16.6026 114.583 16.6248 114.798 16.647L115.185 16.6914L115.422 16.8245C115.422 16.8245 115.443 16.8467 115.422 16.8467L115.4 16.8689L114.906 16.8023C114.82 16.8023 114.734 16.7801 114.648 16.7579C114.304 16.6914 114.196 16.5804 114.196 16.5582ZM114.82 17.0243C114.906 17.0465 114.97 17.0465 115.035 17.0465C115.25 17.0687 115.465 17.0909 115.68 17.1131L115.766 17.1797C115.766 17.1797 115.787 17.2018 115.766 17.2018L115.744 17.224H115.723C115.637 17.2018 115.508 17.2018 115.379 17.2018C115.078 17.1797 114.82 17.0909 114.798 17.0687C114.798 17.0465 114.82 17.0243 114.82 17.0243ZM113.4 15.3375H113.422L113.465 15.3597L113.701 15.5372C113.701 15.5372 113.723 15.5594 113.701 15.5594L113.68 15.5816L113.465 15.515C113.422 15.515 113.379 15.4928 113.336 15.4706C113.078 15.3819 113.035 15.3153 113.013 15.2709C113.013 15.2709 113.013 15.2487 112.992 15.2487C112.992 15.2487 112.992 15.2487 112.992 15.2265C113.142 15.2709 113.271 15.3153 113.4 15.3375ZM113.207 15.0489C113.207 15.0489 113.185 15.0711 113.185 15.0489C113.035 15.0045 112.884 14.9601 112.734 14.9158C112.605 14.8492 112.476 14.7604 112.368 14.6716C112.347 14.6494 112.347 14.6494 112.347 14.6494C112.54 14.716 112.777 14.8048 113.013 14.8714L113.207 15.0045C113.207 15.0267 113.207 15.0489 113.207 15.0489ZM112.024 13.1623C112.454 13.9836 112.927 14.2499 112.97 14.2721C113.078 14.3387 113.142 14.5384 113.185 14.6272V14.6494C113.142 14.6272 112.433 14.1833 112.239 13.7616C112.067 13.4509 112.024 13.2511 112.024 13.1623ZM111.938 14.0945C112.132 14.2055 112.325 14.3165 112.54 14.4053L112.712 14.5606V14.5828C112.712 14.5828 112.691 14.605 112.691 14.5828L112.519 14.5162C112.519 14.5162 112.497 14.4941 112.411 14.4719C112.325 14.4275 112.261 14.3831 112.175 14.3609C112.046 14.2721 111.981 14.2277 111.96 14.1833C111.96 14.1611 111.938 14.1611 111.938 14.1389C111.938 14.1167 111.938 14.1167 111.938 14.0945ZM110.519 12.9404H110.541C110.584 13.007 110.713 13.1845 110.992 13.4509L111.014 13.4731C111.1 13.5619 111.207 13.6284 111.315 13.7172C111.444 13.806 111.551 13.8948 111.68 13.9614C111.702 14.0058 111.702 14.0501 111.723 14.0945C111.551 13.9836 111.379 13.8726 111.229 13.7394C111.057 13.6062 110.906 13.4509 110.756 13.2955L110.605 13.1401L110.562 13.0736C110.541 13.0514 110.498 13.007 110.498 12.9626L110.519 12.9404ZM110.39 13.6062C110.39 13.5841 110.39 13.5841 110.39 13.5841H110.412C110.433 13.6062 110.519 13.6728 110.627 13.7838C110.842 13.9392 111.25 14.2055 111.938 14.5162C111.981 14.5828 112.024 14.6272 112.089 14.6938C111.594 14.4719 111.014 14.1833 110.562 13.806L110.455 13.7172C110.433 13.6728 110.412 13.6284 110.39 13.6062ZM110.562 14.2277L110.498 14.1833V14.1389C110.498 14.1389 110.519 14.1167 110.519 14.1389C110.627 14.2277 111.014 14.494 111.745 14.7826C111.917 14.8492 112.11 14.938 112.282 15.0045C112.411 15.0489 112.562 15.0933 112.691 15.1599C112.734 15.1821 112.777 15.2043 112.798 15.2487V15.2931C112.798 15.3153 112.798 15.3375 112.798 15.3375C112.583 15.2709 112.368 15.2043 112.175 15.1155C111.53 14.8714 111.035 14.605 110.648 14.3165C110.67 14.2943 110.562 14.2277 110.562 14.2277ZM110.863 14.827C110.863 14.827 110.799 14.7826 110.777 14.7826C110.777 14.7826 110.777 14.7826 110.777 14.7604V14.7382C110.777 14.7382 110.799 14.716 110.799 14.7382L110.928 14.8048C111.143 14.9158 111.379 15.0267 111.616 15.1155C112.003 15.2709 112.454 15.4262 112.906 15.5594L112.992 15.5816C113.013 15.6038 113.078 15.6482 113.078 15.6926C113.078 15.7148 113.078 15.7148 113.078 15.7148C113.056 15.7148 113.035 15.7148 112.949 15.6926L112.712 15.626L112.304 15.4928H112.282L112.132 15.4484L111.917 15.3819C111.53 15.2043 111.143 15.0267 110.863 14.827ZM111.702 15.6038C111.702 15.6038 111.659 15.5816 111.487 15.4928L111.422 15.4706V15.4484C111.422 15.4262 111.444 15.4262 111.444 15.4262C111.68 15.515 111.938 15.6038 112.196 15.6926C112.562 15.8036 112.927 15.8923 113.314 15.9811C113.357 16.0033 113.443 16.0921 113.465 16.1143C113.486 16.1365 113.465 16.1365 113.465 16.1587C113.25 16.1143 113.013 16.0477 112.798 15.9811C112.583 15.9145 112.368 15.8479 112.153 15.7592C111.981 15.737 111.852 15.6704 111.702 15.6038ZM112.347 16.1143C112.325 16.0921 112.325 16.1143 112.347 16.1143L112.325 16.0921C112.325 16.0699 112.347 16.0699 112.347 16.0699C112.54 16.1365 113.078 16.3362 113.873 16.4916C113.916 16.5138 114.046 16.6248 114.067 16.647C114.067 16.647 114.089 16.6692 114.067 16.6692C114.046 16.6692 114.046 16.6692 114.024 16.647C113.379 16.5138 112.82 16.3362 112.347 16.1143ZM113.271 16.7358C113.271 16.7136 113.271 16.7136 113.271 16.7358L113.25 16.7136L113.271 16.6914C113.658 16.8023 114.046 16.8911 114.433 16.9799C114.476 17.0021 114.54 17.0465 114.562 17.0687C114.583 17.0687 114.583 17.0909 114.583 17.1131C114.54 17.1131 114.519 17.0909 114.497 17.0909C114.089 16.9799 113.68 16.8689 113.271 16.7358ZM114.11 17.2684C114.089 17.2684 114.089 17.2462 114.089 17.2462L114.11 17.224C114.347 17.2906 114.691 17.3572 115.099 17.4238C115.121 17.4238 115.142 17.446 115.164 17.446C115.207 17.4682 115.314 17.5348 115.314 17.557C114.927 17.4904 114.519 17.4016 114.11 17.2684ZM115.83 17.9787C115.701 17.9565 115.551 17.9343 115.357 17.9121C115.336 17.9121 115.336 17.8899 115.336 17.8899C115.336 17.8677 115.336 17.8677 115.357 17.8677C115.508 17.8899 115.658 17.8899 115.809 17.9121C115.809 17.9121 115.852 17.9121 115.895 17.9343C115.938 17.9565 116.024 18.0009 116.024 18.0231C115.959 18.0009 115.895 18.0009 115.83 17.9787ZM116.045 17.6458C115.766 17.6236 115.529 17.5348 115.508 17.5126C115.486 17.4904 115.486 17.4904 115.486 17.4904C115.701 17.5126 115.895 17.5348 116.11 17.5348C116.11 17.5348 116.131 17.557 116.153 17.557C116.217 17.5792 116.282 17.6458 116.045 17.6458ZM116.54 18.0231C116.497 18.0231 116.389 18.0009 116.346 17.9787L116.325 17.9565C116.282 17.9343 116.303 17.9121 116.303 17.9121H116.54C116.54 17.9121 116.583 17.9565 116.583 17.9787C116.561 18.0009 116.561 18.0009 116.54 18.0231ZM116.604 18.2894C116.561 18.2672 116.583 18.2672 116.583 18.2672H116.69C116.69 18.2672 116.712 18.2894 116.712 18.3116C116.712 18.3116 116.712 18.3116 116.69 18.3338C116.712 18.3116 116.647 18.3116 116.604 18.2894ZM116.712 21.2414L117.228 20.8418C117.271 20.7975 117.292 20.7975 117.292 20.7975H117.615C117.615 20.7975 117.142 21.086 116.991 21.1526C116.862 21.2192 116.733 21.2635 116.712 21.2414ZM119.249 20.5755C119.249 20.5311 119.163 20.3757 118.84 20.3092C118.84 20.3092 118.819 20.287 118.862 20.287C118.905 20.2648 119.141 20.2204 119.485 20.3314H119.507C119.507 20.3092 119.442 20.176 119.292 20.1316C119.292 20.1316 119.27 20.1094 119.292 20.1094C119.313 20.1094 119.894 20.0206 119.894 20.8862C119.894 20.8862 119.872 20.9084 119.851 20.8862C119.829 20.864 119.7 20.6865 119.636 20.5977C119.55 20.5089 119.55 20.5977 119.55 20.7309C119.55 20.864 119.485 21.3301 119.442 21.2635C119.399 21.1748 119.356 20.9972 119.292 21.086C119.227 21.1748 119.163 21.3745 118.862 21.5521C118.862 21.5521 118.84 21.5743 118.84 21.5299C118.84 21.4855 118.883 21.2414 118.883 21.2414V21.197C118.883 21.197 118.582 21.4633 118.238 21.6187C118.238 21.6187 118.195 21.6409 118.195 21.5965C118.217 21.5521 118.324 21.2635 118.324 21.2635C118.324 21.2635 118.045 21.4411 117.529 21.4633C117.529 21.4633 117.507 21.4633 117.507 21.4411C117.507 21.4189 117.486 21.2414 117.4 21.1748C117.4 21.1748 117.679 21.0638 117.937 20.8862C118.066 20.7975 118.195 20.7087 118.281 20.6199C118.496 20.5533 118.797 20.5089 119.227 20.5533C119.227 20.5977 119.27 20.6199 119.249 20.5755ZM120.862 22.2401L120.84 22.2845C120.819 22.2845 120.797 22.2845 120.733 22.2623L120.238 21.5077V21.4855C120.26 21.4855 120.26 21.4855 120.26 21.4855L120.862 22.2401ZM120.453 21.2192C120.475 21.2192 120.475 21.2192 120.453 21.2192L121.593 22.2623V22.2845C121.593 22.3067 121.571 22.3289 121.55 22.3289C121.528 22.3511 121.485 22.3511 121.442 22.3289L121.399 22.3067L120.905 21.7518L120.561 21.3523L120.453 21.2192C120.453 21.2414 120.453 21.2414 120.453 21.2192ZM120.281 21.9738C120.26 21.9738 120.26 21.9738 120.26 21.9738L120.066 21.5743V21.5521H120.088L120.281 21.9516C120.303 21.9516 120.303 21.9738 120.281 21.9738ZM120.346 20.2648H120.324C120.217 20.1538 120.109 20.0428 119.98 19.9762L119.959 19.954C119.959 19.954 119.98 19.9318 119.98 19.954C119.98 19.954 120.174 20.065 120.346 20.2648C120.346 20.2426 120.346 20.2426 120.346 20.2648ZM120.152 20.4645C120.152 20.4867 120.152 20.5089 120.131 20.5311C120.109 20.5311 120.088 20.5311 120.088 20.5089C119.959 20.176 119.765 20.0428 119.765 20.0428C119.743 20.0206 119.743 19.9984 119.743 19.9762C119.765 19.954 119.786 19.954 119.808 19.954C119.786 19.9762 120.001 20.1094 120.152 20.4645ZM115.529 22.0404C115.615 21.9072 115.895 21.5965 115.895 21.5965C115.895 21.5965 116.282 21.5521 116.497 21.5077C116.712 21.4633 117.142 21.3967 117.142 21.3967V21.4411C117.142 21.4855 117.056 21.4855 117.056 21.4855C116.841 21.5077 116.776 21.6187 116.755 21.7296C116.755 21.8406 116.69 21.9738 116.69 21.9738C116.69 21.9294 116.647 21.774 116.54 21.7296C116.411 21.6853 116.153 21.774 116.024 21.9294C115.916 22.107 116.024 22.3511 116.024 22.3511C115.809 22.2623 115.787 22.107 115.809 22.0626C115.809 21.996 115.873 21.885 115.873 21.8628C115.873 21.8406 115.852 21.8406 115.852 21.8406C115.852 21.8406 115.68 21.996 115.658 22.0626C115.658 22.1292 115.723 22.3289 115.723 22.3289C115.723 22.3289 115.551 22.1957 115.486 22.1292C115.465 22.0848 115.529 22.0404 115.529 22.0404ZM115.658 22.8838C115.637 22.8616 115.637 22.8394 115.615 22.8394L115.508 22.7062C115.508 22.7062 115.508 22.7062 115.486 22.684V22.6396C115.508 22.5953 115.529 22.5731 115.551 22.5509C115.594 22.5953 115.766 22.7062 116.024 22.7506H116.045V22.7284C116.045 22.7284 116.045 22.6618 116.045 22.6396C116.088 22.6396 116.196 22.6618 116.325 22.6618C116.325 22.6618 116.346 22.6618 116.368 22.6396C116.368 22.6396 116.368 22.6174 116.368 22.5953V22.5287C116.325 22.4843 116.217 22.3511 116.217 22.2401C116.217 22.1735 116.282 22.107 116.389 22.0626C116.475 22.0404 116.561 22.0848 116.604 22.1514C116.733 22.3733 116.647 22.4621 116.647 22.4621C116.647 22.4621 116.647 22.4843 116.647 22.5065L116.669 22.5287C116.669 22.5287 116.884 22.4621 116.884 22.2401V22.107C116.884 21.996 116.884 21.9516 116.948 21.8628C116.948 21.8628 117.013 21.8184 117.056 21.885C117.077 21.9072 117.163 22.0404 117.593 21.9738C117.572 22.0182 117.529 22.0848 117.507 22.107C117.507 22.107 117.486 22.1292 117.486 22.1514C117.486 22.1735 117.507 22.1735 117.529 22.1957C117.593 22.1957 118.066 22.2179 118.475 22.0182C118.475 22.0404 118.453 22.107 118.432 22.1514C118.41 22.1735 118.41 22.1735 118.432 22.1957C118.432 22.2179 118.453 22.2179 118.475 22.2179C118.518 22.2179 118.926 22.107 119.335 21.5965C119.335 21.6187 119.378 21.6853 119.421 21.7518C119.442 21.774 119.464 21.7962 119.485 21.774C119.485 21.774 119.507 21.774 119.7 21.5077C119.7 21.5077 119.7 21.5077 119.722 21.5299C119.743 21.5521 119.937 21.9516 120.045 22.1957C120.045 22.1957 120.152 22.3733 120.281 22.3733H120.367C120.432 22.3733 120.453 22.3733 120.496 22.3955L120.561 22.4399C120.604 22.4621 120.647 22.5065 120.711 22.5287C120.26 22.4843 119.808 22.4621 119.335 22.4621C118.066 22.4621 116.798 22.5953 115.658 22.8838ZM125.549 24.1267C125.635 24.1711 125.699 24.2155 125.785 24.2599C126.947 24.9923 127.57 25.8801 127.57 26.8123C127.57 27.9221 126.71 28.943 125.14 29.7199C123.592 30.4745 121.55 30.8962 119.378 30.8962C117.206 30.8962 115.164 30.4745 113.615 29.7199C112.046 28.943 111.186 27.9221 111.186 26.8123C111.186 25.9689 111.68 25.1477 112.626 24.4818C112.906 24.2821 113.25 24.0823 113.615 23.9048C113.658 23.8826 113.701 23.8604 113.723 23.8604C115.25 23.1279 117.249 22.7284 119.356 22.7284C121.528 22.7284 123.571 23.1501 125.119 23.9048C125.269 23.9713 125.398 24.0379 125.549 24.1267ZM120.991 22.5287C121.077 22.5065 121.141 22.4399 121.141 22.4399C121.141 22.4399 121.141 22.4399 121.163 22.4399L121.227 22.4843L121.335 22.5509C121.206 22.5509 121.098 22.5509 120.991 22.5287ZM122.388 22.2845C122.367 22.3067 122.324 22.3511 122.195 22.2623L120.604 21.0416L120.561 20.9972C120.561 20.9972 120.561 20.9972 120.561 20.975H120.582L120.668 21.0194L122.302 22.0848C122.302 22.0848 122.388 22.1514 122.41 22.1957V22.2179C122.41 22.2623 122.41 22.2623 122.388 22.2845ZM122.969 21.9516V21.9738C122.947 22.0182 122.883 22.0404 122.84 22.0404H122.818L122.732 21.996L121.485 21.2635L120.754 20.8196L120.733 20.7975C120.733 20.7975 120.733 20.7975 120.733 20.7753C120.733 20.7753 120.733 20.7753 120.754 20.7753L120.797 20.7975L122.947 21.885V21.9072L122.969 21.9516ZM123.377 21.7074C123.356 21.7518 123.291 21.7962 123.248 21.774H123.227L120.819 20.6199V20.5977L120.84 20.5755L122.904 21.3967L123.42 21.5965C123.399 21.6409 123.377 21.6631 123.377 21.7074ZM123.549 21.2857C123.571 21.2857 123.592 21.3079 123.614 21.3523C123.614 21.3745 123.614 21.3967 123.614 21.4189C123.571 21.4633 123.506 21.4411 123.506 21.4411L121.034 20.4867L120.991 20.4645C120.991 20.4645 120.991 20.4423 121.012 20.4423H121.055L123.549 21.2857ZM121.249 18.9775C120.582 19.4657 119.249 19.6433 118.969 19.6433C118.69 19.6433 118.475 19.9984 118.066 20.287C117.658 20.5977 117.228 20.5089 117.228 20.5089C117.335 20.3536 117.314 20.1316 117.314 20.1316C117.206 20.3314 117.013 20.4867 116.798 20.5533C116.626 20.5977 116.561 20.5977 116.325 20.5977C116.11 20.5977 115.938 20.6865 115.83 20.7087C115.723 20.7309 115.551 20.6865 115.551 20.6865C115.615 20.6421 115.744 20.5977 115.809 20.5977C115.873 20.5977 116.088 20.5311 116.088 20.5311C115.852 20.4645 115.529 20.5977 115.529 20.5977C115.357 20.6643 115.271 20.5977 115.271 20.5977C115.035 20.6643 115.056 20.864 115.056 20.864C115.056 20.864 114.97 20.7309 114.97 20.5089C114.97 20.287 115.465 20.0428 115.465 20.0428C115.723 19.9984 115.852 20.1316 115.852 20.1316C115.916 20.2648 116.024 20.3314 116.11 20.2426C116.196 20.176 116.217 20.065 116.282 20.065C116.346 20.065 116.411 20.065 116.411 20.065L116.497 19.9984C116.497 19.9762 116.475 19.9762 116.475 19.9762C116.475 19.9762 116.346 20.0206 115.981 20.0206C115.615 20.0428 115.486 19.7987 115.486 19.7987C116.153 19.5767 116.819 18.9331 117.529 18.7777C118.238 18.6223 118.991 18.7555 118.991 18.7555C118.797 18.9997 118.733 19.1772 118.733 19.1772C120.367 18.0675 121.378 17.7345 121.378 17.7345C122.066 16.4472 122.818 15.8701 123.42 15.4706C124.001 15.0711 124.732 14.1389 124.775 14.028C124.839 13.8948 124.882 13.8948 124.882 13.8948C124.861 14.3609 124.431 14.8492 124.065 15.2265C123.7 15.5816 123.162 15.9811 123.162 15.9811C123.119 16.0255 123.162 16.0477 123.162 16.0477C123.162 16.0477 123.27 16.0699 123.291 16.0699C123.313 16.0699 123.313 16.1143 123.313 16.1143C123.205 16.2919 122.99 16.4472 122.969 16.4694C122.947 16.5138 122.969 16.5138 122.969 16.5138C122.969 16.5138 123.012 16.5138 123.055 16.536C123.098 16.5582 123.055 16.6026 123.055 16.6026L122.711 16.9355C122.689 16.9577 122.689 16.9799 122.689 16.9799C122.689 16.9799 122.84 16.9577 122.861 16.9577C122.883 16.9577 122.883 17.0021 122.883 17.0021C122.818 17.1797 122.603 17.3794 122.582 17.4016C122.56 17.446 122.56 17.446 122.56 17.446C122.56 17.446 122.711 17.446 122.732 17.446C122.754 17.446 122.732 17.4682 122.732 17.4682C122.453 17.8899 121.894 18.2228 121.894 18.2228C121.894 18.2228 122.066 18.2894 122.066 18.3116C122.087 18.3338 122.066 18.3338 122.066 18.3338C121.7 18.6001 121.12 18.7999 121.12 18.7999C121.12 18.7999 121.249 18.8665 121.249 18.8887C121.27 18.9331 121.249 18.9775 121.249 18.9775ZM121.915 19.4214C121.7 19.4436 121.356 19.4214 121.356 19.4214C121.335 19.4214 121.313 19.3992 121.313 19.377C121.313 19.3548 121.335 19.3326 121.356 19.3326C121.356 19.3326 121.7 19.3326 121.915 19.3326C121.937 19.3326 121.958 19.3548 121.958 19.377C121.958 19.3992 121.937 19.4214 121.915 19.4214ZM123.098 18.7777L123.055 18.7999C122.926 18.8443 122.818 18.8887 122.689 18.9331C122.582 18.9553 122.474 18.9775 122.388 18.9997C122.345 18.9997 122.302 19.0218 122.281 19.0218C122.109 19.044 121.958 19.0662 121.808 19.0884C121.657 19.1106 121.786 19.0218 121.808 18.9997H121.829C121.98 18.9775 122.431 18.9331 123.119 18.7777C123.098 18.7333 123.119 18.7555 123.098 18.7777ZM122.173 18.7111C122.152 18.6889 122.152 18.7111 122.173 18.7111L122.281 18.6001C122.324 18.5557 122.367 18.5557 122.367 18.5557C122.539 18.5336 123.076 18.4226 123.829 18.1784C123.829 18.1784 123.85 18.1784 123.829 18.2006L123.807 18.2228C123.764 18.2672 123.592 18.3338 123.334 18.4226C122.969 18.5336 122.582 18.6223 122.173 18.7111ZM125.054 18.1562C125.054 18.1562 125.033 18.1562 125.033 18.1784C124.968 18.2006 124.409 18.4892 123.463 18.7555C123.528 18.7111 123.592 18.6667 123.657 18.6001C124.044 18.4892 124.495 18.3338 125.011 18.1562C125.033 18.1562 125.054 18.1562 125.054 18.134C125.076 18.1118 125.076 18.134 125.054 18.1562ZM126.259 17.224C126.237 17.2462 126.151 17.2906 125.979 17.3794C125.893 17.4238 125.785 17.4682 125.678 17.5348C125.635 17.557 125.592 17.5792 125.527 17.6014C125.226 17.7345 124.861 17.8899 124.452 18.0453C124.323 18.0897 124.194 18.134 124.065 18.2006C124.087 18.1562 124.13 18.1118 124.151 18.0897C124.28 18.0453 124.388 18.0009 124.517 17.9565C124.968 17.8011 125.441 17.6236 125.957 17.3794C126.065 17.2906 126.173 17.2462 126.259 17.224C126.302 17.1575 126.259 17.2018 126.259 17.224ZM126.861 16.4694C126.861 16.4916 126.861 16.4916 126.861 16.5138C126.839 16.536 126.753 16.5804 126.603 16.6692L126.173 16.9133L126.001 17.0021C125.721 17.1575 125.42 17.2906 125.119 17.4238C124.904 17.5126 124.667 17.6236 124.409 17.7123C124.452 17.6458 124.474 17.5792 124.517 17.5126C124.689 17.446 124.839 17.4016 125.011 17.335C125.463 17.1575 125.936 16.9133 126.538 16.6026C126.603 16.5582 126.818 16.4694 126.861 16.4472C126.839 16.425 126.839 16.4472 126.861 16.4694ZM127.807 15.4262C127.807 15.515 126.882 16.0699 126.065 16.4916L125.484 16.7801C125.183 16.9133 124.904 17.0465 124.624 17.1575C124.667 17.0687 124.689 16.9577 124.71 16.8689C125.764 16.4916 126.775 15.9811 127.742 15.3819C127.742 15.3819 127.785 15.3597 127.807 15.3597C127.807 15.3819 127.807 15.3819 127.807 15.4262ZM128.215 14.4497C128.194 14.5384 126.517 15.7814 124.796 16.536C124.818 16.425 124.818 16.3362 124.839 16.2475C126 15.8036 127.097 15.1821 128.086 14.4275C128.151 14.3831 128.172 14.3609 128.215 14.3831C128.237 14.3831 128.215 14.4275 128.215 14.4497ZM128.581 13.3177C128.516 13.4065 126.732 15.0489 124.839 15.8923C124.839 15.8479 124.839 15.8258 124.839 15.7814C124.839 15.737 124.839 15.6926 124.839 15.6704C126.818 14.827 128.516 13.2511 128.516 13.2289C128.559 13.2067 128.581 13.1845 128.602 13.2067C128.645 13.2511 128.624 13.2733 128.581 13.3177ZM8.83724 26.1465C8.83724 24.9701 8.17068 24.9479 7.67614 24.9479H7.09559V24.1933C8.02017 24.2377 8.98775 24.3043 10.1058 24.3043C11.2239 24.3043 12.213 24.2599 13.1806 24.1933V24.9479H12.8796C12.4065 24.9479 11.7185 24.9923 11.7185 26.1465V29.6089C10.7724 29.8974 8.51471 30.4079 6.75156 30.4079C2.88124 30.4079 0 28.033 0 23.705C0 20.3536 1.99967 17.0021 6.83757 17.0021C8.51471 17.0021 10.2994 17.4238 11.74 17.9121L11.6325 21.5521H10.4714C10.4499 19.4436 9.05225 18.1784 7.1386 18.1784C3.99933 18.1784 3.09626 20.6199 3.09626 23.705C3.09626 26.6791 4.60138 29.3204 7.37511 29.3204C7.91266 29.3204 8.4502 29.2094 8.83724 29.1206V26.1465ZM14.5567 19.1106C14.5567 18.356 14.4492 18.0009 13.2236 17.9787V17.224C14.0837 17.2684 15.0513 17.335 16.0188 17.335C16.9649 17.335 17.954 17.2906 18.9216 17.224V17.9787C17.5885 18.0009 17.481 18.356 17.481 19.1106V25.9911C17.481 28.033 18.6851 28.7877 20.4267 28.7877C22.7704 28.7877 23.5445 27.5226 23.5445 24.9701V19.1106C23.5445 18.356 23.437 18.0009 22.0823 17.9787V17.224C22.6844 17.2684 23.3509 17.335 24.039 17.335C24.5981 17.335 25.2001 17.2906 25.7376 17.224V17.9787C24.7486 18.0009 24.6411 18.356 24.6411 19.1106V25.1033C24.6411 29.3204 22.2114 30.4079 19.7386 30.4079C16.6639 30.4079 14.5567 29.5201 14.5567 25.747V19.1106ZM26.5332 29.4091C27.9738 29.3869 28.0813 29.0318 28.0813 28.2772V19.1106C28.0813 18.356 27.9738 18.0009 26.6192 17.9787V17.224C27.5868 17.2684 28.5759 17.335 29.522 17.335C30.468 17.335 31.4571 17.2906 32.7257 17.224V17.9787C31.0916 18.0009 30.9626 18.356 30.9626 19.1106V28.4548C30.9626 28.9874 30.9841 29.1872 31.9517 29.1872C33.9728 29.1872 35.736 28.7877 36.1875 26.3684H37.0046C36.7251 27.6113 36.467 28.8765 36.295 30.1416C34.8974 30.0972 33.3278 30.0306 31.5646 30.0306C29.694 30.0306 27.9953 30.075 26.5117 30.1416V29.4091H26.5332ZM37.3486 29.4091C38.7892 29.3869 38.8967 29.0318 38.8967 28.2772V19.1106C38.8967 18.356 38.7892 18.0009 37.4561 17.9787V17.224C38.9827 17.2684 40.5309 17.335 42.079 17.335C43.6486 17.335 45.1968 17.2906 46.7664 17.224C46.7664 18.2894 46.8309 19.6655 46.8954 20.4867H46.0568C45.9493 18.2672 44.7882 18.2006 43.0466 18.2006C42.294 18.2006 41.7995 18.2006 41.7995 18.7555V23.2833H43.2401C44.5732 23.2833 45.0463 23.1057 45.0463 21.6187H45.7558C45.6913 22.3733 45.6483 23.1279 45.6483 23.8826C45.6483 24.7482 45.6913 25.5916 45.7558 26.1687H45.0463V25.636C45.0248 24.3709 44.4872 24.1489 43.3691 24.1489H41.7995V28.2772C41.7995 29.0318 41.907 29.3869 43.6271 29.4091V30.1638C42.5305 30.1194 41.3479 30.0528 40.4019 30.0528C39.4773 30.0528 38.4022 30.0972 37.3486 30.1638V29.4091ZM54.8081 18.5336C54.4855 18.0897 53.948 17.9787 53.5825 17.9787H53.389V17.224C54.0985 17.2684 54.8296 17.335 55.5176 17.335C56.2272 17.335 56.9582 17.2906 57.6893 17.224L63.8603 25.4362H63.9033V19.0884C63.9033 18.3338 63.7958 17.9787 62.3122 17.9565V17.2018C63.0863 17.2462 63.8603 17.3128 64.4624 17.3128C65.0644 17.3128 65.8385 17.2684 66.2685 17.2018V17.9565C65.1289 17.9787 65.0214 18.3338 65.0214 19.0884V30.1416H63.6453L55.9477 19.7987H55.9047V28.2772C55.9047 29.0318 56.0122 29.3869 57.5173 29.4091V30.1638C56.7432 30.1194 55.9692 30.0528 55.3671 30.0528C54.7651 30.0528 53.991 30.0972 53.2169 30.1638V29.4091C54.7006 29.3869 54.8296 29.0318 54.8296 28.2772L54.8081 18.5336ZM66.9781 29.4091C68.4617 29.3869 68.5907 29.0318 68.5907 28.2772V19.1106C68.5907 18.356 68.4832 18.0009 67.1286 17.9787V17.224C68.6552 17.2684 70.2034 17.335 71.7515 17.335C73.3211 17.335 74.8692 17.2906 76.4389 17.224C76.4389 18.2894 76.5034 19.6655 76.5679 20.5311H75.7293C75.6218 18.2672 74.4607 18.2006 72.7191 18.2006H72.031C71.601 18.2006 71.472 18.356 71.472 18.7333V23.0613H72.8051C74.1382 23.0613 74.6112 22.7062 74.6112 21.3301H75.3208C75.2563 22.0404 75.2133 22.7728 75.2133 23.4831C75.2133 24.3487 75.2563 25.1921 75.3208 25.747H74.6112C74.6112 24.2599 74.1382 23.9048 72.8051 23.9048H71.472V28.366C71.472 28.8765 71.7085 29.054 72.1815 29.054H72.9126C74.8477 29.054 76.2669 28.7655 76.6754 26.5904H77.471C77.1699 27.7667 76.9979 28.943 76.8259 30.1194C75.2133 30.075 73.6006 30.0084 71.988 30.0084C70.3109 30.0084 68.6337 30.0528 66.9566 30.1194L66.9781 29.4091ZM77.1699 17.224C78.03 17.2684 78.8686 17.335 79.7286 17.335C80.5457 17.335 81.3413 17.2906 82.1583 17.224V17.9787H81.8143C81.3628 18.0453 81.3413 18.2672 81.3413 18.4892C81.3413 18.6889 81.4273 19.0884 81.5348 19.5101L83.556 26.8567H83.599L85.4266 20.7531L84.9966 18.9775C84.7816 18.0897 84.6525 17.9787 83.9215 17.9787H83.5345V17.224C84.3945 17.2684 85.2976 17.335 86.1577 17.335C87.1038 17.335 88.0713 17.2906 89.0389 17.224V17.9787H88.7379C88.1573 17.9787 87.8348 18.134 87.8348 18.467C87.8348 18.7555 87.9208 19.0884 88.0498 19.7543L89.6195 27.1452H89.6625L92.0062 19.5767C92.1352 19.1328 92.2427 18.7999 92.2427 18.4448C92.2427 18.0453 91.8772 17.9565 91.3181 17.9565H90.9096V17.2018C91.5761 17.2462 92.3717 17.3128 92.8877 17.3128C93.4468 17.3128 94.0058 17.2684 94.5649 17.2018V17.9565C93.7908 17.9565 93.4253 18.5557 93.1458 19.4436L89.7055 30.2526H87.8348L85.9427 22.8172H85.8997L83.556 30.2526H81.6853L78.503 19.377C78.1375 18.1562 78.0515 18.0009 77.1269 18.0009L77.1699 17.224ZM102.413 21.0416H101.402C101.359 19.2216 100.843 18.0675 98.8437 18.0675C97.8762 18.0675 96.9301 18.4892 96.9301 19.7765C96.9301 22.3733 103.23 21.4189 103.23 26.1243C103.23 29.1428 101.037 30.3857 98.4782 30.3857C97.1666 30.3857 95.511 29.964 94.3714 29.2538C94.4359 28.2106 94.4574 26.7013 94.4574 25.6582H95.6615C95.6615 27.6113 96.414 29.2094 98.3707 29.2094C99.5963 29.2094 100.714 28.6989 100.714 27.5004C100.714 24.4596 94.5219 25.414 94.5219 20.8196C94.5219 18.3782 96.2635 16.9799 98.8867 16.9799C100.112 16.9799 101.359 17.2462 102.564 17.4904L102.413 21.0416Z" fill="#858589"/>
</svg>
