<svg width="130" height="44" viewBox="0 0 130 44" fill="none" xmlns="http://www.w3.org/2000/svg">
<path d="M44.6476 13.6177C44.6476 12.9678 44.5392 12.123 43.846 11.5164L43.8894 11.4514C44.6692 11.6681 45.2758 12.3829 45.4491 12.9462C45.9907 11.0832 48.0703 10.4116 49.7167 10.6282V10.7149C48.5036 10.9532 47.6154 11.798 47.6154 13.8777V24.9475C47.6154 24.9475 48.1353 25.4241 48.287 25.5324C48.6119 25.8357 48.8069 25.9873 49.1318 25.9873C49.4134 25.9873 49.6517 25.8357 49.7817 25.749C49.825 25.7057 49.89 25.6624 49.89 25.6624L49.9983 25.814L47.0738 28.1753L44.6476 25.879V13.6177Z" fill="#858589"/>
<path d="M34.2493 25.814L34.141 25.6624C33.9893 25.7707 33.7294 25.9873 33.3828 25.9873C32.9928 25.9873 32.7545 25.814 32.4946 25.5974C32.0397 25.2291 31.7147 24.9475 31.7147 24.9475V17.9503L29.8734 15.6107L26.3856 17.972V13.986C26.3856 11.9497 27.1655 11.0182 28.4869 10.7582V10.6499C26.0823 10.3899 24.5659 11.6897 24.2193 12.9678C23.8944 12.0147 23.0712 11.5381 22.6596 11.4731L22.6162 11.5381C23.0062 11.9063 23.4178 12.4696 23.4178 13.6177V25.9223L25.844 28.2403L28.0103 26.3339L26.3639 24.9042V18.297L27.5337 17.4954L28.7252 19.1851V25.9223L31.3248 28.2403L34.2493 25.814Z" fill="#858589"/>
<path d="M70.7732 12.9895L68.7152 15.0042L66.6572 12.9895L68.7152 10.9748L70.7732 12.9895ZM61.5447 28.9985C61.1115 28.3919 60.31 27.6121 58.6202 27.6121C57.1688 27.6121 55.9557 28.6736 55.9557 30.0383C55.9557 31.8147 57.5371 33.2445 60.6566 33.2445C66.029 33.2445 67.5021 29.2801 70.5999 29.2801V17.972L68.7152 15.5891L66.3756 17.5387L67.6537 19.1635V28.262C67.6537 31.0132 64.4043 32.4213 62.4113 32.4213C60.2883 32.4213 58.7069 31.2948 58.7069 29.93C58.7069 29.0635 59.4218 28.5436 60.1583 28.5436C60.8299 28.5436 61.1981 28.8252 61.4364 29.0635L61.5447 28.9985Z" fill="#858589"/>
<path d="M14.7092 25.8357L15.944 24.7309C15.9007 24.6009 15.7274 24.1027 15.5324 23.4744C15.1208 21.9797 14.4709 19.705 14.4709 19.705L13.4961 18.8169V19.835C13.4961 22.0013 11.9363 23.1061 9.81336 23.9943C12.7812 24.1676 14.4059 25.5541 14.7092 25.8357ZM14.1893 10.26C13.7127 11.0398 13.4961 12.1013 13.4961 13.4661V17.0405L18.1536 10.195C18.7169 10.5416 19.3018 10.9532 20.3849 10.9532C21.6631 10.9532 22.2046 10.5849 22.6379 10.3249L22.7029 10.3466C22.4429 11.1698 21.1648 13.2495 19.1068 13.2495C18.0237 13.2495 17.2005 12.7729 16.8322 12.5562L14.6009 15.849L17.1355 17.8637C17.1355 17.8637 18.2186 21.4814 18.6519 22.8895C19.1285 24.4493 19.5834 24.6442 20.4933 25.0558C20.8615 25.2291 21.2298 25.3808 21.7497 25.6191C22.3129 25.8574 22.4863 25.8574 22.7679 25.8574C23.1145 25.8574 23.3528 25.6841 23.3961 25.6624L23.5044 25.7924L20.9698 28.2186C20.9698 28.2186 19.3884 27.5037 18.262 27.0055C17.3088 26.5722 16.5722 26.0523 16.0523 24.9908C14.9475 25.9223 13.5827 27.1788 12.4779 28.197C11.6114 27.6337 10.03 26.7455 7.43043 26.7455C3.63939 26.7455 0.28162 28.5436 0.28162 30.6449C0.28162 31.988 1.27812 32.7029 2.46959 32.7029L2.44793 32.8979C0.844859 32.8979 0 31.8147 0 30.5582C0 26.9838 4.5709 24.2976 8.57857 24.0377C8.99017 23.4961 9.57507 22.8245 9.57507 20.9615C9.57507 20.9615 9.57507 15.9357 9.57507 15.719C9.57507 14.8742 9.85669 14.5276 9.96501 14.3759C9.92168 14.5059 9.81336 14.8525 9.81336 15.784C9.81336 17.6254 9.81336 21.1781 9.81336 21.1781C9.81336 22.8462 9.22846 23.4961 8.81686 24.0377C8.96851 24.0377 9.09848 24.016 9.25012 24.016C9.33678 24.016 9.42343 24.016 9.48842 24.016C10.3766 23.0195 10.4633 21.9147 10.4633 20.8749C10.4633 20.8749 10.4633 17.1271 10.4633 15.6107C10.4849 13.856 11.0482 13.1845 12.153 12.123C12.4129 11.863 12.6946 11.6031 12.8895 11.4081L12.8462 11.3648C11.5031 12.3613 10.3983 13.1628 8.66522 13.1628C7.27879 13.1628 6.08732 12.5562 4.78754 12.5562C3.79103 12.5562 3.29278 13.0112 3.09782 13.1411L3.05449 13.1195C3.61773 12.188 5.13414 10 7.3871 10C9.07682 10 9.85669 10.7149 11.5247 10.7149C12.4996 10.7149 13.3444 10.5849 14.081 10.2166L14.1893 10.26Z" fill="#858589"/>
<path d="M52.8362 22.9545L55.4358 21.3081L52.8362 17.907V22.9545ZM49.8684 18.8169L54.8075 15.5674L58.122 19.9L52.8362 23.2145V24.5792C52.8362 24.5792 54.9808 25.6191 55.739 25.9873C56.0857 26.1606 56.4323 26.3123 56.9089 26.3123C57.4288 26.3123 57.927 26.1173 58.187 26.009C58.4469 25.879 58.6852 25.7707 58.6852 25.7707V26.0523L54.3526 28.2403L49.8684 25.944V18.8169Z" fill="#858589"/>
<path d="M115.616 22.9545L118.215 21.3081L115.616 17.907V22.9545ZM112.626 18.8169L117.587 15.5674L120.902 19.9L115.616 23.2145V24.5792C115.616 24.5792 117.76 25.6191 118.519 25.9873C118.865 26.1606 119.212 26.3123 119.688 26.3123C120.208 26.3123 120.707 26.1173 120.967 26.009C121.053 25.9657 121.378 25.814 121.378 25.814L121.465 26.0307L117.132 28.2186L112.648 25.9223V18.8169H112.626Z" fill="#858589"/>
<path d="M61.6531 22.9545L64.2526 21.3081L61.6531 17.907V22.9545ZM58.6636 18.8169L63.6244 15.5674L66.9388 19.9L61.6531 23.2145V24.5792C61.6531 24.5792 63.7977 25.6191 64.5559 25.9873C64.9025 26.1606 65.3141 26.2473 65.7257 26.2473C66.2673 26.2473 66.7439 26.009 66.9822 25.9007C67.2205 25.7707 67.6754 25.5541 67.6754 25.5541V25.814L63.1478 28.2403L58.6636 26.074V18.8169Z" fill="#858589"/>
<path d="M34.1193 18.8169L38.9502 15.5891L42.243 18.6436V24.9042C42.243 24.9042 42.7412 25.2941 43.1961 25.6624C43.5861 25.9873 43.8027 26.0307 43.9543 26.0307C44.236 26.0307 44.4959 25.814 44.6692 25.6624L44.7992 25.8357L41.8964 28.2403L39.3618 25.9873L37.1305 28.2403L34.1193 25.9007V18.8169ZM37.0872 24.7959C37.0872 24.7959 37.997 25.4891 38.1703 25.6407C38.4736 25.879 38.6469 25.9223 38.8202 25.9223C39.0802 25.9223 39.2535 25.749 39.2535 25.749V20.095L37.0655 17.972V24.7959H37.0872Z" fill="#858589"/>
<path d="M104.568 17.972L102.705 15.5891L99.0652 17.972L97.2021 15.5891L94.9275 17.3221L96.119 18.8169V25.9007L98.8919 28.2186L100.82 26.4206L99.0868 24.8825V18.232L100.473 17.3221L101.621 18.7735V25.8574L104.394 28.1753L106.322 26.3773L104.589 24.8392V18.1886L106.041 17.2571L107.21 18.7302V25.814L109.983 28.132L112.735 25.9007L112.648 25.7707C112.648 25.7707 112.605 25.7924 112.561 25.814C112.453 25.9007 112.301 25.9657 112.02 25.9657C111.651 25.9657 111.305 25.814 110.98 25.5107C110.763 25.3158 110.178 24.7959 110.178 24.7959V17.8854L108.315 15.5024L104.568 17.972Z" fill="#858589"/>
<path d="M130 15.6974L126.707 20.1383L129.393 22.0663V25.3158L125.494 28.262C125.256 28.0887 124.346 27.4604 122.938 27.4604C121.768 27.4604 121.053 28.002 120.642 28.262L120.512 28.1536L123.978 23.4744L121.508 22.1096V18.4919L125.342 15.5674C125.689 15.8057 126.382 16.3039 127.704 16.3039C128.874 16.3039 129.567 15.784 129.848 15.5674L130 15.6974ZM128.982 16.6506L128.917 16.6072C128.657 16.9105 127.53 18.0803 126.122 18.0803C125.169 18.0803 124.649 17.7337 124.433 17.6037V20.3116L125.732 21.0482L128.982 16.6506ZM126.426 23.7994L124.823 22.6946L121.465 27.2005L121.53 27.2655C122.006 26.7889 123.068 25.749 124.541 25.749C125.602 25.749 126.209 26.1173 126.426 26.2256V23.7994Z" fill="#858589"/>
<path d="M89.6201 17.3005L91.9163 15.5674L93.7794 17.9503V24.8609C93.7794 24.8609 94.1693 25.2075 94.4509 25.4674C94.7975 25.7707 95.1225 25.879 95.4258 25.879C95.7724 25.879 96.0323 25.7274 96.119 25.6624C96.1406 25.6841 96.2056 25.7707 96.2056 25.7707L93.5627 28.1753C93.1728 27.8287 90.8115 25.879 90.8115 25.879V18.7952L89.6201 17.3005ZM91.8947 10.9748L89.8367 12.9895L91.8947 15.0042L93.9527 12.9895L91.8947 10.9748Z" fill="#858589"/>
<path d="M83.771 25.6191C84.6159 25.6191 85.2225 25.4674 85.4608 25.4024V13.8777C85.0275 13.856 84.4859 13.791 84.226 13.7694V20.03C84.226 23.0628 81.0632 24.1026 80.175 24.5576C81.1498 25.1858 82.4063 25.6191 83.771 25.6191ZM80.045 24.4493C80.6299 23.9077 81.1498 22.9545 81.1498 21.4381V13.0978C80.9765 13.0545 80.6299 12.9678 80.4783 12.9245V21.4598C80.4783 23.1062 79.915 23.756 79.6334 24.146C79.7417 24.2326 79.9367 24.3626 80.045 24.4493ZM90.5949 10.3249C90.5516 10.7149 90.0533 13.8994 86.3706 13.8994C86.154 13.8994 85.8724 13.8994 85.6991 13.8777V25.3374C87.6271 24.7525 89.2085 23.1928 89.9017 21.0048L89.9883 21.0265C89.7284 25.0342 86.4356 28.2186 82.4713 28.2186C78.182 28.2186 74.9975 24.9475 74.9975 20.4849C74.9975 17.5604 76.5139 14.8959 78.8535 13.5961L78.9185 13.6611C77.792 14.9608 77.1855 16.4773 77.1855 18.4269C77.1855 20.8532 78.1386 22.8029 79.5251 24.0593C79.8284 23.6261 80.2833 22.9112 80.2833 21.3731V12.9028C80.1533 12.8812 79.6334 12.7512 79.0918 12.7512C77.5537 12.7512 76.254 13.1628 75.1058 14.4843L75.0408 14.4409C75.4091 11.863 77.2721 10.0217 80.6732 10.0217C83.7277 10.0217 85.3091 11.1481 87.692 11.1481C89.2735 11.1481 90.2266 10.5416 90.5516 10.3033L90.5949 10.3249Z" fill="#858589"/>
</svg>
