<svg width="1529" height="659" viewBox="0 0 1529 659" fill="none" xmlns="http://www.w3.org/2000/svg">
<g clip-path="url(#clip0_12373_6468)">
<path d="M287.454 0.03125V153.532H279.867V129.867C273.775 144.712 258.493 155.791 240.753 155.791C215.425 155.791 195.334 134.708 195.334 108.784C195.334 82.8594 215.425 61.7759 240.753 61.7759C258.493 61.7759 273.882 72.8555 279.867 87.7001V0.03125H287.454ZM241.715 148.799C263.302 148.799 280.294 131.266 280.294 108.784C280.294 86.3017 263.302 68.7679 241.715 68.7679C220.127 68.7679 202.922 86.3017 202.922 108.784C202.922 131.266 219.807 148.799 241.715 148.799Z" fill="white"/>
<path d="M312.248 29.1826C312.248 26.1707 314.92 23.4814 317.912 23.4814C321.118 23.4814 323.576 26.1707 323.576 29.1826C323.576 32.4097 321.118 34.8838 317.912 34.8838C314.92 34.8838 312.248 32.4097 312.248 29.1826ZM321.759 64.035V153.532H314.172V64.035H321.759Z" fill="white"/>
<path d="M386.522 203.445C363.438 203.445 342.813 187.309 342.813 162.461H350.187C350.935 183.437 367.072 196.345 386.522 196.345C407.896 196.345 424.781 181.285 424.781 158.696V129.975C418.689 144.82 403.407 155.899 385.667 155.899C360.339 155.899 340.248 134.816 340.248 108.891C340.248 82.9673 360.339 61.8838 385.667 61.8838C403.407 61.8838 418.796 72.9634 424.781 87.8079V64.1427H432.368V158.696C432.368 184.835 411.957 203.445 386.629 203.445H386.522ZM386.308 148.8C408.109 148.8 425.101 131.266 425.101 108.784C425.101 86.302 408.109 68.7682 386.308 68.7682C364.507 68.7682 347.729 86.302 347.729 108.784C347.729 131.266 364.614 148.8 386.308 148.8Z" fill="white"/>
<path d="M457.16 29.1826C457.16 26.1707 459.832 23.4814 462.824 23.4814C466.03 23.4814 468.488 26.1707 468.488 29.1826C468.488 32.4097 466.03 34.8838 462.824 34.8838C459.832 34.8838 457.16 32.4097 457.16 29.1826ZM466.671 64.035V153.532H459.084V64.035H466.671Z" fill="white"/>
<path d="M483.451 64.0345H497.237V31.6562H504.825V64.0345H523.954V70.7038H504.825V153.532H497.237V70.7038H483.451V64.0345Z" fill="white"/>
<path d="M620.134 64.0353V153.533H612.546V129.868C606.455 144.712 591.173 155.792 573.433 155.792C548.105 155.792 528.014 134.708 528.014 108.784C528.014 82.8599 548.105 61.7764 573.433 61.7764C591.173 61.7764 606.562 72.856 612.546 87.7005V64.0353H620.134ZM574.181 148.8C595.982 148.8 612.974 131.266 612.974 108.784C612.974 86.3021 595.982 68.7684 574.181 68.7684C552.38 68.7684 535.601 86.3021 535.601 108.784C535.601 131.266 552.486 148.8 574.181 148.8Z" fill="white"/>
<path d="M654.439 0.03125V153.532H646.852V0.03125H654.439Z" fill="white"/>
<path d="M385.666 545.837H323.469V246.257H385.666V265.727C389.941 260.994 393.681 257.336 396.994 254.54C409.391 244.321 424.887 239.157 443.054 239.157C458.123 239.157 473.832 243.675 489.755 252.388L495.526 255.615L465.924 312.519L459.726 308.324C450.855 302.408 442.627 299.396 435.039 299.396C423.925 299.396 414.093 303.161 405.009 310.906C396.887 317.898 391.33 328.762 388.551 343.284C386.628 354.149 385.666 369.316 385.666 388.356V545.729V545.837ZM336.934 532.283H372.201V388.463C372.201 368.67 373.269 352.643 375.3 340.918C378.72 323.169 385.773 309.723 396.246 300.687C407.681 290.898 420.719 285.95 435.039 285.95C443.268 285.95 451.924 288.424 460.794 293.264L477.359 261.316C465.603 255.615 454.062 252.711 443.054 252.711C427.879 252.711 415.589 256.691 405.543 264.974C400.414 269.384 393.147 277.129 384.063 288.209L372.094 302.838V259.81H336.827V532.283H336.934Z" fill="white"/>
<path d="M330.095 253.034H378.827V283.906C388.125 272.504 395.605 264.436 401.162 259.703C412.277 250.56 426.17 245.935 442.948 245.935C456.948 245.935 471.482 250.13 486.336 258.413L463.253 302.731C453.207 296.062 443.803 292.62 434.826 292.62C422.109 292.62 410.674 297.03 400.414 305.743C391.117 313.811 384.812 325.858 381.712 341.994C379.682 353.396 378.72 368.886 378.72 388.356V538.953H329.988V253.034H330.095Z" fill="white"/>
<path d="M716.957 234.531L801.81 426.757L886.343 234.531H940.738L801.489 539.059L662.24 234.531H716.957Z" fill="white"/>
<path d="M801.489 555.303L651.66 227.755H721.338L801.81 410.084L881.961 227.755H951.318L801.489 555.303ZM672.82 241.309L801.489 522.817L930.158 241.309H890.617L801.703 443.538L712.468 241.309H672.606H672.82Z" fill="white"/>
<path d="M444.123 539.06L582.624 234.209L722.621 538.414H668.225L583.265 346.511L498.946 538.952H444.23L444.123 539.06Z" fill="white"/>
<path d="M433.542 545.836L582.517 217.966L733.094 545.191L663.736 545.406L583.158 363.292L503.114 545.729L433.436 545.944L433.542 545.836ZM582.623 250.452L454.595 532.283H494.457L583.158 329.73L672.499 531.745H712.041L582.623 250.452Z" fill="white"/>
<path d="M1044.51 232.703H992.25V539.06H1044.51V232.703Z" fill="white"/>
<path d="M1051.24 545.837H985.518V225.927H1051.24V545.837ZM998.983 532.283H1037.67V239.48H998.983V532.283Z" fill="white"/>
<path d="M1202.46 281.324V539.06H1150.2V281.324H1118.35V232.703H1150.2V122.875H1202.46V232.703H1256.11V281.324H1202.46Z" fill="white"/>
<path d="M1209.19 545.837H1143.47V288.102H1111.62V225.927H1143.47V116.099H1209.19V225.927H1262.84V288.102H1209.19V545.837ZM1156.93 532.283H1195.62V274.548H1249.27V239.48H1195.62V129.652H1156.93V239.48H1125.09V274.548H1156.93V532.283Z" fill="white"/>
<path d="M1394.07 412.129L1305.91 237.329H1344.06L1411.71 375.555L1473.69 237.329H1510.88L1369.28 539.168H1332.09L1394.07 412.021V412.129Z" fill="white"/>
<path d="M1372.27 544.008H1324.4L1388.73 412.129L1298.11 232.596H1346.94L1411.49 364.368L1470.59 232.596H1518.36L1372.27 544.008ZM1339.68 534.435H1366.29L1503.4 242.169H1476.79L1411.92 386.85L1341.17 242.169H1313.71L1399.42 412.129L1339.68 534.435Z" fill="white"/>
<path d="M1373.45 545.945H1321.4L1386.7 412.237L1295.11 230.768H1348.23L1411.49 359.958L1469.42 230.768H1521.35L1373.45 545.945ZM1342.67 532.606H1365.01L1500.3 244.106H1477.86L1411.81 391.261L1339.78 244.106H1316.59L1401.34 412.129L1342.56 532.606H1342.67Z" fill="white"/>
<path d="M1376.44 550.678H1313.71L1381.25 412.236L1287.31 225.927H1351.11L1411.17 348.771L1466.32 225.927H1528.83L1376.44 550.678ZM1328.99 541.104H1370.46L1513.87 235.393H1472.41L1411.6 371.037L1345.24 235.393H1302.81L1391.94 412.021L1328.99 540.997V541.104ZM1368 537.232H1335.08L1396.21 412.021L1309.01 239.158H1342.88L1411.81 379.966L1474.97 239.158H1508L1368.21 537.232H1368ZM1350.26 527.658H1361.91L1492.71 248.731H1480.85L1411.92 402.34L1336.79 248.731H1324.29L1406.58 411.914L1350.15 527.658H1350.26Z" fill="white"/>
<path d="M1068.55 111.581L1080.31 108.031L1109.8 102.868L1090.57 116.207L1072.51 125.35" fill="white"/>
<path d="M928.13 159.127L927.916 160.633L929.733 162.999L961.366 159.449L960.19 154.286L955.595 148.692L944.16 152.565" fill="white"/>
<mask id="mask0_12373_6468" style="mask-type:luminance" maskUnits="userSpaceOnUse" x="951" y="67" width="124" height="126">
<path d="M1003.47 68.7683C1020.14 65.9715 1035.32 69.5213 1048.89 79.3101C1062.89 89.4216 1071.33 102.975 1074 119.756C1076.78 136.967 1073.15 152.457 1063 166.226C1053.27 180.317 1039.91 188.708 1022.81 191.505C1005.72 194.301 990.968 190.536 977.289 180.317C963.289 170.206 954.847 156.545 952.068 139.226C949.397 122.768 953.137 107.493 963.183 93.4016C973.335 79.6328 986.8 71.4575 1003.47 68.6607V68.7683Z" fill="white"/>
</mask>
<g mask="url(#mask0_12373_6468)">
<path d="M964.572 66.0791L949.396 68.0153V66.0791H964.572Z" fill="#DC0DCE"/>
<path d="M992.785 66.0791L949.396 71.5651V68.0153L964.572 66.0791H992.785Z" fill="#DB0DCE"/>
<path d="M1021.1 66.0791L949.396 75.1149V71.5651L992.785 66.0791H1021.1Z" fill="#DA0DCE"/>
<path d="M1049.32 66.0791L949.396 78.6647V75.1149L1021.1 66.0791H1049.32Z" fill="#D90DCE"/>
<path d="M1071.87 66.0791L1071.97 66.7245L949.396 82.2145V78.6647L1049.32 66.0791H1071.87Z" fill="#D80DCE"/>
<path d="M1071.97 66.7246L1072.4 70.2744L949.396 85.7643V82.2146L1071.97 66.7246Z" fill="#D70DCE"/>
<path d="M1072.4 70.2744L1072.83 73.8242L949.396 89.3141V85.7644L1072.4 70.2744Z" fill="#D60DCE"/>
<path d="M1072.83 73.8242L1073.26 77.2664L949.396 92.9715V89.3142L1072.83 73.8242Z" fill="#D50DCE"/>
<path d="M1073.26 77.2666L1073.68 80.8164L949.396 96.5215V92.9717L1073.26 77.2666Z" fill="#D40DCE"/>
<path d="M1073.68 80.8164L1074.22 84.3662L949.396 100.071V96.5215L1073.68 80.8164Z" fill="#D30DCE"/>
<path d="M1074.22 84.3662L1074.65 87.8084L949.396 103.621V100.071L1074.22 84.3662Z" fill="#D20DCE"/>
<path d="M1074.65 87.8076L1075.07 91.3574L949.396 107.17V103.62L1074.65 87.8076Z" fill="#D10DCE"/>
<path d="M1075.07 91.3574L1075.5 94.7996L949.396 110.72V107.17L1075.07 91.3574Z" fill="#D00DCE"/>
<path d="M1075.5 94.7998L1075.93 98.3496L949.396 114.27V110.72L1075.5 94.7998Z" fill="#CF0DCE"/>
<path d="M1075.93 98.3496L1076.36 101.899L949.396 117.927V114.27L1075.93 98.3496Z" fill="#CE0DCE"/>
<path d="M1076.36 101.899L1076.78 105.342L949.396 121.477V117.927L1076.36 101.899Z" fill="#CD0DCE"/>
<path d="M1076.78 105.342L1076.89 105.88V108.892L949.396 125.027V121.477L1076.78 105.342Z" fill="#CC0DCE"/>
<path d="M1076.89 112.441L949.396 128.577V125.027L1076.89 108.892V112.441Z" fill="#CB0DCE"/>
<path d="M1076.89 116.099L949.396 132.127V128.577L1076.89 112.441V116.099Z" fill="#CA0DCE"/>
<path d="M1076.89 119.648L949.396 135.676V132.126L1076.89 116.099V119.648Z" fill="#C90DCE"/>
<path d="M1076.89 123.198L949.396 139.226V135.676L1076.89 119.648V123.198Z" fill="#C80DCE"/>
<path d="M1076.89 126.748L949.396 142.883V139.226L1076.89 123.198V126.748Z" fill="#C70DCE"/>
<path d="M1076.89 130.298L949.396 146.433V142.883L1076.89 126.748V130.298Z" fill="#C60DCE"/>
<path d="M1076.89 133.848L949.396 149.983V146.433L1076.89 130.298V133.848Z" fill="#C50DCE"/>
<path d="M1076.89 137.397L949.396 153.533V149.983L1076.89 133.848V137.397Z" fill="#C40DCE"/>
<path d="M1076.89 141.055L949.717 157.083L949.396 154.178V153.533L1076.89 137.397V141.055Z" fill="#C30DCE"/>
<path d="M1076.89 144.604L950.253 160.525L949.719 157.082L1076.89 141.055V144.604Z" fill="#C20DCE"/>
<path d="M1076.89 148.154L950.679 164.074L950.252 160.525L1076.89 144.604V148.154Z" fill="#C10DCE"/>
<path d="M1076.89 151.704L951.107 167.517L950.68 164.075L1076.89 148.154V151.704Z" fill="#C00DCE"/>
<path d="M1076.89 155.254L951.533 171.067L951.105 167.517L1076.89 151.704V155.254Z" fill="#BF0DCE"/>
<path d="M1076.89 158.804L951.961 174.616L951.533 171.067L1076.89 155.254V158.804Z" fill="#BE0DCE"/>
<path d="M1076.89 162.353L952.388 178.059L951.961 174.616L1076.89 158.804V162.353Z" fill="#BD0DCE"/>
<path d="M1076.89 165.903L952.816 181.608L952.389 178.059L1076.89 162.354V165.903Z" fill="#BC0DCE"/>
<path d="M1076.89 169.561L953.244 185.158L952.816 181.608L1076.89 165.903V169.561Z" fill="#BB0DCE"/>
<path d="M1076.89 173.11L953.672 188.6L953.244 185.158L1076.89 169.561V173.11Z" fill="#BA0DCE"/>
<path d="M1076.89 176.66L954.099 192.15L953.672 188.6L1076.89 173.11V176.66Z" fill="#B90DCE"/>
<path d="M1076.89 180.21L964.784 194.301H954.418L954.098 192.15L1076.89 176.66V180.21Z" fill="#B80DCE"/>
<path d="M1076.89 183.76L992.998 194.302H964.785L1076.89 180.21V183.76Z" fill="#B70DCE"/>
<path d="M1076.89 187.31L1021.32 194.302H992.998L1076.89 183.76V187.31Z" fill="#B60DCE"/>
<path d="M1076.89 190.859L1049.53 194.302H1021.32L1076.89 187.31V190.859Z" fill="#B50DCE"/>
<path d="M1049.53 194.302L1076.89 190.859V194.302H1049.53Z" fill="#B40DCE"/>
</g>
<g opacity="0.23">
<path d="M1047.5 172.68C1030.83 175.476 1028.48 146.433 1014.91 136.214C1000.91 126.102 979.533 137.72 976.755 120.509C974.083 104.05 977.823 88.7757 987.869 74.6841C988.297 74.0387 988.831 73.3933 989.258 72.8555C978.892 77.0507 970.236 84.0427 963.183 93.6163C953.137 107.708 949.397 122.983 952.068 139.441C954.847 156.652 963.289 170.313 977.289 180.532C990.968 190.751 1006.14 194.516 1022.81 191.719C1038.85 189.138 1051.56 181.5 1061.07 169.13C1056.8 170.851 1052.31 172.034 1047.5 172.895V172.68Z" fill="#282828"/>
</g>
<path d="M994.708 163.859C990.86 164.504 987.227 165.042 983.7 165.473C944.159 170.636 915.518 167.732 914.236 167.624C908.251 166.979 905.9 159.556 910.389 155.576C911.244 154.823 919.259 148.154 944.586 141.054C948.327 139.979 952.174 142.238 953.136 146.003C954.098 149.66 951.854 153.317 948.327 154.393C948.327 154.393 948.113 154.393 948.006 154.393C981.67 153.21 1036.39 146.433 1085.22 118.142C1083.84 118.465 1082.45 118.788 1081.06 119.11C1077.53 119.971 1074 117.927 1072.94 114.377C1071.76 110.505 1074 106.417 1077.96 105.557C1093.67 101.792 1112.16 100.608 1113.01 100.501C1119.74 100.071 1123.06 108.676 1117.71 112.871C1077.53 144.282 1030.4 157.943 994.708 163.859Z" fill="white"/>
<path d="M143.502 658.031C72.9694 658.031 9.48975 612.314 7.88672 538.092H71.3664C74.6793 579.398 104.709 602.526 143.502 602.526C187.211 602.526 220.554 573.374 220.554 520.02V474.841C204.203 501.841 169.151 520.558 133.029 520.558C59.1834 520.558 0.726562 458.921 0.726562 380.18C0.726562 301.44 59.1834 239.803 133.029 239.803C169.151 239.803 204.097 258.52 220.554 285.52V246.472H285.103V518.944C285.103 602.633 220.02 658.139 143.502 658.139V658.031ZM144.037 463.224C189.456 463.224 223.867 427.403 223.867 380.073C223.867 332.742 189.456 296.922 144.037 296.922C98.6177 296.922 64.7406 332.742 64.7406 380.073C64.7406 427.403 99.1521 463.224 144.037 463.224Z" fill="white"/>
</g>
<defs>
<clipPath id="clip0_12373_6468">
<rect width="1528" height="658" fill="white" transform="translate(0.833984 0.03125)"/>
</clipPath>
</defs>
</svg>
