<svg width="130" height="44" viewBox="0 0 130 44" fill="none" xmlns="http://www.w3.org/2000/svg">
<path d="M3.31305 21.4619L0.338269 20.9247C0.676539 19.7308 1.24364 18.8453 2.05946 18.2683C2.87529 17.6912 4.08908 17.4027 5.70083 17.4027C7.16335 17.4027 8.2478 17.5718 8.96414 17.92C9.68047 18.2683 10.1779 18.706 10.4764 19.2333C10.7749 19.7606 10.9142 20.7456 10.9142 22.1683L10.8744 25.9888C10.8744 27.0732 10.9241 27.8791 11.0335 28.3964C11.143 28.9138 11.332 29.4709 11.6205 30.0579H8.38709C8.29755 29.8391 8.19806 29.5207 8.06872 29.0929C8.01897 28.8939 7.97918 28.7745 7.94933 28.7049C7.39218 29.2521 6.79523 29.66 6.15849 29.9286C5.52175 30.1972 4.84521 30.3365 4.11893 30.3365C2.84544 30.3365 1.84058 29.9883 1.10435 29.3018C0.368117 28.6153 0 27.7398 0 26.6852C0 25.9888 0.169135 25.362 0.497455 24.8148C0.825775 24.2676 1.30333 23.8497 1.90028 23.5512C2.49722 23.2528 3.37274 23.004 4.50694 22.7852C6.0391 22.4966 7.10366 22.228 7.69065 21.9793V21.6609C7.69065 21.0341 7.53147 20.5864 7.22304 20.3178C6.91462 20.0491 6.32763 19.9198 5.46205 19.9198C4.87506 19.9198 4.42735 20.0392 4.09903 20.268C3.77071 20.4969 3.51203 20.8849 3.31305 21.4619ZM7.69065 24.1183C7.27279 24.2576 6.6062 24.4268 5.70083 24.6158C4.79546 24.8048 4.19852 25.0038 3.91994 25.1829C3.49213 25.4814 3.2832 25.8694 3.2832 26.337C3.2832 26.7946 3.45234 27.1926 3.80056 27.5309C4.14877 27.8691 4.57658 28.0283 5.10389 28.0283C5.69088 28.0283 6.25798 27.8293 6.79523 27.4413C7.1932 27.1429 7.45187 26.7847 7.58121 26.3569C7.67075 26.0783 7.71055 25.5411 7.71055 24.7551V24.1183H7.69065Z" fill="#858589"/>
<path d="M17.2816 30.0679H14.0083V17.6813H17.0528V19.4423C17.5701 18.6065 18.0377 18.0593 18.4556 17.8007C18.8734 17.542 19.341 17.4027 19.8683 17.4027C20.6145 17.4027 21.3309 17.6116 22.0273 18.0195L21.0125 20.8749C20.4653 20.5168 19.9479 20.3377 19.4704 20.3377C19.0127 20.3377 18.6247 20.467 18.3063 20.7157C17.988 20.9645 17.7392 21.4221 17.5502 22.0887C17.3612 22.7553 17.2716 24.1283 17.2716 26.2375V30.0679H17.2816Z" fill="#858589"/>
<path d="M25.8876 21.4619L22.9128 20.9247C23.251 19.7308 23.8181 18.8453 24.634 18.2683C25.4498 17.6912 26.6636 17.4027 28.2753 17.4027C29.7379 17.4027 30.8223 17.5718 31.5386 17.92C32.255 18.2683 32.7524 18.706 33.0509 19.2333C33.3494 19.7606 33.4887 20.7456 33.4887 22.1683L33.4489 25.9888C33.4489 27.0732 33.4986 27.8791 33.6081 28.3964C33.7175 28.9138 33.9065 29.4709 34.195 30.0579H30.9516C30.8621 29.8391 30.7626 29.5207 30.6333 29.0929C30.5835 28.8939 30.5437 28.7745 30.5139 28.7049C29.9567 29.2521 29.3598 29.66 28.723 29.9286C28.0863 30.1972 27.4098 30.3365 26.6835 30.3365C25.41 30.3365 24.4051 29.9883 23.6689 29.3018C22.9327 28.6153 22.5646 27.7398 22.5646 26.6752C22.5646 25.9788 22.7337 25.352 23.062 24.8048C23.3903 24.2576 23.8679 23.8398 24.4648 23.5413C25.0618 23.2428 25.9373 22.9941 27.0715 22.7752C28.6037 22.4867 29.6682 22.2181 30.2552 21.9693V21.6609C30.2552 21.0341 30.096 20.5864 29.7876 20.3178C29.4792 20.0491 28.8922 19.9198 28.0266 19.9198C27.4396 19.9198 26.9919 20.0392 26.6636 20.268C26.3353 20.4969 26.0865 20.8849 25.8876 21.4619ZM30.2652 24.1183C29.8473 24.2576 29.1807 24.4268 28.2753 24.6158C27.37 24.8048 26.773 25.0038 26.4944 25.1829C26.0666 25.4814 25.8577 25.8694 25.8577 26.337C25.8577 26.7946 26.0268 27.1926 26.3751 27.5309C26.7233 27.8691 27.1511 28.0283 27.6784 28.0283C28.2654 28.0283 28.8325 27.8293 29.3697 27.4413C29.7677 27.1429 30.0264 26.7847 30.1557 26.3569C30.2453 26.0783 30.2851 25.5411 30.2851 24.7551V24.1183H30.2652Z" fill="#858589"/>
<path d="M36.5729 12.9753H39.8461V19.1338C40.8609 17.9797 42.0548 17.4126 43.4378 17.4126C44.95 17.4126 46.1937 17.9598 47.1786 19.0542C48.1636 20.1486 48.661 21.7106 48.661 23.7602C48.661 25.8694 48.1536 27.501 47.1488 28.6452C46.1439 29.7893 44.9202 30.3564 43.4776 30.3564C42.7712 30.3564 42.0747 30.1773 41.3882 29.8291C40.7018 29.4809 40.1048 28.9536 39.6074 28.2572V30.0778H36.5729V12.9753ZM39.8262 23.6109C39.8262 24.8944 40.0252 25.8395 40.4331 26.4564C41.0002 27.3319 41.7564 27.7597 42.6916 27.7597C43.4179 27.7597 44.0347 27.4513 44.5421 26.8344C45.0495 26.2176 45.3082 25.2426 45.3082 23.9094C45.3082 22.4966 45.0495 21.4719 44.5421 20.8451C44.0347 20.2183 43.3681 19.9099 42.5722 19.9099C41.7862 19.9099 41.1296 20.2183 40.6122 20.8252C40.0949 21.4321 39.8262 22.3673 39.8262 23.6109Z" fill="#858589"/>
<path d="M51.2976 16.0098V12.9753H54.5708V16.0098H51.2976ZM51.2976 30.0679V17.6813H54.5708V30.0679H51.2976Z" fill="#858589"/>
<path d="M60.3811 21.4619L57.4063 20.9247C57.7446 19.7308 58.3117 18.8453 59.1275 18.2683C59.9433 17.6912 61.1571 17.4027 62.7689 17.4027C64.2314 17.4027 65.3158 17.5718 66.0322 17.92C66.7485 18.2683 67.2459 18.706 67.5444 19.2333C67.8429 19.7606 67.9822 20.7456 67.9822 22.1683L67.9424 25.9888C67.9424 27.0732 67.9921 27.8791 68.1016 28.3964C68.211 28.9138 68.4 29.4709 68.6886 30.0579H65.4452C65.3556 29.8391 65.2561 29.5207 65.1268 29.0929C65.077 28.8939 65.0372 28.7745 65.0074 28.7049C64.4502 29.2521 63.8533 29.66 63.2166 29.9286C62.5798 30.1972 61.9033 30.3365 61.177 30.3365C59.9035 30.3365 58.8987 29.9883 58.1624 29.3018C57.4262 28.6153 57.0581 27.7398 57.0581 26.6752C57.0581 25.9788 57.2272 25.352 57.5555 24.8048C57.8839 24.2576 58.3614 23.8398 58.9584 23.5413C59.5553 23.2428 60.4308 22.9941 61.565 22.7752C63.0972 22.4867 64.1617 22.2181 64.7487 21.9693V21.6609C64.7487 21.0341 64.5895 20.5864 64.2811 20.3178C63.9727 20.0491 63.3857 19.9198 62.5201 19.9198C61.9331 19.9198 61.4854 20.0392 61.1571 20.268C60.8288 20.4969 60.5801 20.8849 60.3811 21.4619ZM64.7686 24.1183C64.3508 24.2576 63.6842 24.4268 62.7788 24.6158C61.8734 24.8048 61.2765 25.0038 60.9979 25.1829C60.5701 25.4814 60.3612 25.8694 60.3612 26.337C60.3612 26.7946 60.5303 27.1926 60.8785 27.5309C61.2267 27.8691 61.6546 28.0283 62.1819 28.0283C62.7689 28.0283 63.336 27.8293 63.8732 27.4413C64.2712 27.1429 64.5298 26.7847 64.6592 26.3569C64.7487 26.0783 64.7885 25.5411 64.7885 24.7551V24.1183H64.7686Z" fill="#858589"/>
<path d="M82.478 30.0679H79.2048V23.7502C79.2048 22.417 79.1351 21.5515 78.9958 21.1535C78.8566 20.7555 78.6277 20.4571 78.3093 20.2382C77.991 20.0193 77.6129 19.9099 77.1751 19.9099C76.6081 19.9099 76.1006 20.069 75.643 20.3775C75.1853 20.6859 74.8869 21.1038 74.7177 21.6112C74.5486 22.1186 74.469 23.0737 74.469 24.4566V30.0679H71.1957V17.6813H74.2402V19.5019C75.3246 18.0991 76.6777 17.4027 78.3193 17.4027C79.0456 17.4027 79.7022 17.532 80.2992 17.7907C80.8961 18.0494 81.3538 18.3877 81.6622 18.7856C81.9706 19.1836 82.1796 19.6512 82.2989 20.1586C82.4183 20.666 82.478 21.4022 82.478 22.3573V30.0679Z" fill="#858589"/>
<path d="M85.7115 17.7012H87.6217V19.303H87.6714C88.0296 18.7259 88.9648 17.4126 91.2034 17.4126C94.7154 17.4126 96.4565 20.3277 96.4565 23.79C96.4565 28.1875 93.7802 30.3564 91.0641 30.3564C89.5817 30.3564 88.4873 29.6202 87.8605 28.7845H87.8107V34.8236H85.7115V17.7012ZM90.9148 28.6352C92.1585 28.6352 94.3075 27.8492 94.3075 23.79C94.3075 20.3078 92.5863 19.0642 91.0144 19.0642C89.0046 19.0642 87.6018 21.0739 87.6018 23.9591C87.5919 27.6801 89.4822 28.6352 90.9148 28.6352Z" fill="#858589"/>
<path d="M99.4611 19.4622C100.585 18.0295 102.376 17.4126 103.998 17.4126C106.605 17.4126 109.798 18.9647 109.798 23.6905C109.798 26.337 109.132 27.5607 108.555 28.2472C107.381 29.6799 105.64 30.3465 103.998 30.3465C102.326 30.3465 100.516 29.6998 99.4114 28.2472C98.2871 26.7449 98.1976 24.8048 98.1976 23.8796C98.1976 22.5464 98.4165 20.8053 99.4611 19.4622ZM103.998 28.6352C106.983 28.6352 107.649 25.7699 107.649 23.8099C107.649 20.5168 105.878 19.1239 103.998 19.1239C102.685 19.1239 100.347 19.8601 100.347 23.8796C100.347 27.9189 102.754 28.6352 103.998 28.6352Z" fill="#858589"/>
<path d="M113.46 26.0584C113.678 27.71 114.673 28.6352 116.663 28.6352C118.832 28.6352 119.509 27.4911 119.509 26.6553C119.509 25.6505 118.673 25.2923 117.429 24.9839L116.046 24.6456C114.156 24.188 111.728 23.5512 111.728 20.9645C111.728 19.0542 113.3 17.4027 116.285 17.4027C120.633 17.4027 121.041 19.9099 121.2 20.865L119.15 21.1535C118.892 19.2632 117.26 19.1239 116.424 19.1239C115.589 19.1239 113.748 19.3129 113.748 20.7257C113.748 21.7803 114.634 22.0191 116.663 22.5364C119.907 23.3721 121.658 23.8696 121.658 26.4265C121.658 28.476 119.916 30.3465 116.693 30.3465C112.206 30.3465 111.609 27.6005 111.39 26.3569L113.46 26.0584Z" fill="#858589"/>
<path d="M129 30.048C128.692 30.1176 128.214 30.237 127.428 30.237C124.513 30.237 124.513 28.4959 124.513 26.4365V19.3229H122.981V17.7012H124.513V14.6169L126.612 13.3534V17.7012H128.711V19.3229H126.612V26.5559C126.612 27.5607 126.612 28.2771 127.786 28.2771C128.144 28.2771 128.483 28.2273 128.721 28.1776L129 30.048Z" fill="#858589"/>
</svg>
