<svg width="198" height="58" viewBox="0 0 198 58" fill="none" xmlns="http://www.w3.org/2000/svg">
<g clip-path="url(#clip0_16096_3709)">
<path d="M59.0255 0.966791C56.878 4.89979 55.5505 7.77234 53.0533 13.5954L45.8341 30.4315H45.6763L33.1069 0.966791H39.8589L48.6809 21.8544L52.3509 13.2773C55.1606 6.70878 51.4752 3.69275 51.2029 0.938721L59.0255 0.966791Z" fill="#C27E35"/>
<path d="M0 30.4097C2.1475 26.4767 3.47189 23.6042 5.97215 17.7811L13.1913 0.941895H13.3491L25.9154 30.4097H19.1635L10.3445 9.51901L6.67457 18.0961C3.86488 24.6646 7.55028 27.6807 7.82259 30.4347L0 30.4097Z" fill="#C27E35"/>
<path d="M90.3342 23.9316L89.4368 29.605H71.5234V0.966797H89.0469L89.6782 6.3158H89.6008C86.361 4.31031 82.6446 1.6748 79.3275 1.6748H77.7277V14.3409H78.7426C82.9572 14.3409 85.8071 13.8293 86.7447 12.9249H86.822V16.7019H86.7447C85.8071 15.7569 82.9572 15.052 78.7426 15.052H77.7277V28.9001H79.5224C82.8396 28.9001 86.7045 26.3332 90.2537 23.9347H90.3342V23.9316Z" fill="#C27E35"/>
<path d="M120.43 22.2723L119.062 29.605H103.918V0.966797H110.123V28.897H110.67C113.013 28.897 116.293 25.4973 120.353 22.2723H120.43Z" fill="#C27E35"/>
<path d="M153.905 28.4354C146.485 32.4682 138.334 30.9119 133.981 22.7745C129.608 14.6029 132.619 6.3938 140.451 2.13644C147.871 -1.89637 156.022 -0.340009 160.376 7.79733C164.748 15.969 161.737 24.1781 153.905 28.4354ZM154.636 11.4091C150.594 3.86122 145.21 0.261949 140.435 2.86003C135.453 5.56728 135.785 11.7366 139.752 19.1472C143.79 26.6951 149.177 30.2912 153.986 27.6775C158.934 24.9859 158.621 18.854 154.636 11.4091Z" fill="#C27E35"/>
<path d="M190.406 0.966797H198C197.257 4.11382 196.79 7.96884 196.79 13.4769V30.0791H196.283L177.509 5.57037V17.098C177.509 22.6061 182.138 26.4611 182.881 29.6081H175.519C176.262 26.4611 176.729 22.6061 176.729 17.098V4.54735L174.074 1.08532V0.966797H181.451L196.01 20.3604V13.4769C196.01 7.96884 191.149 4.11382 190.406 0.966797Z" fill="#C27E35"/>
<path d="M26.6147 57.8815V49.1328H29.0655C29.8205 49.1328 30.4889 49.3012 31.0676 49.6381C31.6493 49.9749 32.0949 50.4521 32.4136 51.0728C32.7292 51.6935 32.8901 52.4077 32.8932 53.2124V53.7707C32.8932 54.5972 32.7354 55.3177 32.4198 55.9384C32.1042 56.559 31.6524 57.0362 31.0676 57.37C30.4796 57.7037 29.7989 57.8721 29.0191 57.8815H26.6147ZM27.7597 50.0747V56.9364H28.9634C29.8453 56.9364 30.5322 56.6588 31.0242 56.1068C31.5162 55.5547 31.7607 54.7656 31.7607 53.7426V53.2311C31.7607 52.2362 31.5286 51.4627 31.0676 50.9137C30.6034 50.3617 29.9474 50.0841 29.0964 50.0747H27.7597Z" fill="white"/>
<path d="M44.4135 53.8361H40.6508V56.9364H45.02V57.8814H39.5059V49.1296H44.9613V50.0747H40.6508V52.8942H44.4135V53.8361Z" fill="white"/>
<path d="M54.2045 56.3469L56.6862 49.1296H57.9363L54.7181 57.8814H53.7032L50.4912 49.1296H51.7352L54.2045 56.3469Z" fill="white"/>
<path d="M68.8901 53.8361H65.1273V56.9364H69.4997V57.8814H63.9824V49.1296H69.4378V50.0747H65.1273V52.8942H68.8901V53.8361Z" fill="white"/>
<path d="M76.9602 56.9364H81.0726V57.8814H75.8091V49.1296H76.9602V56.9364Z" fill="white"/>
<path d="M93.5522 53.7895C93.5522 54.6472 93.4099 55.3958 93.1221 56.0352C92.8374 56.6745 92.432 57.1611 91.906 57.498C91.38 57.8348 90.7704 58.0032 90.071 58.0032C89.3872 58.0032 88.7807 57.8348 88.2515 57.4948C87.7224 57.1549 87.3108 56.6745 87.02 56.0476C86.7291 55.4207 86.5775 54.694 86.5713 53.8706V53.2406C86.5713 52.3985 86.7167 51.6562 87.0076 51.0105C87.2985 50.3649 87.7069 49.8721 88.2392 49.529C88.7683 49.1859 89.3779 49.0144 90.0617 49.0144C90.758 49.0144 91.3707 49.1828 91.8998 49.5228C92.4289 49.8628 92.8374 50.3524 93.1252 50.9949C93.4099 51.6374 93.5553 52.386 93.5553 53.2406V53.7895H93.5522ZM92.4135 53.225C92.4135 52.1864 92.2062 51.391 91.7946 50.8359C91.38 50.2807 90.8044 50.0031 90.0587 50.0031C89.3346 50.0031 88.7652 50.2807 88.3506 50.8359C87.9359 51.391 87.7224 52.1614 87.71 53.147V53.7895C87.71 54.7938 87.9204 55.586 88.3382 56.1599C88.7559 56.7338 89.3346 57.0208 90.071 57.0208C90.8106 57.0208 91.3831 56.7494 91.7884 56.2067C92.1938 55.664 92.4011 54.8843 92.4135 53.8706V53.225Z" fill="white"/>
<path d="M101.298 54.4569V57.8815H100.153V49.1328H103.356C104.305 49.1328 105.048 49.3761 105.59 49.8658C106.128 50.3554 106.397 51.0011 106.397 51.8058C106.397 52.6541 106.134 53.3091 105.608 53.7676C105.082 54.2261 104.327 54.4569 103.346 54.4569H101.298ZM101.298 53.5118H103.356C103.968 53.5118 104.435 53.3652 104.763 53.0752C105.088 52.7851 105.252 52.364 105.252 51.8151C105.252 51.2942 105.088 50.8763 104.763 50.5613C104.439 50.2494 103.99 50.0872 103.42 50.0747H101.298V53.5118Z" fill="white"/>
<path d="M114.22 49.1296L117.057 56.2689L119.895 49.1296H121.38V57.8814H120.235V54.4724L120.344 50.7952L117.494 57.8814H116.618L113.774 50.8139L113.886 54.4724V57.8814H112.741V49.1296H114.22Z" fill="white"/>
<path d="M133.194 53.8361H129.432V56.9364H133.801V57.8814H128.287V49.1296H133.742V50.0747H129.432V52.8942H133.194V53.8361Z" fill="white"/>
<path d="M146.782 57.8814H145.631L141.261 51.1382V57.8814H140.11V49.1296H141.261L145.643 55.904V49.1296H146.782V57.8814Z" fill="white"/>
<path d="M159.525 50.0747H156.734V57.8814H155.595V50.0747H152.813V49.1296H159.525V50.0747Z" fill="white"/>
<path d="M168.161 53.9797C167.18 53.6959 166.465 53.3466 166.016 52.9318C165.568 52.5169 165.345 52.0054 165.345 51.3972C165.345 50.7079 165.617 50.1372 166.165 49.688C166.713 49.2389 167.421 49.0112 168.297 49.0112C168.894 49.0112 169.426 49.1266 169.891 49.3606C170.358 49.5914 170.72 49.9126 170.977 50.3212C171.233 50.7298 171.36 51.1758 171.36 51.6623H170.209C170.209 51.1321 170.042 50.7142 169.708 50.4116C169.374 50.1091 168.903 49.9563 168.294 49.9563C167.731 49.9563 167.288 50.081 166.973 50.3337C166.657 50.5832 166.499 50.9325 166.499 51.3785C166.499 51.7372 166.651 52.0366 166.951 52.283C167.251 52.5294 167.762 52.7571 168.483 52.9598C169.204 53.1657 169.77 53.3902 170.175 53.6366C170.581 53.883 170.884 54.17 171.082 54.5006C171.28 54.8281 171.376 55.2148 171.376 55.6608C171.376 56.3688 171.1 56.9365 170.553 57.3638C170.005 57.7911 169.272 58.0032 168.353 58.0032C167.755 58.0032 167.202 57.8878 166.682 57.657C166.165 57.4262 165.766 57.1111 165.487 56.7088C165.206 56.3096 165.066 55.8542 165.066 55.3458H166.218C166.218 55.876 166.412 56.294 166.799 56.5996C167.186 56.9053 167.706 57.0581 168.353 57.0581C168.956 57.0581 169.42 56.9334 169.742 56.687C170.064 56.4375 170.225 56.1006 170.225 55.6702C170.225 55.2398 170.076 54.9092 169.776 54.6752C169.482 54.4413 168.944 54.2105 168.161 53.9797Z" fill="white"/>
</g>
<defs>
<clipPath id="clip0_16096_3709">
<rect width="198" height="58" fill="white"/>
</clipPath>
</defs>
</svg>
