<svg width="72" height="72" viewBox="0 0 72 72" fill="none" xmlns="http://www.w3.org/2000/svg">
<path d="M60.9156 43.5553L59.9903 40.9663C59.9903 40.9663 63.8455 35.179 54.2847 33.1991C54.2847 33.1991 54.9014 26.0412 51.5089 22.6906C58.9109 15.5327 57.2145 4.71948 40.406 11.7252C31.7704 -4.57066 -1.53849 33.6561 12.3402 39.7479C10.9523 41.5754 10.9523 50.7134 20.5132 51.6272C26.9898 65.3339 42.719 66.2477 51.8174 62.1357C60.9156 58.0236 66.1586 44.926 60.9156 43.5553ZM20.359 49.6473C12.4944 48.8857 11.7234 38.225 18.5085 37.1589C25.2936 36.0928 26.9898 50.2564 20.359 49.6473ZM18.0459 35.179C15.8869 35.179 13.2655 38.0726 13.2655 38.0726C2.77931 33.0468 32.233 -0.306332 38.5555 12.639C38.5555 12.639 23.1348 19.9492 18.0459 35.179ZM48.8874 48.1244C48.8874 47.515 45.649 49.0381 39.7891 47.0582C40.2517 43.86 47.1911 49.7995 58.7566 42.0324L59.682 45.2306C63.9998 44.4692 59.682 58.9375 45.8032 58.7851C34.5461 58.6329 30.9993 47.2105 37.1676 40.9663C38.4013 39.7479 32.6956 37.3111 33.7751 31.9808C34.2377 29.6963 36.2424 26.3458 41.3312 27.2595C46.4201 28.1733 47.4995 23.6044 50.892 25.2797C54.2846 26.9549 52.28 33.3515 52.7426 34.2652C53.2052 35.179 58.1399 35.3312 59.0651 37.9204C59.9903 40.5095 52.7426 46.1445 41.4854 44.6214C38.8639 44.3168 37.3218 47.6674 39.0181 49.7995C42.4107 54.6731 56.2893 51.4748 58.6025 46.7537C52.7426 51.1702 40.7143 52.8455 39.7891 48.1244C43.1817 49.6473 48.8874 48.7335 48.8874 48.1244ZM28.6862 24.0613C32.0787 19.9492 36.5508 17.5125 36.5508 17.5125L35.6255 19.797C35.6255 19.797 38.8639 17.3602 42.4107 17.3602L41.1771 18.5785C45.1864 18.7309 46.8827 20.2538 46.8827 20.2538C46.8827 20.2538 37.476 17.5125 28.6862 24.0613ZM49.5042 30.0009C51.5089 29.8486 50.892 34.4175 50.892 34.4175H49.6584C49.6584 34.4175 47.4996 30.1532 49.5042 30.0009ZM40.406 35.0267C39.0181 35.179 37.476 35.9405 37.6303 35.3312C38.247 32.8945 43.9528 33.5037 43.7985 35.636C43.6443 37.7681 42.4107 34.7221 40.406 35.0267ZM43.6443 36.8543C43.7985 37.1589 42.5649 36.8543 41.6397 37.0065C40.7143 37.1589 39.7891 37.6158 39.7891 37.3111C39.7891 37.0065 43.3359 35.636 43.6443 36.8543ZM46.7285 37.3111C47.1911 36.3973 49.0416 37.3111 48.5789 38.225C48.1163 39.1388 46.2659 38.225 46.7285 37.3111ZM50.5836 37.6158C49.6584 37.6158 49.6584 35.636 50.5836 35.636C51.5089 35.636 51.5089 37.768 50.5836 37.768V37.6158ZM22.8263 45.6875C23.2889 46.1445 21.9011 47.0582 20.8216 46.2967C19.7421 45.5352 22.0553 41.8801 19.2795 40.9663C16.5038 40.0525 17.2749 43.5553 16.5038 43.0985C15.7328 42.6415 17.5833 37.7681 20.8216 39.7479C24.06 41.7278 19.8963 44.7738 21.7468 45.6875C23.5974 46.6013 22.5179 45.3829 22.8263 45.6875Z" fill="white"/>
</svg>
