<svg width="64" height="44" viewBox="0 0 64 44" fill="none" xmlns="http://www.w3.org/2000/svg">
<g clip-path="url(#clip0_15869_4426)">
<path d="M63.8862 25.6534C63.8862 27.2053 63.8862 28.8486 63.8862 30.4005C63.8862 30.4919 63.8862 30.4919 63.8862 30.5831C63.8862 30.9483 63.8862 31.2222 63.796 31.5874C63.7059 32.5004 63.5257 33.4133 63.3455 34.2349C62.9851 35.6043 62.5345 36.8824 61.9038 38.0691C61.3632 39.0734 60.6423 39.9864 59.8313 40.7167C59.3808 41.1731 58.8401 41.5383 58.2995 41.9035C57.2182 42.5426 56.0469 42.999 54.7853 43.1816C54.6051 43.1816 54.515 43.1816 54.3347 43.2728C53.4337 43.2728 52.4425 43.2728 51.5415 43.2728C51.4513 43.2728 51.4513 43.2728 51.3613 43.2728C51.0008 43.1816 50.5503 43.1816 50.1898 43.0904C49.2888 42.9078 48.4778 42.6338 47.7569 42.1774C46.7657 41.6297 45.9547 40.9906 45.1438 40.2602C44.513 39.6212 43.8823 38.9821 43.2515 38.2517C42.3505 37.1563 41.5395 35.9694 40.7286 34.8739C39.5571 33.0481 38.3857 31.2222 37.3045 29.305C36.043 27.1141 34.7815 24.923 33.52 22.8233C33.1595 22.1842 32.709 21.5452 32.3486 20.9061C32.3486 20.9061 32.3486 20.8148 32.2585 20.8148C32.1683 20.7235 32.1683 20.7235 32.0783 20.8148C32.0783 20.8148 32.0783 20.9061 31.9881 20.9061C31.8981 21.0887 31.7178 21.3626 31.6277 21.5452C31.0871 22.4581 30.5464 23.4623 30.0058 24.3752C29.1047 25.9272 28.2937 27.4792 27.3927 28.9398C26.5817 30.4005 25.7707 31.77 24.8696 33.1394C24.0586 34.5087 23.1576 35.7868 22.1664 37.065C21.3554 38.0691 20.5445 39.0734 19.6434 39.895C19.0127 40.5341 18.2918 41.0819 17.571 41.5383C16.3095 42.36 14.9578 42.9078 13.5161 43.0904C13.4261 43.0904 13.2458 43.0904 13.1557 43.1816C12.1645 43.1816 11.2634 43.1816 10.2723 43.1816C10.1821 43.1816 10.1821 43.1816 10.092 43.1816C9.55138 43.0904 8.92064 42.999 8.37999 42.8164C6.21742 42.1774 4.50537 40.9906 3.15376 39.256C2.4329 38.3431 1.80215 37.2475 1.35161 36.152C0.810967 34.7827 0.450539 33.322 0.270325 31.8612C0.180217 31.3135 0.0901095 30.7657 0.0901095 30.1267C0.0901095 29.579 0 29.0312 0 28.5748C0 28.1182 0 27.5705 0 27.1141C0 26.7489 0 26.3837 0 26.1098C0 25.562 0.0901095 25.0143 0.0901095 24.4665C0.180217 23.7361 0.270323 23.0059 0.360431 22.2755C0.630753 20.7235 0.901074 19.1715 1.35161 17.7108C1.89225 15.7937 2.52301 13.8766 3.42408 12.1419C4.14495 10.59 4.95591 9.1293 5.85698 7.75991C6.75806 6.4818 7.65913 5.38628 8.74042 4.29078C9.55138 3.56042 10.3624 2.83008 11.2634 2.28233C12.3447 1.55198 13.5161 1.00422 14.7776 0.639049C15.7688 0.36517 16.8501 0.0912917 17.9314 0.0912917C18.0215 0.0912917 18.1115 0.0912917 18.2017 0.0912917C18.3819 0.0912917 18.472 0.0912917 18.6522 0.0912917C18.7424 0.0912917 18.8325 0.0912917 18.9225 0.0912917C19.4632 0.0912917 20.0039 0.182581 20.4544 0.273875C22.1664 0.547754 23.7883 1.09551 25.2301 2.00845C26.5817 2.83008 27.753 3.74301 28.9245 4.83853C29.6454 5.47758 30.2761 6.20793 30.9069 6.84698C31.5376 7.57732 32.0783 8.21637 32.6189 8.94672C32.7991 9.1293 32.7991 9.1293 32.8893 8.94672C33.1595 8.58154 33.52 8.12509 33.7903 7.75991C34.421 6.93827 35.0518 6.20793 35.7727 5.38628C36.4034 4.74723 37.0342 4.10819 37.6649 3.46913C38.3857 2.83008 39.1967 2.19103 40.0978 1.64327C40.9989 1.09551 41.9901 0.639046 42.9813 0.365166C43.7021 0.18258 44.3328 0 45.0537 0C45.5944 0 46.135 0 46.7657 0C47.2163 0 47.6669 0.0912903 48.2074 0.182584C49.6491 0.456463 51.0008 1.09552 52.3525 1.82586C53.5238 2.5562 54.6051 3.46913 55.5962 4.38206C55.8666 4.65594 56.2271 5.02111 56.4974 5.38628C57.1281 6.11663 57.6688 6.84697 58.2094 7.66861C59.2906 9.31188 60.1918 10.9552 60.9126 12.7811C61.3632 13.7852 61.7235 14.7894 61.9939 15.885C62.3543 16.9805 62.6247 18.1674 62.895 19.2629C63.0752 20.1757 63.2554 20.9974 63.3455 21.9104C63.4357 22.5494 63.5257 23.0971 63.5257 23.7361C63.6159 24.1927 63.6159 24.6491 63.6159 25.1056C63.8862 25.4708 63.8862 25.562 63.8862 25.6534ZM57.8489 28.027C57.8489 27.8444 57.8489 27.7531 57.8489 27.6618C57.8489 27.0227 57.8489 26.3837 57.7589 25.7446C57.7589 25.1968 57.6688 24.6491 57.5786 24.1013C57.4886 23.2797 57.3984 22.3668 57.2182 21.5452C56.8578 19.4455 56.3171 17.3457 55.5062 15.4285C54.9655 14.0592 54.3347 12.6897 53.5238 11.4116C52.893 10.3161 52.0821 9.40318 51.181 8.49025C50.5503 7.8512 49.9195 7.30344 49.1086 6.93827C47.9371 6.20792 46.5855 5.84275 45.2339 5.84275C44.8735 5.84275 44.513 5.93405 44.1527 5.93405C43.4318 6.11664 42.711 6.3905 42.0801 6.75568C41.3593 7.21214 40.7286 7.66862 40.1879 8.21637C39.3769 9.03802 38.5659 9.95094 37.8451 10.8639C37.2144 11.6855 36.6737 12.5071 36.133 13.4201C35.9529 13.694 35.9529 13.6027 36.133 13.8766C37.3045 15.7024 38.4759 17.5282 39.5571 19.3541C40.6384 21.18 41.6296 22.9145 42.711 24.7404C43.2515 25.6534 43.7922 26.5663 44.423 27.4792C45.324 28.8486 46.135 30.218 47.1262 31.5874C47.7569 32.5004 48.4778 33.4133 49.1986 34.3261C49.5591 34.7827 50.0096 35.1478 50.5503 35.513C51.0909 35.8782 51.6315 36.0608 52.1722 36.152C52.7128 36.2434 53.1634 36.2434 53.704 36.152C54.7853 36.0608 55.6864 35.513 56.3171 34.6913C56.6776 34.1437 56.9479 33.5959 57.2182 32.9568C57.5786 31.8613 57.7589 30.7657 57.7589 29.6702C57.7589 29.4876 57.7589 29.3964 57.7589 29.2138C57.8489 28.9398 57.8489 28.4834 57.8489 28.027ZM6.93827 28.3922C6.93827 28.666 6.93827 28.9398 6.93827 29.2138C6.93827 29.8528 7.02838 30.4919 7.11849 31.1309C7.20859 31.8613 7.38881 32.5916 7.74925 33.322C8.01957 33.9611 8.37999 34.6001 8.92064 35.1478C9.28106 35.513 9.7316 35.7868 10.1821 35.9694C10.7228 36.152 11.1733 36.2434 11.7139 36.3346C11.9843 36.3346 12.2546 36.3346 12.5249 36.3346C13.1557 36.2434 13.6963 36.0608 14.237 35.7868C14.8678 35.4217 15.3183 35.0565 15.8589 34.6001C16.3995 34.1435 16.8501 33.5959 17.2105 33.0481C18.1115 31.9526 18.8325 30.8571 19.6434 29.7615C20.6346 28.3008 21.6258 26.7489 22.5269 25.2882C23.1576 24.2839 23.8785 23.1885 24.5093 22.1842C25.2301 20.9974 26.041 19.8105 26.7619 18.6238C27.3025 17.7108 27.9333 16.7979 28.4739 15.9763C28.6542 15.7024 28.6542 15.7024 28.4739 15.5198C27.663 14.333 26.7619 13.1462 25.8608 12.1419C25.14 11.3203 24.4191 10.59 23.6983 9.85965C23.1576 9.40318 22.6169 8.94672 21.9862 8.58154C21.3554 8.21636 20.6346 7.9425 19.8237 7.75991C19.283 7.66862 18.7424 7.57732 18.2017 7.57732C17.7512 7.57732 17.3006 7.66862 16.8501 7.75991C16.0391 8.03379 15.3183 8.39895 14.5974 8.85542C13.9666 9.31188 13.4261 9.76835 12.9754 10.3161C12.5249 10.7726 12.1645 11.3203 11.7139 11.8681C10.903 12.9636 10.2723 14.1504 9.7316 15.4285C9.01074 17.0718 8.4701 18.7151 8.01957 20.3583C7.74923 21.5452 7.47891 22.8233 7.29871 24.0101C7.20859 24.5578 7.11849 25.1968 7.11849 25.7446C7.11849 26.2011 7.02838 26.6575 7.02838 27.2053C6.93827 27.4792 6.93827 27.9357 6.93827 28.3922Z" fill="url(#paint0_linear_15869_4426)"/>
</g>
<defs>
<linearGradient id="paint0_linear_15869_4426" x1="20.0099" y1="35.2478" x2="50.7408" y2="8.55569" gradientUnits="userSpaceOnUse">
<stop stop-color="#0082FB"/>
<stop offset="0.1846" stop-color="#007CF5"/>
<stop offset="0.4402" stop-color="#006AE5"/>
<stop offset="0.5056" stop-color="#0064E0"/>
<stop offset="0.703" stop-color="#006EE9"/>
<stop offset="0.9525" stop-color="#0082FB"/>
</linearGradient>
<clipPath id="clip0_15869_4426">
<rect width="64" height="44" fill="white"/>
</clipPath>
</defs>
</svg>
