<svg width="35" height="77" viewBox="0 0 35 77" fill="none" xmlns="http://www.w3.org/2000/svg">
<g clip-path="url(#clip0_15869_4713)">
<path fill-rule="evenodd" clip-rule="evenodd" d="M19.2741 76.5238L17.194 75.8285C17.194 75.8285 17.448 65.4593 13.642 64.7151C11.1055 61.8371 14.0488 -57.3397 23.1818 64.3179C23.1818 64.3179 20.0356 65.8555 19.4775 68.4857C18.8682 71.066 19.2741 76.5238 19.2741 76.5238Z" fill="white"/>
<path fill-rule="evenodd" clip-rule="evenodd" d="M19.2741 76.5238L17.194 75.8285C17.194 75.8285 17.448 65.4593 13.642 64.7151C11.1055 61.8371 14.0488 -57.3397 23.1818 64.3179C23.1818 64.3179 20.0356 65.8555 19.4775 68.4857C18.8682 71.066 19.2741 76.5238 19.2741 76.5238Z" fill="#A6A385"/>
<path fill-rule="evenodd" clip-rule="evenodd" d="M20.3907 66.5011C20.3907 66.5011 38.6072 54.7914 34.3442 30.4296C30.2345 12.7177 20.543 6.91261 19.4774 4.67973C18.3107 3.09204 17.1938 0.313965 17.1938 0.313965L17.9555 49.5815C17.9555 49.6316 16.3818 64.6644 20.3907 66.5011Z" fill="white"/>
<path fill-rule="evenodd" clip-rule="evenodd" d="M20.3907 66.5011C20.3907 66.5011 38.6072 54.7914 34.3442 30.4296C30.2345 12.7177 20.543 6.91261 19.4774 4.67973C18.3107 3.09204 17.1938 0.313965 17.1938 0.313965L17.9555 49.5815C17.9555 49.6316 16.3818 64.6644 20.3907 66.5011Z" fill="#499D4A"/>
<path fill-rule="evenodd" clip-rule="evenodd" d="M16.1288 67.1459C16.1288 67.1459 -0.971556 55.7342 0.0434621 35.6403C1.00734 15.5459 13.0836 5.67244 15.4178 3.88636C16.9403 2.29866 16.9908 1.70294 17.0926 0.115234C18.1582 2.34812 17.9553 33.5068 18.107 37.1781C18.5634 51.3183 17.2955 64.4673 16.1288 67.1459Z" fill="white"/>
<path fill-rule="evenodd" clip-rule="evenodd" d="M16.1288 67.1459C16.1288 67.1459 -0.971556 55.7342 0.0434621 35.6403C1.00734 15.5459 13.0836 5.67244 15.4178 3.88636C16.9403 2.29866 16.9908 1.70294 17.0926 0.115234C18.1582 2.34812 17.9553 33.5068 18.107 37.1781C18.5634 51.3183 17.2955 64.4673 16.1288 67.1459Z" fill="#58AA50"/>
</g>
<defs>
<clipPath id="clip0_15869_4713">
<rect width="35" height="77" fill="white"/>
</clipPath>
</defs>
</svg>
