<svg width="90" height="28" viewBox="0 0 90 28" fill="none" xmlns="http://www.w3.org/2000/svg">
<path fill-rule="evenodd" clip-rule="evenodd" d="M6.9718 17.406C6.97702 16.5291 6.98225 15.652 6.98225 14.775L7.43142 14.5226C10.0294 17.5027 12.6331 20.48 15.2426 23.4544C16.9237 25.3708 17.6552 25.3666 19.2422 23.4116C20.9247 21.3409 22.5944 19.2639 24.2872 17.1581C25.0004 16.271 25.7176 15.3788 26.4416 14.4798C26.5149 14.6245 26.5664 14.7143 26.6009 14.7745C26.643 14.8478 26.6597 14.877 26.6597 14.9076C26.6699 15.5662 26.6843 16.2245 26.6986 16.8826C26.7386 18.7164 26.7785 20.5485 26.7282 22.3807C26.6898 23.6982 27.156 24.2159 28.4393 24.0619C28.9365 24.0319 29.4351 24.0319 29.9323 24.0619C33.2987 24.0619 33.2987 24.0618 33.9148 20.9263L33.9148 20.9263C34.3099 20.9231 34.4807 21.1901 34.6482 21.4519C34.7037 21.5387 34.7588 21.6249 34.8217 21.7005C40.0961 28.0829 49.1691 29.8282 56.1846 25.5505C57.8581 24.5064 59.8091 23.9948 61.7798 24.0832C67.1147 24.161 72.4474 24.1483 77.7811 24.1356C79.782 24.1308 81.7831 24.126 83.7844 24.126C86.1517 24.126 87.3335 24.126 87.9209 23.5351C88.5202 22.9322 88.5006 21.7143 88.4899 19.2537C88.4855 17.8421 88.0834 17.4314 86.6718 17.4827C84.4442 17.5579 82.2251 17.5443 79.8213 17.5296C78.8047 17.5233 77.755 17.5169 76.6577 17.5169L89.7347 3.8967C89.5275 3.86546 89.3791 3.84054 89.2669 3.8217C89.0872 3.79152 89.0002 3.77692 88.9133 3.77692H64.5603C63.6367 3.71618 62.7097 3.73049 61.7883 3.81971C61.0503 3.94649 61.0959 4.45185 61.1438 4.98391C61.1864 5.45722 61.231 5.95165 60.7275 6.2195C57.1984 1.8434 52.4672 -0.179966 47.0302 0.0125307C41.5933 0.205028 37.1444 2.60055 33.7693 7.44292C33.6727 6.87788 33.6297 6.30497 33.641 5.73183C33.9319 3.96941 33.1105 3.5502 31.5021 3.67426C29.7928 3.78389 28.0783 3.78389 26.3688 3.67426C25.8795 3.62402 25.3861 3.71893 24.9502 3.94712C24.5144 4.17533 24.1553 4.52674 23.9178 4.95757C22.9063 6.44718 21.8597 7.90954 20.8141 9.37039C19.83 10.7455 18.8468 12.1192 17.8948 13.513C17.1932 14.5524 16.7397 14.6765 15.9098 13.6242C14.8832 12.331 13.8001 11.0847 12.7167 9.83807C12.166 9.20441 11.6152 8.57065 11.0718 7.93058L11.0649 7.9225C7.35441 3.54164 7.3509 3.53749 1.63083 3.71277C1.55969 3.71919 1.4881 3.71919 1.41695 3.71277C0.433071 3.58016 0.0523664 3.9352 0.0523664 4.99608C0.066912 7.00628 0.0478254 9.01747 0.0287422 11.0283C-0.0082963 14.9311 -0.0453221 18.8326 0.163592 22.7229C0.280547 24.6427 1.5008 24.3673 2.72963 24.09C3.34355 23.9515 3.9596 23.8124 4.44129 23.9464C4.49865 23.9634 4.56122 23.9829 4.62792 24.0038C5.4864 24.2722 7.02988 24.7548 6.98225 22.6631C6.95089 20.9122 6.96134 19.1594 6.9718 17.406ZM61.3535 20.8991L71.6356 10.6427C70.9232 10.6427 70.1862 10.6472 69.4329 10.6519C67.8747 10.6615 66.2465 10.6715 64.6202 10.6427C63.3668 10.6084 62.738 10.8095 63.1743 12.2982C63.4758 13.3406 63.327 14.4293 63.1783 15.5171C63.1519 15.7104 63.1255 15.9037 63.1016 16.0967C62.9587 17.2959 62.4602 18.3543 62.0138 19.3021C61.7453 19.8722 61.4957 20.4024 61.3535 20.8991ZM61.0942 22.0404C61.0673 22.0657 61.0408 22.0906 61.0183 22.1155L60.642 21.9487C60.7553 21.8195 60.8798 21.7008 61.0141 21.5937C61.0354 21.5808 61.275 21.7134 61.2536 21.8246C61.2382 21.905 61.1646 21.9742 61.0942 22.0404ZM48.3726 21.0316C52.6316 21.0316 56.0842 17.8928 56.0842 14.021C56.0842 10.1492 52.6316 7.01052 48.3726 7.01052C44.1136 7.01052 40.661 10.1492 40.661 14.021C40.661 17.8928 44.1136 21.0316 48.3726 21.0316Z" fill="#0495DC"/>
</svg>
