<svg width="82" height="43" viewBox="0 0 82 43" fill="none" xmlns="http://www.w3.org/2000/svg">
<path d="M0.783691 38.4879H3.45828V28.1101L7.65463 37.1343C8.11577 38.2172 8.80746 38.6233 10.1448 38.6233C11.4821 38.6233 12.0815 38.2172 12.5888 37.1343L16.7389 28.1101V38.4879H19.4136V28.1101C19.4136 27.1176 18.9986 26.6212 18.1224 26.3504C16.0935 25.7638 14.71 26.2602 14.1106 27.6138L10.0525 36.5477L6.08677 27.6138C5.48728 26.2602 4.10388 25.7638 2.07488 26.3504C1.19872 26.6212 0.783691 27.0724 0.783691 28.1101V38.4879Z" fill="#00678F"/>
<path d="M21.6274 30.0504H24.3021V35.7356C24.3021 36.0516 24.3942 36.7734 25.8699 36.8186C26.6538 36.8186 31.6801 36.8186 31.7263 36.8186V30.0054H34.4009C34.4009 30.0054 34.4009 39.3002 34.4009 39.3454C34.4009 41.6465 31.4958 42.1428 30.1584 42.1428H21.7197V40.383H30.2045C31.9108 40.2026 31.7263 39.3453 31.7263 39.0746V38.3978H26.0082C23.3337 38.3978 21.6274 37.2247 21.6274 35.9161C21.6274 35.7808 21.7197 30.0955 21.6274 30.0504Z" fill="#00678F"/>
<path d="M79.4538 23.4177C77.7937 23.3726 76.5485 23.553 75.4419 23.9591C75.1191 24.0945 74.6579 24.0945 74.6118 24.4554C74.7963 24.6359 74.7963 24.8615 74.9347 25.0871C75.1652 25.4932 75.6263 26.0347 75.9953 26.3054C76.4103 26.6212 76.8714 26.937 77.3325 27.2529C78.1164 27.7492 79.0388 28.02 79.8227 28.5163C80.2838 28.787 80.7449 29.148 81.16 29.4638C81.3905 29.6444 81.5289 29.8699 81.8055 30.0053V29.9602C81.6673 29.7797 81.6211 29.5089 81.4828 29.3285C81.2983 29.148 81.0678 28.9675 80.8833 28.7419C80.2838 27.9748 79.546 27.2529 78.762 26.7115C78.1164 26.2603 76.6408 25.6737 76.4103 24.9067C76.4103 24.9067 76.4103 24.9067 76.3642 24.8615C76.8253 24.8164 77.3325 24.681 77.7937 24.5457C78.4854 24.3652 79.1309 24.4103 79.8688 24.2298C80.1915 24.1396 80.5144 24.0493 80.8371 23.9591C80.8371 23.914 80.8371 23.8237 80.8371 23.7787C80.4683 23.4177 80.1915 22.9213 79.8227 22.6055C78.762 21.703 77.6092 20.8458 76.4103 20.1238C75.7647 19.7178 74.9347 19.4471 74.2891 19.1313C74.0584 18.9958 73.6434 18.9507 73.5051 18.7702C73.1362 18.3191 72.9056 17.7325 72.6751 17.2361C72.0756 16.1081 71.5222 14.8898 70.9688 13.7167C70.6 12.9496 70.3693 12.1375 69.9082 11.4156C67.787 7.98639 65.4814 5.91084 61.9306 3.88042C61.1466 3.47432 60.2705 3.29385 59.3021 3.06824C58.7949 3.06824 58.2877 3.02313 57.7804 2.978C57.4575 2.84264 57.1348 2.43656 56.8119 2.25607C55.6592 1.53414 52.6156 -0.0450847 51.7394 2.03047C51.1861 3.33896 52.5696 4.64746 53.0307 5.27916C53.3996 5.73035 53.8146 6.27181 54.0913 6.76814C54.2296 7.12909 54.2757 7.49007 54.4141 7.85103C54.7368 8.75344 55.0597 9.70098 55.4747 10.5583C55.7053 10.9644 55.9358 11.4156 56.2585 11.8216C56.443 12.0473 56.7198 12.1375 56.7658 12.4985C56.4892 12.9046 56.443 13.4912 56.3047 13.9874C55.5669 16.2434 55.8435 19.0861 56.9042 20.7555C57.227 21.2519 58.0109 22.3799 59.0715 21.9287C59.9938 21.5677 59.8094 20.4397 60.0399 19.4019C60.086 19.1763 60.0399 18.9958 60.1783 18.8605V18.9056C60.4549 19.4471 60.7316 20.0336 61.0083 20.575C61.6539 21.5677 62.7606 22.6055 63.6829 23.2823C64.1901 23.6432 64.559 24.2749 65.2046 24.5006V24.4554C65.2046 24.4554 65.2046 24.4554 65.1585 24.4554C65.0202 24.2749 64.8357 24.1848 64.6974 24.0493C64.3285 23.6884 63.9135 23.2371 63.6367 22.8312C62.7606 21.703 62.0228 20.4397 61.3311 19.1763C61.0083 18.5447 60.7316 17.8678 60.4549 17.2361C60.3166 17.0105 60.3166 16.6495 60.1321 16.5142C59.8094 16.9654 59.3483 17.3264 59.1638 17.8678C58.7949 18.7252 58.7488 19.808 58.6104 20.8908C58.5182 20.8908 58.5643 20.891 58.5181 20.936C57.8725 20.7555 57.642 20.1238 57.3653 19.5372C56.7658 18.0934 56.6275 15.7923 57.1809 14.1679C57.3192 13.7618 57.9648 12.4082 57.6882 12.0021C57.5498 11.6412 57.1348 11.4156 56.9042 11.0997C56.6275 10.7388 56.3508 10.2424 56.1664 9.79122C55.6592 8.66321 55.4285 7.39983 54.8752 6.27181C54.6447 5.73036 54.1834 5.18891 53.8607 4.7377C53.4918 4.19625 53.0307 3.79017 52.7078 3.15849C52.6156 2.93288 52.4773 2.57192 52.6156 2.34631C52.6617 2.16583 52.7539 2.12071 52.8923 2.07558C53.1689 1.84998 53.9068 2.12071 54.1834 2.25607C54.9674 2.57192 55.5669 2.84264 56.2125 3.24872C56.4892 3.42921 56.8119 3.83529 57.1809 3.92553C57.3192 3.92553 57.4575 3.92553 57.5959 3.92553C58.2415 4.06089 58.9793 3.97066 59.6249 4.15114C60.7316 4.5121 61.7 5.00844 62.5761 5.54988C65.2507 7.21934 67.5103 9.61074 68.986 12.4533C69.2166 12.9046 69.3548 13.3557 69.5393 13.807C69.9543 14.7996 70.5077 15.7923 70.9227 16.785C71.3377 17.7325 71.7528 18.68 72.3983 19.4922C72.7212 19.8983 73.9202 20.1238 74.5196 20.3494C74.9347 20.5299 75.5802 20.7104 75.9492 20.8908C76.6408 21.2969 77.3325 21.7933 78.0243 22.2446C78.347 22.5152 79.4076 23.0116 79.4538 23.4177Z" fill="#00678F"/>
<path d="M58.4726 5.95605C58.1037 5.95605 57.8731 6.00118 57.6426 6.04629C57.6426 6.04629 57.6426 6.04629 57.6426 6.09142C57.6426 6.09142 57.6426 6.09142 57.6886 6.09142C57.8731 6.40726 58.1498 6.63286 58.3342 6.90358C58.5187 7.21943 58.6571 7.53528 58.7953 7.85113L58.8414 7.806C59.1182 7.62552 59.2566 7.26456 59.2566 6.81335C59.1182 6.67799 59.1182 6.54263 59.0259 6.40726C58.8876 6.18165 58.6109 6.09142 58.4726 5.95605Z" fill="#00678F"/>
<path d="M36.4756 38.4879H44.2227C45.1449 38.4879 45.9749 38.3074 46.7128 37.9916C47.8656 37.4502 48.419 36.7733 48.419 35.8258V33.8856C48.419 33.1186 47.7734 32.4417 46.5283 31.9454C45.8827 31.7198 45.0527 31.5845 44.2227 31.5845H40.9947C39.8879 31.5845 39.3807 31.2685 39.2423 30.5467C39.2423 30.4565 39.2423 30.3662 39.2423 30.321V29.1479C39.2423 29.1027 39.2423 29.0126 39.2423 28.9223C39.3807 28.3808 39.6573 28.2455 40.6258 28.1552C40.7179 28.1552 40.8102 28.1552 40.8563 28.1552H48.5111V26.3955H40.9947C39.8879 26.3955 39.3346 26.4407 38.8273 26.6211C37.2595 27.1175 36.5216 27.8846 36.5216 29.2382V30.682C36.5216 31.8551 37.859 32.8929 40.1646 33.1186C40.3952 33.1186 40.6718 33.1186 40.9486 33.1186H43.7154C43.8075 33.1186 43.8998 33.1186 43.992 33.1186C44.822 33.2087 45.191 33.3442 45.4677 33.66C45.6522 33.8405 45.6522 33.9758 45.6522 34.1562V35.6905C45.6522 35.8709 45.5138 36.0966 45.2833 36.3221C45.0527 36.5477 44.6377 36.683 44.1304 36.683C44.0382 36.683 43.9459 36.683 43.8537 36.683H36.4756V38.4879Z" fill="#E38D1A"/>
<path d="M65.1587 35.4198C65.1587 37.2247 66.5421 38.2173 69.3089 38.3978C69.5855 38.3978 69.8162 38.4429 70.0928 38.4429H77.1021V36.6832H70.0467C68.4788 36.6832 67.8793 36.3222 67.8793 35.3746V26.3506H65.2048L65.1587 35.4198Z" fill="#E38D1A"/>
<path d="M50.125 35.5099V29.2833C50.125 27.7041 51.2777 26.7114 53.5374 26.4407C53.768 26.4407 54.0446 26.3955 54.2752 26.3955H59.3938C59.6704 26.3955 59.9011 26.3955 60.1777 26.4407C62.4373 26.7566 63.544 27.7041 63.544 29.2833V35.5099C63.544 36.8185 63.0829 37.4952 61.9762 37.9464L64.6047 40.2927H61.5151L59.3938 38.3977L57.2265 38.533H54.3675C53.9062 38.533 53.353 38.4879 52.7996 38.3525C50.955 37.8561 50.125 36.9538 50.125 35.5099ZM53.0301 35.3745C53.0301 35.4648 53.0762 35.555 53.0762 35.6453C53.2146 36.3672 53.9062 36.7733 54.9668 36.7733H57.411L55.1975 34.788H58.2871L60.2238 36.5025C60.5928 36.3221 60.8233 36.0063 60.9156 35.6453C60.9156 35.555 60.9156 35.4648 60.9156 35.3745V29.4187C60.9156 29.3284 60.9156 29.2382 60.9156 29.193C60.7772 28.5162 60.0856 28.1102 59.0249 28.1102H54.9668C53.768 28.1102 52.984 28.6065 52.984 29.4187L53.0301 35.3745Z" fill="#E38D1A"/>
<path d="M78.3008 38.488H78.6698V36.999H79.1771V36.6831H77.7476V36.999H78.3008V38.488ZM81.2983 38.488H81.6672V36.7283H81.1138L80.6527 37.9465L80.1454 36.7283H79.592V38.488H79.9609V37.1344L80.4682 38.488H80.7449L81.2522 37.1344L81.2983 38.488Z" fill="#E38D1A"/>
</svg>
