<svg width="336" height="288" viewBox="0 0 336 288" fill="none" xmlns="http://www.w3.org/2000/svg">
<path d="M104.16 208.55C109.241 209.315 114.382 209.718 119.546 209.727M119.546 209.727C169.566 209.816 202.685 172.951 193.517 127.385C184.349 81.8198 136.367 44.8068 86.3437 44.7171M119.546 209.727C126.442 213.819 132.788 219.436 138.409 226.422C69.1167 226.298 2.64659 175.026 -10.0552 111.905M119.546 209.727C69.5248 209.637 21.5401 172.626 12.3721 127.059M86.3437 44.7171C83.4999 60.4792 79.8187 76.5252 75.4024 92.3983C108.634 92.458 140.512 117.046 146.601 147.317M86.3437 44.7171C136.367 44.8068 184.349 81.8176 193.515 127.383C177.801 133.22 162.014 139.926 146.601 147.317M86.3437 44.7171C89.2152 28.8013 91.2577 13.0286 92.4157 -2.16347M86.3437 44.7171C136.367 44.8068 184.349 81.8176 193.517 127.383C209.383 121.491 225.317 116.435 240.88 112.353C228.18 49.2324 161.71 -2.03751 92.4157 -2.16347M86.3437 44.7171C36.3228 44.6274 3.20422 81.4931 12.3721 127.059M86.3437 44.7171C89.2152 28.8013 91.2577 13.0307 92.4157 -2.16347M146.601 147.317C151.859 173.446 136.185 195.269 110.427 200.713M90.1766 202.481C94.7232 202.489 106.346 201.576 110.429 200.713M172.773 85.7202C159.55 96.5592 146.107 107.972 132.822 119.638C119.535 131.305 106.295 143.322 93.4712 155.355M65.5871 123.969C89.2195 124.012 111.888 141.497 116.219 163.023C120.55 184.55 104.825 202.611 81.1924 202.568M78.5773 143.869C88.2815 129.428 97.9387 114.648 107.28 99.9366C116.619 85.2271 125.718 70.4642 134.324 56.0642C143.011 41.5233 151.275 27.2236 158.882 13.5559M146.603 147.317C131.186 154.708 116.014 162.842 101.505 171.495M81.092 202.479C108.393 205.433 136.862 185.948 131.284 154.947C126.103 129.206 98.9963 108.297 70.7362 108.246C42.4761 108.194 25.5055 139.879 30.6845 165.622C28.7829 161.514 27.1485 151.508 26.2618 147.101M81.092 202.479C110.192 202.645 119.531 209.769 119.531 209.769M81.092 202.479C84.4592 203.847 93.7212 204.757 99.6244 205.218C105.194 205.651 110.997 205.303 116.862 203.99C147.022 197.244 164.582 170.752 157.021 140.199C148.5 105.773 111.311 79.2258 73.9581 80.9039C36.6027 82.5819 13.2289 111.852 21.7494 146.277C21.7494 146.277 22.9758 154.97 30.6866 165.622M143.954 174.966C128.946 178.085 114.144 182.342 99.9599 187.618M78.8871 201.62C90.9201 198.74 114.042 194.68 126.325 194.592C138.409 195.201 152.797 195.713 162.992 198.544C175.158 201.281 187.135 205.448 198.596 210.931M78.5752 143.867C68.7748 158.446 59.8654 171.324 50.0694 185.066M25.2726 138.675C25.3602 141.422 25.685 144.236 26.2618 147.101M26.2618 147.101C23.0869 139.676 18.4122 132.934 12.3721 127.059M26.2618 147.101C20.1705 116.83 42.1727 92.3385 75.4045 92.3983M12.3721 127.059C3.20422 81.4931 36.3228 44.6274 86.3458 44.7171C83.502 60.4792 79.8208 76.5252 75.4045 92.3983M12.3721 127.059C6.2723 121.128 -1.27183 116.03 -10.0552 111.905M12.3721 127.059C6.27443 121.128 -1.27183 116.03 -10.0552 111.905M75.4045 92.3983C70.9883 108.276 65.8029 124.112 59.9893 139.473M28.909 119.45C26.1443 107.755 21.9204 96.3116 16.3589 85.4384C10.7441 74.4607 3.71484 63.9676 -4.53223 54.2495C-12.931 44.352 -22.6865 35.1569 -33.5166 26.9226C-44.6331 18.4705 -57.0251 10.9278 -70.3507 4.49745M42.897 55.8998C45.2707 70.319 46.4992 85.1011 46.5398 99.8278C46.5846 114.557 45.4459 129.351 43.1598 143.805C41.6001 153.662 39.4934 163.418 36.874 172.951M30.7357 165.876C26.405 144.349 41.9569 123.927 65.5892 123.969M28.9112 119.452C31.6801 131.149 33.0154 143.192 32.8808 155.248M87.0551 180.425C88.8349 189.268 85.4655 197.052 78.8892 201.618C93.7318 202.378 104.692 189.983 101.507 171.495M73.0543 189.703C73.7252 193.034 73.4517 196.17 72.407 198.922M189.535 169.037C168.778 170.188 164.332 171.147 143.956 174.966C128.949 178.085 114.147 182.342 99.962 187.618C90.7727 191.036 81.7907 194.902 73.1163 199.167M65.2004 195.201C78.3615 185.513 86.8586 180.233 101.507 171.495M101.507 171.495C97.9558 153.843 79.3678 139.507 59.9915 139.471C54.1224 154.979 50.157 164.774 43.0893 179.161M53.8959 154.849C69.3709 154.877 84.2178 166.328 87.053 180.425M73.0544 189.701C70.8601 178.788 59.3655 169.921 47.3837 169.9C43.241 169.894 39.5832 170.944 36.6604 172.771M93.469 155.357C80.5194 167.507 69.3966 178.307 57.417 190.363M32.1736 167.611C35.4724 159.966 43.5059 154.832 53.8959 154.851M88.3862 -87.8695C90.9415 -75.171 92.5717 -61.3646 93.2276 -46.8279M88.3862 -87.8695C-25.0708 -88.0723 -100.19 -4.45417 -79.3947 98.897C-58.5997 202.248 50.2339 286.197 163.693 286.4C277.152 286.603 352.269 202.987 331.474 99.6357M88.3862 -87.8695C201.845 -87.6646 310.679 -3.71761 331.474 99.6357M88.3862 -87.8695C201.845 -87.6646 310.679 -3.71767 331.472 99.6356C317.533 99.61 302.68 100.703 287.322 102.887M93.2276 -46.8279C183.819 -46.6657 270.719 20.3642 287.322 102.887M93.2276 -46.8279C2.63589 -46.9902 -57.3434 19.775 -40.7382 102.298M93.2276 -46.8279C93.8686 -32.6628 93.5951 -17.6352 92.4157 -2.16134M93.2276 -46.8279C93.8686 -32.6649 93.5972 -17.6352 92.4157 -2.16134M93.2276 -46.8279C183.819 -46.6657 270.717 20.3642 287.322 102.887M287.322 102.887C303.925 185.41 243.948 252.175 153.356 252.013M287.322 102.887C272.358 105.014 256.731 108.199 240.88 112.355M287.322 102.887C303.927 185.41 243.948 252.177 153.356 252.013M153.356 252.013C62.7647 251.851 -24.1351 184.821 -40.7382 102.298M153.356 252.013C157.662 262.135 161.138 273.704 163.693 286.402C50.236 286.197 -58.5975 202.25 -79.3947 98.8991C-65.4559 98.9226 -52.4486 100.067 -40.7382 102.298M153.356 252.013C62.7647 251.849 -24.1329 184.821 -40.7382 102.298M-40.7382 102.298C-29.3269 104.473 -19.0009 107.703 -10.0552 111.905M-40.7382 102.298C-57.3413 19.775 2.63801 -46.9902 93.2276 -46.8301C93.8686 -32.665 93.5972 -17.6373 92.4157 -2.16347M331.474 99.6357C317.535 99.6101 302.682 100.703 287.324 102.887C303.93 185.41 243.95 252.175 153.359 252.013C157.664 262.135 161.14 273.706 163.695 286.402C277.152 286.605 352.269 202.987 331.474 99.6357ZM92.2491 -61.1084C190.381 -60.9334 284.513 11.675 302.498 101.066C320.484 190.457 255.513 262.779 157.382 262.602M197.213 -62.1332C192.385 -51.1811 186.635 -39.121 180.121 -26.2795M284.423 5.13366C273.676 11.5213 262.015 19.0213 249.755 27.4307C237.81 35.6245 225.157 44.779 212.146 54.638M160.837 274.092C266.606 274.282 336.634 196.33 317.247 99.9815C297.86 3.63282 196.401 -74.6267 90.6317 -74.8167C-15.138 -75.0067 -85.1655 2.94538 -65.7785 99.294C-46.3936 195.643 55.0646 273.902 160.834 274.092M322.43 194.035C309.104 187.605 294.864 182.297 280.103 178.26C265.717 174.328 250.663 171.55 235.357 170.009M262.239 261.037C252.999 250.062 242.839 240.209 232.043 231.759C221.523 223.525 210.27 216.514 198.598 210.931M157.384 262.604C59.2522 262.429 -34.8797 189.821 -52.8652 100.43M54.8659 260.666C59.6945 249.714 63.598 239.889 66.4631 231.462C69.2555 223.251 71.1015 216.266 71.9433 210.705C72.7723 205.243 72.6441 201.097 71.5652 198.38M-32.3415 193.399C-21.5947 187.011 -11.7794 181.747 -3.1691 177.752M-52.8673 100.43C-70.8528 11.0388 -5.88253 -61.2835 92.2491 -61.1063M-10.1578 -62.5068C-0.91719 -51.5312 7.39609 -39.4433 14.545 -26.5783M92.4157 -2.16134C161.71 -2.03752 228.18 49.2346 240.88 112.355M92.4157 -2.16134C23.1211 -2.28517 -22.7569 48.7841 -10.0552 111.907C2.64446 175.028 69.1145 226.3 138.409 226.424C207.704 226.548 253.582 175.478 240.88 112.355M180.123 -26.2795C173.778 -13.7667 166.631 -0.363744 158.884 13.5559M138.411 226.422C207.706 226.546 253.584 175.476 240.882 112.353C256.733 108.197 272.36 105.013 287.324 102.885C303.927 185.408 243.95 252.173 153.359 252.011M138.411 226.422C144.137 233.535 149.165 242.148 153.359 252.011M138.411 226.422C144.135 233.535 149.165 242.15 153.359 252.011M138.411 226.422C69.1167 226.298 2.64657 175.026 -10.0531 111.905C-18.9988 107.703 -29.3247 104.471 -40.736 102.298C-24.1329 184.819 62.7669 251.849 153.359 252.011M138.411 226.422C132.79 219.436 126.445 213.819 119.548 209.727C169.569 209.816 202.687 172.951 193.519 127.385C209.385 121.493 225.32 116.437 240.882 112.355C253.582 175.476 207.704 226.548 138.411 226.422ZM-3.16694 177.752C5.22328 173.86 12.5772 171.123 18.6835 169.62M-10.0552 111.905C-22.7569 48.782 23.1211 -2.28729 92.4157 -2.16347M-10.0552 111.905C-22.7548 48.782 23.1233 -2.28729 92.4157 -2.16347M14.545 -26.5762C21.5101 -14.04 27.4647 -0.613523 32.2313 13.3296M93.2939 -17.4729C169.534 -17.3363 242.668 39.0745 256.641 108.523M256.641 108.525C270.614 177.974 220.138 234.165 143.898 234.026C67.6574 233.89 -5.47658 177.479 -19.4496 108.03C-33.4226 38.5814 17.0533 -17.6074 93.2938 -17.4708M212.144 54.638C199.369 64.3199 186.123 74.7767 172.771 85.7202M235.359 170.011C220.333 168.497 204.913 168.16 189.532 169.005M18.6814 169.62C24.6765 168.145 29.5329 167.844 33.1159 168.721M32.2292 13.3275C36.9104 27.0165 40.4998 41.3397 42.897 55.8976M30.6909 165.794C30.6097 163.26 30.9003 161.505 31.4793 159.206C34.4021 147.594 45.3156 139.437 59.9723 139.465C65.7858 124.104 70.9712 108.269 75.3853 92.3961M1.31337 121.38C15.28 177.814 76.2442 221.334 137.478 218.582C198.711 215.83 237.03 167.853 223.063 111.418C209.097 54.9839 148.135 11.4637 86.8992 14.2156M86.9013 14.2135C25.6678 16.9654 -12.6511 64.9433 1.31549 121.378M109.124 205.596C151.068 205.655 177.679 174.889 169.979 136.794C162.277 98.6984 122.03 67.7678 80.0857 67.708C38.141 67.6482 11.2355 104.251 18.9377 142.347M24.8389 155.641C21.3862 149.371 18.7262 142.727 17.017 135.822M86.2518 204.244C97.8234 207.491 117.785 207.758 117.785 207.758C163.103 205.722 191.462 170.214 181.125 128.448C170.789 86.6831 125.673 54.4758 80.3549 56.5125C35.0366 58.5492 6.68037 94.0571 17.0148 135.822M-79.3926 98.8969C-65.4537 98.9226 -52.4465 100.065 -40.736 102.296C-57.3413 19.7728 2.63801 -46.9924 93.2297 -46.8301C92.5717 -61.3668 90.9436 -75.1732 88.3883 -87.8717C-25.0708 -88.0724 -100.188 -4.45423 -79.3926 98.8969ZM93.5652 -32.3917C176.92 -32.2423 256.876 29.4333 272.155 105.361C287.433 181.292 232.246 242.724 148.891 242.574C65.5358 242.425 -14.4202 180.75 -29.6986 104.821C-44.9771 28.891 10.21 -32.5412 93.5652 -32.3917ZM129.709 213.644C74.3448 216.131 19.2241 176.783 6.59706 125.758C-6.03207 74.734 28.6142 31.3525 83.9785 28.8654C139.343 26.3782 194.464 65.7268 207.091 116.751C219.72 167.776 185.073 211.157 129.709 213.644Z" stroke="url(#paint0_radial_15481_9277)" stroke-width="1.5" stroke-miterlimit="10"/>
<defs>
<radialGradient id="paint0_radial_15481_9277" cx="0" cy="0" r="1" gradientUnits="userSpaceOnUse" gradientTransform="translate(88.8458 160.656) rotate(38.4722) scale(185.435 206.993)">
<stop offset="0.08" stop-color="#222223"/>
<stop offset="1" stop-color="#878787"/>
</radialGradient>
</defs>
</svg>
