<svg width="54" height="60" viewBox="0 0 54 60" fill="none" xmlns="http://www.w3.org/2000/svg">
<g clip-path="url(#clip0_15869_4637)">
<path d="M53.25 45V15L27 0L0.75 15V45L27 60L53.25 45ZM18.59 41.4725C18.59 43.275 17.15 44.6974 15.3724 44.6974H15.1826C13.3625 44.6974 11.925 43.1974 11.925 41.4725V18.525C11.925 16.7625 13.515 15.3 15.7125 15.3C17.3449 15.3 19.1975 15.9375 20.3325 17.325L35.4075 35.1776V18.525C35.4075 16.7225 36.9225 15.3 38.665 15.3H38.8549C40.6725 15.3 42.1125 16.8 42.1125 18.525V41.475H42.15C42.15 43.2375 40.5175 44.7 38.29 44.7C36.6975 44.7 34.8776 44.0625 33.7425 42.675L18.59 24.8224V41.4725Z" fill="#209237"/>
</g>
<defs>
<clipPath id="clip0_15869_4637">
<rect width="54" height="60" fill="white"/>
</clipPath>
</defs>
</svg>
