<svg width="60" height="60" viewBox="0 0 60 60" fill="none" xmlns="http://www.w3.org/2000/svg">
<g clip-path="url(#clip0_15869_4687)">
<mask id="mask0_15869_4687" style="mask-type:luminance" maskUnits="userSpaceOnUse" x="0" y="0" width="60" height="60">
<path d="M60 0H0V60H60V0Z" fill="white"/>
</mask>
<g mask="url(#mask0_15869_4687)">
<path d="M2.49561 4.104H57.3956V57.504H2.49561V4.104Z" fill="url(#paint0_radial_15869_4687)"/>
<path d="M2.496 4.10391H57.396V57.5039H2.496V4.10391ZM0 59.9999H59.88V1.60791H0V59.9999ZM40.38 25.5719C38.412 25.5719 37.74 26.5679 37.74 27.3959C37.74 28.2959 38.184 28.9199 40.836 30.2879C44.748 32.1839 45.972 34.0079 45.972 36.6719C45.972 40.6679 42.924 42.8159 38.808 42.8159C36.636 42.8159 34.764 42.3719 33.696 41.7479C33.516 41.6759 33.492 41.5439 33.492 41.3519V37.6679C33.492 37.4159 33.612 37.3439 33.792 37.4639C35.364 38.4839 37.164 38.9399 38.808 38.9399C40.776 38.9399 41.604 38.1119 41.604 36.9959C41.604 36.0959 41.028 35.3039 38.508 33.9959C34.968 32.3039 33.492 30.5879 33.492 27.7079C33.492 24.4919 36.012 21.8159 40.38 21.8159C42.528 21.8159 44.028 22.1399 44.844 22.5119C45.048 22.6319 45.096 22.8359 45.096 23.0159V26.4359C45.096 26.6399 44.976 26.7599 44.724 26.6879C43.62 25.9919 42 25.5719 40.38 25.5719ZM18.924 28.5359C19.5 28.5839 19.944 28.5839 20.94 28.5839C23.856 28.5839 26.604 27.5639 26.604 23.5919C26.604 20.4239 24.636 18.8279 21.312 18.8279C20.316 18.8279 19.368 18.8759 18.912 18.8999L18.924 28.5359ZM14.472 15.2879C14.472 15.1079 14.82 14.9879 15.024 14.9879C16.62 14.9159 18.996 14.8679 21.456 14.8679C28.368 14.8679 31.068 18.6599 31.068 23.4959C31.068 29.8319 26.472 32.5559 20.832 32.5559C19.884 32.5559 19.56 32.5079 18.888 32.5079V42.0839C18.888 42.2879 18.816 42.3839 18.588 42.3839H14.772C14.568 42.3839 14.472 42.3119 14.472 42.0839V15.2879Z" fill="#31C5F0"/>
</g>
</g>
<defs>
<radialGradient id="paint0_radial_15869_4687" cx="0" cy="0" r="1" gradientUnits="userSpaceOnUse" gradientTransform="translate(20.5901 16.0847) scale(41.7179 40.3904)">
<stop stop-color="#34364E" stop-opacity="0.98"/>
<stop offset="1" stop-color="#0C0824"/>
</radialGradient>
<clipPath id="clip0_15869_4687">
<rect width="60" height="60" fill="white"/>
</clipPath>
</defs>
</svg>
