<svg width="77" height="39" viewBox="0 0 77 39" fill="none" xmlns="http://www.w3.org/2000/svg">
<path d="M27.6748 4.26849C22.7713 6.24873 12.823 10.2374 12.2572 10.3504V11.1993L9.85259 11.9065C10.1355 12.9909 10.7013 15.7538 10.7013 18.1301C10.7013 21.1005 8.72106 26.6169 8.43817 28.1728C8.21186 29.4175 9.85262 30.6716 10.7013 31.1431L13.9545 32.4161C15.2747 32.7462 18.1413 33.4062 19.0466 33.4062C20.1781 33.4062 20.461 33.4062 21.3097 32.4161C21.9887 31.624 22.7242 32.0861 23.0071 32.4161C27.0618 32.7462 36.1615 33.4062 40.122 33.4062H46.7699C48.1844 33.4062 48.8916 33.6891 49.5989 33.4062C50.3061 33.1234 54.1251 31.5675 55.1152 31.1431C56.1054 30.7188 58.0856 28.88 59.0757 28.1728C60.0658 27.4655 65.4408 26.0511 68.2697 25.4853C71.0986 24.9195 69.967 21.2419 69.967 20.2518V15.1598C69.307 13.8867 67.7039 11.1427 66.5723 10.3504C65.1579 9.36003 53.9837 4.26849 52.8521 4.26849C51.9469 4.26849 43.9882 2.94826 40.122 2.28814L27.6748 4.26849Z" fill="#EDEDED"/>
<path d="M38.7741 0.146729C17.7996 0.146729 0.795044 8.80922 0.795044 19.4945C0.795044 30.1798 17.7996 38.8424 38.7741 38.8424C59.7485 38.8424 76.7531 30.1798 76.7531 19.4945C76.7531 8.80922 59.7485 0.146729 38.7741 0.146729ZM28.8918 23.2639C27.9853 24.1164 26.9789 24.4682 25.8705 24.8307C24.7621 25.1937 23.3516 25.1187 21.6365 25.1187H17.7493L16.672 31.3678H12.1333L16.1833 10.1209H24.9113C27.5372 10.1209 29.4524 10.8802 30.6566 12.2656C31.8607 13.651 32.2225 15.6177 31.7427 18.1003C31.5443 19.1233 31.2105 20.0744 30.7393 20.9218C30.2675 21.7698 29.6514 22.5615 28.8918 23.2639ZM42.1397 25.1187L43.9306 16.1075C44.1346 15.0527 44.0599 14.2691 43.7062 13.886C43.3519 13.5023 42.5985 13.2455 41.4465 13.2455H37.8472L35.5278 25.1187H31.0246L35.0746 4.49672H39.5778L38.5012 10.1209H42.5126C45.0372 10.1209 46.7778 10.6302 47.7358 11.5151C48.6938 12.3999 48.981 13.6123 48.598 15.5944L46.7138 25.1187H42.1397ZM67.1666 18.1335C66.969 19.1565 66.6345 20.0913 66.164 20.938C65.6928 21.786 65.0774 22.5615 64.3171 23.2639C63.4107 24.1164 62.4036 24.4682 61.2958 24.8307C60.1881 25.1937 58.7763 25.1187 57.0612 25.1187H53.174L52.0973 31.3678H47.5586L51.608 10.1209H60.3366C62.9624 10.1209 64.8777 10.8802 66.0813 12.2656C67.2841 13.651 67.6466 15.6513 67.1666 18.1335ZM58.6165 13.2455H55.5076L53.8123 21.9941H56.5738C58.4026 21.9941 59.7666 21.813 60.6618 21.1193C61.5582 20.427 62.1617 19.3521 62.4757 17.7317C62.7765 16.175 62.6398 14.9608 62.0654 14.3209C61.4904 13.681 60.341 13.2455 58.6165 13.2455ZM23.1918 13.2455H20.0824L18.3871 21.9941H21.1478C22.9774 21.9941 24.3406 21.813 25.2365 21.1193C26.1322 20.427 26.7364 19.3521 27.0497 17.7317C27.3507 16.175 27.2138 14.9608 26.6394 14.3209C26.0651 13.681 24.9163 13.2455 23.1918 13.2455Z" fill="#4053B7"/>
</svg>
