<svg width="63" height="63" viewBox="0 0 63 63" fill="none" xmlns="http://www.w3.org/2000/svg">
<g clip-path="url(#clip0_15869_4765)">
<path d="M31.5 63C48.8969 63 63 48.897 63 31.5C63 14.103 48.8969 0 31.5 0C14.1031 0 0 14.103 0 31.5C0 48.897 14.1031 63 31.5 63Z" fill="#E13138"/>
<path d="M32.7347 16.8647C23.9273 16.8647 19.4795 23.0866 19.4795 28.2758C19.4795 31.4245 20.6891 34.2081 23.2721 35.2535C23.7005 35.4298 24.0785 35.266 24.2045 34.8C24.2927 34.4851 24.6833 33.6665 24.7715 33.339C24.8975 32.8856 24.8471 32.7218 24.5069 32.3188C23.7635 31.4497 23.2973 30.5429 23.2973 28.956C23.2973 23.6661 26.5985 19.9002 32.2181 19.9002C37.1951 19.9002 39.9293 22.986 39.9293 26.9911C39.9293 32.2559 37.5605 36.5381 34.0451 36.5381C32.1047 36.5381 30.6557 35.1275 31.1219 33.1878C31.6763 30.8704 32.7599 28.3766 32.7599 26.7014C32.7599 25.2026 31.9535 24.1321 30.2651 24.1321C28.2869 24.1321 26.6867 25.9836 26.6867 28.6915C26.6867 30.417 27.2537 31.2734 27.2537 31.2734C27.2537 31.2734 25.2503 40.0521 24.8849 41.5383C24.1793 44.4981 24.7841 48.1129 24.8345 48.4781C24.8597 48.6922 25.1495 48.7426 25.2755 48.5789C25.4519 48.3521 27.8207 45.4679 28.6271 42.5963C28.8539 41.7903 29.9375 37.5835 29.9375 37.5835C30.5801 38.7927 32.4701 39.5735 34.4609 39.5735C40.4207 39.5735 44.4653 34.4977 44.4653 27.3438C44.4779 21.9153 39.8159 16.8647 32.7347 16.8647Z" fill="white"/>
</g>
<defs>
<clipPath id="clip0_15869_4765">
<rect width="63" height="63" fill="white"/>
</clipPath>
</defs>
</svg>
