<svg width="64" height="67" viewBox="0 0 64 67" fill="none" xmlns="http://www.w3.org/2000/svg">
<g clip-path="url(#clip0_15869_4742)">
<path d="M63.7514 40.1161C63.3677 38.9363 62.3623 38.1147 61.0624 37.9175C60.4495 37.8247 59.7474 37.8642 58.9167 38.0381C57.4687 38.3413 56.3943 38.4567 55.6103 38.4791C58.5696 33.4076 60.9759 27.6244 62.3612 22.1805C64.6012 13.3776 63.4042 9.36744 62.0054 7.55354C58.3037 2.75237 52.9029 0.173115 46.3874 0.0941959C42.9117 0.0510564 39.8604 0.747635 38.2687 1.24856C36.7866 0.983125 35.1932 0.834928 33.5212 0.807522C30.3869 0.75677 27.6176 1.4503 25.2514 2.87569C23.9414 2.42602 21.8389 1.79212 19.4109 1.38762C13.7004 0.436013 9.09792 1.17751 5.73142 3.59155C1.65492 6.51439 -0.234833 11.5927 0.114668 18.6854C0.225668 20.9372 1.46667 27.7888 3.42067 34.2866C4.54366 38.0216 5.74116 41.123 6.97991 43.5058C8.73667 46.8847 10.6164 48.8744 12.7267 49.589C13.9094 49.989 16.0585 50.2691 18.3187 48.3582C18.6051 48.7106 18.9874 49.0604 19.4947 49.3855C20.1389 49.7979 20.9267 50.1349 21.7135 50.3346C24.5487 51.054 27.2044 50.8741 29.4701 49.8656C29.4842 50.2747 29.4949 50.6655 29.5039 51.003C29.5189 51.5504 29.534 52.0871 29.5536 52.589C29.6879 55.9828 29.9154 58.6218 30.5894 60.4681C30.6263 60.5696 30.6762 60.7244 30.7286 60.8886C31.0649 61.9336 31.6272 63.683 33.0576 65.053C34.5389 66.4724 36.3306 66.9075 37.9716 66.9075C38.7946 66.9075 39.5799 66.798 40.2687 66.6482C42.7236 66.114 45.5119 65.3005 47.5289 62.3853C49.4359 59.6294 50.3629 55.4786 50.5306 48.9384C50.5524 48.7534 50.5724 48.5767 50.5917 48.4085L50.6317 48.0629L51.0809 48.1031L51.1967 48.1109C53.6972 48.2266 56.7546 47.6884 58.6324 46.803C60.1161 46.1041 64.8708 43.5561 63.7514 40.1161Z" fill="black"/>
<path d="M59.4767 40.785C52.0416 42.3419 51.5305 39.7867 51.5305 39.7867C59.3804 27.9633 62.6622 12.9549 59.8304 9.28171C52.1045 -0.738101 38.7307 4.00066 38.5074 4.12349L38.4357 4.13668C36.9667 3.82708 35.323 3.64285 33.4752 3.61215C30.1112 3.55632 27.5592 4.50743 25.6227 5.99803C25.6227 5.99803 1.76521 -3.97839 2.87495 18.5451C3.11095 23.3366 9.64094 54.8008 17.4294 45.2972C20.2763 41.8219 23.027 38.8837 23.027 38.8837C24.3929 39.8048 26.0284 40.2748 27.7429 40.106L27.8763 39.9912C27.8347 40.4226 27.8537 40.8447 27.9295 41.3443C25.923 43.6199 26.5126 44.0192 22.5017 44.8575C18.443 45.7065 20.8272 47.2179 22.3839 47.6133C24.2712 48.0921 28.6371 48.7707 31.5872 44.5788L31.4697 45.0572C32.2558 45.6964 32.8078 49.2145 32.7152 52.4041C32.6227 55.5933 32.5609 57.7831 33.1803 59.4935C33.7999 61.2039 34.4172 65.0521 39.6902 63.9054C44.0959 62.9469 46.3792 60.4634 46.6969 56.3204C46.9222 53.3752 47.4325 53.8107 47.4645 51.1775L47.8736 49.931C48.3455 45.9385 47.9487 44.6503 50.6629 45.2496L51.323 45.3084C53.3205 45.4005 55.9355 44.982 57.4702 44.2581C60.7747 42.7015 62.7352 40.1022 59.4767 40.785Z" fill="#336791"/>
<path d="M27.0187 20.6882C26.3486 20.5936 25.7419 20.6811 25.4349 20.9172C25.2624 21.0499 25.209 21.2037 25.1944 21.3094C25.1559 21.5898 25.3495 21.8999 25.4685 22.0598C25.8049 22.5125 26.2964 22.8236 26.783 22.8922C26.8535 22.9023 26.9238 22.9069 26.9934 22.9069C27.8046 22.9069 28.5424 22.2656 28.6074 21.7924C28.6887 21.1996 27.841 20.8042 27.0187 20.6882ZM49.2147 20.707C49.1507 20.2424 48.3363 20.11 47.5632 20.2191C46.7912 20.3282 46.0427 20.682 46.1051 21.1476C46.1552 21.5097 46.7994 22.1279 47.562 22.1279C47.6264 22.1279 47.6915 22.1235 47.7569 22.1142C48.266 22.0426 48.6394 21.7145 48.817 21.5254C49.087 21.2372 49.2435 20.9159 49.2147 20.707Z" fill="white"/>
<path d="M61.951 40.6084C61.6675 39.7383 60.755 39.4584 59.239 39.7762C54.7377 40.7191 53.1258 40.0659 52.5965 39.6703C56.0953 34.26 58.9735 27.7201 60.5262 21.6185C61.2618 18.7281 61.668 16.0438 61.7012 13.8558C61.738 11.4545 61.335 9.6898 60.504 8.61182C57.1534 4.26614 52.236 1.93508 46.2835 1.87112C42.1913 1.82442 38.7338 2.88744 38.0635 3.18637C36.6519 2.83009 35.1133 2.61135 33.4379 2.58343C30.3659 2.53293 27.7105 3.2795 25.512 4.80132C24.5569 4.44047 22.089 3.58047 19.0707 3.08689C13.8527 2.23426 9.70622 2.88034 6.74723 5.00813C3.21646 7.54729 1.58647 12.0861 1.90222 18.4981C2.00846 20.6554 3.21947 27.2917 5.13047 33.6473C7.64598 42.0122 10.3805 46.7478 13.2575 47.7219C13.5942 47.8358 13.9825 47.9155 14.4107 47.9155C15.4602 47.9155 16.747 47.4354 18.0857 45.8017C19.7187 43.8134 21.4077 41.8733 23.151 39.984C24.282 40.6001 25.5245 40.9442 26.7952 40.9787C26.7977 41.0125 26.801 41.0463 26.8039 41.0798C26.5853 41.3446 26.371 41.6131 26.1614 41.8854C25.281 43.02 25.0977 43.2562 22.2635 43.8485C21.4573 44.0176 19.3159 44.4655 19.2845 45.989C19.2505 47.6536 21.8157 48.3528 22.1079 48.4269C23.1265 48.6857 24.1078 48.8133 25.0435 48.8133C27.3193 48.8133 29.322 48.0542 30.9225 46.5851C30.8733 52.5196 31.1169 58.3672 31.819 60.149C32.394 61.6076 33.7985 65.1722 38.235 65.172C38.8859 65.172 39.6025 65.095 40.3907 64.9235C45.0209 63.9161 47.0317 61.8387 47.8094 57.2591C48.2257 54.8116 48.9401 48.9671 49.2761 45.8323C49.985 46.0567 50.8977 46.1595 51.8845 46.1592C53.9425 46.1592 56.3172 45.7154 57.8065 45.0138C59.4795 44.2251 62.4985 42.2898 61.951 40.6084ZM50.9245 19.4243C50.9092 20.3498 50.7837 21.1901 50.6507 22.0671C50.5075 23.0103 50.3595 23.9854 50.3222 25.1693C50.2855 26.3214 50.4272 27.5191 50.5642 28.6776C50.8413 31.0172 51.1255 33.426 50.0253 35.8028C49.8425 35.4741 49.6797 35.1342 49.5377 34.7854C49.401 34.449 49.104 33.9084 48.6928 33.1604C47.0929 30.2481 43.3467 23.4285 45.2644 20.6458C45.8358 19.8175 47.2855 18.9658 50.9245 19.4243ZM46.5134 3.74515C51.847 3.86468 56.066 5.88996 59.0529 9.76441C61.344 12.7362 58.8212 26.2585 51.5179 37.9242C51.4445 37.8294 51.3707 37.7349 51.2964 37.6408L51.2041 37.5235C53.0912 34.3598 52.7222 31.2296 52.3937 28.4545C52.2587 27.3156 52.1312 26.24 52.1638 25.2295C52.1972 24.1586 52.3367 23.24 52.4717 22.3518C52.6375 21.2574 52.8062 20.1248 52.7597 18.7897C52.7945 18.6496 52.8084 18.4842 52.7902 18.2878C52.6715 17.0075 51.2315 13.176 48.2964 9.70807C46.691 7.81119 44.3498 5.68847 41.153 4.25674C42.528 3.96746 44.4083 3.6977 46.5134 3.74515ZM16.6689 44.606C15.194 46.4063 14.1755 46.0611 13.8405 45.9479C11.658 45.209 9.12547 40.5266 6.89272 33.1014C4.96072 26.6767 3.83172 20.2161 3.74222 18.4045C3.46022 12.6751 4.82846 8.68211 7.80922 6.5363C12.6602 3.04452 20.6358 5.13452 23.8404 6.19447C23.7945 6.24066 23.7465 6.2838 23.7009 6.33074C18.442 11.7217 18.5667 20.9323 18.5798 21.4954C18.5792 21.7125 18.5972 22.0202 18.6217 22.4431C18.7123 23.9924 18.8807 26.8756 18.4307 30.1407C18.0128 33.1751 18.9342 36.1448 20.9585 38.2888C21.1662 38.5084 21.3846 38.7174 21.6128 38.9151C20.7117 39.8946 18.7534 42.0607 16.6689 44.606ZM22.2887 36.995C20.6573 35.2668 19.9162 32.8631 20.2554 30.3997C20.7305 26.9505 20.5552 23.9464 20.4609 22.3324C20.4477 22.1067 20.4359 21.9087 20.4292 21.7526C21.1975 21.0612 24.7577 19.1249 27.2967 19.7155C28.4553 19.9847 29.1613 20.7856 29.4547 22.163C30.9737 29.2945 29.6557 32.2668 28.5968 34.6555C28.3785 35.1475 28.1722 35.6127 27.9962 36.0938L27.8598 36.4658C27.5142 37.4063 27.1927 38.2808 26.9934 39.111C25.259 39.1059 23.5718 38.354 22.2887 36.995ZM22.555 46.6125C22.0484 46.484 21.593 46.2611 21.3257 46.0761C21.5489 45.9695 21.9462 45.8244 22.6352 45.6802C25.9694 44.9835 26.4845 44.4918 27.609 43.0426C27.8667 42.7102 28.159 42.3335 28.5638 41.8747C29.1665 41.1896 29.4427 41.3054 29.9427 41.516C30.3479 41.686 30.7427 42.2016 30.9027 42.769C30.9785 43.037 31.0635 43.5455 30.7853 43.9414C28.4362 47.2799 25.0132 47.2371 22.555 46.6125ZM40.0048 63.095C35.9258 63.982 34.4814 61.8694 33.5297 59.4544C32.9155 57.8953 32.6135 50.8645 32.8278 43.1001C32.8305 42.9968 32.816 42.8972 32.7879 42.8033C32.7629 42.6179 32.7248 42.4345 32.674 42.2546C32.3555 41.1249 31.5792 40.1799 30.648 39.7881C30.2779 39.6326 29.599 39.3471 28.783 39.5589C28.9569 38.8312 29.2587 38.0091 29.586 37.1192L29.7232 36.745C29.8777 36.3229 30.0717 35.8857 30.2768 35.4228C31.385 32.9238 32.9027 29.5009 31.2555 21.7679C30.6385 18.8715 28.578 17.457 25.4545 17.7856C23.5819 17.9822 21.8688 18.7491 21.0142 19.1888C20.8305 19.2834 20.6625 19.3747 20.5054 19.4635C20.744 16.5452 21.6449 11.0913 25.0155 7.64067C27.1377 5.46847 29.9639 4.39555 33.4075 4.45342C40.1924 4.56608 44.5435 8.10049 46.999 11.0459C49.115 13.5838 50.2608 16.1405 50.7179 17.5194C47.2793 17.1644 44.9405 17.8533 43.755 19.5738C41.1757 23.3163 45.1659 30.58 47.0838 34.071C47.4355 34.7108 47.739 35.2637 47.8345 35.4987C48.459 37.035 49.2675 38.0607 49.8577 38.8093C50.0387 39.0387 50.2142 39.2613 50.3478 39.4556C49.3062 39.7605 47.4355 40.4645 47.6059 43.9845C47.4685 45.7507 46.4907 54.0198 45.994 56.9414C45.3382 60.8011 43.939 62.2385 40.0048 63.095ZM57.0307 43.3177C55.9658 43.8193 54.1835 44.1957 52.4905 44.2767C50.6205 44.3654 49.6685 44.064 49.4445 43.8785C49.3395 41.685 50.1437 41.4558 50.995 41.2132C51.1287 41.1752 51.2592 41.1379 51.3853 41.0932C51.4635 41.1578 51.5492 41.2221 51.6432 41.285C53.1462 42.2919 55.827 42.4005 59.6118 41.6076L59.6532 41.5992C59.1427 42.0836 58.2692 42.7338 57.0307 43.3177Z" fill="white"/>
</g>
<defs>
<clipPath id="clip0_15869_4742">
<rect width="64" height="67" fill="white"/>
</clipPath>
</defs>
</svg>
