<svg width="60" height="59" viewBox="0 0 60 59" fill="none" xmlns="http://www.w3.org/2000/svg">
<g clip-path="url(#clip0_15793_4100)">
<path d="M29.5034 0.19873C14.6238 0.19873 15.5529 6.67731 15.5529 6.67731L15.5694 13.3893H29.7687V15.4044H9.92964C9.92964 15.4044 0.408203 14.3203 0.408203 29.3939C0.408203 44.4681 8.71875 43.9334 8.71875 43.9334H13.6785V36.9385C13.6785 36.9385 13.4111 28.5946 21.8563 28.5946H35.9395C35.9395 28.5946 43.8519 28.7229 43.8519 20.9168V8.00989C43.8519 8.00989 45.0536 0.19873 29.5034 0.19873ZM21.6738 4.71242C22.0095 4.71212 22.3417 4.77825 22.6518 4.90703C22.9618 5.03582 23.2436 5.22471 23.4808 5.46293C23.7181 5.70114 23.9063 5.98399 24.0345 6.29529C24.1628 6.6066 24.2286 6.94023 24.2283 7.27712C24.2286 7.61401 24.1628 7.94765 24.0345 8.25895C23.9063 8.57025 23.7181 8.8531 23.4808 9.09132C23.2436 9.32953 22.9618 9.51843 22.6518 9.64722C22.3417 9.776 22.0095 9.84213 21.6738 9.84183C21.3383 9.84213 21.006 9.776 20.696 9.64722C20.386 9.51843 20.1042 9.32953 19.8669 9.09132C19.6297 8.8531 19.4415 8.57025 19.3133 8.25895C19.185 7.94765 19.1192 7.61401 19.1195 7.27712C19.1192 6.94023 19.185 6.6066 19.3133 6.29529C19.4415 5.98399 19.6297 5.70114 19.8669 5.46293C20.1042 5.22471 20.386 5.03582 20.696 4.90703C21.006 4.77825 21.3383 4.71212 21.6738 4.71242Z" fill="url(#paint0_linear_15793_4100)"/>
<path d="M29.9255 58.7406C44.8049 58.7406 43.876 52.2619 43.876 52.2619L43.8595 45.5502H29.6599V43.535H49.4989C49.4989 43.535 59.0204 44.6192 59.0204 29.5451C59.0204 14.4712 50.7097 15.0058 50.7097 15.0058H45.7501V22.0005C45.7501 22.0005 46.0175 30.3444 37.5722 30.3444H23.4891C23.4891 30.3444 15.5767 30.2162 15.5767 38.0225V50.9296C15.5767 50.9296 14.3755 58.7406 29.9255 58.7406ZM37.7549 54.2274C37.4194 54.2276 37.087 54.1614 36.777 54.0327C36.4669 53.9039 36.1853 53.715 35.9479 53.4768C35.7107 53.2386 35.5226 52.9557 35.3943 52.6444C35.266 52.3331 35.2001 51.9995 35.2005 51.6625C35.2001 51.3258 35.266 50.992 35.3943 50.6807C35.5224 50.3694 35.7106 50.0865 35.9479 49.8483C36.1851 49.61 36.4669 49.4211 36.777 49.2924C37.087 49.1635 37.4194 49.0973 37.7549 49.0977C38.0904 49.0973 38.4227 49.1635 38.7329 49.2922C39.0429 49.4211 39.3246 49.61 39.5618 49.8482C39.7992 50.0863 39.9873 50.3693 40.1155 50.6805C40.2437 50.9918 40.3097 51.3255 40.3094 51.6624C40.3097 51.9992 40.2437 52.3328 40.1155 52.6443C39.9873 52.9556 39.7992 53.2383 39.5618 53.4765C39.3246 53.7149 39.0429 53.9037 38.7329 54.0324C38.4227 54.1613 38.0904 54.2276 37.7549 54.2274Z" fill="url(#paint1_linear_15793_4100)"/>
</g>
<defs>
<linearGradient id="paint0_linear_15793_4100" x1="6.04086" y1="5.46423" x2="35.2028" y2="34.2198" gradientUnits="userSpaceOnUse">
<stop stop-color="#387EB8"/>
<stop offset="1" stop-color="#366994"/>
</linearGradient>
<linearGradient id="paint1_linear_15793_4100" x1="23.8692" y1="24.0041" x2="55.1799" y2="53.4847" gradientUnits="userSpaceOnUse">
<stop stop-color="#FFE052"/>
<stop offset="1" stop-color="#FFC331"/>
</linearGradient>
<clipPath id="clip0_15793_4100">
<rect width="58.76" height="58.76" fill="white" transform="translate(0.374756 0.181885)"/>
</clipPath>
</defs>
</svg>
