<svg width="71" height="64" viewBox="0 0 71 64" fill="none" xmlns="http://www.w3.org/2000/svg">
<path d="M70.1002 31.9289C70.1002 27.2621 64.2905 22.8396 55.3834 20.097C57.4388 10.9646 56.5253 3.69884 52.4999 1.37267C51.572 0.827022 50.4873 0.568558 49.3025 0.568558V3.77064C49.9592 3.77064 50.4873 3.89987 50.9298 4.14398C52.8711 5.26399 53.7132 9.52865 53.0567 15.0138C52.8997 16.3636 52.6426 17.7852 52.3286 19.2354C49.5308 18.5462 46.4762 18.015 43.2645 17.6702C41.3375 15.0138 39.339 12.6015 37.3264 10.4907C41.9797 6.13989 46.3477 3.75628 49.3168 3.75628V0.554199C45.3913 0.554199 40.2526 3.36859 35.0567 8.25069C29.8609 3.39731 24.7222 0.611636 20.7967 0.611636V3.81372C23.7515 3.81372 28.1336 6.18297 32.7871 10.5051C30.7886 12.6159 28.7903 15.0138 26.8918 17.6702C23.6659 18.015 20.6111 18.5462 17.8133 19.2498C17.485 17.8139 17.2424 16.4211 17.0711 15.0856C16.4002 9.60044 17.2281 5.33579 19.1551 4.20142C19.5833 3.94296 20.14 3.82808 20.7967 3.82808V0.625995C19.5976 0.625995 18.5127 0.884458 17.5707 1.43011C13.5596 3.75628 12.6603 11.0076 14.7301 20.1113C5.85146 22.8683 0.0703735 27.2765 0.0703735 31.9289C0.0703735 36.5956 5.88002 41.0181 14.7871 43.7608C12.7317 52.8931 13.6453 60.1589 17.6706 62.485C18.5985 63.0307 19.6832 63.2892 20.8824 63.2892C24.8078 63.2892 29.9465 60.4749 35.1423 55.5926C40.3382 60.4461 45.477 63.2317 49.4024 63.2317C50.6014 63.2317 51.6863 62.9733 52.6285 62.4277C56.6396 60.1015 57.5387 52.8501 55.469 43.7464C64.3191 41.0038 70.1002 36.5813 70.1002 31.9289ZM51.515 22.3514C50.9868 24.2037 50.3302 26.1135 49.588 28.0232C49.0027 26.8745 48.3889 25.7257 47.7181 24.577C47.0614 23.4283 46.362 22.3082 45.6625 21.2169C47.6895 21.5185 49.645 21.8918 51.515 22.3514ZM44.9774 37.6439C43.8639 39.5822 42.722 41.4202 41.5372 43.1289C39.4103 43.3157 37.255 43.4162 35.0853 43.4162C32.9298 43.4162 30.7745 43.3157 28.6618 43.1434C27.4771 41.4347 26.3209 39.611 25.2074 37.6869C24.1225 35.8059 23.1376 33.8961 22.2384 31.9719C23.1234 30.0478 24.1225 28.1238 25.1931 26.2427C26.3066 24.3042 27.4485 22.4662 28.6333 20.7575C30.7602 20.5708 32.9155 20.4702 35.0853 20.4702C37.2407 20.4702 39.3962 20.5708 41.5087 20.7431C42.6934 22.4519 43.8496 24.2755 44.9631 26.1995C46.048 28.0806 47.0329 29.9903 47.9321 31.9146C47.0329 33.8386 46.048 35.7628 44.9774 37.6439ZM49.588 35.7771C50.3588 37.7012 51.0154 39.6254 51.5579 41.492C49.6879 41.9516 47.7181 42.3392 45.6768 42.6408C46.3763 41.5352 47.0757 40.4007 47.7323 39.2376C48.3889 38.089 49.0027 36.9259 49.588 35.7771ZM35.1139 51.0983C33.7864 49.7198 32.4589 48.1833 31.1455 46.5034C32.4303 46.5608 33.7435 46.6039 35.071 46.6039C36.4128 46.6039 37.7403 46.5751 39.0393 46.5034C37.7546 48.1833 36.4271 49.7198 35.1139 51.0983ZM24.4937 42.6408C22.4668 42.3392 20.5112 41.9659 18.6413 41.5064C19.1694 39.6542 19.8261 37.7444 20.5682 35.8346C21.1536 36.9833 21.7674 38.132 22.4382 39.2808C23.1092 40.4294 23.7943 41.5495 24.4937 42.6408ZM35.0425 12.7595C36.37 14.1379 37.6975 15.6744 39.0107 17.3543C37.726 17.297 36.4128 17.2538 35.0853 17.2538C33.7435 17.2538 32.416 17.2826 31.1171 17.3543C32.4017 15.6744 33.7292 14.1379 35.0425 12.7595ZM24.4794 21.2169C23.78 22.3227 23.0806 23.457 22.4239 24.6201C21.7674 25.7689 21.1536 26.9175 20.5682 28.0663C19.7975 26.1422 19.1408 24.218 18.5985 22.3514C20.4683 21.9063 22.4382 21.5185 24.4794 21.2169ZM11.5612 39.1946C6.50809 37.0264 3.23926 34.1832 3.23926 31.9289C3.23926 29.6745 6.50809 26.817 11.5612 24.6631C12.7888 24.1319 14.1306 23.658 15.5152 23.2129C16.3288 26.0272 17.3994 28.9565 18.7269 31.9576C17.4137 34.9444 16.3574 37.8592 15.558 40.6592C14.1449 40.2141 12.8031 39.7259 11.5612 39.1946ZM19.2407 59.7138C17.2995 58.5937 16.4573 54.329 17.1139 48.844C17.2709 47.4941 17.5279 46.0727 17.8419 44.6223C20.6397 45.3115 23.6943 45.8429 26.9061 46.1875C28.8331 48.844 30.8315 51.2562 32.8442 53.367C28.1908 57.7179 23.8229 60.1015 20.8538 60.1015C20.2114 60.0871 19.6689 59.9578 19.2407 59.7138ZM53.0994 48.7722C53.7704 54.2573 52.9424 58.5219 51.0154 59.6564C50.5872 59.9148 50.0305 60.0298 49.3738 60.0298C46.419 60.0298 42.0369 57.6604 37.3834 53.3383C39.3819 51.2276 41.3802 48.8295 43.2788 46.1732C46.5048 45.8284 49.5594 45.2972 52.3572 44.5936C52.6855 46.0439 52.9424 47.4368 53.0994 48.7722ZM58.595 39.1946C57.3674 39.7259 56.0256 40.1998 54.6411 40.6449C53.8274 37.8305 52.7568 34.9012 51.4293 31.9001C52.7425 28.9135 53.7988 25.9985 54.5982 23.1985C56.0115 23.6436 57.3531 24.1319 58.6093 24.6631C63.6624 26.8314 66.9313 29.6745 66.9313 31.9289C66.917 34.1832 63.6482 37.0407 58.595 39.1946Z" fill="#61DAFB"/>
<path d="M35.0853 38.487C38.3082 38.487 40.9211 35.5476 40.9211 31.9217C40.9211 28.2958 38.3082 25.3564 35.0853 25.3564C31.8623 25.3564 29.2495 28.2958 29.2495 31.9217C29.2495 35.5476 31.8623 38.487 35.0853 38.487Z" fill="#61DAFB"/>
</svg>
