<svg width="87" height="30" viewBox="0 0 87 30" fill="none" xmlns="http://www.w3.org/2000/svg">
<g clip-path="url(#clip0_15869_4502)">
<path d="M25.569 0.0376755C25.27 0.0666781 25.0086 0.110182 24.9861 0.124683C24.9637 0.146435 25.0459 0.436462 25.1655 0.777242L25.3747 1.3863L26.4506 1.3573C27.041 1.34279 27.5416 1.32104 27.5566 1.30654C27.5641 1.29929 27.4818 1.00201 27.3623 0.64673L27.1381 0.00867286L26.6225 0.00142223C26.3386 -0.0058284 25.8604 0.0159235 25.569 0.0376755Z" fill="#CC0000"/>
<path d="M35.3828 1.43725C35.3603 1.56051 35.3379 1.89404 35.3379 2.18406V2.71335L35.846 2.88012C36.1226 2.96714 36.5783 3.13389 36.8624 3.2499C37.1463 3.35867 37.4002 3.45293 37.4302 3.45293C37.4601 3.45293 37.5124 3.1194 37.5423 2.72061C37.5796 2.14056 37.5721 1.96655 37.49 1.92303C37.363 1.84328 36.3169 1.4735 35.8162 1.32849L35.4276 1.21973L35.3828 1.43725Z" fill="#CC0000"/>
<path d="M16.6707 2.43042C16.2522 2.65518 15.8711 2.87995 15.8189 2.93071C15.7516 2.99596 15.8561 3.19173 16.2298 3.74278C16.5064 4.14157 16.7678 4.46785 16.8052 4.46785C16.8501 4.46785 17.0219 4.38084 17.2013 4.27207C17.3731 4.17057 17.7392 3.9603 18.0232 3.81529L18.5313 3.54702L18.0082 2.77119C17.7169 2.35066 17.4702 2.00262 17.4627 2.00988C17.4478 2.00988 17.0966 2.1984 16.6707 2.43042Z" fill="#CC0000"/>
<path d="M26.22 2.14791C23.8514 2.29293 21.8114 2.86572 19.338 4.07658C14.8247 6.28803 10.4684 10.1961 7.36736 14.8075C5.55904 17.5048 3.90766 20.8763 2.83165 24.0811C2.36837 25.466 1.8453 27.4309 1.6809 28.4315C1.61365 28.8304 1.53894 29.2436 1.51651 29.3596L1.47168 29.5553H10.1545H18.8374L18.7925 29.3524C18.3667 27.373 18.2545 23.4286 18.5608 21.2896C19.1587 17.0842 20.6232 13.952 23.1415 11.4723C24.3969 10.2324 25.5102 9.47107 27.2288 8.66625C29.5528 7.57864 31.7197 7.07835 34.1258 7.07835C38.2879 7.07835 42.6965 8.61549 47.3145 11.6753C47.9197 12.0813 48.4951 12.4511 48.5922 12.5091C48.7491 12.6034 48.7865 12.5889 49.1452 12.3278C49.3619 12.1756 49.5338 12.0233 49.5338 12.0015C49.5338 11.813 46.3654 9.2898 44.8261 8.25295C38.3477 3.86631 32.0335 1.79263 26.22 2.14791Z" fill="#CC0000"/>
<path d="M35.3068 8.52121C35.2769 8.88375 35.2694 9.21003 35.2993 9.25354C35.3218 9.28978 35.5235 9.32604 35.7328 9.32604C35.9494 9.32604 36.4202 9.3768 36.7937 9.4348C37.1599 9.49281 37.4664 9.52906 37.4739 9.52182C37.4812 9.51456 37.5111 9.21003 37.541 8.84025C37.5859 8.23845 37.5784 8.17318 37.4514 8.13693C37.2721 8.08618 36.465 7.97017 35.8523 7.91217L35.3592 7.86865L35.3068 8.52121Z" fill="#CC0000"/>
<path d="M29.5071 8.62981C28.334 9.03586 28.304 9.05035 28.3339 9.13737C28.3489 9.18087 28.4684 9.5289 28.6029 9.91318L28.8421 10.6092L29.4921 10.341C29.8508 10.1887 30.2843 10.0292 30.4636 9.97845C30.6355 9.92769 30.7774 9.84793 30.7774 9.80443C30.7774 9.65941 30.3217 8.3833 30.2693 8.3833C30.2394 8.3833 29.8957 8.49205 29.5071 8.62981Z" fill="#CC0000"/>
<path d="M7.80835 9.25315C7.36747 9.69544 7.01628 10.0797 7.03122 10.116C7.07605 10.232 8.66018 11.5153 8.72743 11.4863C8.7947 11.4646 10.2294 9.86219 10.2294 9.80419C10.2294 9.76793 8.6826 8.45557 8.63778 8.45557C8.62283 8.45557 8.24921 8.8181 7.80835 9.25315Z" fill="#CC0000"/>
<path d="M23.733 12.0955C23.4865 12.3493 23.1951 12.6683 23.0829 12.8134L22.8662 13.0744L23.3893 13.8285C23.6733 14.2417 23.9348 14.5825 23.9722 14.5825C24.0021 14.5825 24.159 14.4157 24.3159 14.22C24.4728 14.017 24.7642 13.6907 24.966 13.4804L25.3321 13.1034L24.8315 12.3711C24.5551 11.9723 24.2935 11.646 24.2486 11.646C24.2039 11.646 23.9722 11.849 23.733 12.0955Z" fill="#CC0000"/>
<path d="M27.7905 21.9782V29.5552H29.9202H32.0497L32.0647 27.7715L32.0871 25.9879L33.8431 27.7715L35.5992 29.548L38.7748 29.5552H41.9506L40.5682 28.1921C39.8061 27.4453 38.7226 26.3722 38.1472 25.8139L37.116 24.7915L37.6241 24.632C39.4623 24.0883 40.6056 22.5365 40.785 20.3759C40.8895 19.0273 40.7177 17.9542 40.2544 17.0551C39.6491 15.8804 38.6553 15.0902 37.228 14.6261L36.5481 14.4014H32.1694H27.7905V21.9782ZM35.7635 18.556C36.1297 18.9403 36.2642 19.2955 36.2642 19.9118C36.2642 20.5282 36.1297 20.8834 35.7635 21.2677L35.4647 21.5795H33.761H32.0497V19.9118V18.2441H33.761H35.4647L35.7635 18.556Z" fill="#CC0000"/>
<path d="M45.8498 14.5899C44.759 14.8437 43.8099 15.5905 43.3018 16.5838C42.7937 17.5917 42.8086 17.3017 42.8086 23.733V29.5552H44.9756H47.1426V28.2139V26.8725H49.0855H51.0282V28.2139V29.5552H53.1204H55.2127V23.7258C55.2127 20.1585 55.1828 17.7513 55.1379 17.5119C54.9438 16.504 54.189 15.5253 53.2027 15.025C52.2013 14.5174 51.8725 14.4739 48.9061 14.4811C46.9334 14.4811 46.1786 14.5101 45.8498 14.5899ZM50.2436 18.1789C50.423 18.2224 50.6545 18.3531 50.7817 18.4762L50.9908 18.6865L51.0132 20.608L51.0356 22.5222H49.0481H47.0678V20.6877C47.0678 19.0056 47.0828 18.8388 47.2173 18.6285C47.3816 18.3675 47.5834 18.237 47.9645 18.1645C48.3905 18.0847 49.8849 18.0919 50.2436 18.1789Z" fill="#CC0000"/>
<path d="M57.0815 22.0143V29.5549L59.3457 29.5405L61.6023 29.5188L61.6248 21.9925L61.6397 14.4736H59.3606H57.0815V22.0143Z" fill="#CC0000"/>
<path d="M63.3584 22.0143V29.5549H68.5517H73.745V27.561V25.5672H70.7934H67.8418V20.0203V14.4736H65.6001H63.3584V22.0143Z" fill="#CC0000"/>
<path d="M78.1215 14.5896C76.8063 14.8942 75.6631 15.8875 75.1849 17.1273C75.0056 17.5842 74.9831 17.751 74.9532 18.9328C74.9233 20.3757 74.9981 20.8831 75.3643 21.6373C75.6407 22.2174 76.5374 23.0656 77.2024 23.3775C78.0168 23.7616 78.4802 23.827 80.565 23.827H82.4106V24.7333V25.6396H78.7866H75.1625V27.5973V29.5549H78.921C82.4256 29.5549 82.7245 29.5477 83.2625 29.41C84.0694 29.2141 84.6823 28.8807 85.2575 28.3224C86.2066 27.4087 86.4905 26.4807 86.4233 24.4795C86.3934 23.5297 86.356 23.1816 86.229 22.8046C85.9225 21.862 85.1679 21.021 84.2488 20.5714C83.4269 20.1726 83.1056 20.1291 80.8639 20.1291H78.824V19.2591V18.3889H82.3359H85.8479V16.4313V14.4736L82.2089 14.4809C79.3321 14.4809 78.4727 14.5099 78.1215 14.5896Z" fill="#CC0000"/>
<path d="M20.3173 17.7003C20.2427 17.8816 19.8616 19.2664 19.7643 19.7088C19.7196 19.8972 19.7868 19.9626 20.6089 20.6005C21.102 20.9776 21.5204 21.2893 21.5353 21.2893C21.5503 21.2893 21.5877 21.1009 21.6176 20.8689C21.6475 20.644 21.7446 20.064 21.8491 19.5855C21.9464 19.1142 22.021 18.7153 22.0135 18.7153C22.006 18.7081 21.6773 18.4617 21.2888 18.1644C20.3622 17.4538 20.4071 17.4756 20.3173 17.7003Z" fill="#CC0000"/>
<path d="M0.642805 19.3463C0.0524901 20.7167 -0.0297055 20.927 0.00765619 20.9632C0.0524901 21.014 2.46605 21.8696 2.54825 21.8696C2.57813 21.8696 2.60803 21.8405 2.60803 21.797C2.60803 21.7607 2.84714 21.188 3.13856 20.521C3.42998 19.8539 3.63921 19.2883 3.60185 19.2593C3.5346 19.2013 1.21817 18.3892 1.12103 18.3892C1.08367 18.3892 0.874446 18.8243 0.642805 19.3463Z" fill="#CC0000"/>
<path d="M19.4209 25.6252C19.4209 26.1038 19.6302 27.8947 19.69 27.9527C19.7422 28.0106 22.2904 28.8953 22.3201 28.8662C22.3426 28.8445 21.9093 26.5025 21.827 26.2198C21.7823 26.0747 21.6626 26.0023 21.2143 25.85C20.908 25.7413 20.3774 25.5527 20.0412 25.4368L19.4209 25.2119V25.6252Z" fill="#CC0000"/>
</g>
<defs>
<clipPath id="clip0_15869_4502">
<rect width="87" height="30" fill="white"/>
</clipPath>
</defs>
</svg>
