<svg width="160" height="27" viewBox="0 0 160 27" fill="none" xmlns="http://www.w3.org/2000/svg">
<mask id="mask0_17682_8723" style="mask-type:luminance" maskUnits="userSpaceOnUse" x="0" y="0" width="160" height="27">
<path d="M160 0H0V26.25H160V0Z" fill="white"/>
</mask>
<g mask="url(#mask0_17682_8723)">
<path d="M21.5052 12.4222C21.9715 11.8948 22.5489 11.4718 23.1978 11.1821C23.8205 10.8964 24.4993 10.7465 25.1873 10.7428C26.3717 10.7428 27.3312 11.0669 28.0658 11.715C28.8229 12.4012 29.366 13.2823 29.6325 14.2569H33.649C33.4322 13.2892 33.0759 12.3564 32.5905 11.4866C32.1202 10.6484 31.5038 9.89673 30.7689 9.26545C30.0279 8.62484 29.1754 8.11904 28.2517 7.77197C27.2724 7.40803 26.2321 7.22577 25.1843 7.23462C23.9623 7.22587 22.7519 7.46521 21.6296 7.9374C20.5396 8.39889 19.5537 9.06615 18.7286 9.9009C17.8815 10.7637 17.219 11.7825 16.7796 12.8981C16.3007 14.1248 16.0637 15.4289 16.081 16.7416C16.0637 18.0548 16.3007 19.3593 16.7796 20.5866C17.2186 21.7019 17.8813 22.7203 18.7286 23.5823C19.5534 24.4175 20.5393 25.0848 21.6296 25.5457C22.7509 26.0196 23.9611 26.2595 25.1828 26.25C26.2312 26.2592 27.2722 26.0764 28.2517 25.7112C29.176 25.3673 30.0293 24.8634 30.7705 24.2236C31.5061 23.5889 32.1222 22.8332 32.5905 21.9907C33.0761 21.1215 33.4325 20.1893 33.649 19.2219H29.628C29.3623 20.1968 28.819 21.0782 28.0613 21.7637C27.3267 22.4119 26.3672 22.7355 25.1828 22.7345C24.495 22.7302 23.8162 22.5803 23.1933 22.2953C22.5463 22.0071 21.9705 21.5861 21.5052 21.061C20.7196 20.1386 20.1981 19.0295 19.9937 17.8465C19.7894 16.6635 19.9095 15.4487 20.3418 14.3257C20.6149 13.6308 21.0085 12.9869 21.5052 12.4222Z" fill="#1A1A33"/>
<path d="M51.1057 9.90094C50.2817 9.06624 49.2968 8.39897 48.2077 7.93744C47.0825 7.47374 45.8736 7.23486 44.6523 7.23486C43.431 7.23486 42.2221 7.47374 41.0969 7.93744C40.0071 8.39856 39.0216 9.06593 38.1974 9.90094C37.3504 10.7637 36.6878 11.7826 36.2483 12.8981C35.7695 14.1248 35.5325 15.4289 35.5497 16.7416C35.5325 18.0548 35.7695 19.3594 36.2483 20.5866C36.6874 21.7019 37.3501 22.7203 38.1974 23.5823C39.0213 24.4178 40.0068 25.0852 41.0969 25.5458C42.2218 26.0106 43.4308 26.25 44.6523 26.25C45.8738 26.25 47.0828 26.0106 48.2077 25.5458C49.2971 25.0848 50.2821 24.4174 51.1057 23.5823C51.9535 22.7207 52.6162 21.7021 53.0549 20.5866C53.5335 19.3594 53.7706 18.0548 53.7532 16.7416C53.7706 15.4289 53.5335 14.1248 53.0549 12.8981C52.6159 11.7823 51.9532 10.7633 51.1057 9.90094ZM49.4986 19.1604C49.2248 19.8555 48.8307 20.4993 48.3337 21.0639C47.8669 21.589 47.2895 22.0096 46.641 22.2968C46.0183 22.5812 45.3391 22.7287 44.6515 22.7287C43.964 22.7287 43.2848 22.5812 42.6621 22.2968C42.0129 22.0074 41.4359 21.5837 40.9709 21.0551C39.9186 19.8506 39.3405 18.3191 39.3405 16.7358C39.3405 15.1524 39.9186 13.6209 40.9709 12.4164C41.4365 11.8888 42.0134 11.4657 42.6621 11.1762C43.2846 10.8909 43.9639 10.7429 44.6515 10.7429C45.3392 10.7429 46.0185 10.8909 46.641 11.1762C47.2933 11.4667 47.8733 11.8918 48.3412 12.4223C49.126 13.345 49.6472 14.454 49.8517 15.6368C50.0563 16.8196 49.9371 18.0342 49.5061 19.1575L49.4986 19.1604Z" fill="#1A1A33"/>
<path d="M69.8362 18.1882C69.8414 18.8005 69.7118 19.4068 69.4557 19.9657C69.2101 20.5045 68.8654 20.9947 68.439 21.4123C68.0153 21.828 67.512 22.1583 66.9576 22.3845C66.3963 22.6182 65.7918 22.7378 65.181 22.7359C64.5965 22.7382 64.0178 22.6184 63.4839 22.3845C62.9516 22.1532 62.4705 21.823 62.0673 21.4123C61.6536 20.9933 61.3231 20.5027 61.0928 19.9657C60.8504 19.4033 60.7281 18.7984 60.7329 18.1882V7.44104H56.9262V18.1882C56.9156 19.3041 57.1191 20.4121 57.5259 21.4548C57.8901 22.3998 58.4445 23.264 59.156 23.9966C59.8417 24.696 60.6612 25.2576 61.5682 25.6497C62.5074 26.0544 63.5245 26.259 64.5517 26.25C65.3881 26.2657 66.2229 26.1611 67.0282 25.9396C67.6253 25.7705 68.1977 25.5274 68.7315 25.2163C69.2153 24.9315 69.657 24.5837 70.0449 24.1826L70.8902 26.0421H73.6413V7.44691H69.8362V18.1882Z" fill="#1A1A33"/>
<path d="M83.379 2.48183H80.2037V4.96216C80.2153 5.29069 80.1573 5.61794 80.0334 5.92368C79.9101 6.22941 79.7235 6.50709 79.4853 6.73948C79.2476 6.97193 78.963 7.15413 78.65 7.27478C78.3369 7.39548 78.0018 7.45204 77.6655 7.44103H76.1846V10.9551H79.5696V19.8427C79.5565 20.75 79.7088 21.6523 80.0192 22.5076C80.289 23.2526 80.7138 23.935 81.2667 24.512C81.7984 25.0604 82.4393 25.4969 83.1497 25.7947C83.8912 26.1018 84.6892 26.2569 85.4945 26.25C86.0115 26.2605 86.5269 26.1904 87.0207 26.0421C87.2278 25.9957 87.4292 25.9264 87.6205 25.8356V22.5295C87.4998 22.5875 87.3717 22.6289 87.24 22.6525C87.0913 22.6817 86.9411 22.7028 86.7899 22.7155C86.6402 22.7301 86.49 22.7345 86.3403 22.7345C85.9488 22.7442 85.5593 22.676 85.1951 22.5341C84.8315 22.3922 84.501 22.1795 84.2238 21.9091C83.9471 21.6386 83.7289 21.316 83.5835 20.9608C83.438 20.6056 83.3679 20.2252 83.3779 19.8427V10.9551H87.6099V7.44103H83.379V2.48183Z" fill="#1A1A33"/>
<path d="M119.366 5.26041e-05C119.06 -0.00189469 118.757 0.0556026 118.473 0.169204C118.19 0.282807 117.932 0.450249 117.716 0.661806C117.5 0.873365 117.328 1.12483 117.212 1.40157C117.096 1.67832 117.037 1.97486 117.039 2.27394C117.034 2.57323 117.091 2.87049 117.207 3.14746C117.324 3.42443 117.496 3.67526 117.716 3.88455C118.155 4.30768 118.748 4.54488 119.365 4.54488C119.982 4.54488 120.574 4.30768 121.014 3.88455C121.234 3.67575 121.407 3.42505 121.524 3.14798C121.64 2.87092 121.698 2.57342 121.692 2.27394C121.697 1.97454 121.64 1.67722 121.523 1.40024C121.406 1.12327 121.234 0.872496 121.014 0.663329C120.8 0.448964 120.544 0.27955 120.26 0.16549C119.977 0.051431 119.672 -0.00486705 119.366 5.26041e-05Z" fill="#1A1A33"/>
<path d="M117.456 20.7081C114.934 22.373 112.52 22.9937 110.274 22.5574C107.649 22.0435 105.742 20.1943 104.777 19.0434L114.472 7.44113H110.033L103.474 15.5015V0.00158691H99.6641V26.0422H103.474V22.7097C104.904 24.0275 106.942 25.4082 109.552 25.9309C110.267 26.0741 110.995 26.1462 111.724 26.1462C113.613 26.1462 115.532 25.6659 117.462 24.7098V26.0466H121.271V7.45137H117.456V20.7081Z" fill="#1A1A33"/>
<path d="M138.836 9.30053C138.448 8.90215 138.007 8.5573 137.524 8.2756C136.996 7.99482 136.445 7.75966 135.875 7.57282C135.123 7.33688 134.336 7.22503 133.547 7.24186C132.324 7.23301 131.114 7.47235 129.992 7.94469C128.901 8.40541 127.915 9.07277 127.091 9.90819C126.243 10.7705 125.581 11.7895 125.142 12.9054C124.663 14.1321 124.426 15.4361 124.443 16.7489C124.426 18.0621 124.663 19.3666 125.142 20.5938C125.58 21.7094 126.243 22.728 127.091 23.5896C127.915 24.4254 128.901 25.0928 129.992 25.553C131.113 26.0246 132.324 26.2619 133.545 26.25C134.381 26.2657 135.215 26.1611 136.02 25.9396C136.621 25.7715 137.198 25.5284 137.735 25.2163C138.219 24.9314 138.66 24.5837 139.047 24.1826L139.892 26.0421H142.643V0H138.836V9.30053ZM138.815 19.1604C138.538 19.8628 138.128 20.5083 137.608 21.0638C137.115 21.588 136.517 22.0076 135.851 22.2967C135.19 22.5825 134.475 22.7302 133.752 22.7302C133.029 22.7302 132.314 22.5825 131.653 22.2967C130.988 22.0062 130.391 21.5856 129.899 21.0609C129.381 20.5048 128.975 19.8593 128.7 19.1575C128.107 17.5988 128.107 15.8842 128.7 14.3257C128.975 13.6241 129.381 12.9786 129.899 12.4222C130.391 11.8961 130.989 11.474 131.655 11.182C132.315 10.8952 133.03 10.747 133.753 10.747C134.476 10.747 135.191 10.8952 135.852 11.182C136.518 11.4736 137.117 11.8957 137.609 12.4222C138.129 12.9781 138.539 13.6235 138.816 14.3257C139.407 15.8846 139.407 17.5985 138.816 19.1575L138.815 19.1604Z" fill="#1A1A33"/>
<path d="M150.477 22.5295L159.576 10.7486V7.44104H145.82V10.9537H154.92L145.82 22.7345V26.0421H160V22.5295H150.477Z" fill="#1A1A33"/>
<path d="M11.5336 16.2935C10.7634 15.8999 9.94607 15.6013 9.10035 15.4048C8.2248 15.1949 7.41224 14.9933 6.6626 14.8001C6.00439 14.6415 5.3707 14.3983 4.77806 14.0768C4.54289 13.9574 4.34679 13.776 4.21212 13.5531C4.07746 13.3302 4.00966 13.0748 4.01645 12.8161C4.01645 12.2939 4.27032 11.8185 4.77806 11.39C5.2858 10.9614 6.01941 10.7477 6.97892 10.7487C7.93847 10.7487 8.67905 10.9693 9.2008 11.4105C9.70464 11.8193 10.0423 12.3905 10.1528 13.0211H13.9668C13.8549 11.2591 13.2193 9.85452 12.0599 8.80714C10.9005 7.75977 9.20828 7.23605 6.98345 7.23605C6.05441 7.22324 5.13048 7.37199 4.25482 7.6753C3.49557 7.93816 2.79739 8.34576 2.20088 8.87447C1.64365 9.37342 1.19673 9.9783 0.887547 10.652C0.576523 11.3349 0.418081 12.0746 0.422784 12.822C0.422784 13.925 0.676652 14.8001 1.18439 15.4473C1.68874 16.089 2.33032 16.6157 3.06443 16.9905C3.83488 17.3848 4.65282 17.6834 5.49919 17.8792C6.37373 18.0852 7.18482 18.2848 7.93246 18.4781C8.59072 18.6392 9.22399 18.8853 9.81547 19.2102C10.0512 19.329 10.2478 19.5104 10.3828 19.7333C10.5177 19.9563 10.5856 20.2119 10.5786 20.4709C10.579 20.7814 10.5068 21.0879 10.3676 21.3669C10.2283 21.6461 10.0256 21.8905 9.77499 22.0815C9.23927 22.5178 8.37969 22.736 7.19631 22.736C6.12287 22.736 5.31826 22.4949 4.78256 22.0126C4.24683 21.5305 3.924 20.876 3.81405 20.0492H0C0.112942 22.0356 0.754615 23.5657 1.92502 24.6394C3.09542 25.7132 4.85252 26.25 7.19631 26.25C9.42421 26.25 11.1453 25.699 12.3597 24.597C13.5741 23.4949 14.1808 22.1171 14.1798 20.4635C14.1798 19.3615 13.9259 18.4864 13.4182 17.8383C12.9127 17.1955 12.2695 16.6682 11.5336 16.2935Z" fill="#1A1A33"/>
</g>
</svg>
