<svg width="68" height="41" viewBox="0 0 68 41" fill="none" xmlns="http://www.w3.org/2000/svg">
<path d="M32.6778 0.580471C37.0221 0.580471 41.3535 0.567182 45.6903 0.580471C48.6143 0.591859 51.4873 0.960101 54.2431 2.00029C59.9268 4.15088 63.6876 8.14649 65.2555 14.0345C67.0083 20.5832 65.5955 26.5091 61.2888 31.7024C58.9843 34.4813 56.0093 36.3017 52.5753 37.3818C49.4303 38.3727 46.2078 38.5207 42.942 38.3613C39.4309 38.1886 35.9482 37.6395 32.5532 36.7231C28.8379 35.7147 25.2268 34.3519 21.7695 32.6534C19.0003 31.302 16.3483 29.7684 13.9778 27.7771C13.755 27.5922 13.5431 27.3945 13.3432 27.1849C13.0712 26.8945 12.8898 26.5528 13.0786 26.1542C13.2675 25.7556 13.6226 25.7139 14.008 25.7139C17.3123 25.7139 20.616 25.7139 23.919 25.7139C24.0575 25.7203 24.1964 25.7171 24.3345 25.7044C24.7028 25.657 25.0258 25.526 25.1355 25.1253C25.245 24.7249 25.0466 24.4384 24.7368 24.2199C24.3428 23.9721 23.9299 23.7564 23.5015 23.5746C20.1835 21.9296 16.9422 20.1453 13.7775 18.2219C11.1223 16.6475 8.58044 14.8874 6.17098 12.9545C5.31508 12.2518 4.49546 11.5055 3.7155 10.7185C3.45415 10.4952 3.27645 10.1893 3.21117 9.85102C3.13183 9.20754 3.46798 8.79946 4.11012 8.76718C4.22346 8.76718 4.33679 8.76718 4.45216 8.76718H26.3121C26.5386 8.78253 26.7657 8.75682 26.9828 8.69126C27.1168 8.65231 27.2369 8.57539 27.3287 8.4697C27.4205 8.36402 27.4801 8.23402 27.5003 8.09524C27.525 7.95705 27.5085 7.81457 27.4527 7.68585C27.397 7.55711 27.3042 7.44792 27.1868 7.37204C26.656 6.99241 26.0288 6.82538 25.4415 6.57102C22.7725 5.41696 20.1375 4.19454 17.7158 2.55835C17.4254 2.38079 17.1586 2.16645 16.9225 1.92056C16.822 1.82299 16.7504 1.69933 16.7157 1.56333C16.6811 1.42732 16.6845 1.2843 16.7257 1.15016C16.7672 1.01602 16.8445 0.896018 16.9497 0.803488C17.0548 0.710958 17.1834 0.649528 17.3212 0.626024C17.4925 0.586356 17.6684 0.569132 17.8443 0.574776L32.6778 0.580471ZM47.2505 32.1523C54.162 32.1316 59.7928 26.8984 60.095 19.8239C60.4048 12.6318 54.9401 6.87663 47.8532 6.57671C40.7358 6.27491 34.544 11.7777 34.425 19.0874C34.3078 26.0328 39.8348 32.0291 47.2448 32.1523H47.2505Z" fill="#FE622C"/>
<path d="M47.2448 32.1529C39.8346 32.0296 34.3078 26.0334 34.4211 19.088C34.5401 11.7782 40.732 6.27546 47.8493 6.57727C54.9365 6.87719 60.401 12.6324 60.0911 19.8244C59.7872 26.8989 54.1563 32.1321 47.2448 32.1529ZM55.3105 20.6103C55.5238 20.6103 55.7391 20.6255 55.9527 20.6103C57.0273 20.5249 57.3428 20.1756 57.322 19.0918C57.2918 17.1026 56.6159 15.1777 55.3973 13.6099C53.3403 10.9145 50.5881 9.59343 47.209 9.59724C46.6233 9.59724 46.3155 9.83071 46.204 10.3698C46.0677 11.0415 46.0646 11.7335 46.1947 12.4065C46.2287 12.6146 46.3268 12.8068 46.4751 12.956C46.6235 13.1051 46.8148 13.2037 47.022 13.2379C47.1947 13.2738 47.3695 13.2992 47.5451 13.3138C50.2955 13.589 52.3165 15.322 53.0021 18.0193C53.1456 18.5793 53.225 19.1582 53.344 19.7276C53.4516 20.2382 53.7916 20.4869 54.2885 20.5609C54.6264 20.6138 54.9689 20.6303 55.3105 20.6103Z" fill="#FEFEFD"/>
<path d="M55.3103 20.6102C54.9708 20.6299 54.6301 20.6133 54.2942 20.5609C53.7917 20.4868 53.4517 20.2382 53.3497 19.7276C53.2307 19.1581 53.1609 18.5887 53.0079 18.0193C52.3222 15.322 50.301 13.589 47.5509 13.3137C47.375 13.2991 47.2002 13.2737 47.0275 13.2378C46.8203 13.2037 46.6292 13.1051 46.4808 12.9559C46.3323 12.8068 46.2342 12.6146 46.2002 12.4064C46.07 11.7335 46.0734 11.0414 46.2097 10.3697C46.3212 9.83064 46.629 9.59717 47.2145 9.59717C50.5939 9.59717 53.3458 10.9145 55.4028 13.6099C56.6216 15.1777 57.2975 17.1025 57.3277 19.0917C57.3485 20.1718 57.033 20.521 55.9582 20.6102C55.7392 20.6254 55.5332 20.6102 55.3103 20.6102Z" fill="#FE622C"/>
</svg>
