<svg width="56" height="56" viewBox="0 0 56 56" fill="none" xmlns="http://www.w3.org/2000/svg">
<g clip-path="url(#clip0_15869_4040)">
<mask id="mask0_15869_4040" style="mask-type:luminance" maskUnits="userSpaceOnUse" x="0" y="0" width="56" height="56">
<path d="M56 0H0V56H56V0Z" fill="white"/>
</mask>
<g mask="url(#mask0_15869_4040)">
<path d="M12.4476 0H43.4664C44.9758 0 46.4414 0.240625 47.8633 0.74375C49.9196 1.4875 51.7789 2.8 53.1789 4.50625C54.6008 6.2125 55.5414 8.3125 55.8696 10.5C56.0008 11.3094 56.0226 12.1187 56.0226 12.9281V43.1813C56.0226 44.1437 55.9789 45.1282 55.7821 46.0687C55.3446 48.2343 54.3164 50.2687 52.8289 51.9093C51.3633 53.55 49.4383 54.775 47.3601 55.4313C46.0914 55.825 44.7789 56 43.4446 56C42.8539 56 12.3601 56 11.9008 55.9782C9.6695 55.8687 7.46012 55.1468 5.60074 53.9C3.78512 52.675 2.29762 50.9687 1.33512 49C0.50387 47.3157 0.0882449 45.4343 0.0882449 43.5532V12.4469C0.0444949 10.5875 0.438245 8.75 1.24762 7.0875C2.18824 5.11875 3.65387 3.39063 5.46949 2.16563C7.32887 0.896875 9.51637 0.153125 11.7476 0.04375C11.9664 0 12.207 0 12.4476 0Z" fill="url(#paint0_linear_15869_4040)"/>
<path d="M47.25 45.8063C47.0532 45.5 46.8343 45.1937 46.5938 44.9093C46.0468 44.2532 45.4125 43.6843 44.7125 43.2032C43.8375 42.6125 42.8093 42.2407 41.7593 42.1968C41.0157 42.1532 40.2718 42.2843 39.5718 42.5468C38.8718 42.7875 38.1938 43.1375 37.5375 43.4875C36.7718 43.8813 36.0063 44.275 35.1968 44.6032C34.2343 44.9968 33.2282 45.3032 32.2 45.5218C30.9093 45.7625 29.5968 45.85 28.3063 45.8282C25.9657 45.7843 23.625 45.4343 21.3938 44.7782C19.425 44.1875 17.5438 43.3782 15.7718 42.35C14.2188 41.4532 12.775 40.425 11.4187 39.2657C10.3031 38.3032 9.275 37.275 8.3125 36.1813C7.65625 35.4157 7.02188 34.6062 6.43125 33.775C6.19063 33.4468 5.97188 33.0968 5.775 32.7468L0 26.5125V12.4031C0 5.55625 5.53438 0 12.3812 0H23.4282L31.6093 8.3125C50.0718 20.8687 44.1 34.7157 44.1 34.7157C44.1 34.7157 49.35 40.6218 47.25 45.8063Z" fill="url(#paint1_linear_15869_4040)"/>
<path d="M31.6531 8.3125C50.1154 20.8687 44.1436 34.7157 44.1436 34.7157C44.1436 34.7157 49.3936 40.6437 47.2717 45.8282C47.2717 45.8282 45.1061 42.1968 41.4749 42.1968C37.9749 42.1968 35.9186 45.8282 28.8749 45.8282C13.1905 45.8282 5.7749 32.725 5.7749 32.725C19.9061 42.0218 29.5531 35.4375 29.5531 35.4375C23.1874 31.7407 9.64677 14.0657 9.64677 14.0657C21.4374 24.1063 26.5342 26.7532 26.5342 26.7532C23.4936 24.2375 14.9624 11.9437 14.9624 11.9437C21.7874 18.8563 35.3499 28.5032 35.3499 28.5032C39.1999 17.8282 31.6531 8.3125 31.6531 8.3125Z" fill="white"/>
</g>
</g>
<defs>
<linearGradient id="paint0_linear_15869_4040" x1="33.3145" y1="-1.99828" x2="22.7341" y2="58.0051" gradientUnits="userSpaceOnUse">
<stop stop-color="#FAAE42"/>
<stop offset="1" stop-color="#EF3E31"/>
</linearGradient>
<linearGradient id="paint1_linear_15869_4040" x1="28.5713" y1="0.90475" x2="20.8278" y2="44.8203" gradientUnits="userSpaceOnUse">
<stop stop-color="#E39F3A"/>
<stop offset="1" stop-color="#D33929"/>
</linearGradient>
<clipPath id="clip0_15869_4040">
<rect width="56" height="56" fill="white"/>
</clipPath>
</defs>
</svg>
