<svg width="50" height="50" viewBox="0 0 50 50" fill="none" xmlns="http://www.w3.org/2000/svg">
<g clip-path="url(#clip0_18967_12978)">
<path d="M24.7826 49.5652C38.4697 49.5652 49.5652 38.4697 49.5652 24.7826C49.5652 11.0955 38.4697 0 24.7826 0C11.0955 0 0 11.0955 0 24.7826C0 38.4697 11.0955 49.5652 24.7826 49.5652Z" fill="#AD0DCE"/>
<path d="M23.6561 15.9004C24.6994 15.9004 25.6725 16.6519 26.0238 17.8565C26.1528 18.36 26.2052 18.8646 26.2555 19.351L26.3027 19.7933C26.4831 21.2695 26.4831 28.5217 26.3027 30.0086L26.2555 30.467C26.2104 30.9297 26.1643 31.4086 26.0311 31.9196C25.6799 33.121 24.7435 33.9004 23.6802 33.9004C23.6466 33.9004 23.6131 33.9004 23.5753 33.8993C22.9881 33.8993 22.3495 33.5386 21.9877 33.224L18.4613 30.2834H16.6504C15.2526 30.2834 14.2292 29.271 14.0436 27.7046C13.8297 26.1383 13.8716 23.451 14.0436 22.0274C14.2459 20.5448 15.3176 19.5174 16.6504 19.5174H18.4613L21.9206 16.6197C22.338 16.2568 23.0741 15.8983 23.6561 15.9004ZM32.1885 16.1215C32.6058 15.8252 33.1794 15.9336 33.4657 16.3577C35.0344 18.667 35.8984 21.702 35.8984 24.9003C35.8984 28.1007 35.0344 31.1347 33.4657 33.444C33.2948 33.6963 33.0127 33.8477 32.7118 33.8477C32.5251 33.8477 32.3447 33.7897 32.1895 33.6802C31.7743 33.3828 31.6715 32.7977 31.9589 32.3726C33.3157 30.3735 34.0634 27.7196 34.0634 24.9003C34.0634 22.0821 33.3157 19.4282 31.9589 17.4291C31.6715 17.005 31.7743 16.4189 32.1885 16.1215ZM29.0268 19.1588C29.4452 18.8635 30.0166 18.9698 30.305 19.395C31.318 20.8873 31.8769 22.8423 31.8769 24.9004C31.8769 26.9585 31.318 28.9135 30.305 30.4058C30.133 30.6581 29.852 30.8095 29.5511 30.8095C29.3644 30.8095 29.183 30.7515 29.0278 30.642C28.6126 30.3446 28.5098 29.7584 28.7982 29.3344C29.6004 28.1523 30.0418 26.5774 30.0418 24.9004C30.0418 23.2224 29.6004 21.6485 28.7982 20.4664C28.5098 20.0424 28.6126 19.4562 29.0268 19.1588Z" fill="white"/>
</g>
<defs>
<clipPath id="clip0_18967_12978">
<rect width="50" height="50" fill="white"/>
</clipPath>
</defs>
</svg>
