<svg width="31" height="32" viewBox="0 0 31 32" fill="none" xmlns="http://www.w3.org/2000/svg">
<g clip-path="url(#clip0_16490_16405)">
<path fill-rule="evenodd" clip-rule="evenodd" d="M26.0828 5.18047C23.2509 2.34604 19.4859 0.783823 15.4751 0.782562C7.21012 0.782562 0.483385 7.50804 0.479603 15.7768C0.478342 18.4196 1.1693 20.9993 2.48186 23.274L0.353516 31.0434L8.30204 28.958C10.4922 30.1533 12.9584 30.7824 15.4676 30.7837H15.4739C23.7376 30.7837 30.4656 24.057 30.4694 15.7882C30.4719 11.7824 28.9135 8.01365 26.0828 5.18047ZM15.4751 28.2506H15.4701C13.2333 28.2506 11.0406 27.6492 9.12665 26.5131L8.67147 26.2433L3.95456 27.4802L5.21417 22.8806L4.91786 22.409C3.6696 20.4244 3.01143 18.1309 3.01269 15.7768C3.01521 8.90508 8.60717 3.31439 15.4814 3.31439C18.8101 3.31439 21.9396 4.61308 24.2924 6.96839C26.6452 9.32495 27.9401 12.4557 27.9388 15.7856C27.935 22.6599 22.3443 28.2506 15.4751 28.2506ZM22.3116 18.9164C21.9371 18.7285 20.0949 17.822 19.7507 17.6971C19.4078 17.5723 19.1581 17.5093 18.9072 17.8837C18.6563 18.2582 17.9401 19.103 17.7207 19.3539C17.5026 19.6036 17.2832 19.6351 16.9087 19.4472C16.5343 19.2593 15.3263 18.8647 13.8953 17.5874C12.7819 16.5939 12.0292 15.367 11.811 14.9913C11.5929 14.6156 11.7883 14.4138 11.9749 14.2272C12.1439 14.0595 12.3494 13.7897 12.5373 13.5703C12.7264 13.3534 12.7882 13.1971 12.9143 12.9462C13.0391 12.6965 12.9773 12.4771 12.8828 12.2893C12.7882 12.1026 12.0393 10.258 11.7278 9.50778C11.424 8.77647 11.115 8.87608 10.8843 8.86474C10.6662 8.85339 10.4165 8.85213 10.1656 8.85213C9.91595 8.85213 9.50995 8.94543 9.16699 9.32117C8.82404 9.69691 7.85569 10.6035 7.85569 12.4469C7.85569 14.2915 9.19851 16.0731 9.38512 16.3228C9.57173 16.5724 12.0266 20.3576 15.7853 21.9803C16.6793 22.3661 17.3778 22.5969 17.9212 22.7696C18.8189 23.0546 19.636 23.0142 20.2816 22.9184C21.0015 22.8112 22.4982 22.0118 22.8109 21.1368C23.1236 20.2617 23.1236 19.5103 23.029 19.3552C22.9357 19.1976 22.686 19.1043 22.3116 18.9164Z" fill="white"/>
</g>
<defs>
<clipPath id="clip0_16490_16405">
<rect width="30.2609" height="30.2609" fill="white" transform="translate(0.285156 0.782593)"/>
</clipPath>
</defs>
</svg>
