<svg width="24" height="18" viewBox="0 0 24 18" fill="none" xmlns="http://www.w3.org/2000/svg">
<g clip-path="url(#clip0_18581_947)">
<path d="M23.3968 3.2116C23.1241 2.18338 22.3207 1.37288 21.2998 1.09777C19.4509 0.598999 12.0343 0.598999 12.0343 0.598999C12.0343 0.598999 4.6178 0.598999 2.76786 1.09777C1.74803 1.37288 0.944611 2.18239 0.671864 3.2116C0.175781 5.07604 0.175781 8.96526 0.175781 8.96526C0.175781 8.96526 0.175781 12.8545 0.671864 14.7189C0.944611 15.7471 1.74803 16.5576 2.76885 16.8327C4.6178 17.3315 12.0343 17.3315 12.0343 17.3315C12.0343 17.3315 19.4509 17.3315 21.3008 16.8327C22.3207 16.5576 23.1241 15.7481 23.3978 14.7189C23.8929 12.8545 23.8929 8.96526 23.8929 8.96526C23.8929 8.96526 23.8929 5.07604 23.3968 3.2116ZM9.60926 12.4972V5.4333L15.8073 8.96526L9.60926 12.4972Z" fill="white"/>
</g>
<defs>
<clipPath id="clip0_18581_947">
<rect width="23.7171" height="16.6898" fill="white" transform="translate(0.175781 0.620361)"/>
</clipPath>
</defs>
</svg>
